G04 #@! TF.GenerationSoftware,KiCad,Pcbnew,(5.1.4-0-10_14)*
G04 #@! TF.CreationDate,2019-11-18T16:06:03-06:00*
G04 #@! TF.ProjectId,CircuitPythonBadge v1_3,43697263-7569-4745-9079-74686f6e4261,rev?*
G04 #@! TF.SameCoordinates,Original*
G04 #@! TF.FileFunction,Legend,Top*
G04 #@! TF.FilePolarity,Positive*
%FSLAX46Y46*%
G04 Gerber Fmt 4.6, Leading zero omitted, Abs format (unit mm)*
G04 Created by KiCad (PCBNEW (5.1.4-0-10_14)) date 2019-11-18 16:06:03*
%MOMM*%
%LPD*%
G04 APERTURE LIST*
%ADD10C,0.150000*%
%ADD11C,0.125000*%
%ADD12C,0.066040*%
%ADD13C,0.203200*%
%ADD14C,0.120000*%
%ADD15C,0.152400*%
%ADD16C,0.406400*%
%ADD17C,0.127000*%
%ADD18C,0.038100*%
%ADD19C,0.200000*%
%ADD20C,0.500000*%
%ADD21C,0.025400*%
G04 APERTURE END LIST*
D10*
X123009523Y-130004761D02*
X123152380Y-130052380D01*
X123390476Y-130052380D01*
X123485714Y-130004761D01*
X123533333Y-129957142D01*
X123580952Y-129861904D01*
X123580952Y-129766666D01*
X123533333Y-129671428D01*
X123485714Y-129623809D01*
X123390476Y-129576190D01*
X123200000Y-129528571D01*
X123104761Y-129480952D01*
X123057142Y-129433333D01*
X123009523Y-129338095D01*
X123009523Y-129242857D01*
X123057142Y-129147619D01*
X123104761Y-129100000D01*
X123200000Y-129052380D01*
X123438095Y-129052380D01*
X123580952Y-129100000D01*
X124580952Y-129957142D02*
X124533333Y-130004761D01*
X124390476Y-130052380D01*
X124295238Y-130052380D01*
X124152380Y-130004761D01*
X124057142Y-129909523D01*
X124009523Y-129814285D01*
X123961904Y-129623809D01*
X123961904Y-129480952D01*
X124009523Y-129290476D01*
X124057142Y-129195238D01*
X124152380Y-129100000D01*
X124295238Y-129052380D01*
X124390476Y-129052380D01*
X124533333Y-129100000D01*
X124580952Y-129147619D01*
X125485714Y-130052380D02*
X125009523Y-130052380D01*
X125009523Y-129052380D01*
X127985714Y-125104761D02*
X128128571Y-125152380D01*
X128366666Y-125152380D01*
X128461904Y-125104761D01*
X128509523Y-125057142D01*
X128557142Y-124961904D01*
X128557142Y-124866666D01*
X128509523Y-124771428D01*
X128461904Y-124723809D01*
X128366666Y-124676190D01*
X128176190Y-124628571D01*
X128080952Y-124580952D01*
X128033333Y-124533333D01*
X127985714Y-124438095D01*
X127985714Y-124342857D01*
X128033333Y-124247619D01*
X128080952Y-124200000D01*
X128176190Y-124152380D01*
X128414285Y-124152380D01*
X128557142Y-124200000D01*
X128985714Y-125152380D02*
X128985714Y-124152380D01*
X129223809Y-124152380D01*
X129366666Y-124200000D01*
X129461904Y-124295238D01*
X129509523Y-124390476D01*
X129557142Y-124580952D01*
X129557142Y-124723809D01*
X129509523Y-124914285D01*
X129461904Y-125009523D01*
X129366666Y-125104761D01*
X129223809Y-125152380D01*
X128985714Y-125152380D01*
X129938095Y-124866666D02*
X130414285Y-124866666D01*
X129842857Y-125152380D02*
X130176190Y-124152380D01*
X130509523Y-125152380D01*
X85483333Y-61854761D02*
X85626190Y-61902380D01*
X85864285Y-61902380D01*
X85959523Y-61854761D01*
X86007142Y-61807142D01*
X86054761Y-61711904D01*
X86054761Y-61616666D01*
X86007142Y-61521428D01*
X85959523Y-61473809D01*
X85864285Y-61426190D01*
X85673809Y-61378571D01*
X85578571Y-61330952D01*
X85530952Y-61283333D01*
X85483333Y-61188095D01*
X85483333Y-61092857D01*
X85530952Y-60997619D01*
X85578571Y-60950000D01*
X85673809Y-60902380D01*
X85911904Y-60902380D01*
X86054761Y-60950000D01*
X86340476Y-61235714D02*
X86721428Y-61235714D01*
X86483333Y-60902380D02*
X86483333Y-61759523D01*
X86530952Y-61854761D01*
X86626190Y-61902380D01*
X86721428Y-61902380D01*
X87483333Y-61902380D02*
X87483333Y-61378571D01*
X87435714Y-61283333D01*
X87340476Y-61235714D01*
X87150000Y-61235714D01*
X87054761Y-61283333D01*
X87483333Y-61854761D02*
X87388095Y-61902380D01*
X87150000Y-61902380D01*
X87054761Y-61854761D01*
X87007142Y-61759523D01*
X87007142Y-61664285D01*
X87054761Y-61569047D01*
X87150000Y-61521428D01*
X87388095Y-61521428D01*
X87483333Y-61473809D01*
X87816666Y-61235714D02*
X88197619Y-61235714D01*
X87959523Y-60902380D02*
X87959523Y-61759523D01*
X88007142Y-61854761D01*
X88102380Y-61902380D01*
X88197619Y-61902380D01*
X88959523Y-61235714D02*
X88959523Y-61902380D01*
X88530952Y-61235714D02*
X88530952Y-61759523D01*
X88578571Y-61854761D01*
X88673809Y-61902380D01*
X88816666Y-61902380D01*
X88911904Y-61854761D01*
X88959523Y-61807142D01*
X89388095Y-61854761D02*
X89483333Y-61902380D01*
X89673809Y-61902380D01*
X89769047Y-61854761D01*
X89816666Y-61759523D01*
X89816666Y-61711904D01*
X89769047Y-61616666D01*
X89673809Y-61569047D01*
X89530952Y-61569047D01*
X89435714Y-61521428D01*
X89388095Y-61426190D01*
X89388095Y-61378571D01*
X89435714Y-61283333D01*
X89530952Y-61235714D01*
X89673809Y-61235714D01*
X89769047Y-61283333D01*
X80573809Y-61902380D02*
X80573809Y-60902380D01*
X80954761Y-60902380D01*
X81050000Y-60950000D01*
X81097619Y-60997619D01*
X81145238Y-61092857D01*
X81145238Y-61235714D01*
X81097619Y-61330952D01*
X81050000Y-61378571D01*
X80954761Y-61426190D01*
X80573809Y-61426190D01*
X81716666Y-61902380D02*
X81621428Y-61854761D01*
X81573809Y-61807142D01*
X81526190Y-61711904D01*
X81526190Y-61426190D01*
X81573809Y-61330952D01*
X81621428Y-61283333D01*
X81716666Y-61235714D01*
X81859523Y-61235714D01*
X81954761Y-61283333D01*
X82002380Y-61330952D01*
X82050000Y-61426190D01*
X82050000Y-61711904D01*
X82002380Y-61807142D01*
X81954761Y-61854761D01*
X81859523Y-61902380D01*
X81716666Y-61902380D01*
X82383333Y-61235714D02*
X82573809Y-61902380D01*
X82764285Y-61426190D01*
X82954761Y-61902380D01*
X83145238Y-61235714D01*
X83907142Y-61854761D02*
X83811904Y-61902380D01*
X83621428Y-61902380D01*
X83526190Y-61854761D01*
X83478571Y-61759523D01*
X83478571Y-61378571D01*
X83526190Y-61283333D01*
X83621428Y-61235714D01*
X83811904Y-61235714D01*
X83907142Y-61283333D01*
X83954761Y-61378571D01*
X83954761Y-61473809D01*
X83478571Y-61569047D01*
X84383333Y-61902380D02*
X84383333Y-61235714D01*
X84383333Y-61426190D02*
X84430952Y-61330952D01*
X84478571Y-61283333D01*
X84573809Y-61235714D01*
X84669047Y-61235714D01*
X109980952Y-118452380D02*
X109647619Y-117976190D01*
X109409523Y-118452380D02*
X109409523Y-117452380D01*
X109790476Y-117452380D01*
X109885714Y-117500000D01*
X109933333Y-117547619D01*
X109980952Y-117642857D01*
X109980952Y-117785714D01*
X109933333Y-117880952D01*
X109885714Y-117928571D01*
X109790476Y-117976190D01*
X109409523Y-117976190D01*
X110409523Y-118452380D02*
X110409523Y-117785714D01*
X110409523Y-117452380D02*
X110361904Y-117500000D01*
X110409523Y-117547619D01*
X110457142Y-117500000D01*
X110409523Y-117452380D01*
X110409523Y-117547619D01*
X111314285Y-117785714D02*
X111314285Y-118595238D01*
X111266666Y-118690476D01*
X111219047Y-118738095D01*
X111123809Y-118785714D01*
X110980952Y-118785714D01*
X110885714Y-118738095D01*
X111314285Y-118404761D02*
X111219047Y-118452380D01*
X111028571Y-118452380D01*
X110933333Y-118404761D01*
X110885714Y-118357142D01*
X110838095Y-118261904D01*
X110838095Y-117976190D01*
X110885714Y-117880952D01*
X110933333Y-117833333D01*
X111028571Y-117785714D01*
X111219047Y-117785714D01*
X111314285Y-117833333D01*
X111790476Y-118452380D02*
X111790476Y-117452380D01*
X112219047Y-118452380D02*
X112219047Y-117928571D01*
X112171428Y-117833333D01*
X112076190Y-117785714D01*
X111933333Y-117785714D01*
X111838095Y-117833333D01*
X111790476Y-117880952D01*
X112552380Y-117785714D02*
X112933333Y-117785714D01*
X112695238Y-117452380D02*
X112695238Y-118309523D01*
X112742857Y-118404761D01*
X112838095Y-118452380D01*
X112933333Y-118452380D01*
X97933333Y-118452380D02*
X97933333Y-117452380D01*
X98266666Y-118166666D01*
X98600000Y-117452380D01*
X98600000Y-118452380D01*
X99076190Y-118452380D02*
X99076190Y-117785714D01*
X99076190Y-117452380D02*
X99028571Y-117500000D01*
X99076190Y-117547619D01*
X99123809Y-117500000D01*
X99076190Y-117452380D01*
X99076190Y-117547619D01*
X99980952Y-118452380D02*
X99980952Y-117452380D01*
X99980952Y-118404761D02*
X99885714Y-118452380D01*
X99695238Y-118452380D01*
X99600000Y-118404761D01*
X99552380Y-118357142D01*
X99504761Y-118261904D01*
X99504761Y-117976190D01*
X99552380Y-117880952D01*
X99600000Y-117833333D01*
X99695238Y-117785714D01*
X99885714Y-117785714D01*
X99980952Y-117833333D01*
X100885714Y-118452380D02*
X100885714Y-117452380D01*
X100885714Y-118404761D02*
X100790476Y-118452380D01*
X100600000Y-118452380D01*
X100504761Y-118404761D01*
X100457142Y-118357142D01*
X100409523Y-118261904D01*
X100409523Y-117976190D01*
X100457142Y-117880952D01*
X100504761Y-117833333D01*
X100600000Y-117785714D01*
X100790476Y-117785714D01*
X100885714Y-117833333D01*
X101504761Y-118452380D02*
X101409523Y-118404761D01*
X101361904Y-118309523D01*
X101361904Y-117452380D01*
X102266666Y-118404761D02*
X102171428Y-118452380D01*
X101980952Y-118452380D01*
X101885714Y-118404761D01*
X101838095Y-118309523D01*
X101838095Y-117928571D01*
X101885714Y-117833333D01*
X101980952Y-117785714D01*
X102171428Y-117785714D01*
X102266666Y-117833333D01*
X102314285Y-117928571D01*
X102314285Y-118023809D01*
X101838095Y-118119047D01*
X87909523Y-118452380D02*
X87433333Y-118452380D01*
X87433333Y-117452380D01*
X88623809Y-118404761D02*
X88528571Y-118452380D01*
X88338095Y-118452380D01*
X88242857Y-118404761D01*
X88195238Y-118309523D01*
X88195238Y-117928571D01*
X88242857Y-117833333D01*
X88338095Y-117785714D01*
X88528571Y-117785714D01*
X88623809Y-117833333D01*
X88671428Y-117928571D01*
X88671428Y-118023809D01*
X88195238Y-118119047D01*
X88957142Y-117785714D02*
X89338095Y-117785714D01*
X89100000Y-118452380D02*
X89100000Y-117595238D01*
X89147619Y-117500000D01*
X89242857Y-117452380D01*
X89338095Y-117452380D01*
X89528571Y-117785714D02*
X89909523Y-117785714D01*
X89671428Y-117452380D02*
X89671428Y-118309523D01*
X89719047Y-118404761D01*
X89814285Y-118452380D01*
X89909523Y-118452380D01*
X112011904Y-69654761D02*
X112154761Y-69702380D01*
X112392857Y-69702380D01*
X112488095Y-69654761D01*
X112535714Y-69607142D01*
X112583333Y-69511904D01*
X112583333Y-69416666D01*
X112535714Y-69321428D01*
X112488095Y-69273809D01*
X112392857Y-69226190D01*
X112202380Y-69178571D01*
X112107142Y-69130952D01*
X112059523Y-69083333D01*
X112011904Y-68988095D01*
X112011904Y-68892857D01*
X112059523Y-68797619D01*
X112107142Y-68750000D01*
X112202380Y-68702380D01*
X112440476Y-68702380D01*
X112583333Y-68750000D01*
X112964285Y-69416666D02*
X113440476Y-69416666D01*
X112869047Y-69702380D02*
X113202380Y-68702380D01*
X113535714Y-69702380D01*
X114059523Y-68702380D02*
X114250000Y-68702380D01*
X114345238Y-68750000D01*
X114440476Y-68845238D01*
X114488095Y-69035714D01*
X114488095Y-69369047D01*
X114440476Y-69559523D01*
X114345238Y-69654761D01*
X114250000Y-69702380D01*
X114059523Y-69702380D01*
X113964285Y-69654761D01*
X113869047Y-69559523D01*
X113821428Y-69369047D01*
X113821428Y-69035714D01*
X113869047Y-68845238D01*
X113964285Y-68750000D01*
X114059523Y-68702380D01*
X71604761Y-129166666D02*
X72080952Y-129166666D01*
X71509523Y-129452380D02*
X71842857Y-128452380D01*
X72176190Y-129452380D01*
X73033333Y-129452380D02*
X72461904Y-129452380D01*
X72747619Y-129452380D02*
X72747619Y-128452380D01*
X72652380Y-128595238D01*
X72557142Y-128690476D01*
X72461904Y-128738095D01*
X74176190Y-128404761D02*
X73319047Y-129690476D01*
X74366666Y-128452380D02*
X74700000Y-129452380D01*
X75033333Y-128452380D01*
X75557142Y-128452380D02*
X75747619Y-128452380D01*
X75842857Y-128500000D01*
X75938095Y-128595238D01*
X75985714Y-128785714D01*
X75985714Y-129119047D01*
X75938095Y-129309523D01*
X75842857Y-129404761D01*
X75747619Y-129452380D01*
X75557142Y-129452380D01*
X75461904Y-129404761D01*
X75366666Y-129309523D01*
X75319047Y-129119047D01*
X75319047Y-128785714D01*
X75366666Y-128595238D01*
X75461904Y-128500000D01*
X75557142Y-128452380D01*
X76414285Y-128452380D02*
X76414285Y-129261904D01*
X76461904Y-129357142D01*
X76509523Y-129404761D01*
X76604761Y-129452380D01*
X76795238Y-129452380D01*
X76890476Y-129404761D01*
X76938095Y-129357142D01*
X76985714Y-129261904D01*
X76985714Y-128452380D01*
X77319047Y-128452380D02*
X77890476Y-128452380D01*
X77604761Y-129452380D02*
X77604761Y-128452380D01*
X69885714Y-124866666D02*
X70361904Y-124866666D01*
X69790476Y-125152380D02*
X70123809Y-124152380D01*
X70457142Y-125152380D01*
X70742857Y-124247619D02*
X70790476Y-124200000D01*
X70885714Y-124152380D01*
X71123809Y-124152380D01*
X71219047Y-124200000D01*
X71266666Y-124247619D01*
X71314285Y-124342857D01*
X71314285Y-124438095D01*
X71266666Y-124580952D01*
X70695238Y-125152380D01*
X71314285Y-125152380D01*
X66185714Y-119366666D02*
X66661904Y-119366666D01*
X66090476Y-119652380D02*
X66423809Y-118652380D01*
X66757142Y-119652380D01*
X66995238Y-118652380D02*
X67614285Y-118652380D01*
X67280952Y-119033333D01*
X67423809Y-119033333D01*
X67519047Y-119080952D01*
X67566666Y-119128571D01*
X67614285Y-119223809D01*
X67614285Y-119461904D01*
X67566666Y-119557142D01*
X67519047Y-119604761D01*
X67423809Y-119652380D01*
X67138095Y-119652380D01*
X67042857Y-119604761D01*
X66995238Y-119557142D01*
X63185714Y-113166666D02*
X63661904Y-113166666D01*
X63090476Y-113452380D02*
X63423809Y-112452380D01*
X63757142Y-113452380D01*
X64519047Y-112785714D02*
X64519047Y-113452380D01*
X64280952Y-112404761D02*
X64042857Y-113119047D01*
X64661904Y-113119047D01*
X61185714Y-106866666D02*
X61661904Y-106866666D01*
X61090476Y-107152380D02*
X61423809Y-106152380D01*
X61757142Y-107152380D01*
X62566666Y-106152380D02*
X62090476Y-106152380D01*
X62042857Y-106628571D01*
X62090476Y-106580952D01*
X62185714Y-106533333D01*
X62423809Y-106533333D01*
X62519047Y-106580952D01*
X62566666Y-106628571D01*
X62614285Y-106723809D01*
X62614285Y-106961904D01*
X62566666Y-107057142D01*
X62519047Y-107104761D01*
X62423809Y-107152380D01*
X62185714Y-107152380D01*
X62090476Y-107104761D01*
X62042857Y-107057142D01*
X69561904Y-76152380D02*
X69561904Y-75152380D01*
X69800000Y-75152380D01*
X69942857Y-75200000D01*
X70038095Y-75295238D01*
X70085714Y-75390476D01*
X70133333Y-75580952D01*
X70133333Y-75723809D01*
X70085714Y-75914285D01*
X70038095Y-76009523D01*
X69942857Y-76104761D01*
X69800000Y-76152380D01*
X69561904Y-76152380D01*
X70990476Y-75485714D02*
X70990476Y-76152380D01*
X70752380Y-75104761D02*
X70514285Y-75819047D01*
X71133333Y-75819047D01*
X61061904Y-95052380D02*
X61061904Y-94052380D01*
X61300000Y-94052380D01*
X61442857Y-94100000D01*
X61538095Y-94195238D01*
X61585714Y-94290476D01*
X61633333Y-94480952D01*
X61633333Y-94623809D01*
X61585714Y-94814285D01*
X61538095Y-94909523D01*
X61442857Y-95004761D01*
X61300000Y-95052380D01*
X61061904Y-95052380D01*
X62252380Y-94052380D02*
X62347619Y-94052380D01*
X62442857Y-94100000D01*
X62490476Y-94147619D01*
X62538095Y-94242857D01*
X62585714Y-94433333D01*
X62585714Y-94671428D01*
X62538095Y-94861904D01*
X62490476Y-94957142D01*
X62442857Y-95004761D01*
X62347619Y-95052380D01*
X62252380Y-95052380D01*
X62157142Y-95004761D01*
X62109523Y-94957142D01*
X62061904Y-94861904D01*
X62014285Y-94671428D01*
X62014285Y-94433333D01*
X62061904Y-94242857D01*
X62109523Y-94147619D01*
X62157142Y-94100000D01*
X62252380Y-94052380D01*
X63728571Y-94004761D02*
X62871428Y-95290476D01*
X64633333Y-95052380D02*
X64300000Y-94576190D01*
X64061904Y-95052380D02*
X64061904Y-94052380D01*
X64442857Y-94052380D01*
X64538095Y-94100000D01*
X64585714Y-94147619D01*
X64633333Y-94242857D01*
X64633333Y-94385714D01*
X64585714Y-94480952D01*
X64538095Y-94528571D01*
X64442857Y-94576190D01*
X64061904Y-94576190D01*
X64966666Y-94052380D02*
X65633333Y-95052380D01*
X65633333Y-94052380D02*
X64966666Y-95052380D01*
X61980952Y-89752380D02*
X61980952Y-88752380D01*
X62219047Y-88752380D01*
X62361904Y-88800000D01*
X62457142Y-88895238D01*
X62504761Y-88990476D01*
X62552380Y-89180952D01*
X62552380Y-89323809D01*
X62504761Y-89514285D01*
X62457142Y-89609523D01*
X62361904Y-89704761D01*
X62219047Y-89752380D01*
X61980952Y-89752380D01*
X63504761Y-89752380D02*
X62933333Y-89752380D01*
X63219047Y-89752380D02*
X63219047Y-88752380D01*
X63123809Y-88895238D01*
X63028571Y-88990476D01*
X62933333Y-89038095D01*
X64647619Y-88704761D02*
X63790476Y-89990476D01*
X64838095Y-88752380D02*
X65409523Y-88752380D01*
X65123809Y-89752380D02*
X65123809Y-88752380D01*
X65647619Y-88752380D02*
X66314285Y-89752380D01*
X66314285Y-88752380D02*
X65647619Y-89752380D01*
X64061904Y-84652380D02*
X64061904Y-83652380D01*
X64300000Y-83652380D01*
X64442857Y-83700000D01*
X64538095Y-83795238D01*
X64585714Y-83890476D01*
X64633333Y-84080952D01*
X64633333Y-84223809D01*
X64585714Y-84414285D01*
X64538095Y-84509523D01*
X64442857Y-84604761D01*
X64300000Y-84652380D01*
X64061904Y-84652380D01*
X65014285Y-83747619D02*
X65061904Y-83700000D01*
X65157142Y-83652380D01*
X65395238Y-83652380D01*
X65490476Y-83700000D01*
X65538095Y-83747619D01*
X65585714Y-83842857D01*
X65585714Y-83938095D01*
X65538095Y-84080952D01*
X64966666Y-84652380D01*
X65585714Y-84652380D01*
X66561904Y-80052380D02*
X66561904Y-79052380D01*
X66800000Y-79052380D01*
X66942857Y-79100000D01*
X67038095Y-79195238D01*
X67085714Y-79290476D01*
X67133333Y-79480952D01*
X67133333Y-79623809D01*
X67085714Y-79814285D01*
X67038095Y-79909523D01*
X66942857Y-80004761D01*
X66800000Y-80052380D01*
X66561904Y-80052380D01*
X67466666Y-79052380D02*
X68085714Y-79052380D01*
X67752380Y-79433333D01*
X67895238Y-79433333D01*
X67990476Y-79480952D01*
X68038095Y-79528571D01*
X68085714Y-79623809D01*
X68085714Y-79861904D01*
X68038095Y-79957142D01*
X67990476Y-80004761D01*
X67895238Y-80052380D01*
X67609523Y-80052380D01*
X67514285Y-80004761D01*
X67466666Y-79957142D01*
X73561904Y-72052380D02*
X73561904Y-71052380D01*
X73800000Y-71052380D01*
X73942857Y-71100000D01*
X74038095Y-71195238D01*
X74085714Y-71290476D01*
X74133333Y-71480952D01*
X74133333Y-71623809D01*
X74085714Y-71814285D01*
X74038095Y-71909523D01*
X73942857Y-72004761D01*
X73800000Y-72052380D01*
X73561904Y-72052380D01*
X75038095Y-71052380D02*
X74561904Y-71052380D01*
X74514285Y-71528571D01*
X74561904Y-71480952D01*
X74657142Y-71433333D01*
X74895238Y-71433333D01*
X74990476Y-71480952D01*
X75038095Y-71528571D01*
X75085714Y-71623809D01*
X75085714Y-71861904D01*
X75038095Y-71957142D01*
X74990476Y-72004761D01*
X74895238Y-72052380D01*
X74657142Y-72052380D01*
X74561904Y-72004761D01*
X74514285Y-71957142D01*
X131514285Y-119804761D02*
X131657142Y-119852380D01*
X131895238Y-119852380D01*
X131990476Y-119804761D01*
X132038095Y-119757142D01*
X132085714Y-119661904D01*
X132085714Y-119566666D01*
X132038095Y-119471428D01*
X131990476Y-119423809D01*
X131895238Y-119376190D01*
X131704761Y-119328571D01*
X131609523Y-119280952D01*
X131561904Y-119233333D01*
X131514285Y-119138095D01*
X131514285Y-119042857D01*
X131561904Y-118947619D01*
X131609523Y-118900000D01*
X131704761Y-118852380D01*
X131942857Y-118852380D01*
X132085714Y-118900000D01*
X133085714Y-119757142D02*
X133038095Y-119804761D01*
X132895238Y-119852380D01*
X132800000Y-119852380D01*
X132657142Y-119804761D01*
X132561904Y-119709523D01*
X132514285Y-119614285D01*
X132466666Y-119423809D01*
X132466666Y-119280952D01*
X132514285Y-119090476D01*
X132561904Y-118995238D01*
X132657142Y-118900000D01*
X132800000Y-118852380D01*
X132895238Y-118852380D01*
X133038095Y-118900000D01*
X133085714Y-118947619D01*
X133514285Y-119852380D02*
X133514285Y-118852380D01*
X134085714Y-119852380D02*
X133657142Y-119280952D01*
X134085714Y-118852380D02*
X133514285Y-119423809D01*
X133828571Y-113752380D02*
X133828571Y-112752380D01*
X134161904Y-113466666D01*
X134495238Y-112752380D01*
X134495238Y-113752380D01*
X135161904Y-112752380D02*
X135352380Y-112752380D01*
X135447619Y-112800000D01*
X135542857Y-112895238D01*
X135590476Y-113085714D01*
X135590476Y-113419047D01*
X135542857Y-113609523D01*
X135447619Y-113704761D01*
X135352380Y-113752380D01*
X135161904Y-113752380D01*
X135066666Y-113704761D01*
X134971428Y-113609523D01*
X134923809Y-113419047D01*
X134923809Y-113085714D01*
X134971428Y-112895238D01*
X135066666Y-112800000D01*
X135161904Y-112752380D01*
X135971428Y-113704761D02*
X136114285Y-113752380D01*
X136352380Y-113752380D01*
X136447619Y-113704761D01*
X136495238Y-113657142D01*
X136542857Y-113561904D01*
X136542857Y-113466666D01*
X136495238Y-113371428D01*
X136447619Y-113323809D01*
X136352380Y-113276190D01*
X136161904Y-113228571D01*
X136066666Y-113180952D01*
X136019047Y-113133333D01*
X135971428Y-113038095D01*
X135971428Y-112942857D01*
X136019047Y-112847619D01*
X136066666Y-112800000D01*
X136161904Y-112752380D01*
X136400000Y-112752380D01*
X136542857Y-112800000D01*
X136971428Y-113752380D02*
X136971428Y-112752380D01*
X135528571Y-107752380D02*
X135528571Y-106752380D01*
X135861904Y-107466666D01*
X136195238Y-106752380D01*
X136195238Y-107752380D01*
X136671428Y-107752380D02*
X136671428Y-106752380D01*
X137100000Y-107704761D02*
X137242857Y-107752380D01*
X137480952Y-107752380D01*
X137576190Y-107704761D01*
X137623809Y-107657142D01*
X137671428Y-107561904D01*
X137671428Y-107466666D01*
X137623809Y-107371428D01*
X137576190Y-107323809D01*
X137480952Y-107276190D01*
X137290476Y-107228571D01*
X137195238Y-107180952D01*
X137147619Y-107133333D01*
X137100000Y-107038095D01*
X137100000Y-106942857D01*
X137147619Y-106847619D01*
X137195238Y-106800000D01*
X137290476Y-106752380D01*
X137528571Y-106752380D01*
X137671428Y-106800000D01*
X138290476Y-106752380D02*
X138480952Y-106752380D01*
X138576190Y-106800000D01*
X138671428Y-106895238D01*
X138719047Y-107085714D01*
X138719047Y-107419047D01*
X138671428Y-107609523D01*
X138576190Y-107704761D01*
X138480952Y-107752380D01*
X138290476Y-107752380D01*
X138195238Y-107704761D01*
X138100000Y-107609523D01*
X138052380Y-107419047D01*
X138052380Y-107085714D01*
X138100000Y-106895238D01*
X138195238Y-106800000D01*
X138290476Y-106752380D01*
X136738095Y-93900000D02*
X136642857Y-93852380D01*
X136500000Y-93852380D01*
X136357142Y-93900000D01*
X136261904Y-93995238D01*
X136214285Y-94090476D01*
X136166666Y-94280952D01*
X136166666Y-94423809D01*
X136214285Y-94614285D01*
X136261904Y-94709523D01*
X136357142Y-94804761D01*
X136500000Y-94852380D01*
X136595238Y-94852380D01*
X136738095Y-94804761D01*
X136785714Y-94757142D01*
X136785714Y-94423809D01*
X136595238Y-94423809D01*
X137214285Y-94852380D02*
X137214285Y-93852380D01*
X137785714Y-94852380D01*
X137785714Y-93852380D01*
X138261904Y-94852380D02*
X138261904Y-93852380D01*
X138500000Y-93852380D01*
X138642857Y-93900000D01*
X138738095Y-93995238D01*
X138785714Y-94090476D01*
X138833333Y-94280952D01*
X138833333Y-94423809D01*
X138785714Y-94614285D01*
X138738095Y-94709523D01*
X138642857Y-94804761D01*
X138500000Y-94852380D01*
X138261904Y-94852380D01*
X135438095Y-88300000D02*
X135342857Y-88252380D01*
X135200000Y-88252380D01*
X135057142Y-88300000D01*
X134961904Y-88395238D01*
X134914285Y-88490476D01*
X134866666Y-88680952D01*
X134866666Y-88823809D01*
X134914285Y-89014285D01*
X134961904Y-89109523D01*
X135057142Y-89204761D01*
X135200000Y-89252380D01*
X135295238Y-89252380D01*
X135438095Y-89204761D01*
X135485714Y-89157142D01*
X135485714Y-88823809D01*
X135295238Y-88823809D01*
X135914285Y-89252380D02*
X135914285Y-88252380D01*
X136485714Y-89252380D01*
X136485714Y-88252380D01*
X136961904Y-89252380D02*
X136961904Y-88252380D01*
X137200000Y-88252380D01*
X137342857Y-88300000D01*
X137438095Y-88395238D01*
X137485714Y-88490476D01*
X137533333Y-88680952D01*
X137533333Y-88823809D01*
X137485714Y-89014285D01*
X137438095Y-89109523D01*
X137342857Y-89204761D01*
X137200000Y-89252380D01*
X136961904Y-89252380D01*
X133838095Y-83600000D02*
X133742857Y-83552380D01*
X133600000Y-83552380D01*
X133457142Y-83600000D01*
X133361904Y-83695238D01*
X133314285Y-83790476D01*
X133266666Y-83980952D01*
X133266666Y-84123809D01*
X133314285Y-84314285D01*
X133361904Y-84409523D01*
X133457142Y-84504761D01*
X133600000Y-84552380D01*
X133695238Y-84552380D01*
X133838095Y-84504761D01*
X133885714Y-84457142D01*
X133885714Y-84123809D01*
X133695238Y-84123809D01*
X134314285Y-84552380D02*
X134314285Y-83552380D01*
X134885714Y-84552380D01*
X134885714Y-83552380D01*
X135361904Y-84552380D02*
X135361904Y-83552380D01*
X135600000Y-83552380D01*
X135742857Y-83600000D01*
X135838095Y-83695238D01*
X135885714Y-83790476D01*
X135933333Y-83980952D01*
X135933333Y-84123809D01*
X135885714Y-84314285D01*
X135838095Y-84409523D01*
X135742857Y-84504761D01*
X135600000Y-84552380D01*
X135361904Y-84552380D01*
X130961904Y-78752380D02*
X131580952Y-78752380D01*
X131247619Y-79133333D01*
X131390476Y-79133333D01*
X131485714Y-79180952D01*
X131533333Y-79228571D01*
X131580952Y-79323809D01*
X131580952Y-79561904D01*
X131533333Y-79657142D01*
X131485714Y-79704761D01*
X131390476Y-79752380D01*
X131104761Y-79752380D01*
X131009523Y-79704761D01*
X130961904Y-79657142D01*
X131866666Y-78752380D02*
X132200000Y-79752380D01*
X132533333Y-78752380D01*
X132771428Y-78752380D02*
X133390476Y-78752380D01*
X133057142Y-79133333D01*
X133200000Y-79133333D01*
X133295238Y-79180952D01*
X133342857Y-79228571D01*
X133390476Y-79323809D01*
X133390476Y-79561904D01*
X133342857Y-79657142D01*
X133295238Y-79704761D01*
X133200000Y-79752380D01*
X132914285Y-79752380D01*
X132819047Y-79704761D01*
X132771428Y-79657142D01*
X127761904Y-74452380D02*
X128380952Y-74452380D01*
X128047619Y-74833333D01*
X128190476Y-74833333D01*
X128285714Y-74880952D01*
X128333333Y-74928571D01*
X128380952Y-75023809D01*
X128380952Y-75261904D01*
X128333333Y-75357142D01*
X128285714Y-75404761D01*
X128190476Y-75452380D01*
X127904761Y-75452380D01*
X127809523Y-75404761D01*
X127761904Y-75357142D01*
X128666666Y-74452380D02*
X129000000Y-75452380D01*
X129333333Y-74452380D01*
X129571428Y-74452380D02*
X130190476Y-74452380D01*
X129857142Y-74833333D01*
X130000000Y-74833333D01*
X130095238Y-74880952D01*
X130142857Y-74928571D01*
X130190476Y-75023809D01*
X130190476Y-75261904D01*
X130142857Y-75357142D01*
X130095238Y-75404761D01*
X130000000Y-75452380D01*
X129714285Y-75452380D01*
X129619047Y-75404761D01*
X129571428Y-75357142D01*
X123561904Y-70252380D02*
X124180952Y-70252380D01*
X123847619Y-70633333D01*
X123990476Y-70633333D01*
X124085714Y-70680952D01*
X124133333Y-70728571D01*
X124180952Y-70823809D01*
X124180952Y-71061904D01*
X124133333Y-71157142D01*
X124085714Y-71204761D01*
X123990476Y-71252380D01*
X123704761Y-71252380D01*
X123609523Y-71204761D01*
X123561904Y-71157142D01*
X124466666Y-70252380D02*
X124800000Y-71252380D01*
X125133333Y-70252380D01*
X125371428Y-70252380D02*
X125990476Y-70252380D01*
X125657142Y-70633333D01*
X125800000Y-70633333D01*
X125895238Y-70680952D01*
X125942857Y-70728571D01*
X125990476Y-70823809D01*
X125990476Y-71061904D01*
X125942857Y-71157142D01*
X125895238Y-71204761D01*
X125800000Y-71252380D01*
X125514285Y-71252380D01*
X125419047Y-71204761D01*
X125371428Y-71157142D01*
D11*
X106133430Y-68837814D02*
X106378379Y-68696392D01*
X106107548Y-68934406D02*
X106474972Y-68722274D01*
X106081666Y-69030999D02*
X106185194Y-68644628D01*
X106185194Y-68644628D02*
X106571564Y-68748156D01*
X106571564Y-68748156D02*
X106081666Y-69030999D01*
X110242082Y-69731668D02*
X109759119Y-69602259D01*
X110242082Y-69731668D02*
X110112673Y-70214631D01*
X106185194Y-68644628D02*
X106668157Y-68774038D01*
X106185194Y-68644628D02*
X106055784Y-69127591D01*
X105149918Y-72508332D02*
X105632881Y-72637741D01*
X105149918Y-72508332D02*
X105279327Y-72025369D01*
X109206806Y-73595372D02*
X109336216Y-73112409D01*
X109206806Y-73595372D02*
X108723843Y-73465962D01*
X93764570Y-131314186D02*
X93519621Y-131455608D01*
X93790452Y-131217594D02*
X93423028Y-131429726D01*
X93816334Y-131121001D02*
X93712806Y-131507372D01*
X93712806Y-131507372D02*
X93326436Y-131403844D01*
X93326436Y-131403844D02*
X93816334Y-131121001D01*
X89655918Y-130420332D02*
X90138881Y-130549741D01*
X89655918Y-130420332D02*
X89785327Y-129937369D01*
X93712806Y-131507372D02*
X93229843Y-131377962D01*
X93712806Y-131507372D02*
X93842216Y-131024409D01*
X94748082Y-127643668D02*
X94265119Y-127514259D01*
X94748082Y-127643668D02*
X94618673Y-128126631D01*
X90691194Y-126556628D02*
X90561784Y-127039591D01*
X90691194Y-126556628D02*
X91174157Y-126686038D01*
X123727026Y-79022289D02*
X124008792Y-79046940D01*
X123650422Y-79086568D02*
X124073071Y-79123545D01*
X123573817Y-79150846D02*
X123880235Y-78893731D01*
X123880235Y-78893731D02*
X124137350Y-79200149D01*
X124137350Y-79200149D02*
X123573817Y-79150846D01*
X126579943Y-82111118D02*
X126258549Y-81728096D01*
X126579943Y-82111118D02*
X126196921Y-82432512D01*
X123880235Y-78893731D02*
X124201629Y-79276754D01*
X123880235Y-78893731D02*
X123497213Y-79215125D01*
X120816057Y-81464882D02*
X121137451Y-81847904D01*
X120816057Y-81464882D02*
X121199079Y-81143488D01*
X123515765Y-84682269D02*
X123898787Y-84360875D01*
X123515765Y-84682269D02*
X123194371Y-84299246D01*
X76170974Y-120875711D02*
X75889208Y-120851060D01*
X76247578Y-120811432D02*
X75824929Y-120774455D01*
X76324183Y-120747154D02*
X76017765Y-121004269D01*
X76017765Y-121004269D02*
X75760650Y-120697851D01*
X75760650Y-120697851D02*
X76324183Y-120747154D01*
X73318057Y-117786882D02*
X73639451Y-118169904D01*
X73318057Y-117786882D02*
X73701079Y-117465488D01*
X76017765Y-121004269D02*
X75696371Y-120621246D01*
X76017765Y-121004269D02*
X76400787Y-120682875D01*
X79081943Y-118433118D02*
X78760549Y-118050096D01*
X79081943Y-118433118D02*
X78698921Y-118754512D01*
X76382235Y-115215731D02*
X75999213Y-115537125D01*
X76382235Y-115215731D02*
X76703629Y-115598754D01*
X68050000Y-102176000D02*
X67850000Y-101976000D01*
X68150000Y-102176000D02*
X67850000Y-101876000D01*
X68250000Y-102176000D02*
X67850000Y-102176000D01*
X67850000Y-102176000D02*
X67850000Y-101776000D01*
X67850000Y-101776000D02*
X68250000Y-102176000D01*
X67850000Y-97976000D02*
X67850000Y-98476000D01*
X67850000Y-97976000D02*
X68350000Y-97976000D01*
X67850000Y-102176000D02*
X67850000Y-101676000D01*
X67850000Y-102176000D02*
X68350000Y-102176000D01*
X71850000Y-102176000D02*
X71850000Y-101676000D01*
X71850000Y-102176000D02*
X71350000Y-102176000D01*
X71850000Y-97976000D02*
X71350000Y-97976000D01*
X71850000Y-97976000D02*
X71850000Y-98476000D01*
X126680734Y-117912324D02*
X126705385Y-118194091D01*
X126604130Y-117848046D02*
X126641107Y-118270695D01*
X126527525Y-117783767D02*
X126833943Y-118040882D01*
X126833943Y-118040882D02*
X126576828Y-118347300D01*
X126576828Y-118347300D02*
X126527525Y-117783767D01*
X124134235Y-121258269D02*
X124455629Y-120875246D01*
X124134235Y-121258269D02*
X123751213Y-120936875D01*
X126833943Y-118040882D02*
X126512549Y-118423904D01*
X126833943Y-118040882D02*
X126450921Y-117719488D01*
X123769765Y-115469731D02*
X123448371Y-115852754D01*
X123769765Y-115469731D02*
X124152787Y-115791125D01*
X121070057Y-118687118D02*
X121453079Y-119008512D01*
X121070057Y-118687118D02*
X121391451Y-118304096D01*
X73521016Y-82475782D02*
X73471901Y-82197236D01*
X73602931Y-82533139D02*
X73529258Y-82115321D01*
X73684846Y-82590497D02*
X73357185Y-82361066D01*
X73357185Y-82361066D02*
X73586616Y-82033406D01*
X73586616Y-82033406D02*
X73684846Y-82590497D01*
X75766206Y-78920628D02*
X75479418Y-79330204D01*
X75766206Y-78920628D02*
X76175782Y-79207416D01*
X73357185Y-82361066D02*
X73643974Y-81951490D01*
X73357185Y-82361066D02*
X73766761Y-82647855D01*
X76633794Y-84655372D02*
X76920582Y-84245796D01*
X76633794Y-84655372D02*
X76224218Y-84368584D01*
X79042815Y-81214934D02*
X78633239Y-80928145D01*
X79042815Y-81214934D02*
X78756026Y-81624510D01*
X110190319Y-130227146D02*
X110048897Y-130472095D01*
X110164437Y-130130554D02*
X109952305Y-130497977D01*
X110138555Y-130033961D02*
X110242082Y-130420332D01*
X110242082Y-130420332D02*
X109855712Y-130523859D01*
X109855712Y-130523859D02*
X110138555Y-130033961D01*
X106185194Y-131507372D02*
X106668157Y-131377962D01*
X106185194Y-131507372D02*
X106055784Y-131024409D01*
X110242082Y-130420332D02*
X109759119Y-130549741D01*
X110242082Y-130420332D02*
X110112673Y-129937369D01*
X109206806Y-126556628D02*
X108723843Y-126686038D01*
X109206806Y-126556628D02*
X109336216Y-127039591D01*
X105149918Y-127643668D02*
X105279327Y-128126631D01*
X105149918Y-127643668D02*
X105632881Y-127514259D01*
X89707681Y-69670854D02*
X89849103Y-69425905D01*
X89733563Y-69767446D02*
X89945695Y-69400023D01*
X89759445Y-69864039D02*
X89655918Y-69477668D01*
X89655918Y-69477668D02*
X90042288Y-69374141D01*
X90042288Y-69374141D02*
X89759445Y-69864039D01*
X93712806Y-68390628D02*
X93229843Y-68520038D01*
X93712806Y-68390628D02*
X93842216Y-68873591D01*
X89655918Y-69477668D02*
X90138881Y-69348259D01*
X89655918Y-69477668D02*
X89785327Y-69960631D01*
X90691194Y-73341372D02*
X91174157Y-73211962D01*
X90691194Y-73341372D02*
X90561784Y-72858409D01*
X94748082Y-72254332D02*
X94618673Y-71771369D01*
X94748082Y-72254332D02*
X94265119Y-72383741D01*
D12*
X93698500Y-140299720D02*
X93698500Y-139700280D01*
X93698500Y-139700280D02*
X92301500Y-139700280D01*
X92301500Y-140299720D02*
X92301500Y-139700280D01*
X93698500Y-140299720D02*
X92301500Y-140299720D01*
D13*
X77305493Y-131534444D02*
X78903153Y-128767216D01*
X86694507Y-133265556D02*
X85096847Y-136032784D01*
X80029402Y-129417456D02*
X78903153Y-128767216D01*
X78431742Y-132184684D02*
X77305493Y-131534444D01*
X83970598Y-135382544D02*
X85096847Y-136032784D01*
X85568258Y-132615316D02*
X86694507Y-133265556D01*
D14*
X101549221Y-87590000D02*
X101874779Y-87590000D01*
X101549221Y-88610000D02*
X101874779Y-88610000D01*
X105862779Y-87590000D02*
X105537221Y-87590000D01*
X105862779Y-88610000D02*
X105537221Y-88610000D01*
X109510000Y-109837221D02*
X109510000Y-110162779D01*
X108490000Y-109837221D02*
X108490000Y-110162779D01*
X112260000Y-104037221D02*
X112260000Y-104362779D01*
X111240000Y-104037221D02*
X111240000Y-104362779D01*
X109290000Y-104037221D02*
X109290000Y-104362779D01*
X110310000Y-104037221D02*
X110310000Y-104362779D01*
X110990000Y-97962779D02*
X110990000Y-97637221D01*
X112010000Y-97962779D02*
X112010000Y-97637221D01*
X99162779Y-89990000D02*
X98837221Y-89990000D01*
X99162779Y-91010000D02*
X98837221Y-91010000D01*
X103490000Y-110162779D02*
X103490000Y-109837221D01*
X104510000Y-110162779D02*
X104510000Y-109837221D01*
X89690000Y-97475279D02*
X89690000Y-97149721D01*
X90710000Y-97475279D02*
X90710000Y-97149721D01*
X109290000Y-97637221D02*
X109290000Y-97962779D01*
X110310000Y-97637221D02*
X110310000Y-97962779D01*
X95490000Y-109837221D02*
X95490000Y-110162779D01*
X96510000Y-109837221D02*
X96510000Y-110162779D01*
X110837221Y-135490000D02*
X111162779Y-135490000D01*
X110837221Y-136510000D02*
X111162779Y-136510000D01*
X114490000Y-138162779D02*
X114490000Y-137837221D01*
X115510000Y-138162779D02*
X115510000Y-137837221D01*
X118510000Y-138162779D02*
X118510000Y-137837221D01*
X117490000Y-138162779D02*
X117490000Y-137837221D01*
X119362779Y-94740000D02*
X119037221Y-94740000D01*
X119362779Y-95760000D02*
X119037221Y-95760000D01*
D12*
X96502160Y-135502160D02*
X96502160Y-135700280D01*
X96502160Y-135700280D02*
X97497840Y-135700280D01*
X97497840Y-135502160D02*
X97497840Y-135700280D01*
X96502160Y-135502160D02*
X97497840Y-135502160D01*
D13*
X97698500Y-135128780D02*
X97698500Y-136871220D01*
X96301500Y-136871220D02*
X96301500Y-135128780D01*
X97000000Y-135700280D02*
X97398780Y-136299720D01*
X97398780Y-136299720D02*
X96601220Y-136299720D01*
X96601220Y-136299720D02*
X97000000Y-135700280D01*
G36*
X97000000Y-135900940D02*
G01*
X97198120Y-136198120D01*
X96801880Y-136198120D01*
X97000000Y-135900940D01*
X97000000Y-135900940D01*
G37*
X97000000Y-135900940D02*
X97198120Y-136198120D01*
X96801880Y-136198120D01*
X97000000Y-135900940D01*
X112841500Y-102270000D02*
X109158500Y-102270000D01*
X109158500Y-102270000D02*
X109158500Y-99730000D01*
X109158500Y-99730000D02*
X112841500Y-99730000D01*
X112841500Y-99730000D02*
X112841500Y-102270000D01*
D14*
X89233000Y-62315000D02*
X86948000Y-62315000D01*
X89233000Y-63785000D02*
X89233000Y-62315000D01*
X86948000Y-63785000D02*
X89233000Y-63785000D01*
X81692500Y-63745000D02*
X83977500Y-63745000D01*
X83977500Y-63745000D02*
X83977500Y-62275000D01*
X83977500Y-62275000D02*
X81692500Y-62275000D01*
D13*
X88072260Y-139049760D02*
X88072260Y-140360400D01*
X88072260Y-140360400D02*
X87061340Y-140360400D01*
X84927740Y-140360400D02*
X84927740Y-139049760D01*
X85938660Y-140360400D02*
X84927740Y-140360400D01*
X86129160Y-139039600D02*
X86886080Y-139039600D01*
X91170840Y-135160400D02*
X90413920Y-135160400D01*
X91361340Y-133839600D02*
X92372260Y-133839600D01*
X92372260Y-133839600D02*
X92372260Y-135150240D01*
X89227740Y-133839600D02*
X90238660Y-133839600D01*
X89227740Y-135150240D02*
X89227740Y-133839600D01*
D14*
X74985221Y-107740000D02*
X75310779Y-107740000D01*
X74985221Y-108760000D02*
X75310779Y-108760000D01*
X75049721Y-111808000D02*
X75375279Y-111808000D01*
X75049721Y-110788000D02*
X75375279Y-110788000D01*
X110490000Y-110162779D02*
X110490000Y-109837221D01*
X111510000Y-110162779D02*
X111510000Y-109837221D01*
X73590000Y-102025221D02*
X73590000Y-102350779D01*
X74610000Y-102025221D02*
X74610000Y-102350779D01*
X113510000Y-109837221D02*
X113510000Y-110162779D01*
X112490000Y-109837221D02*
X112490000Y-110162779D01*
X90510000Y-140837221D02*
X90510000Y-141162779D01*
X89490000Y-140837221D02*
X89490000Y-141162779D01*
X108510000Y-138162779D02*
X108510000Y-137837221D01*
X107490000Y-138162779D02*
X107490000Y-137837221D01*
X82625279Y-65514000D02*
X82299721Y-65514000D01*
X82625279Y-64494000D02*
X82299721Y-64494000D01*
X87910779Y-64494000D02*
X87585221Y-64494000D01*
X87910779Y-65514000D02*
X87585221Y-65514000D01*
X110650779Y-92590000D02*
X110325221Y-92590000D01*
X110650779Y-93610000D02*
X110325221Y-93610000D01*
X121190000Y-94635279D02*
X121190000Y-94309721D01*
X122210000Y-94635279D02*
X122210000Y-94309721D01*
X125074779Y-94750000D02*
X124749221Y-94750000D01*
X125074779Y-95770000D02*
X124749221Y-95770000D01*
D15*
X112509720Y-140369860D02*
X110894280Y-140369860D01*
X110894280Y-137530140D02*
X112509720Y-137530140D01*
X112509720Y-138429300D02*
X112509720Y-139470700D01*
X110894280Y-138523280D02*
X110894280Y-138429300D01*
X110894280Y-139470700D02*
X110894280Y-139376720D01*
X110894280Y-137624120D02*
X110894280Y-137530140D01*
X110894280Y-140369860D02*
X110894280Y-140275880D01*
X112509720Y-140275880D02*
X112509720Y-140369860D01*
X112509720Y-137530140D02*
X112509720Y-137624120D01*
D13*
X78312840Y-106042740D02*
X77512740Y-106042740D01*
X77512740Y-106042740D02*
X77512740Y-106393260D01*
X78312840Y-109441260D02*
X77512740Y-109441260D01*
X77512740Y-109441260D02*
X77512740Y-109090740D01*
X80911260Y-109090740D02*
X80911260Y-109441260D01*
X80911260Y-109441260D02*
X80111160Y-109441260D01*
X80111160Y-106042740D02*
X80911260Y-106042740D01*
X80911260Y-106042740D02*
X80911260Y-106393260D01*
D16*
X77063160Y-106192600D02*
G75*
G03X77063160Y-106192600I-99060J0D01*
G01*
D13*
X123102440Y-99707800D02*
X124697560Y-99707800D01*
X124697560Y-96812200D02*
X123102440Y-96812200D01*
X124347040Y-99209960D02*
G75*
G03X124347040Y-99209960I-99060J0D01*
G01*
D17*
X96250960Y-144647800D02*
X103749040Y-144647800D01*
X96250960Y-144647800D02*
X96250960Y-144317600D01*
X103749040Y-144647800D02*
X103749040Y-144317600D01*
X103749040Y-142082400D02*
X103749040Y-141620120D01*
X96250960Y-142082400D02*
X96250960Y-141620120D01*
X98120400Y-140350120D02*
X98331220Y-140350120D01*
X101668780Y-140350120D02*
X101879600Y-140350120D01*
D18*
X98402340Y-145049120D02*
X98402340Y-144797660D01*
X98402340Y-144797660D02*
X98501400Y-144899260D01*
X98402340Y-144797660D02*
X98300740Y-144899260D01*
X98001020Y-145049120D02*
X98001020Y-144797660D01*
X98001020Y-144797660D02*
X98100080Y-144899260D01*
X98001020Y-144797660D02*
X97901960Y-144899260D01*
X97602240Y-145049120D02*
X97602240Y-144797660D01*
X97602240Y-144797660D02*
X97701300Y-144899260D01*
X97602240Y-144797660D02*
X97500640Y-144899260D01*
X97200920Y-145049120D02*
X97200920Y-144797660D01*
X97200920Y-144797660D02*
X97302520Y-144899260D01*
X97200920Y-144797660D02*
X97101860Y-144899260D01*
X96802140Y-145049120D02*
X96802140Y-144797660D01*
X96802140Y-144797660D02*
X96901200Y-144899260D01*
X96802140Y-144797660D02*
X96700540Y-144899260D01*
X103197860Y-145049120D02*
X103197860Y-144797660D01*
X103197860Y-144797660D02*
X103299460Y-144899260D01*
X103197860Y-144797660D02*
X103098800Y-144899260D01*
X102799080Y-145049120D02*
X102799080Y-144797660D01*
X102799080Y-144797660D02*
X102898140Y-144899260D01*
X102799080Y-144797660D02*
X102697480Y-144899260D01*
X102397760Y-145049120D02*
X102397760Y-144797660D01*
X102397760Y-144797660D02*
X102499360Y-144899260D01*
X102397760Y-144797660D02*
X102298700Y-144899260D01*
X101998980Y-145049120D02*
X101998980Y-144797660D01*
X101998980Y-144797660D02*
X102098040Y-144899260D01*
X101998980Y-144797660D02*
X101899920Y-144899260D01*
X101597660Y-145049120D02*
X101597660Y-144797660D01*
X101597660Y-144797660D02*
X101699260Y-144899260D01*
X101597660Y-144797660D02*
X101498600Y-144899260D01*
D17*
X102283280Y-89601500D02*
X104914720Y-89601500D01*
X105196660Y-89883440D02*
X105196660Y-90774980D01*
X104973140Y-90998500D02*
X102316300Y-90998500D01*
X102001340Y-90683540D02*
X102001340Y-89883440D01*
X104698820Y-90698780D02*
X102600780Y-90698780D01*
X102301060Y-90399060D02*
X102301060Y-90200940D01*
X102600780Y-89901220D02*
X104597220Y-89901220D01*
X104896940Y-90101880D02*
X104896940Y-90399060D01*
X102283280Y-89601500D02*
G75*
G03X102001340Y-89883440I0J-281940D01*
G01*
X105196660Y-89883440D02*
G75*
G03X104914720Y-89601500I-281940J0D01*
G01*
X104973140Y-90998500D02*
G75*
G03X105196660Y-90774980I0J223520D01*
G01*
X102001340Y-90683540D02*
G75*
G03X102316300Y-90998500I314960J0D01*
G01*
X102301060Y-90399583D02*
G75*
G03X102600780Y-90698780I299720J523D01*
G01*
X102600780Y-89901220D02*
G75*
G03X102301060Y-90200940I0J-299720D01*
G01*
X104896940Y-90099340D02*
G75*
G03X104597220Y-89901220I-248920J-50800D01*
G01*
X104698820Y-90698780D02*
G75*
G03X104896940Y-90399060I-50800J248920D01*
G01*
D14*
X74284000Y-95004779D02*
X74284000Y-94679221D01*
X75304000Y-95004779D02*
X75304000Y-94679221D01*
D17*
X122700780Y-109640440D02*
X122700780Y-110440540D01*
X123099560Y-110039220D02*
X122299460Y-110039220D01*
X125347460Y-105291960D02*
X121700020Y-105291960D01*
X119949960Y-107042020D02*
X119949960Y-110638660D01*
X122101340Y-112790040D02*
X125296660Y-112790040D01*
X127448040Y-107443340D02*
X127448040Y-110638660D01*
X124697220Y-109640440D02*
X124697220Y-110440540D01*
X123406900Y-110039220D02*
G75*
G03X123406900Y-110039220I-706120J0D01*
G01*
X125403340Y-110039220D02*
G75*
G03X125403340Y-110039220I-706120J0D01*
G01*
D14*
X124374721Y-124290000D02*
X124700279Y-124290000D01*
X124374721Y-125310000D02*
X124700279Y-125310000D01*
X124374721Y-127285000D02*
X124700279Y-127285000D01*
X124374721Y-126265000D02*
X124700279Y-126265000D01*
D10*
X82067000Y-79100000D02*
X117665000Y-79100000D01*
X117665000Y-79100000D02*
X117665000Y-112628000D01*
X117665000Y-112628000D02*
X82067000Y-112628000D01*
X82067000Y-112628000D02*
X82067000Y-79100000D01*
D13*
X100998220Y-122018000D02*
G75*
G03X100998220Y-122018000I-998220J0D01*
G01*
X101501140Y-122018000D02*
G75*
G03X101501140Y-122018000I-1501140J0D01*
G01*
X96700540Y-123216880D02*
X96700540Y-120819120D01*
X103299460Y-120819120D02*
X103299460Y-123216880D01*
X96700540Y-119018260D02*
X103299460Y-119018260D01*
X103299460Y-125017740D02*
X96700540Y-125017740D01*
X91945460Y-125017740D02*
X85346540Y-125017740D01*
X85346540Y-119018260D02*
X91945460Y-119018260D01*
X91945460Y-120819120D02*
X91945460Y-123216880D01*
X85346540Y-123216880D02*
X85346540Y-120819120D01*
X90147140Y-122018000D02*
G75*
G03X90147140Y-122018000I-1501140J0D01*
G01*
X89644220Y-122018000D02*
G75*
G03X89644220Y-122018000I-998220J0D01*
G01*
X114551460Y-125017740D02*
X107952540Y-125017740D01*
X107952540Y-119018260D02*
X114551460Y-119018260D01*
X114551460Y-120819120D02*
X114551460Y-123216880D01*
X107952540Y-123216880D02*
X107952540Y-120819120D01*
X112753140Y-122018000D02*
G75*
G03X112753140Y-122018000I-1501140J0D01*
G01*
X112250220Y-122018000D02*
G75*
G03X112250220Y-122018000I-998220J0D01*
G01*
D14*
X119612779Y-101760000D02*
X119287221Y-101760000D01*
X119612779Y-100740000D02*
X119287221Y-100740000D01*
X119287221Y-99060000D02*
X119612779Y-99060000D01*
X119287221Y-98040000D02*
X119612779Y-98040000D01*
D17*
X104250000Y-95000000D02*
X105000000Y-95000000D01*
X105000000Y-95000000D02*
X105000000Y-95750000D01*
X105000000Y-104250000D02*
X105000000Y-105000000D01*
X105000000Y-105000000D02*
X104250000Y-105000000D01*
X95750000Y-95000000D02*
X95000000Y-95000000D01*
X95000000Y-95000000D02*
X95000000Y-95750000D01*
X95000000Y-104250000D02*
X95000000Y-105000000D01*
X95000000Y-105000000D02*
X95750000Y-105000000D01*
D19*
X103900000Y-93000000D02*
G75*
G03X103900000Y-93000000I-100000J0D01*
G01*
D13*
X76460240Y-101059920D02*
X76460240Y-97260080D01*
X81255760Y-97260080D02*
X81255760Y-101059920D01*
X77181600Y-100049000D02*
G75*
G03X77181600Y-100049000I-254000J0D01*
G01*
D20*
X110841000Y-60444000D02*
X110841000Y-59936000D01*
X115159000Y-60317000D02*
X110841000Y-60317000D01*
X115159000Y-59936000D02*
X115159000Y-60444000D01*
X110841000Y-59936000D02*
X115159000Y-59936000D01*
X106269000Y-67683000D02*
X106269000Y-60571000D01*
X119604000Y-67683000D02*
X106269000Y-67683000D01*
X119604000Y-60571000D02*
X119604000Y-67683000D01*
X106396000Y-60571000D02*
X119604000Y-60571000D01*
D11*
X128150000Y-102176000D02*
X128150000Y-101676000D01*
X128150000Y-102176000D02*
X128650000Y-102176000D01*
X128150000Y-97976000D02*
X128650000Y-97976000D01*
X128150000Y-97976000D02*
X128150000Y-98476000D01*
X132150000Y-97976000D02*
X131650000Y-97976000D01*
X132150000Y-97976000D02*
X132150000Y-98476000D01*
X132150000Y-102176000D02*
X131650000Y-102176000D01*
X132150000Y-102176000D02*
X132150000Y-101676000D01*
X132150000Y-98376000D02*
X131750000Y-97976000D01*
X132150000Y-97976000D02*
X132150000Y-98376000D01*
X131750000Y-97976000D02*
X132150000Y-97976000D01*
X131850000Y-97976000D02*
X132150000Y-98276000D01*
X131950000Y-97976000D02*
X132150000Y-98176000D01*
X121334887Y-82894398D02*
X121151234Y-82675528D01*
X121610860Y-82289856D01*
X121704202Y-82845588D02*
X121832759Y-82998797D01*
X121647098Y-83266477D02*
X121463445Y-83047607D01*
X121923071Y-82661935D01*
X122106725Y-82880804D01*
X121812387Y-83463460D02*
X122272013Y-83077787D01*
X122363840Y-83187222D01*
X122397049Y-83271249D01*
X122390006Y-83351753D01*
X122364597Y-83410371D01*
X122295415Y-83505719D01*
X122229754Y-83560815D01*
X122123840Y-83612390D01*
X122061701Y-83627234D01*
X121981196Y-83620190D01*
X121904213Y-83572895D01*
X121812387Y-83463460D01*
X122620955Y-83493640D02*
X122878070Y-83800058D01*
X122253155Y-83988748D01*
D10*
X92769666Y-143379431D02*
X92436333Y-143379431D01*
X92436333Y-143903240D02*
X92436333Y-142903240D01*
X92912523Y-142903240D01*
X93817285Y-143903240D02*
X93245857Y-143903240D01*
X93531571Y-143903240D02*
X93531571Y-142903240D01*
X93436333Y-143046098D01*
X93341095Y-143141336D01*
X93245857Y-143188955D01*
D15*
X86569047Y-136043036D02*
X86660623Y-135961831D01*
X86757385Y-135794234D01*
X86762571Y-135707843D01*
X86748404Y-135654972D01*
X86700718Y-135582748D01*
X86633679Y-135544043D01*
X86547288Y-135538857D01*
X86494416Y-135553024D01*
X86422192Y-135600710D01*
X86311263Y-135715435D01*
X86239039Y-135763122D01*
X86186168Y-135777288D01*
X86099777Y-135772103D01*
X86032738Y-135733398D01*
X85985052Y-135661174D01*
X85970885Y-135608302D01*
X85976070Y-135521911D01*
X86072832Y-135354315D01*
X86164409Y-135273109D01*
X86266356Y-135019122D02*
X87067023Y-135257925D01*
X86641643Y-134833562D01*
X87221842Y-134989771D01*
X86614699Y-134415774D01*
X86963042Y-133812427D02*
X86769518Y-134147620D01*
X87085359Y-134374663D01*
X87071192Y-134321791D01*
X87076377Y-134235400D01*
X87173139Y-134067804D01*
X87245363Y-134020118D01*
X87298235Y-134005951D01*
X87384626Y-134011136D01*
X87552222Y-134107898D01*
X87599909Y-134180122D01*
X87614076Y-134232994D01*
X87608890Y-134319385D01*
X87512128Y-134486981D01*
X87439904Y-134534668D01*
X87387032Y-134548834D01*
D10*
X101533333Y-86957142D02*
X101485714Y-87004761D01*
X101342857Y-87052380D01*
X101247619Y-87052380D01*
X101104761Y-87004761D01*
X101009523Y-86909523D01*
X100961904Y-86814285D01*
X100914285Y-86623809D01*
X100914285Y-86480952D01*
X100961904Y-86290476D01*
X101009523Y-86195238D01*
X101104761Y-86100000D01*
X101247619Y-86052380D01*
X101342857Y-86052380D01*
X101485714Y-86100000D01*
X101533333Y-86147619D01*
X102485714Y-87052380D02*
X101914285Y-87052380D01*
X102200000Y-87052380D02*
X102200000Y-86052380D01*
X102104761Y-86195238D01*
X102009523Y-86290476D01*
X101914285Y-86338095D01*
X105633333Y-86957142D02*
X105585714Y-87004761D01*
X105442857Y-87052380D01*
X105347619Y-87052380D01*
X105204761Y-87004761D01*
X105109523Y-86909523D01*
X105061904Y-86814285D01*
X105014285Y-86623809D01*
X105014285Y-86480952D01*
X105061904Y-86290476D01*
X105109523Y-86195238D01*
X105204761Y-86100000D01*
X105347619Y-86052380D01*
X105442857Y-86052380D01*
X105585714Y-86100000D01*
X105633333Y-86147619D01*
X106014285Y-86147619D02*
X106061904Y-86100000D01*
X106157142Y-86052380D01*
X106395238Y-86052380D01*
X106490476Y-86100000D01*
X106538095Y-86147619D01*
X106585714Y-86242857D01*
X106585714Y-86338095D01*
X106538095Y-86480952D01*
X105966666Y-87052380D01*
X106585714Y-87052380D01*
X108733333Y-108257142D02*
X108685714Y-108304761D01*
X108542857Y-108352380D01*
X108447619Y-108352380D01*
X108304761Y-108304761D01*
X108209523Y-108209523D01*
X108161904Y-108114285D01*
X108114285Y-107923809D01*
X108114285Y-107780952D01*
X108161904Y-107590476D01*
X108209523Y-107495238D01*
X108304761Y-107400000D01*
X108447619Y-107352380D01*
X108542857Y-107352380D01*
X108685714Y-107400000D01*
X108733333Y-107447619D01*
X109066666Y-107352380D02*
X109685714Y-107352380D01*
X109352380Y-107733333D01*
X109495238Y-107733333D01*
X109590476Y-107780952D01*
X109638095Y-107828571D01*
X109685714Y-107923809D01*
X109685714Y-108161904D01*
X109638095Y-108257142D01*
X109590476Y-108304761D01*
X109495238Y-108352380D01*
X109209523Y-108352380D01*
X109114285Y-108304761D01*
X109066666Y-108257142D01*
X111583333Y-106857142D02*
X111535714Y-106904761D01*
X111392857Y-106952380D01*
X111297619Y-106952380D01*
X111154761Y-106904761D01*
X111059523Y-106809523D01*
X111011904Y-106714285D01*
X110964285Y-106523809D01*
X110964285Y-106380952D01*
X111011904Y-106190476D01*
X111059523Y-106095238D01*
X111154761Y-106000000D01*
X111297619Y-105952380D01*
X111392857Y-105952380D01*
X111535714Y-106000000D01*
X111583333Y-106047619D01*
X112440476Y-106285714D02*
X112440476Y-106952380D01*
X112202380Y-105904761D02*
X111964285Y-106619047D01*
X112583333Y-106619047D01*
X109583333Y-106857142D02*
X109535714Y-106904761D01*
X109392857Y-106952380D01*
X109297619Y-106952380D01*
X109154761Y-106904761D01*
X109059523Y-106809523D01*
X109011904Y-106714285D01*
X108964285Y-106523809D01*
X108964285Y-106380952D01*
X109011904Y-106190476D01*
X109059523Y-106095238D01*
X109154761Y-106000000D01*
X109297619Y-105952380D01*
X109392857Y-105952380D01*
X109535714Y-106000000D01*
X109583333Y-106047619D01*
X110488095Y-105952380D02*
X110011904Y-105952380D01*
X109964285Y-106428571D01*
X110011904Y-106380952D01*
X110107142Y-106333333D01*
X110345238Y-106333333D01*
X110440476Y-106380952D01*
X110488095Y-106428571D01*
X110535714Y-106523809D01*
X110535714Y-106761904D01*
X110488095Y-106857142D01*
X110440476Y-106904761D01*
X110345238Y-106952380D01*
X110107142Y-106952380D01*
X110011904Y-106904761D01*
X109964285Y-106857142D01*
X111833333Y-95857142D02*
X111785714Y-95904761D01*
X111642857Y-95952380D01*
X111547619Y-95952380D01*
X111404761Y-95904761D01*
X111309523Y-95809523D01*
X111261904Y-95714285D01*
X111214285Y-95523809D01*
X111214285Y-95380952D01*
X111261904Y-95190476D01*
X111309523Y-95095238D01*
X111404761Y-95000000D01*
X111547619Y-94952380D01*
X111642857Y-94952380D01*
X111785714Y-95000000D01*
X111833333Y-95047619D01*
X112690476Y-94952380D02*
X112500000Y-94952380D01*
X112404761Y-95000000D01*
X112357142Y-95047619D01*
X112261904Y-95190476D01*
X112214285Y-95380952D01*
X112214285Y-95761904D01*
X112261904Y-95857142D01*
X112309523Y-95904761D01*
X112404761Y-95952380D01*
X112595238Y-95952380D01*
X112690476Y-95904761D01*
X112738095Y-95857142D01*
X112785714Y-95761904D01*
X112785714Y-95523809D01*
X112738095Y-95428571D01*
X112690476Y-95380952D01*
X112595238Y-95333333D01*
X112404761Y-95333333D01*
X112309523Y-95380952D01*
X112261904Y-95428571D01*
X112214285Y-95523809D01*
X98733333Y-89456642D02*
X98685714Y-89504261D01*
X98542857Y-89551880D01*
X98447619Y-89551880D01*
X98304761Y-89504261D01*
X98209523Y-89409023D01*
X98161904Y-89313785D01*
X98114285Y-89123309D01*
X98114285Y-88980452D01*
X98161904Y-88789976D01*
X98209523Y-88694738D01*
X98304761Y-88599500D01*
X98447619Y-88551880D01*
X98542857Y-88551880D01*
X98685714Y-88599500D01*
X98733333Y-88647119D01*
X99209523Y-89551880D02*
X99400000Y-89551880D01*
X99495238Y-89504261D01*
X99542857Y-89456642D01*
X99638095Y-89313785D01*
X99685714Y-89123309D01*
X99685714Y-88742357D01*
X99638095Y-88647119D01*
X99590476Y-88599500D01*
X99495238Y-88551880D01*
X99304761Y-88551880D01*
X99209523Y-88599500D01*
X99161904Y-88647119D01*
X99114285Y-88742357D01*
X99114285Y-88980452D01*
X99161904Y-89075690D01*
X99209523Y-89123309D01*
X99304761Y-89170928D01*
X99495238Y-89170928D01*
X99590476Y-89123309D01*
X99638095Y-89075690D01*
X99685714Y-88980452D01*
X103757142Y-108157142D02*
X103709523Y-108204761D01*
X103566666Y-108252380D01*
X103471428Y-108252380D01*
X103328571Y-108204761D01*
X103233333Y-108109523D01*
X103185714Y-108014285D01*
X103138095Y-107823809D01*
X103138095Y-107680952D01*
X103185714Y-107490476D01*
X103233333Y-107395238D01*
X103328571Y-107300000D01*
X103471428Y-107252380D01*
X103566666Y-107252380D01*
X103709523Y-107300000D01*
X103757142Y-107347619D01*
X104709523Y-108252380D02*
X104138095Y-108252380D01*
X104423809Y-108252380D02*
X104423809Y-107252380D01*
X104328571Y-107395238D01*
X104233333Y-107490476D01*
X104138095Y-107538095D01*
X105328571Y-107252380D02*
X105423809Y-107252380D01*
X105519047Y-107300000D01*
X105566666Y-107347619D01*
X105614285Y-107442857D01*
X105661904Y-107633333D01*
X105661904Y-107871428D01*
X105614285Y-108061904D01*
X105566666Y-108157142D01*
X105519047Y-108204761D01*
X105423809Y-108252380D01*
X105328571Y-108252380D01*
X105233333Y-108204761D01*
X105185714Y-108157142D01*
X105138095Y-108061904D01*
X105090476Y-107871428D01*
X105090476Y-107633333D01*
X105138095Y-107442857D01*
X105185714Y-107347619D01*
X105233333Y-107300000D01*
X105328571Y-107252380D01*
X89657142Y-95257142D02*
X89609523Y-95304761D01*
X89466666Y-95352380D01*
X89371428Y-95352380D01*
X89228571Y-95304761D01*
X89133333Y-95209523D01*
X89085714Y-95114285D01*
X89038095Y-94923809D01*
X89038095Y-94780952D01*
X89085714Y-94590476D01*
X89133333Y-94495238D01*
X89228571Y-94400000D01*
X89371428Y-94352380D01*
X89466666Y-94352380D01*
X89609523Y-94400000D01*
X89657142Y-94447619D01*
X90609523Y-95352380D02*
X90038095Y-95352380D01*
X90323809Y-95352380D02*
X90323809Y-94352380D01*
X90228571Y-94495238D01*
X90133333Y-94590476D01*
X90038095Y-94638095D01*
X91561904Y-95352380D02*
X90990476Y-95352380D01*
X91276190Y-95352380D02*
X91276190Y-94352380D01*
X91180952Y-94495238D01*
X91085714Y-94590476D01*
X90990476Y-94638095D01*
X108607142Y-95857142D02*
X108559523Y-95904761D01*
X108416666Y-95952380D01*
X108321428Y-95952380D01*
X108178571Y-95904761D01*
X108083333Y-95809523D01*
X108035714Y-95714285D01*
X107988095Y-95523809D01*
X107988095Y-95380952D01*
X108035714Y-95190476D01*
X108083333Y-95095238D01*
X108178571Y-95000000D01*
X108321428Y-94952380D01*
X108416666Y-94952380D01*
X108559523Y-95000000D01*
X108607142Y-95047619D01*
X109559523Y-95952380D02*
X108988095Y-95952380D01*
X109273809Y-95952380D02*
X109273809Y-94952380D01*
X109178571Y-95095238D01*
X109083333Y-95190476D01*
X108988095Y-95238095D01*
X109940476Y-95047619D02*
X109988095Y-95000000D01*
X110083333Y-94952380D01*
X110321428Y-94952380D01*
X110416666Y-95000000D01*
X110464285Y-95047619D01*
X110511904Y-95142857D01*
X110511904Y-95238095D01*
X110464285Y-95380952D01*
X109892857Y-95952380D01*
X110511904Y-95952380D01*
X95057142Y-108057142D02*
X95009523Y-108104761D01*
X94866666Y-108152380D01*
X94771428Y-108152380D01*
X94628571Y-108104761D01*
X94533333Y-108009523D01*
X94485714Y-107914285D01*
X94438095Y-107723809D01*
X94438095Y-107580952D01*
X94485714Y-107390476D01*
X94533333Y-107295238D01*
X94628571Y-107200000D01*
X94771428Y-107152380D01*
X94866666Y-107152380D01*
X95009523Y-107200000D01*
X95057142Y-107247619D01*
X96009523Y-108152380D02*
X95438095Y-108152380D01*
X95723809Y-108152380D02*
X95723809Y-107152380D01*
X95628571Y-107295238D01*
X95533333Y-107390476D01*
X95438095Y-107438095D01*
X96342857Y-107152380D02*
X96961904Y-107152380D01*
X96628571Y-107533333D01*
X96771428Y-107533333D01*
X96866666Y-107580952D01*
X96914285Y-107628571D01*
X96961904Y-107723809D01*
X96961904Y-107961904D01*
X96914285Y-108057142D01*
X96866666Y-108104761D01*
X96771428Y-108152380D01*
X96485714Y-108152380D01*
X96390476Y-108104761D01*
X96342857Y-108057142D01*
X110357142Y-134927142D02*
X110309523Y-134974761D01*
X110166666Y-135022380D01*
X110071428Y-135022380D01*
X109928571Y-134974761D01*
X109833333Y-134879523D01*
X109785714Y-134784285D01*
X109738095Y-134593809D01*
X109738095Y-134450952D01*
X109785714Y-134260476D01*
X109833333Y-134165238D01*
X109928571Y-134070000D01*
X110071428Y-134022380D01*
X110166666Y-134022380D01*
X110309523Y-134070000D01*
X110357142Y-134117619D01*
X111309523Y-135022380D02*
X110738095Y-135022380D01*
X111023809Y-135022380D02*
X111023809Y-134022380D01*
X110928571Y-134165238D01*
X110833333Y-134260476D01*
X110738095Y-134308095D01*
X112166666Y-134355714D02*
X112166666Y-135022380D01*
X111928571Y-133974761D02*
X111690476Y-134689047D01*
X112309523Y-134689047D01*
X114107142Y-136107142D02*
X114059523Y-136154761D01*
X113916666Y-136202380D01*
X113821428Y-136202380D01*
X113678571Y-136154761D01*
X113583333Y-136059523D01*
X113535714Y-135964285D01*
X113488095Y-135773809D01*
X113488095Y-135630952D01*
X113535714Y-135440476D01*
X113583333Y-135345238D01*
X113678571Y-135250000D01*
X113821428Y-135202380D01*
X113916666Y-135202380D01*
X114059523Y-135250000D01*
X114107142Y-135297619D01*
X115059523Y-136202380D02*
X114488095Y-136202380D01*
X114773809Y-136202380D02*
X114773809Y-135202380D01*
X114678571Y-135345238D01*
X114583333Y-135440476D01*
X114488095Y-135488095D01*
X115964285Y-135202380D02*
X115488095Y-135202380D01*
X115440476Y-135678571D01*
X115488095Y-135630952D01*
X115583333Y-135583333D01*
X115821428Y-135583333D01*
X115916666Y-135630952D01*
X115964285Y-135678571D01*
X116011904Y-135773809D01*
X116011904Y-136011904D01*
X115964285Y-136107142D01*
X115916666Y-136154761D01*
X115821428Y-136202380D01*
X115583333Y-136202380D01*
X115488095Y-136154761D01*
X115440476Y-136107142D01*
X117632142Y-136132142D02*
X117584523Y-136179761D01*
X117441666Y-136227380D01*
X117346428Y-136227380D01*
X117203571Y-136179761D01*
X117108333Y-136084523D01*
X117060714Y-135989285D01*
X117013095Y-135798809D01*
X117013095Y-135655952D01*
X117060714Y-135465476D01*
X117108333Y-135370238D01*
X117203571Y-135275000D01*
X117346428Y-135227380D01*
X117441666Y-135227380D01*
X117584523Y-135275000D01*
X117632142Y-135322619D01*
X118584523Y-136227380D02*
X118013095Y-136227380D01*
X118298809Y-136227380D02*
X118298809Y-135227380D01*
X118203571Y-135370238D01*
X118108333Y-135465476D01*
X118013095Y-135513095D01*
X119441666Y-135227380D02*
X119251190Y-135227380D01*
X119155952Y-135275000D01*
X119108333Y-135322619D01*
X119013095Y-135465476D01*
X118965476Y-135655952D01*
X118965476Y-136036904D01*
X119013095Y-136132142D01*
X119060714Y-136179761D01*
X119155952Y-136227380D01*
X119346428Y-136227380D01*
X119441666Y-136179761D01*
X119489285Y-136132142D01*
X119536904Y-136036904D01*
X119536904Y-135798809D01*
X119489285Y-135703571D01*
X119441666Y-135655952D01*
X119346428Y-135608333D01*
X119155952Y-135608333D01*
X119060714Y-135655952D01*
X119013095Y-135703571D01*
X118965476Y-135798809D01*
X118557142Y-97057142D02*
X118509523Y-97104761D01*
X118366666Y-97152380D01*
X118271428Y-97152380D01*
X118128571Y-97104761D01*
X118033333Y-97009523D01*
X117985714Y-96914285D01*
X117938095Y-96723809D01*
X117938095Y-96580952D01*
X117985714Y-96390476D01*
X118033333Y-96295238D01*
X118128571Y-96200000D01*
X118271428Y-96152380D01*
X118366666Y-96152380D01*
X118509523Y-96200000D01*
X118557142Y-96247619D01*
X119509523Y-97152380D02*
X118938095Y-97152380D01*
X119223809Y-97152380D02*
X119223809Y-96152380D01*
X119128571Y-96295238D01*
X119033333Y-96390476D01*
X118938095Y-96438095D01*
X119842857Y-96152380D02*
X120509523Y-96152380D01*
X120080952Y-97152380D01*
D15*
X96400076Y-132767695D02*
X96400076Y-131954895D01*
X96593600Y-131954895D01*
X96709714Y-131993600D01*
X96787123Y-132071009D01*
X96825828Y-132148419D01*
X96864533Y-132303238D01*
X96864533Y-132419352D01*
X96825828Y-132574171D01*
X96787123Y-132651580D01*
X96709714Y-132728990D01*
X96593600Y-132767695D01*
X96400076Y-132767695D01*
X97638628Y-132767695D02*
X97174171Y-132767695D01*
X97406400Y-132767695D02*
X97406400Y-131954895D01*
X97328990Y-132071009D01*
X97251580Y-132148419D01*
X97174171Y-132187123D01*
X113864533Y-101367695D02*
X113477485Y-101367695D01*
X113477485Y-100554895D01*
X114561219Y-101367695D02*
X114096761Y-101367695D01*
X114328990Y-101367695D02*
X114328990Y-100554895D01*
X114251580Y-100671009D01*
X114174171Y-100748419D01*
X114096761Y-100787123D01*
X84922590Y-141745104D02*
X84845180Y-141706400D01*
X84767771Y-141628990D01*
X84651657Y-141512876D01*
X84574247Y-141474171D01*
X84496838Y-141474171D01*
X84535542Y-141667695D02*
X84458133Y-141628990D01*
X84380723Y-141551580D01*
X84342019Y-141396761D01*
X84342019Y-141125828D01*
X84380723Y-140971009D01*
X84458133Y-140893600D01*
X84535542Y-140854895D01*
X84690361Y-140854895D01*
X84767771Y-140893600D01*
X84845180Y-140971009D01*
X84883885Y-141125828D01*
X84883885Y-141396761D01*
X84845180Y-141551580D01*
X84767771Y-141628990D01*
X84690361Y-141667695D01*
X84535542Y-141667695D01*
X85657980Y-141667695D02*
X85193523Y-141667695D01*
X85425752Y-141667695D02*
X85425752Y-140854895D01*
X85348342Y-140971009D01*
X85270933Y-141048419D01*
X85193523Y-141087123D01*
X92422590Y-133345104D02*
X92345180Y-133306400D01*
X92267771Y-133228990D01*
X92151657Y-133112876D01*
X92074247Y-133074171D01*
X91996838Y-133074171D01*
X92035542Y-133267695D02*
X91958133Y-133228990D01*
X91880723Y-133151580D01*
X91842019Y-132996761D01*
X91842019Y-132725828D01*
X91880723Y-132571009D01*
X91958133Y-132493600D01*
X92035542Y-132454895D01*
X92190361Y-132454895D01*
X92267771Y-132493600D01*
X92345180Y-132571009D01*
X92383885Y-132725828D01*
X92383885Y-132996761D01*
X92345180Y-133151580D01*
X92267771Y-133228990D01*
X92190361Y-133267695D01*
X92035542Y-133267695D01*
X92693523Y-132532304D02*
X92732228Y-132493600D01*
X92809638Y-132454895D01*
X93003161Y-132454895D01*
X93080571Y-132493600D01*
X93119276Y-132532304D01*
X93157980Y-132609714D01*
X93157980Y-132687123D01*
X93119276Y-132803238D01*
X92654819Y-133267695D01*
X93157980Y-133267695D01*
D10*
X74981333Y-107272380D02*
X74648000Y-106796190D01*
X74409904Y-107272380D02*
X74409904Y-106272380D01*
X74790857Y-106272380D01*
X74886095Y-106320000D01*
X74933714Y-106367619D01*
X74981333Y-106462857D01*
X74981333Y-106605714D01*
X74933714Y-106700952D01*
X74886095Y-106748571D01*
X74790857Y-106796190D01*
X74409904Y-106796190D01*
X75933714Y-107272380D02*
X75362285Y-107272380D01*
X75648000Y-107272380D02*
X75648000Y-106272380D01*
X75552761Y-106415238D01*
X75457523Y-106510476D01*
X75362285Y-106558095D01*
X75045833Y-110320380D02*
X74712500Y-109844190D01*
X74474404Y-110320380D02*
X74474404Y-109320380D01*
X74855357Y-109320380D01*
X74950595Y-109368000D01*
X74998214Y-109415619D01*
X75045833Y-109510857D01*
X75045833Y-109653714D01*
X74998214Y-109748952D01*
X74950595Y-109796571D01*
X74855357Y-109844190D01*
X74474404Y-109844190D01*
X75426785Y-109415619D02*
X75474404Y-109368000D01*
X75569642Y-109320380D01*
X75807738Y-109320380D01*
X75902976Y-109368000D01*
X75950595Y-109415619D01*
X75998214Y-109510857D01*
X75998214Y-109606095D01*
X75950595Y-109748952D01*
X75379166Y-110320380D01*
X75998214Y-110320380D01*
X110833333Y-108352380D02*
X110500000Y-107876190D01*
X110261904Y-108352380D02*
X110261904Y-107352380D01*
X110642857Y-107352380D01*
X110738095Y-107400000D01*
X110785714Y-107447619D01*
X110833333Y-107542857D01*
X110833333Y-107685714D01*
X110785714Y-107780952D01*
X110738095Y-107828571D01*
X110642857Y-107876190D01*
X110261904Y-107876190D01*
X111166666Y-107352380D02*
X111785714Y-107352380D01*
X111452380Y-107733333D01*
X111595238Y-107733333D01*
X111690476Y-107780952D01*
X111738095Y-107828571D01*
X111785714Y-107923809D01*
X111785714Y-108161904D01*
X111738095Y-108257142D01*
X111690476Y-108304761D01*
X111595238Y-108352380D01*
X111309523Y-108352380D01*
X111214285Y-108304761D01*
X111166666Y-108257142D01*
X73933333Y-100352880D02*
X73600000Y-99876690D01*
X73361904Y-100352880D02*
X73361904Y-99352880D01*
X73742857Y-99352880D01*
X73838095Y-99400500D01*
X73885714Y-99448119D01*
X73933333Y-99543357D01*
X73933333Y-99686214D01*
X73885714Y-99781452D01*
X73838095Y-99829071D01*
X73742857Y-99876690D01*
X73361904Y-99876690D01*
X74790476Y-99686214D02*
X74790476Y-100352880D01*
X74552380Y-99305261D02*
X74314285Y-100019547D01*
X74933333Y-100019547D01*
X112833333Y-108252380D02*
X112500000Y-107776190D01*
X112261904Y-108252380D02*
X112261904Y-107252380D01*
X112642857Y-107252380D01*
X112738095Y-107300000D01*
X112785714Y-107347619D01*
X112833333Y-107442857D01*
X112833333Y-107585714D01*
X112785714Y-107680952D01*
X112738095Y-107728571D01*
X112642857Y-107776190D01*
X112261904Y-107776190D01*
X113738095Y-107252380D02*
X113261904Y-107252380D01*
X113214285Y-107728571D01*
X113261904Y-107680952D01*
X113357142Y-107633333D01*
X113595238Y-107633333D01*
X113690476Y-107680952D01*
X113738095Y-107728571D01*
X113785714Y-107823809D01*
X113785714Y-108061904D01*
X113738095Y-108157142D01*
X113690476Y-108204761D01*
X113595238Y-108252380D01*
X113357142Y-108252380D01*
X113261904Y-108204761D01*
X113214285Y-108157142D01*
X89830333Y-139107880D02*
X89497000Y-138631690D01*
X89258904Y-139107880D02*
X89258904Y-138107880D01*
X89639857Y-138107880D01*
X89735095Y-138155500D01*
X89782714Y-138203119D01*
X89830333Y-138298357D01*
X89830333Y-138441214D01*
X89782714Y-138536452D01*
X89735095Y-138584071D01*
X89639857Y-138631690D01*
X89258904Y-138631690D01*
X90687476Y-138107880D02*
X90497000Y-138107880D01*
X90401761Y-138155500D01*
X90354142Y-138203119D01*
X90258904Y-138345976D01*
X90211285Y-138536452D01*
X90211285Y-138917404D01*
X90258904Y-139012642D01*
X90306523Y-139060261D01*
X90401761Y-139107880D01*
X90592238Y-139107880D01*
X90687476Y-139060261D01*
X90735095Y-139012642D01*
X90782714Y-138917404D01*
X90782714Y-138679309D01*
X90735095Y-138584071D01*
X90687476Y-138536452D01*
X90592238Y-138488833D01*
X90401761Y-138488833D01*
X90306523Y-138536452D01*
X90258904Y-138584071D01*
X90211285Y-138679309D01*
X107858333Y-140764880D02*
X107525000Y-140288690D01*
X107286904Y-140764880D02*
X107286904Y-139764880D01*
X107667857Y-139764880D01*
X107763095Y-139812500D01*
X107810714Y-139860119D01*
X107858333Y-139955357D01*
X107858333Y-140098214D01*
X107810714Y-140193452D01*
X107763095Y-140241071D01*
X107667857Y-140288690D01*
X107286904Y-140288690D01*
X108191666Y-139764880D02*
X108858333Y-139764880D01*
X108429761Y-140764880D01*
X81819642Y-66886380D02*
X81486309Y-66410190D01*
X81248214Y-66886380D02*
X81248214Y-65886380D01*
X81629166Y-65886380D01*
X81724404Y-65934000D01*
X81772023Y-65981619D01*
X81819642Y-66076857D01*
X81819642Y-66219714D01*
X81772023Y-66314952D01*
X81724404Y-66362571D01*
X81629166Y-66410190D01*
X81248214Y-66410190D01*
X82772023Y-66886380D02*
X82200595Y-66886380D01*
X82486309Y-66886380D02*
X82486309Y-65886380D01*
X82391071Y-66029238D01*
X82295833Y-66124476D01*
X82200595Y-66172095D01*
X83391071Y-65886380D02*
X83486309Y-65886380D01*
X83581547Y-65934000D01*
X83629166Y-65981619D01*
X83676785Y-66076857D01*
X83724404Y-66267333D01*
X83724404Y-66505428D01*
X83676785Y-66695904D01*
X83629166Y-66791142D01*
X83581547Y-66838761D01*
X83486309Y-66886380D01*
X83391071Y-66886380D01*
X83295833Y-66838761D01*
X83248214Y-66791142D01*
X83200595Y-66695904D01*
X83152976Y-66505428D01*
X83152976Y-66267333D01*
X83200595Y-66076857D01*
X83248214Y-65981619D01*
X83295833Y-65934000D01*
X83391071Y-65886380D01*
X87105142Y-66886380D02*
X86771809Y-66410190D01*
X86533714Y-66886380D02*
X86533714Y-65886380D01*
X86914666Y-65886380D01*
X87009904Y-65934000D01*
X87057523Y-65981619D01*
X87105142Y-66076857D01*
X87105142Y-66219714D01*
X87057523Y-66314952D01*
X87009904Y-66362571D01*
X86914666Y-66410190D01*
X86533714Y-66410190D01*
X88057523Y-66886380D02*
X87486095Y-66886380D01*
X87771809Y-66886380D02*
X87771809Y-65886380D01*
X87676571Y-66029238D01*
X87581333Y-66124476D01*
X87486095Y-66172095D01*
X89009904Y-66886380D02*
X88438476Y-66886380D01*
X88724190Y-66886380D02*
X88724190Y-65886380D01*
X88628952Y-66029238D01*
X88533714Y-66124476D01*
X88438476Y-66172095D01*
X109857642Y-91952380D02*
X109524309Y-91476190D01*
X109286214Y-91952380D02*
X109286214Y-90952380D01*
X109667166Y-90952380D01*
X109762404Y-91000000D01*
X109810023Y-91047619D01*
X109857642Y-91142857D01*
X109857642Y-91285714D01*
X109810023Y-91380952D01*
X109762404Y-91428571D01*
X109667166Y-91476190D01*
X109286214Y-91476190D01*
X110810023Y-91952380D02*
X110238595Y-91952380D01*
X110524309Y-91952380D02*
X110524309Y-90952380D01*
X110429071Y-91095238D01*
X110333833Y-91190476D01*
X110238595Y-91238095D01*
X111190976Y-91047619D02*
X111238595Y-91000000D01*
X111333833Y-90952380D01*
X111571928Y-90952380D01*
X111667166Y-91000000D01*
X111714785Y-91047619D01*
X111762404Y-91142857D01*
X111762404Y-91238095D01*
X111714785Y-91380952D01*
X111143357Y-91952380D01*
X111762404Y-91952380D01*
X121137142Y-92532380D02*
X120803809Y-92056190D01*
X120565714Y-92532380D02*
X120565714Y-91532380D01*
X120946666Y-91532380D01*
X121041904Y-91580000D01*
X121089523Y-91627619D01*
X121137142Y-91722857D01*
X121137142Y-91865714D01*
X121089523Y-91960952D01*
X121041904Y-92008571D01*
X120946666Y-92056190D01*
X120565714Y-92056190D01*
X122089523Y-92532380D02*
X121518095Y-92532380D01*
X121803809Y-92532380D02*
X121803809Y-91532380D01*
X121708571Y-91675238D01*
X121613333Y-91770476D01*
X121518095Y-91818095D01*
X122422857Y-91532380D02*
X123041904Y-91532380D01*
X122708571Y-91913333D01*
X122851428Y-91913333D01*
X122946666Y-91960952D01*
X122994285Y-92008571D01*
X123041904Y-92103809D01*
X123041904Y-92341904D01*
X122994285Y-92437142D01*
X122946666Y-92484761D01*
X122851428Y-92532380D01*
X122565714Y-92532380D01*
X122470476Y-92484761D01*
X122422857Y-92437142D01*
X124355142Y-94094380D02*
X124021809Y-93618190D01*
X123783714Y-94094380D02*
X123783714Y-93094380D01*
X124164666Y-93094380D01*
X124259904Y-93142000D01*
X124307523Y-93189619D01*
X124355142Y-93284857D01*
X124355142Y-93427714D01*
X124307523Y-93522952D01*
X124259904Y-93570571D01*
X124164666Y-93618190D01*
X123783714Y-93618190D01*
X125307523Y-94094380D02*
X124736095Y-94094380D01*
X125021809Y-94094380D02*
X125021809Y-93094380D01*
X124926571Y-93237238D01*
X124831333Y-93332476D01*
X124736095Y-93380095D01*
X126164666Y-93427714D02*
X126164666Y-94094380D01*
X125926571Y-93046761D02*
X125688476Y-93761047D01*
X126307523Y-93761047D01*
X110938035Y-140752420D02*
X110938035Y-141561944D01*
X110985654Y-141657182D01*
X111033273Y-141704801D01*
X111128511Y-141752420D01*
X111318987Y-141752420D01*
X111414225Y-141704801D01*
X111461844Y-141657182D01*
X111509463Y-141561944D01*
X111509463Y-140752420D01*
X111890416Y-140752420D02*
X112509463Y-140752420D01*
X112176130Y-141133373D01*
X112318987Y-141133373D01*
X112414225Y-141180992D01*
X112461844Y-141228611D01*
X112509463Y-141323849D01*
X112509463Y-141561944D01*
X112461844Y-141657182D01*
X112414225Y-141704801D01*
X112318987Y-141752420D01*
X112033273Y-141752420D01*
X111938035Y-141704801D01*
X111890416Y-141657182D01*
X78338095Y-104652380D02*
X78338095Y-105461904D01*
X78385714Y-105557142D01*
X78433333Y-105604761D01*
X78528571Y-105652380D01*
X78719047Y-105652380D01*
X78814285Y-105604761D01*
X78861904Y-105557142D01*
X78909523Y-105461904D01*
X78909523Y-104652380D01*
X79814285Y-104985714D02*
X79814285Y-105652380D01*
X79576190Y-104604761D02*
X79338095Y-105319047D01*
X79957142Y-105319047D01*
X123208095Y-100192380D02*
X123208095Y-101001904D01*
X123255714Y-101097142D01*
X123303333Y-101144761D01*
X123398571Y-101192380D01*
X123589047Y-101192380D01*
X123684285Y-101144761D01*
X123731904Y-101097142D01*
X123779523Y-101001904D01*
X123779523Y-100192380D01*
X124731904Y-100192380D02*
X124255714Y-100192380D01*
X124208095Y-100668571D01*
X124255714Y-100620952D01*
X124350952Y-100573333D01*
X124589047Y-100573333D01*
X124684285Y-100620952D01*
X124731904Y-100668571D01*
X124779523Y-100763809D01*
X124779523Y-101001904D01*
X124731904Y-101097142D01*
X124684285Y-101144761D01*
X124589047Y-101192380D01*
X124350952Y-101192380D01*
X124255714Y-101144761D01*
X124208095Y-101097142D01*
X105414476Y-142497380D02*
X106081142Y-143497380D01*
X106081142Y-142497380D02*
X105414476Y-143497380D01*
X106414476Y-142592619D02*
X106462095Y-142545000D01*
X106557333Y-142497380D01*
X106795428Y-142497380D01*
X106890666Y-142545000D01*
X106938285Y-142592619D01*
X106985904Y-142687857D01*
X106985904Y-142783095D01*
X106938285Y-142925952D01*
X106366857Y-143497380D01*
X106985904Y-143497380D01*
D21*
X100241904Y-144652517D02*
X100326571Y-144652517D01*
X100362857Y-144785564D02*
X100241904Y-144785564D01*
X100241904Y-144531564D01*
X100362857Y-144531564D01*
X100580571Y-144785564D02*
X100580571Y-144531564D01*
X100580571Y-144773469D02*
X100556380Y-144785564D01*
X100508000Y-144785564D01*
X100483809Y-144773469D01*
X100471714Y-144761374D01*
X100459619Y-144737183D01*
X100459619Y-144664612D01*
X100471714Y-144640421D01*
X100483809Y-144628326D01*
X100508000Y-144616231D01*
X100556380Y-144616231D01*
X100580571Y-144628326D01*
X100810380Y-144616231D02*
X100810380Y-144821850D01*
X100798285Y-144846040D01*
X100786190Y-144858136D01*
X100762000Y-144870231D01*
X100725714Y-144870231D01*
X100701523Y-144858136D01*
X100810380Y-144773469D02*
X100786190Y-144785564D01*
X100737809Y-144785564D01*
X100713619Y-144773469D01*
X100701523Y-144761374D01*
X100689428Y-144737183D01*
X100689428Y-144664612D01*
X100701523Y-144640421D01*
X100713619Y-144628326D01*
X100737809Y-144616231D01*
X100786190Y-144616231D01*
X100810380Y-144628326D01*
X101028095Y-144773469D02*
X101003904Y-144785564D01*
X100955523Y-144785564D01*
X100931333Y-144773469D01*
X100919238Y-144749279D01*
X100919238Y-144652517D01*
X100931333Y-144628326D01*
X100955523Y-144616231D01*
X101003904Y-144616231D01*
X101028095Y-144628326D01*
X101040190Y-144652517D01*
X101040190Y-144676707D01*
X100919238Y-144700898D01*
X101378857Y-144785564D02*
X101354666Y-144773469D01*
X101342571Y-144761374D01*
X101330476Y-144737183D01*
X101330476Y-144664612D01*
X101342571Y-144640421D01*
X101354666Y-144628326D01*
X101378857Y-144616231D01*
X101415142Y-144616231D01*
X101439333Y-144628326D01*
X101451428Y-144640421D01*
X101463523Y-144664612D01*
X101463523Y-144737183D01*
X101451428Y-144761374D01*
X101439333Y-144773469D01*
X101415142Y-144785564D01*
X101378857Y-144785564D01*
X101536095Y-144616231D02*
X101632857Y-144616231D01*
X101572380Y-144785564D02*
X101572380Y-144567850D01*
X101584476Y-144543660D01*
X101608666Y-144531564D01*
X101632857Y-144531564D01*
X101911047Y-144785564D02*
X101911047Y-144531564D01*
X102007809Y-144531564D01*
X102032000Y-144543660D01*
X102044095Y-144555755D01*
X102056190Y-144579945D01*
X102056190Y-144616231D01*
X102044095Y-144640421D01*
X102032000Y-144652517D01*
X102007809Y-144664612D01*
X101911047Y-144664612D01*
X102310190Y-144761374D02*
X102298095Y-144773469D01*
X102261809Y-144785564D01*
X102237619Y-144785564D01*
X102201333Y-144773469D01*
X102177142Y-144749279D01*
X102165047Y-144725088D01*
X102152952Y-144676707D01*
X102152952Y-144640421D01*
X102165047Y-144592040D01*
X102177142Y-144567850D01*
X102201333Y-144543660D01*
X102237619Y-144531564D01*
X102261809Y-144531564D01*
X102298095Y-144543660D01*
X102310190Y-144555755D01*
X102503714Y-144652517D02*
X102540000Y-144664612D01*
X102552095Y-144676707D01*
X102564190Y-144700898D01*
X102564190Y-144737183D01*
X102552095Y-144761374D01*
X102540000Y-144773469D01*
X102515809Y-144785564D01*
X102419047Y-144785564D01*
X102419047Y-144531564D01*
X102503714Y-144531564D01*
X102527904Y-144543660D01*
X102540000Y-144555755D01*
X102552095Y-144579945D01*
X102552095Y-144604136D01*
X102540000Y-144628326D01*
X102527904Y-144640421D01*
X102503714Y-144652517D01*
X102419047Y-144652517D01*
D10*
X106023929Y-90226190D02*
X106023929Y-90702380D01*
X105690596Y-89702380D02*
X106023929Y-90226190D01*
X106357262Y-89702380D01*
X107214405Y-90702380D02*
X106642977Y-90702380D01*
X106928691Y-90702380D02*
X106928691Y-89702380D01*
X106833453Y-89845238D01*
X106738215Y-89940476D01*
X106642977Y-89988095D01*
X74157142Y-92957142D02*
X74109523Y-93004761D01*
X73966666Y-93052380D01*
X73871428Y-93052380D01*
X73728571Y-93004761D01*
X73633333Y-92909523D01*
X73585714Y-92814285D01*
X73538095Y-92623809D01*
X73538095Y-92480952D01*
X73585714Y-92290476D01*
X73633333Y-92195238D01*
X73728571Y-92100000D01*
X73871428Y-92052380D01*
X73966666Y-92052380D01*
X74109523Y-92100000D01*
X74157142Y-92147619D01*
X75109523Y-93052380D02*
X74538095Y-93052380D01*
X74823809Y-93052380D02*
X74823809Y-92052380D01*
X74728571Y-92195238D01*
X74633333Y-92290476D01*
X74538095Y-92338095D01*
X75680952Y-92480952D02*
X75585714Y-92433333D01*
X75538095Y-92385714D01*
X75490476Y-92290476D01*
X75490476Y-92242857D01*
X75538095Y-92147619D01*
X75585714Y-92100000D01*
X75680952Y-92052380D01*
X75871428Y-92052380D01*
X75966666Y-92100000D01*
X76014285Y-92147619D01*
X76061904Y-92242857D01*
X76061904Y-92290476D01*
X76014285Y-92385714D01*
X75966666Y-92433333D01*
X75871428Y-92480952D01*
X75680952Y-92480952D01*
X75585714Y-92528571D01*
X75538095Y-92576190D01*
X75490476Y-92671428D01*
X75490476Y-92861904D01*
X75538095Y-92957142D01*
X75585714Y-93004761D01*
X75680952Y-93052380D01*
X75871428Y-93052380D01*
X75966666Y-93004761D01*
X76014285Y-92957142D01*
X76061904Y-92861904D01*
X76061904Y-92671428D01*
X76014285Y-92576190D01*
X75966666Y-92528571D01*
X75871428Y-92480952D01*
X122315095Y-108118761D02*
X122457952Y-108166380D01*
X122696047Y-108166380D01*
X122791285Y-108118761D01*
X122838904Y-108071142D01*
X122886523Y-107975904D01*
X122886523Y-107880666D01*
X122838904Y-107785428D01*
X122791285Y-107737809D01*
X122696047Y-107690190D01*
X122505571Y-107642571D01*
X122410333Y-107594952D01*
X122362714Y-107547333D01*
X122315095Y-107452095D01*
X122315095Y-107356857D01*
X122362714Y-107261619D01*
X122410333Y-107214000D01*
X122505571Y-107166380D01*
X122743666Y-107166380D01*
X122886523Y-107214000D01*
X123315095Y-108166380D02*
X123315095Y-107166380D01*
X123696047Y-107166380D01*
X123791285Y-107214000D01*
X123838904Y-107261619D01*
X123886523Y-107356857D01*
X123886523Y-107499714D01*
X123838904Y-107594952D01*
X123791285Y-107642571D01*
X123696047Y-107690190D01*
X123315095Y-107690190D01*
X124838904Y-108166380D02*
X124267476Y-108166380D01*
X124553190Y-108166380D02*
X124553190Y-107166380D01*
X124457952Y-107309238D01*
X124362714Y-107404476D01*
X124267476Y-107452095D01*
X121808333Y-125352380D02*
X121475000Y-124876190D01*
X121236904Y-125352380D02*
X121236904Y-124352380D01*
X121617857Y-124352380D01*
X121713095Y-124400000D01*
X121760714Y-124447619D01*
X121808333Y-124542857D01*
X121808333Y-124685714D01*
X121760714Y-124780952D01*
X121713095Y-124828571D01*
X121617857Y-124876190D01*
X121236904Y-124876190D01*
X122379761Y-124780952D02*
X122284523Y-124733333D01*
X122236904Y-124685714D01*
X122189285Y-124590476D01*
X122189285Y-124542857D01*
X122236904Y-124447619D01*
X122284523Y-124400000D01*
X122379761Y-124352380D01*
X122570238Y-124352380D01*
X122665476Y-124400000D01*
X122713095Y-124447619D01*
X122760714Y-124542857D01*
X122760714Y-124590476D01*
X122713095Y-124685714D01*
X122665476Y-124733333D01*
X122570238Y-124780952D01*
X122379761Y-124780952D01*
X122284523Y-124828571D01*
X122236904Y-124876190D01*
X122189285Y-124971428D01*
X122189285Y-125161904D01*
X122236904Y-125257142D01*
X122284523Y-125304761D01*
X122379761Y-125352380D01*
X122570238Y-125352380D01*
X122665476Y-125304761D01*
X122713095Y-125257142D01*
X122760714Y-125161904D01*
X122760714Y-124971428D01*
X122713095Y-124876190D01*
X122665476Y-124828571D01*
X122570238Y-124780952D01*
X121833333Y-127302380D02*
X121500000Y-126826190D01*
X121261904Y-127302380D02*
X121261904Y-126302380D01*
X121642857Y-126302380D01*
X121738095Y-126350000D01*
X121785714Y-126397619D01*
X121833333Y-126492857D01*
X121833333Y-126635714D01*
X121785714Y-126730952D01*
X121738095Y-126778571D01*
X121642857Y-126826190D01*
X121261904Y-126826190D01*
X122309523Y-127302380D02*
X122500000Y-127302380D01*
X122595238Y-127254761D01*
X122642857Y-127207142D01*
X122738095Y-127064285D01*
X122785714Y-126873809D01*
X122785714Y-126492857D01*
X122738095Y-126397619D01*
X122690476Y-126350000D01*
X122595238Y-126302380D01*
X122404761Y-126302380D01*
X122309523Y-126350000D01*
X122261904Y-126397619D01*
X122214285Y-126492857D01*
X122214285Y-126730952D01*
X122261904Y-126826190D01*
X122309523Y-126873809D01*
X122404761Y-126921428D01*
X122595238Y-126921428D01*
X122690476Y-126873809D01*
X122738095Y-126826190D01*
X122785714Y-126730952D01*
X99123095Y-110810380D02*
X99123095Y-111619904D01*
X99170714Y-111715142D01*
X99218333Y-111762761D01*
X99313571Y-111810380D01*
X99504047Y-111810380D01*
X99599285Y-111762761D01*
X99646904Y-111715142D01*
X99694523Y-111619904D01*
X99694523Y-110810380D01*
X100599285Y-110810380D02*
X100408809Y-110810380D01*
X100313571Y-110858000D01*
X100265952Y-110905619D01*
X100170714Y-111048476D01*
X100123095Y-111238952D01*
X100123095Y-111619904D01*
X100170714Y-111715142D01*
X100218333Y-111762761D01*
X100313571Y-111810380D01*
X100504047Y-111810380D01*
X100599285Y-111762761D01*
X100646904Y-111715142D01*
X100694523Y-111619904D01*
X100694523Y-111381809D01*
X100646904Y-111286571D01*
X100599285Y-111238952D01*
X100504047Y-111191333D01*
X100313571Y-111191333D01*
X100218333Y-111238952D01*
X100170714Y-111286571D01*
X100123095Y-111381809D01*
X119283333Y-103037142D02*
X119235714Y-103084761D01*
X119092857Y-103132380D01*
X118997619Y-103132380D01*
X118854761Y-103084761D01*
X118759523Y-102989523D01*
X118711904Y-102894285D01*
X118664285Y-102703809D01*
X118664285Y-102560952D01*
X118711904Y-102370476D01*
X118759523Y-102275238D01*
X118854761Y-102180000D01*
X118997619Y-102132380D01*
X119092857Y-102132380D01*
X119235714Y-102180000D01*
X119283333Y-102227619D01*
X119616666Y-102132380D02*
X120283333Y-102132380D01*
X119854761Y-103132380D01*
X119183333Y-100307142D02*
X119135714Y-100354761D01*
X118992857Y-100402380D01*
X118897619Y-100402380D01*
X118754761Y-100354761D01*
X118659523Y-100259523D01*
X118611904Y-100164285D01*
X118564285Y-99973809D01*
X118564285Y-99830952D01*
X118611904Y-99640476D01*
X118659523Y-99545238D01*
X118754761Y-99450000D01*
X118897619Y-99402380D01*
X118992857Y-99402380D01*
X119135714Y-99450000D01*
X119183333Y-99497619D01*
X119754761Y-99830952D02*
X119659523Y-99783333D01*
X119611904Y-99735714D01*
X119564285Y-99640476D01*
X119564285Y-99592857D01*
X119611904Y-99497619D01*
X119659523Y-99450000D01*
X119754761Y-99402380D01*
X119945238Y-99402380D01*
X120040476Y-99450000D01*
X120088095Y-99497619D01*
X120135714Y-99592857D01*
X120135714Y-99640476D01*
X120088095Y-99735714D01*
X120040476Y-99783333D01*
X119945238Y-99830952D01*
X119754761Y-99830952D01*
X119659523Y-99878571D01*
X119611904Y-99926190D01*
X119564285Y-100021428D01*
X119564285Y-100211904D01*
X119611904Y-100307142D01*
X119659523Y-100354761D01*
X119754761Y-100402380D01*
X119945238Y-100402380D01*
X120040476Y-100354761D01*
X120088095Y-100307142D01*
X120135714Y-100211904D01*
X120135714Y-100021428D01*
X120088095Y-99926190D01*
X120040476Y-99878571D01*
X119945238Y-99830952D01*
X99338095Y-106952380D02*
X99338095Y-107761904D01*
X99385714Y-107857142D01*
X99433333Y-107904761D01*
X99528571Y-107952380D01*
X99719047Y-107952380D01*
X99814285Y-107904761D01*
X99861904Y-107857142D01*
X99909523Y-107761904D01*
X99909523Y-106952380D01*
X100909523Y-107952380D02*
X100338095Y-107952380D01*
X100623809Y-107952380D02*
X100623809Y-106952380D01*
X100528571Y-107095238D01*
X100433333Y-107190476D01*
X100338095Y-107238095D01*
D15*
X78365723Y-97673495D02*
X78365723Y-98331476D01*
X78404428Y-98408885D01*
X78443133Y-98447590D01*
X78520542Y-98486295D01*
X78675361Y-98486295D01*
X78752771Y-98447590D01*
X78791476Y-98408885D01*
X78830180Y-98331476D01*
X78830180Y-97673495D01*
X79178523Y-97750904D02*
X79217228Y-97712200D01*
X79294638Y-97673495D01*
X79488161Y-97673495D01*
X79565571Y-97712200D01*
X79604276Y-97750904D01*
X79642980Y-97828314D01*
X79642980Y-97905723D01*
X79604276Y-98021838D01*
X79139819Y-98486295D01*
X79642980Y-98486295D01*
M02*
