G04 #@! TF.GenerationSoftware,KiCad,Pcbnew,(5.1.4-0-10_14)*
G04 #@! TF.CreationDate,2019-11-18T16:06:03-06:00*
G04 #@! TF.ProjectId,CircuitPythonBadge v1_3,43697263-7569-4745-9079-74686f6e4261,rev?*
G04 #@! TF.SameCoordinates,Original*
G04 #@! TF.FileFunction,Soldermask,Bot*
G04 #@! TF.FilePolarity,Negative*
%FSLAX46Y46*%
G04 Gerber Fmt 4.6, Leading zero omitted, Abs format (unit mm)*
G04 Created by KiCad (PCBNEW (5.1.4-0-10_14)) date 2019-11-18 16:06:03*
%MOMM*%
%LPD*%
G04 APERTURE LIST*
%ADD10C,0.127000*%
%ADD11C,0.100000*%
G04 APERTURE END LIST*
D10*
G36*
X55969465Y-91620365D02*
G01*
X55775190Y-92681558D01*
X55589853Y-93940899D01*
X55465332Y-95205147D01*
X55365846Y-96536446D01*
X57012278Y-96674625D01*
X57376196Y-96691159D01*
X57735911Y-96658554D01*
X58086690Y-96573671D01*
X58422873Y-96440932D01*
X58736896Y-96259408D01*
X59022788Y-96036045D01*
X59274888Y-95775264D01*
X59485014Y-95481180D01*
X59652547Y-95158835D01*
X59771206Y-94817693D01*
X59842894Y-94463106D01*
X59859118Y-94101710D01*
X59826513Y-93741995D01*
X59741939Y-93388695D01*
X59609200Y-93052512D01*
X59427677Y-92738489D01*
X59204313Y-92452597D01*
X58943533Y-92200497D01*
X58649449Y-91990371D01*
X58334577Y-91782810D01*
X58080300Y-91623635D01*
X57717617Y-91451150D01*
X56078924Y-91249943D01*
X55969465Y-91620365D01*
G37*
X55969465Y-91620365D02*
X55775190Y-92681558D01*
X55589853Y-93940899D01*
X55465332Y-95205147D01*
X55365846Y-96536446D01*
X57012278Y-96674625D01*
X57376196Y-96691159D01*
X57735911Y-96658554D01*
X58086690Y-96573671D01*
X58422873Y-96440932D01*
X58736896Y-96259408D01*
X59022788Y-96036045D01*
X59274888Y-95775264D01*
X59485014Y-95481180D01*
X59652547Y-95158835D01*
X59771206Y-94817693D01*
X59842894Y-94463106D01*
X59859118Y-94101710D01*
X59826513Y-93741995D01*
X59741939Y-93388695D01*
X59609200Y-93052512D01*
X59427677Y-92738489D01*
X59204313Y-92452597D01*
X58943533Y-92200497D01*
X58649449Y-91990371D01*
X58334577Y-91782810D01*
X58080300Y-91623635D01*
X57717617Y-91451150D01*
X56078924Y-91249943D01*
X55969465Y-91620365D01*
G36*
X69493998Y-132835523D02*
G01*
X70278180Y-133576424D01*
X71233410Y-134417746D01*
X72225879Y-135210737D01*
X73288216Y-136019250D01*
X74300815Y-134713694D01*
X74512885Y-134417492D01*
X74681455Y-134098052D01*
X74801314Y-133757633D01*
X74873087Y-133403391D01*
X74891878Y-133041165D01*
X74860258Y-132679743D01*
X74778853Y-132326283D01*
X74646656Y-131989887D01*
X74467559Y-131673820D01*
X74246080Y-131388505D01*
X73987742Y-131135261D01*
X73693486Y-130924823D01*
X73374046Y-130756253D01*
X73031681Y-130634762D01*
X72677440Y-130562988D01*
X72315213Y-130544197D01*
X71953791Y-130575817D01*
X71600331Y-130657223D01*
X71263935Y-130789419D01*
X70918369Y-130940448D01*
X70646384Y-131067009D01*
X70304194Y-131277238D01*
X69242952Y-132541977D01*
X69493998Y-132835523D01*
G37*
X69493998Y-132835523D02*
X70278180Y-133576424D01*
X71233410Y-134417746D01*
X72225879Y-135210737D01*
X73288216Y-136019250D01*
X74300815Y-134713694D01*
X74512885Y-134417492D01*
X74681455Y-134098052D01*
X74801314Y-133757633D01*
X74873087Y-133403391D01*
X74891878Y-133041165D01*
X74860258Y-132679743D01*
X74778853Y-132326283D01*
X74646656Y-131989887D01*
X74467559Y-131673820D01*
X74246080Y-131388505D01*
X73987742Y-131135261D01*
X73693486Y-130924823D01*
X73374046Y-130756253D01*
X73031681Y-130634762D01*
X72677440Y-130562988D01*
X72315213Y-130544197D01*
X71953791Y-130575817D01*
X71600331Y-130657223D01*
X71263935Y-130789419D01*
X70918369Y-130940448D01*
X70646384Y-131067009D01*
X70304194Y-131277238D01*
X69242952Y-132541977D01*
X69493998Y-132835523D01*
G36*
X143629941Y-89804214D02*
G01*
X143375794Y-88755746D01*
X143032888Y-87529899D01*
X142632427Y-86324303D01*
X142181824Y-85067636D01*
X140621531Y-85611067D01*
X140282351Y-85743982D01*
X139966996Y-85920077D01*
X139681069Y-86140297D01*
X139427940Y-86398298D01*
X139214899Y-86691852D01*
X139044573Y-87012188D01*
X138920337Y-87352961D01*
X138847992Y-87707086D01*
X138826053Y-88069705D01*
X138856407Y-88429617D01*
X138935141Y-88782706D01*
X139067313Y-89119457D01*
X139243408Y-89434811D01*
X139464370Y-89723168D01*
X139722371Y-89976296D01*
X140015925Y-90189338D01*
X140336261Y-90359663D01*
X140677034Y-90483899D01*
X141031159Y-90556244D01*
X141403231Y-90617790D01*
X141700267Y-90659780D01*
X142101751Y-90669837D01*
X143680610Y-90187132D01*
X143629941Y-89804214D01*
G37*
X143629941Y-89804214D02*
X143375794Y-88755746D01*
X143032888Y-87529899D01*
X142632427Y-86324303D01*
X142181824Y-85067636D01*
X140621531Y-85611067D01*
X140282351Y-85743982D01*
X139966996Y-85920077D01*
X139681069Y-86140297D01*
X139427940Y-86398298D01*
X139214899Y-86691852D01*
X139044573Y-87012188D01*
X138920337Y-87352961D01*
X138847992Y-87707086D01*
X138826053Y-88069705D01*
X138856407Y-88429617D01*
X138935141Y-88782706D01*
X139067313Y-89119457D01*
X139243408Y-89434811D01*
X139464370Y-89723168D01*
X139722371Y-89976296D01*
X140015925Y-90189338D01*
X140336261Y-90359663D01*
X140677034Y-90483899D01*
X141031159Y-90556244D01*
X141403231Y-90617790D01*
X141700267Y-90659780D01*
X142101751Y-90669837D01*
X143680610Y-90187132D01*
X143629941Y-89804214D01*
G36*
X57554644Y-85504657D02*
G01*
X57214570Y-86528485D01*
X56855771Y-87749776D01*
X56556512Y-88984390D01*
X56272713Y-90288888D01*
X57883892Y-90654861D01*
X58241967Y-90721882D01*
X58602718Y-90739657D01*
X58961897Y-90704419D01*
X59313282Y-90619759D01*
X59649512Y-90483706D01*
X59963708Y-90302304D01*
X60249649Y-90079147D01*
X60498658Y-89817169D01*
X60709423Y-89521277D01*
X60874405Y-89199969D01*
X60994744Y-88858810D01*
X61061106Y-88503189D01*
X61078882Y-88142437D01*
X61044301Y-87780804D01*
X60959641Y-87429420D01*
X60823588Y-87093190D01*
X60642187Y-86778994D01*
X60419030Y-86493053D01*
X60157051Y-86244044D01*
X59874131Y-85994681D01*
X59644481Y-85801667D01*
X59309334Y-85580384D01*
X57714590Y-85153074D01*
X57554644Y-85504657D01*
G37*
X57554644Y-85504657D02*
X57214570Y-86528485D01*
X56855771Y-87749776D01*
X56556512Y-88984390D01*
X56272713Y-90288888D01*
X57883892Y-90654861D01*
X58241967Y-90721882D01*
X58602718Y-90739657D01*
X58961897Y-90704419D01*
X59313282Y-90619759D01*
X59649512Y-90483706D01*
X59963708Y-90302304D01*
X60249649Y-90079147D01*
X60498658Y-89817169D01*
X60709423Y-89521277D01*
X60874405Y-89199969D01*
X60994744Y-88858810D01*
X61061106Y-88503189D01*
X61078882Y-88142437D01*
X61044301Y-87780804D01*
X60959641Y-87429420D01*
X60823588Y-87093190D01*
X60642187Y-86778994D01*
X60419030Y-86493053D01*
X60157051Y-86244044D01*
X59874131Y-85994681D01*
X59644481Y-85801667D01*
X59309334Y-85580384D01*
X57714590Y-85153074D01*
X57554644Y-85504657D01*
G36*
X59940340Y-79759517D02*
G01*
X59461087Y-80726052D01*
X58935809Y-81885522D01*
X58467637Y-83066473D01*
X58005049Y-84318777D01*
X59549614Y-84905422D01*
X59894877Y-85021625D01*
X60249644Y-85089434D01*
X60610232Y-85104527D01*
X60969979Y-85069594D01*
X61321872Y-84981659D01*
X61658256Y-84845751D01*
X61972472Y-84664561D01*
X62255518Y-84439788D01*
X62505412Y-84176107D01*
X62713506Y-83880888D01*
X62880154Y-83559797D01*
X62995364Y-83216872D01*
X63063173Y-82862105D01*
X63079258Y-82499179D01*
X63044325Y-82139432D01*
X62956390Y-81787539D01*
X62820482Y-81451155D01*
X62639292Y-81136940D01*
X62414519Y-80853893D01*
X62169056Y-80567583D01*
X61968504Y-80344486D01*
X61667415Y-80078713D01*
X60147661Y-79433616D01*
X59940340Y-79759517D01*
G37*
X59940340Y-79759517D02*
X59461087Y-80726052D01*
X58935809Y-81885522D01*
X58467637Y-83066473D01*
X58005049Y-84318777D01*
X59549614Y-84905422D01*
X59894877Y-85021625D01*
X60249644Y-85089434D01*
X60610232Y-85104527D01*
X60969979Y-85069594D01*
X61321872Y-84981659D01*
X61658256Y-84845751D01*
X61972472Y-84664561D01*
X62255518Y-84439788D01*
X62505412Y-84176107D01*
X62713506Y-83880888D01*
X62880154Y-83559797D01*
X62995364Y-83216872D01*
X63063173Y-82862105D01*
X63079258Y-82499179D01*
X63044325Y-82139432D01*
X62956390Y-81787539D01*
X62820482Y-81451155D01*
X62639292Y-81136940D01*
X62414519Y-80853893D01*
X62169056Y-80567583D01*
X61968504Y-80344486D01*
X61667415Y-80078713D01*
X60147661Y-79433616D01*
X59940340Y-79759517D01*
G36*
X63291003Y-74261516D02*
G01*
X62666450Y-75141180D01*
X61966258Y-76204203D01*
X61319109Y-77297376D01*
X60666313Y-78461898D01*
X62100090Y-79282944D01*
X62422924Y-79451727D01*
X62762716Y-79574199D01*
X63116503Y-79645514D01*
X63477286Y-79667288D01*
X63838603Y-79635484D01*
X64192106Y-79553872D01*
X64530797Y-79424066D01*
X64845522Y-79246339D01*
X65133587Y-79024997D01*
X65385302Y-78765965D01*
X65600127Y-78474897D01*
X65767564Y-78154217D01*
X65890036Y-77814425D01*
X65962697Y-77458484D01*
X65984472Y-77097701D01*
X65952668Y-76736384D01*
X65871055Y-76382881D01*
X65741250Y-76044190D01*
X65563522Y-75729465D01*
X65365870Y-75408281D01*
X65202687Y-75156558D01*
X64946881Y-74846956D01*
X63546753Y-73972060D01*
X63291003Y-74261516D01*
G37*
X63291003Y-74261516D02*
X62666450Y-75141180D01*
X61966258Y-76204203D01*
X61319109Y-77297376D01*
X60666313Y-78461898D01*
X62100090Y-79282944D01*
X62422924Y-79451727D01*
X62762716Y-79574199D01*
X63116503Y-79645514D01*
X63477286Y-79667288D01*
X63838603Y-79635484D01*
X64192106Y-79553872D01*
X64530797Y-79424066D01*
X64845522Y-79246339D01*
X65133587Y-79024997D01*
X65385302Y-78765965D01*
X65600127Y-78474897D01*
X65767564Y-78154217D01*
X65890036Y-77814425D01*
X65962697Y-77458484D01*
X65984472Y-77097701D01*
X65952668Y-76736384D01*
X65871055Y-76382881D01*
X65741250Y-76044190D01*
X65563522Y-75729465D01*
X65365870Y-75408281D01*
X65202687Y-75156558D01*
X64946881Y-74846956D01*
X63546753Y-73972060D01*
X63291003Y-74261516D01*
G36*
X67093838Y-69502122D02*
G01*
X66366736Y-70299115D01*
X65542213Y-71268883D01*
X64766664Y-72275040D01*
X63976814Y-73351326D01*
X65299843Y-74340985D01*
X65599702Y-74547853D01*
X65922035Y-74710823D01*
X66264494Y-74824722D01*
X66619934Y-74890303D01*
X66982433Y-74902769D01*
X67343248Y-74864846D01*
X67695234Y-74777284D01*
X68029272Y-74639236D01*
X68342165Y-74454651D01*
X68623571Y-74228226D01*
X68872268Y-73965508D01*
X69077538Y-73667624D01*
X69240507Y-73345290D01*
X69356005Y-73000857D01*
X69421586Y-72645417D01*
X69434052Y-72282918D01*
X69396129Y-71922103D01*
X69308567Y-71570117D01*
X69170519Y-71236080D01*
X69013483Y-70893202D01*
X68882194Y-70623468D01*
X68666025Y-70284999D01*
X67382957Y-69245991D01*
X67093838Y-69502122D01*
G37*
X67093838Y-69502122D02*
X66366736Y-70299115D01*
X65542213Y-71268883D01*
X64766664Y-72275040D01*
X63976814Y-73351326D01*
X65299843Y-74340985D01*
X65599702Y-74547853D01*
X65922035Y-74710823D01*
X66264494Y-74824722D01*
X66619934Y-74890303D01*
X66982433Y-74902769D01*
X67343248Y-74864846D01*
X67695234Y-74777284D01*
X68029272Y-74639236D01*
X68342165Y-74454651D01*
X68623571Y-74228226D01*
X68872268Y-73965508D01*
X69077538Y-73667624D01*
X69240507Y-73345290D01*
X69356005Y-73000857D01*
X69421586Y-72645417D01*
X69434052Y-72282918D01*
X69396129Y-71922103D01*
X69308567Y-71570117D01*
X69170519Y-71236080D01*
X69013483Y-70893202D01*
X68882194Y-70623468D01*
X68666025Y-70284999D01*
X67382957Y-69245991D01*
X67093838Y-69502122D01*
G36*
X71992927Y-65011790D02*
G01*
X71150100Y-65685227D01*
X70184023Y-66514071D01*
X69260625Y-67386518D01*
X68312131Y-68325994D01*
X69464055Y-69510436D01*
X69727860Y-69761666D01*
X70020731Y-69973053D01*
X70341156Y-70139122D01*
X70681961Y-70259498D01*
X71038047Y-70328518D01*
X71400352Y-70347506D01*
X71761702Y-70316085D01*
X72113223Y-70231992D01*
X72451139Y-70098626D01*
X72764502Y-69919011D01*
X73051235Y-69698432D01*
X73300577Y-69436327D01*
X73511964Y-69143456D01*
X73679921Y-68821331D01*
X73800297Y-68480526D01*
X73869317Y-68124440D01*
X73888305Y-67762135D01*
X73856884Y-67400785D01*
X73772791Y-67049264D01*
X73671326Y-66686042D01*
X73583849Y-66399091D01*
X73423290Y-66030973D01*
X72318555Y-64804041D01*
X71992927Y-65011790D01*
G37*
X71992927Y-65011790D02*
X71150100Y-65685227D01*
X70184023Y-66514071D01*
X69260625Y-67386518D01*
X68312131Y-68325994D01*
X69464055Y-69510436D01*
X69727860Y-69761666D01*
X70020731Y-69973053D01*
X70341156Y-70139122D01*
X70681961Y-70259498D01*
X71038047Y-70328518D01*
X71400352Y-70347506D01*
X71761702Y-70316085D01*
X72113223Y-70231992D01*
X72451139Y-70098626D01*
X72764502Y-69919011D01*
X73051235Y-69698432D01*
X73300577Y-69436327D01*
X73511964Y-69143456D01*
X73679921Y-68821331D01*
X73800297Y-68480526D01*
X73869317Y-68124440D01*
X73888305Y-67762135D01*
X73856884Y-67400785D01*
X73772791Y-67049264D01*
X73671326Y-66686042D01*
X73583849Y-66399091D01*
X73423290Y-66030973D01*
X72318555Y-64804041D01*
X71992927Y-65011790D01*
G36*
X141206243Y-117676539D02*
G01*
X141634255Y-116686246D01*
X142098132Y-115500874D01*
X142503855Y-114297040D01*
X142900269Y-113022241D01*
X141327118Y-112517237D01*
X140976247Y-112419263D01*
X140618417Y-112370114D01*
X140257533Y-112373914D01*
X139900107Y-112427626D01*
X139553299Y-112533857D01*
X139224488Y-112687184D01*
X138920187Y-112884571D01*
X138649291Y-113123849D01*
X138413541Y-113400247D01*
X138221182Y-113705952D01*
X138071567Y-114035325D01*
X137974463Y-114383809D01*
X137925314Y-114741639D01*
X137928245Y-115104909D01*
X137981957Y-115462335D01*
X138088188Y-115809144D01*
X138241515Y-116137954D01*
X138438901Y-116442256D01*
X138678180Y-116713151D01*
X138938291Y-116986222D01*
X139150244Y-117198518D01*
X139464830Y-117448168D01*
X141016263Y-118012844D01*
X141206243Y-117676539D01*
G37*
X141206243Y-117676539D02*
X141634255Y-116686246D01*
X142098132Y-115500874D01*
X142503855Y-114297040D01*
X142900269Y-113022241D01*
X141327118Y-112517237D01*
X140976247Y-112419263D01*
X140618417Y-112370114D01*
X140257533Y-112373914D01*
X139900107Y-112427626D01*
X139553299Y-112533857D01*
X139224488Y-112687184D01*
X138920187Y-112884571D01*
X138649291Y-113123849D01*
X138413541Y-113400247D01*
X138221182Y-113705952D01*
X138071567Y-114035325D01*
X137974463Y-114383809D01*
X137925314Y-114741639D01*
X137928245Y-115104909D01*
X137981957Y-115462335D01*
X138088188Y-115809144D01*
X138241515Y-116137954D01*
X138438901Y-116442256D01*
X138678180Y-116713151D01*
X138938291Y-116986222D01*
X139150244Y-117198518D01*
X139464830Y-117448168D01*
X141016263Y-118012844D01*
X141206243Y-117676539D01*
G36*
X143593425Y-110454872D02*
G01*
X143842973Y-109405300D01*
X144093964Y-108157386D01*
X144284480Y-106901387D01*
X144453505Y-105577119D01*
X142816560Y-105352962D01*
X142454007Y-105317405D01*
X142093079Y-105331139D01*
X141738338Y-105397547D01*
X141395669Y-105512510D01*
X141072576Y-105677350D01*
X140775386Y-105885445D01*
X140509983Y-106132674D01*
X140284753Y-106415358D01*
X140100580Y-106728494D01*
X139964229Y-107062958D01*
X139874082Y-107413307D01*
X139838967Y-107773359D01*
X139852701Y-108134287D01*
X139918668Y-108491530D01*
X140033631Y-108834199D01*
X140198471Y-109157291D01*
X140406566Y-109454482D01*
X140653795Y-109719885D01*
X140936479Y-109945114D01*
X141240056Y-110168869D01*
X141485654Y-110341134D01*
X141838812Y-110532364D01*
X143464730Y-110819057D01*
X143593425Y-110454872D01*
G37*
X143593425Y-110454872D02*
X143842973Y-109405300D01*
X144093964Y-108157386D01*
X144284480Y-106901387D01*
X144453505Y-105577119D01*
X142816560Y-105352962D01*
X142454007Y-105317405D01*
X142093079Y-105331139D01*
X141738338Y-105397547D01*
X141395669Y-105512510D01*
X141072576Y-105677350D01*
X140775386Y-105885445D01*
X140509983Y-106132674D01*
X140284753Y-106415358D01*
X140100580Y-106728494D01*
X139964229Y-107062958D01*
X139874082Y-107413307D01*
X139838967Y-107773359D01*
X139852701Y-108134287D01*
X139918668Y-108491530D01*
X140033631Y-108834199D01*
X140198471Y-109157291D01*
X140406566Y-109454482D01*
X140653795Y-109719885D01*
X140936479Y-109945114D01*
X141240056Y-110168869D01*
X141485654Y-110341134D01*
X141838812Y-110532364D01*
X143464730Y-110819057D01*
X143593425Y-110454872D01*
G36*
X137484955Y-124550727D02*
G01*
X138078427Y-123649802D01*
X138741094Y-122562990D01*
X139349697Y-121447898D01*
X139961455Y-120261303D01*
X138499897Y-119490795D01*
X138171369Y-119333382D01*
X137827510Y-119222843D01*
X137471449Y-119163919D01*
X137110126Y-119154748D01*
X136750140Y-119199143D01*
X136399700Y-119293043D01*
X136065745Y-119434590D01*
X135757415Y-119623193D01*
X135477250Y-119854453D01*
X135234729Y-120122112D01*
X135030192Y-120420500D01*
X134874049Y-120746828D01*
X134763510Y-121090687D01*
X134703315Y-121448947D01*
X134694145Y-121810270D01*
X134738540Y-122170257D01*
X134832440Y-122520697D01*
X134973986Y-122854652D01*
X135162589Y-123162981D01*
X135371330Y-123477072D01*
X135543198Y-123722947D01*
X135809654Y-124023432D01*
X137239462Y-124848932D01*
X137484955Y-124550727D01*
G37*
X137484955Y-124550727D02*
X138078427Y-123649802D01*
X138741094Y-122562990D01*
X139349697Y-121447898D01*
X139961455Y-120261303D01*
X138499897Y-119490795D01*
X138171369Y-119333382D01*
X137827510Y-119222843D01*
X137471449Y-119163919D01*
X137110126Y-119154748D01*
X136750140Y-119199143D01*
X136399700Y-119293043D01*
X136065745Y-119434590D01*
X135757415Y-119623193D01*
X135477250Y-119854453D01*
X135234729Y-120122112D01*
X135030192Y-120420500D01*
X134874049Y-120746828D01*
X134763510Y-121090687D01*
X134703315Y-121448947D01*
X134694145Y-121810270D01*
X134738540Y-122170257D01*
X134832440Y-122520697D01*
X134973986Y-122854652D01*
X135162589Y-123162981D01*
X135371330Y-123477072D01*
X135543198Y-123722947D01*
X135809654Y-124023432D01*
X137239462Y-124848932D01*
X137484955Y-124550727D01*
G36*
X64133218Y-126905859D02*
G01*
X64776830Y-127771675D01*
X65571454Y-128766090D01*
X66411144Y-129719374D01*
X67316945Y-130700077D01*
X68540867Y-129590191D01*
X68801150Y-129335314D01*
X69022629Y-129049999D01*
X69199781Y-128735565D01*
X69331977Y-128399169D01*
X69413383Y-128045709D01*
X69445003Y-127684287D01*
X69426212Y-127322060D01*
X69354438Y-126967819D01*
X69232947Y-126625454D01*
X69064377Y-126306014D01*
X68853939Y-126011758D01*
X68600695Y-125753420D01*
X68315380Y-125531941D01*
X67999313Y-125352844D01*
X67662917Y-125220647D01*
X67309457Y-125139242D01*
X66948035Y-125107622D01*
X66585809Y-125126413D01*
X66231567Y-125198186D01*
X65865025Y-125286913D01*
X65575196Y-125364322D01*
X65201699Y-125511937D01*
X63936959Y-126573179D01*
X64133218Y-126905859D01*
G37*
X64133218Y-126905859D02*
X64776830Y-127771675D01*
X65571454Y-128766090D01*
X66411144Y-129719374D01*
X67316945Y-130700077D01*
X68540867Y-129590191D01*
X68801150Y-129335314D01*
X69022629Y-129049999D01*
X69199781Y-128735565D01*
X69331977Y-128399169D01*
X69413383Y-128045709D01*
X69445003Y-127684287D01*
X69426212Y-127322060D01*
X69354438Y-126967819D01*
X69232947Y-126625454D01*
X69064377Y-126306014D01*
X68853939Y-126011758D01*
X68600695Y-125753420D01*
X68315380Y-125531941D01*
X67999313Y-125352844D01*
X67662917Y-125220647D01*
X67309457Y-125139242D01*
X66948035Y-125107622D01*
X66585809Y-125126413D01*
X66231567Y-125198186D01*
X65865025Y-125286913D01*
X65575196Y-125364322D01*
X65201699Y-125511937D01*
X63936959Y-126573179D01*
X64133218Y-126905859D01*
G36*
X60125545Y-120535273D02*
G01*
X60609033Y-121499698D01*
X61218906Y-122616990D01*
X61880303Y-123701602D01*
X62602045Y-124824697D01*
X64000103Y-123944205D01*
X64300691Y-123738398D01*
X64568350Y-123495877D01*
X64797411Y-123216981D01*
X64986014Y-122908652D01*
X65127560Y-122574697D01*
X65221460Y-122224257D01*
X65265855Y-121864270D01*
X65256685Y-121502947D01*
X65196490Y-121144687D01*
X65085951Y-120800828D01*
X64929808Y-120474500D01*
X64725271Y-120176112D01*
X64482750Y-119908453D01*
X64202585Y-119677193D01*
X63894255Y-119488590D01*
X63560300Y-119347043D01*
X63209860Y-119253143D01*
X62849874Y-119208748D01*
X62488551Y-119217919D01*
X62112170Y-119241648D01*
X61813302Y-119267553D01*
X61419846Y-119348068D01*
X59990038Y-120173568D01*
X60125545Y-120535273D01*
G37*
X60125545Y-120535273D02*
X60609033Y-121499698D01*
X61218906Y-122616990D01*
X61880303Y-123701602D01*
X62602045Y-124824697D01*
X64000103Y-123944205D01*
X64300691Y-123738398D01*
X64568350Y-123495877D01*
X64797411Y-123216981D01*
X64986014Y-122908652D01*
X65127560Y-122574697D01*
X65221460Y-122224257D01*
X65265855Y-121864270D01*
X65256685Y-121502947D01*
X65196490Y-121144687D01*
X65085951Y-120800828D01*
X64929808Y-120474500D01*
X64725271Y-120176112D01*
X64482750Y-119908453D01*
X64202585Y-119677193D01*
X63894255Y-119488590D01*
X63560300Y-119347043D01*
X63209860Y-119253143D01*
X62849874Y-119208748D01*
X62488551Y-119217919D01*
X62112170Y-119241648D01*
X61813302Y-119267553D01*
X61419846Y-119348068D01*
X59990038Y-120173568D01*
X60125545Y-120535273D01*
G36*
X57187004Y-113186923D02*
G01*
X57495676Y-114220653D01*
X57902268Y-115426874D01*
X58365276Y-116609859D01*
X58881030Y-117841221D01*
X60410744Y-117216875D01*
X60742504Y-117066392D01*
X61048209Y-116874033D01*
X61322220Y-116639151D01*
X61561499Y-116368256D01*
X61758885Y-116063954D01*
X61912212Y-115735144D01*
X62018443Y-115388335D01*
X62072155Y-115030909D01*
X62075086Y-114667639D01*
X62025937Y-114309809D01*
X61928833Y-113961325D01*
X61779218Y-113631952D01*
X61586859Y-113326247D01*
X61351109Y-113049849D01*
X61080213Y-112810571D01*
X60775912Y-112613184D01*
X60447101Y-112459857D01*
X60100293Y-112353626D01*
X59742867Y-112299914D01*
X59368083Y-112257925D01*
X59069257Y-112231538D01*
X58667798Y-112242507D01*
X57116365Y-112807182D01*
X57187004Y-113186923D01*
G37*
X57187004Y-113186923D02*
X57495676Y-114220653D01*
X57902268Y-115426874D01*
X58365276Y-116609859D01*
X58881030Y-117841221D01*
X60410744Y-117216875D01*
X60742504Y-117066392D01*
X61048209Y-116874033D01*
X61322220Y-116639151D01*
X61561499Y-116368256D01*
X61758885Y-116063954D01*
X61912212Y-115735144D01*
X62018443Y-115388335D01*
X62072155Y-115030909D01*
X62075086Y-114667639D01*
X62025937Y-114309809D01*
X61928833Y-113961325D01*
X61779218Y-113631952D01*
X61586859Y-113326247D01*
X61351109Y-113049849D01*
X61080213Y-112810571D01*
X60775912Y-112613184D01*
X60447101Y-112459857D01*
X60100293Y-112353626D01*
X59742867Y-112299914D01*
X59368083Y-112257925D01*
X59069257Y-112231538D01*
X58667798Y-112242507D01*
X57116365Y-112807182D01*
X57187004Y-113186923D01*
G36*
X55498602Y-105439261D02*
G01*
X55623079Y-106510886D01*
X55814036Y-107769386D01*
X56064586Y-109014799D01*
X56358681Y-110317013D01*
X57973572Y-109967785D01*
X58326422Y-109877197D01*
X58660887Y-109740846D01*
X58971521Y-109557114D01*
X59254205Y-109331885D01*
X59501434Y-109066482D01*
X59709529Y-108769291D01*
X59874369Y-108446199D01*
X59989332Y-108103530D01*
X60055299Y-107746287D01*
X60069033Y-107385359D01*
X60033918Y-107025307D01*
X59943771Y-106674958D01*
X59807420Y-106340494D01*
X59623247Y-106027358D01*
X59398017Y-105744674D01*
X59132614Y-105497445D01*
X58835424Y-105289350D01*
X58512331Y-105124510D01*
X58169662Y-105009547D01*
X57807864Y-104903116D01*
X57518160Y-104825240D01*
X57120895Y-104766329D01*
X55494977Y-105053022D01*
X55498602Y-105439261D01*
G37*
X55498602Y-105439261D02*
X55623079Y-106510886D01*
X55814036Y-107769386D01*
X56064586Y-109014799D01*
X56358681Y-110317013D01*
X57973572Y-109967785D01*
X58326422Y-109877197D01*
X58660887Y-109740846D01*
X58971521Y-109557114D01*
X59254205Y-109331885D01*
X59501434Y-109066482D01*
X59709529Y-108769291D01*
X59874369Y-108446199D01*
X59989332Y-108103530D01*
X60055299Y-107746287D01*
X60069033Y-107385359D01*
X60033918Y-107025307D01*
X59943771Y-106674958D01*
X59807420Y-106340494D01*
X59623247Y-106027358D01*
X59398017Y-105744674D01*
X59132614Y-105497445D01*
X58835424Y-105289350D01*
X58512331Y-105124510D01*
X58169662Y-105009547D01*
X57807864Y-104903116D01*
X57518160Y-104825240D01*
X57120895Y-104766329D01*
X55494977Y-105053022D01*
X55498602Y-105439261D01*
G36*
X139209087Y-78300494D02*
G01*
X138692237Y-77353530D01*
X138043742Y-76258203D01*
X137344896Y-75197334D01*
X136584397Y-74100112D01*
X135217920Y-75028860D01*
X134924698Y-75245031D01*
X134665666Y-75496746D01*
X134446478Y-75783465D01*
X134268750Y-76098190D01*
X134138945Y-76436881D01*
X134057332Y-76790384D01*
X134025528Y-77151701D01*
X134047303Y-77512484D01*
X134119964Y-77868425D01*
X134242436Y-78208217D01*
X134409873Y-78528897D01*
X134624698Y-78819965D01*
X134876413Y-79078997D01*
X135164478Y-79300339D01*
X135479203Y-79478066D01*
X135817894Y-79607872D01*
X136171397Y-79689484D01*
X136532714Y-79721288D01*
X136893497Y-79699514D01*
X137268820Y-79662663D01*
X137566602Y-79626344D01*
X137957008Y-79532147D01*
X139357136Y-78657250D01*
X139209087Y-78300494D01*
G37*
X139209087Y-78300494D02*
X138692237Y-77353530D01*
X138043742Y-76258203D01*
X137344896Y-75197334D01*
X136584397Y-74100112D01*
X135217920Y-75028860D01*
X134924698Y-75245031D01*
X134665666Y-75496746D01*
X134446478Y-75783465D01*
X134268750Y-76098190D01*
X134138945Y-76436881D01*
X134057332Y-76790384D01*
X134025528Y-77151701D01*
X134047303Y-77512484D01*
X134119964Y-77868425D01*
X134242436Y-78208217D01*
X134409873Y-78528897D01*
X134624698Y-78819965D01*
X134876413Y-79078997D01*
X135164478Y-79300339D01*
X135479203Y-79478066D01*
X135817894Y-79607872D01*
X136171397Y-79689484D01*
X136532714Y-79721288D01*
X136893497Y-79699514D01*
X137268820Y-79662663D01*
X137566602Y-79626344D01*
X137957008Y-79532147D01*
X139357136Y-78657250D01*
X139209087Y-78300494D01*
G36*
X135866982Y-72993641D02*
G01*
X135223370Y-72127825D01*
X134428746Y-71133410D01*
X133589056Y-70180126D01*
X132683255Y-69199423D01*
X131459333Y-70309309D01*
X131199050Y-70564186D01*
X130977571Y-70849501D01*
X130800419Y-71163935D01*
X130668223Y-71500331D01*
X130586817Y-71853791D01*
X130555197Y-72215213D01*
X130573988Y-72577440D01*
X130645762Y-72931681D01*
X130767253Y-73274046D01*
X130935823Y-73593486D01*
X131146261Y-73887742D01*
X131399505Y-74146080D01*
X131684820Y-74367559D01*
X132000887Y-74546656D01*
X132337283Y-74678853D01*
X132690743Y-74760258D01*
X133052165Y-74791878D01*
X133414391Y-74773087D01*
X133768633Y-74701314D01*
X134135175Y-74612587D01*
X134425004Y-74535178D01*
X134798501Y-74387563D01*
X136063241Y-73326321D01*
X135866982Y-72993641D01*
G37*
X135866982Y-72993641D02*
X135223370Y-72127825D01*
X134428746Y-71133410D01*
X133589056Y-70180126D01*
X132683255Y-69199423D01*
X131459333Y-70309309D01*
X131199050Y-70564186D01*
X130977571Y-70849501D01*
X130800419Y-71163935D01*
X130668223Y-71500331D01*
X130586817Y-71853791D01*
X130555197Y-72215213D01*
X130573988Y-72577440D01*
X130645762Y-72931681D01*
X130767253Y-73274046D01*
X130935823Y-73593486D01*
X131146261Y-73887742D01*
X131399505Y-74146080D01*
X131684820Y-74367559D01*
X132000887Y-74546656D01*
X132337283Y-74678853D01*
X132690743Y-74760258D01*
X133052165Y-74791878D01*
X133414391Y-74773087D01*
X133768633Y-74701314D01*
X134135175Y-74612587D01*
X134425004Y-74535178D01*
X134798501Y-74387563D01*
X136063241Y-73326321D01*
X135866982Y-72993641D01*
G36*
X144642268Y-96173135D02*
G01*
X144555266Y-95097819D01*
X144408346Y-93833421D01*
X144201413Y-92580022D01*
X143952944Y-91268337D01*
X142326849Y-91560994D01*
X141971052Y-91639213D01*
X141632033Y-91763808D01*
X141315176Y-91936587D01*
X141024803Y-92151814D01*
X140768462Y-92408427D01*
X140550122Y-92698174D01*
X140374107Y-93015317D01*
X140247256Y-93353765D01*
X140168861Y-93708487D01*
X140142539Y-94068716D01*
X140165067Y-94429775D01*
X140242932Y-94783056D01*
X140367527Y-95122075D01*
X140540660Y-95441448D01*
X140755887Y-95731820D01*
X141012500Y-95988161D01*
X141302247Y-96206501D01*
X141619390Y-96382516D01*
X141957838Y-96509368D01*
X142315701Y-96628361D01*
X142602511Y-96716300D01*
X142997478Y-96789040D01*
X144632411Y-96559265D01*
X144642268Y-96173135D01*
G37*
X144642268Y-96173135D02*
X144555266Y-95097819D01*
X144408346Y-93833421D01*
X144201413Y-92580022D01*
X143952944Y-91268337D01*
X142326849Y-91560994D01*
X141971052Y-91639213D01*
X141632033Y-91763808D01*
X141315176Y-91936587D01*
X141024803Y-92151814D01*
X140768462Y-92408427D01*
X140550122Y-92698174D01*
X140374107Y-93015317D01*
X140247256Y-93353765D01*
X140168861Y-93708487D01*
X140142539Y-94068716D01*
X140165067Y-94429775D01*
X140242932Y-94783056D01*
X140367527Y-95122075D01*
X140540660Y-95441448D01*
X140755887Y-95731820D01*
X141012500Y-95988161D01*
X141302247Y-96206501D01*
X141619390Y-96382516D01*
X141957838Y-96509368D01*
X142315701Y-96628361D01*
X142602511Y-96716300D01*
X142997478Y-96789040D01*
X144632411Y-96559265D01*
X144642268Y-96173135D01*
G36*
X131605611Y-68262035D02*
G01*
X130847763Y-67494218D01*
X129922477Y-66620071D01*
X128958288Y-65792927D01*
X127924814Y-64947831D01*
X126867269Y-66217253D01*
X126644991Y-66505873D01*
X126465375Y-66819236D01*
X126333709Y-67155264D01*
X126249616Y-67506785D01*
X126218195Y-67868135D01*
X126237183Y-68230440D01*
X126306203Y-68586526D01*
X126426579Y-68927331D01*
X126594536Y-69249456D01*
X126805923Y-69542327D01*
X127055265Y-69804432D01*
X127341998Y-70025011D01*
X127655361Y-70204626D01*
X127993277Y-70337992D01*
X128344798Y-70422085D01*
X128706148Y-70453506D01*
X129068453Y-70434518D01*
X129424539Y-70365498D01*
X129765344Y-70245122D01*
X130115970Y-70106246D01*
X130392206Y-69989254D01*
X130741524Y-69791095D01*
X131846259Y-68564163D01*
X131605611Y-68262035D01*
G37*
X131605611Y-68262035D02*
X130847763Y-67494218D01*
X129922477Y-66620071D01*
X128958288Y-65792927D01*
X127924814Y-64947831D01*
X126867269Y-66217253D01*
X126644991Y-66505873D01*
X126465375Y-66819236D01*
X126333709Y-67155264D01*
X126249616Y-67506785D01*
X126218195Y-67868135D01*
X126237183Y-68230440D01*
X126306203Y-68586526D01*
X126426579Y-68927331D01*
X126594536Y-69249456D01*
X126805923Y-69542327D01*
X127055265Y-69804432D01*
X127341998Y-70025011D01*
X127655361Y-70204626D01*
X127993277Y-70337992D01*
X128344798Y-70422085D01*
X128706148Y-70453506D01*
X129068453Y-70434518D01*
X129424539Y-70365498D01*
X129765344Y-70245122D01*
X130115970Y-70106246D01*
X130392206Y-69989254D01*
X130741524Y-69791095D01*
X131846259Y-68564163D01*
X131605611Y-68262035D01*
G36*
X141934963Y-83970620D02*
G01*
X141537371Y-82967726D01*
X141027197Y-81801532D01*
X140462847Y-80663402D01*
X139841735Y-79481677D01*
X138372257Y-80236971D01*
X138054876Y-80415796D01*
X137767099Y-80634066D01*
X137514602Y-80891936D01*
X137299844Y-81182655D01*
X137129730Y-81503002D01*
X137005645Y-81843925D01*
X136930044Y-82198672D01*
X136907688Y-82559420D01*
X136936429Y-82921563D01*
X137016578Y-83273748D01*
X137143686Y-83612443D01*
X137321438Y-83927522D01*
X137539708Y-84215299D01*
X137798652Y-84470098D01*
X138089371Y-84684856D01*
X138409718Y-84854970D01*
X138750640Y-84979055D01*
X139105388Y-85054656D01*
X139466135Y-85077012D01*
X139843152Y-85086177D01*
X140143140Y-85086419D01*
X140542116Y-85040502D01*
X142038430Y-84342759D01*
X141934963Y-83970620D01*
G37*
X141934963Y-83970620D02*
X141537371Y-82967726D01*
X141027197Y-81801532D01*
X140462847Y-80663402D01*
X139841735Y-79481677D01*
X138372257Y-80236971D01*
X138054876Y-80415796D01*
X137767099Y-80634066D01*
X137514602Y-80891936D01*
X137299844Y-81182655D01*
X137129730Y-81503002D01*
X137005645Y-81843925D01*
X136930044Y-82198672D01*
X136907688Y-82559420D01*
X136936429Y-82921563D01*
X137016578Y-83273748D01*
X137143686Y-83612443D01*
X137321438Y-83927522D01*
X137539708Y-84215299D01*
X137798652Y-84470098D01*
X138089371Y-84684856D01*
X138409718Y-84854970D01*
X138750640Y-84979055D01*
X139105388Y-85054656D01*
X139466135Y-85077012D01*
X139843152Y-85086177D01*
X140143140Y-85086419D01*
X140542116Y-85040502D01*
X142038430Y-84342759D01*
X141934963Y-83970620D01*
G36*
X126905859Y-135866982D02*
G01*
X127771675Y-135223370D01*
X128766090Y-134428746D01*
X129719374Y-133589056D01*
X130700077Y-132683255D01*
X129590191Y-131459333D01*
X129335314Y-131199050D01*
X129049999Y-130977571D01*
X128735565Y-130800419D01*
X128399169Y-130668223D01*
X128045709Y-130586817D01*
X127684287Y-130555197D01*
X127322060Y-130573988D01*
X126967819Y-130645762D01*
X126625454Y-130767253D01*
X126306014Y-130935823D01*
X126011758Y-131146261D01*
X125753420Y-131399505D01*
X125531941Y-131684820D01*
X125352844Y-132000887D01*
X125220647Y-132337283D01*
X125139242Y-132690743D01*
X125107622Y-133052165D01*
X125126413Y-133414391D01*
X125198186Y-133768633D01*
X125286913Y-134135175D01*
X125364322Y-134425004D01*
X125511937Y-134798501D01*
X126573179Y-136063241D01*
X126905859Y-135866982D01*
G37*
X126905859Y-135866982D02*
X127771675Y-135223370D01*
X128766090Y-134428746D01*
X129719374Y-133589056D01*
X130700077Y-132683255D01*
X129590191Y-131459333D01*
X129335314Y-131199050D01*
X129049999Y-130977571D01*
X128735565Y-130800419D01*
X128399169Y-130668223D01*
X128045709Y-130586817D01*
X127684287Y-130555197D01*
X127322060Y-130573988D01*
X126967819Y-130645762D01*
X126625454Y-130767253D01*
X126306014Y-130935823D01*
X126011758Y-131146261D01*
X125753420Y-131399505D01*
X125531941Y-131684820D01*
X125352844Y-132000887D01*
X125220647Y-132337283D01*
X125139242Y-132690743D01*
X125107622Y-133052165D01*
X125126413Y-133414391D01*
X125198186Y-133768633D01*
X125286913Y-134135175D01*
X125364322Y-134425004D01*
X125511937Y-134798501D01*
X126573179Y-136063241D01*
X126905859Y-135866982D01*
G36*
X132735523Y-130532502D02*
G01*
X133476424Y-129748320D01*
X134317746Y-128793090D01*
X135110737Y-127800621D01*
X135919250Y-126738284D01*
X134613694Y-125725685D01*
X134317492Y-125513615D01*
X133998052Y-125345045D01*
X133657633Y-125225186D01*
X133303391Y-125153413D01*
X132941165Y-125134622D01*
X132579743Y-125166242D01*
X132226283Y-125247647D01*
X131889887Y-125379844D01*
X131573820Y-125558941D01*
X131288505Y-125780420D01*
X131035261Y-126038758D01*
X130824823Y-126333014D01*
X130656253Y-126652454D01*
X130534762Y-126994819D01*
X130462988Y-127349060D01*
X130444197Y-127711287D01*
X130475817Y-128072709D01*
X130557223Y-128426169D01*
X130689419Y-128762565D01*
X130840448Y-129108131D01*
X130967009Y-129380116D01*
X131177238Y-129722306D01*
X132441977Y-130783548D01*
X132735523Y-130532502D01*
G37*
X132735523Y-130532502D02*
X133476424Y-129748320D01*
X134317746Y-128793090D01*
X135110737Y-127800621D01*
X135919250Y-126738284D01*
X134613694Y-125725685D01*
X134317492Y-125513615D01*
X133998052Y-125345045D01*
X133657633Y-125225186D01*
X133303391Y-125153413D01*
X132941165Y-125134622D01*
X132579743Y-125166242D01*
X132226283Y-125247647D01*
X131889887Y-125379844D01*
X131573820Y-125558941D01*
X131288505Y-125780420D01*
X131035261Y-126038758D01*
X130824823Y-126333014D01*
X130656253Y-126652454D01*
X130534762Y-126994819D01*
X130462988Y-127349060D01*
X130444197Y-127711287D01*
X130475817Y-128072709D01*
X130557223Y-128426169D01*
X130689419Y-128762565D01*
X130840448Y-129108131D01*
X130967009Y-129380116D01*
X131177238Y-129722306D01*
X132441977Y-130783548D01*
X132735523Y-130532502D01*
D11*
G36*
X123218767Y-136278822D02*
G01*
X123355258Y-136335359D01*
X123478097Y-136417437D01*
X123582563Y-136521903D01*
X123664641Y-136644742D01*
X123721178Y-136781233D01*
X123750000Y-136926131D01*
X123750000Y-137073869D01*
X123721178Y-137218767D01*
X123664641Y-137355258D01*
X123582563Y-137478097D01*
X123478097Y-137582563D01*
X123355258Y-137664641D01*
X123218767Y-137721178D01*
X123073869Y-137750000D01*
X122926131Y-137750000D01*
X122781233Y-137721178D01*
X122644742Y-137664641D01*
X122521903Y-137582563D01*
X122417437Y-137478097D01*
X122335359Y-137355258D01*
X122278822Y-137218767D01*
X122250000Y-137073869D01*
X122250000Y-136926131D01*
X122278822Y-136781233D01*
X122335359Y-136644742D01*
X122417437Y-136521903D01*
X122521903Y-136417437D01*
X122644742Y-136335359D01*
X122781233Y-136278822D01*
X122926131Y-136250000D01*
X123073869Y-136250000D01*
X123218767Y-136278822D01*
X123218767Y-136278822D01*
G37*
G36*
X127751010Y-130670061D02*
G01*
X128028925Y-130725342D01*
X128421605Y-130887996D01*
X128775009Y-131124132D01*
X129075555Y-131424678D01*
X129311691Y-131778082D01*
X129474345Y-132170762D01*
X129509700Y-132348506D01*
X129557266Y-132587633D01*
X129557266Y-133012669D01*
X129540910Y-133094895D01*
X129474345Y-133429540D01*
X129311691Y-133822220D01*
X129075555Y-134175624D01*
X128775009Y-134476170D01*
X128421605Y-134712306D01*
X128028925Y-134874960D01*
X127788105Y-134922862D01*
X127612054Y-134957881D01*
X127328958Y-134957881D01*
X127319106Y-134958851D01*
X127309633Y-134961725D01*
X127300902Y-134966392D01*
X127293250Y-134972672D01*
X127286970Y-134980324D01*
X127282303Y-134989055D01*
X127279429Y-134998528D01*
X127278459Y-135008380D01*
X127279429Y-135018232D01*
X127286430Y-135053428D01*
X127286430Y-135186548D01*
X127260459Y-135317112D01*
X127209516Y-135440099D01*
X127135558Y-135550785D01*
X127041427Y-135644916D01*
X126930741Y-135718874D01*
X126807754Y-135769817D01*
X126677190Y-135795788D01*
X126544070Y-135795788D01*
X126413506Y-135769817D01*
X126290519Y-135718874D01*
X126179833Y-135644916D01*
X126085702Y-135550785D01*
X126011744Y-135440099D01*
X125960801Y-135317112D01*
X125934830Y-135186548D01*
X125934830Y-135053428D01*
X125960801Y-134922864D01*
X126011744Y-134799877D01*
X126085702Y-134689191D01*
X126145199Y-134629694D01*
X126151479Y-134622042D01*
X126156146Y-134613311D01*
X126159020Y-134603838D01*
X126159990Y-134593986D01*
X126159020Y-134584134D01*
X126156146Y-134574661D01*
X126151479Y-134565930D01*
X126145199Y-134558278D01*
X126137547Y-134551998D01*
X126024063Y-134476170D01*
X125723517Y-134175624D01*
X125487381Y-133822220D01*
X125324727Y-133429540D01*
X125258162Y-133094895D01*
X125241806Y-133012669D01*
X125241806Y-132587633D01*
X125289372Y-132348506D01*
X125324727Y-132170762D01*
X125487381Y-131778082D01*
X125723517Y-131424678D01*
X126024063Y-131124132D01*
X126377467Y-130887996D01*
X126770147Y-130725342D01*
X127048062Y-130670061D01*
X127187018Y-130642421D01*
X127612054Y-130642421D01*
X127751010Y-130670061D01*
X127751010Y-130670061D01*
G37*
G36*
X72867782Y-130642421D02*
G01*
X73229353Y-130714342D01*
X73622033Y-130876996D01*
X73975437Y-131113132D01*
X74275983Y-131413678D01*
X74512119Y-131767082D01*
X74674773Y-132159762D01*
X74757694Y-132576634D01*
X74757694Y-133001668D01*
X74674773Y-133418540D01*
X74512119Y-133811220D01*
X74275983Y-134164624D01*
X73975437Y-134465170D01*
X73622033Y-134701306D01*
X73229353Y-134863960D01*
X72951438Y-134919241D01*
X72812482Y-134946881D01*
X72387446Y-134946881D01*
X72248490Y-134919241D01*
X71970575Y-134863960D01*
X71577895Y-134701306D01*
X71224491Y-134465170D01*
X70923945Y-134164624D01*
X70687809Y-133811220D01*
X70525155Y-133418540D01*
X70460778Y-133094895D01*
X70457904Y-133085422D01*
X70453237Y-133076691D01*
X70446957Y-133069039D01*
X70439305Y-133062759D01*
X70430574Y-133058092D01*
X70421101Y-133055218D01*
X70411249Y-133054248D01*
X70401397Y-133055218D01*
X70391927Y-133058091D01*
X70375501Y-133064895D01*
X70244937Y-133090866D01*
X70111817Y-133090866D01*
X69981253Y-133064895D01*
X69858266Y-133013952D01*
X69747580Y-132939994D01*
X69653449Y-132845863D01*
X69579491Y-132735177D01*
X69528548Y-132612190D01*
X69502577Y-132481626D01*
X69502577Y-132348506D01*
X69528548Y-132217942D01*
X69579491Y-132094955D01*
X69653449Y-131984269D01*
X69747580Y-131890138D01*
X69858266Y-131816180D01*
X69981253Y-131765237D01*
X70111817Y-131739266D01*
X70244937Y-131739266D01*
X70375501Y-131765237D01*
X70498488Y-131816180D01*
X70570279Y-131864149D01*
X70579677Y-131870429D01*
X70588408Y-131875096D01*
X70597881Y-131877970D01*
X70607733Y-131878940D01*
X70617585Y-131877970D01*
X70627058Y-131875096D01*
X70635789Y-131870430D01*
X70643441Y-131864149D01*
X70649721Y-131856497D01*
X70654388Y-131847766D01*
X70687809Y-131767082D01*
X70923945Y-131413678D01*
X71224491Y-131113132D01*
X71577895Y-130876996D01*
X71970575Y-130714342D01*
X72332146Y-130642421D01*
X72387446Y-130631421D01*
X72812482Y-130631421D01*
X72867782Y-130642421D01*
X72867782Y-130642421D01*
G37*
G36*
X133040625Y-125296446D02*
G01*
X133318540Y-125351727D01*
X133711220Y-125514381D01*
X134064624Y-125750517D01*
X134365170Y-126051063D01*
X134601306Y-126404467D01*
X134763960Y-126797147D01*
X134766070Y-126807756D01*
X134841511Y-127187019D01*
X134846881Y-127214019D01*
X134846881Y-127639053D01*
X134763960Y-128055925D01*
X134601306Y-128448605D01*
X134365170Y-128802009D01*
X134064624Y-129102555D01*
X133711220Y-129338691D01*
X133318540Y-129501345D01*
X132994895Y-129565722D01*
X132985422Y-129568596D01*
X132976691Y-129573263D01*
X132969039Y-129579543D01*
X132962759Y-129587195D01*
X132958092Y-129595926D01*
X132955218Y-129605399D01*
X132954248Y-129615251D01*
X132955218Y-129625103D01*
X132958091Y-129634573D01*
X132964895Y-129650999D01*
X132990866Y-129781563D01*
X132990866Y-129914683D01*
X132964895Y-130045247D01*
X132913952Y-130168234D01*
X132839994Y-130278920D01*
X132745863Y-130373051D01*
X132635177Y-130447009D01*
X132512190Y-130497952D01*
X132381626Y-130523923D01*
X132248506Y-130523923D01*
X132117942Y-130497952D01*
X131994955Y-130447009D01*
X131884269Y-130373051D01*
X131790138Y-130278920D01*
X131716180Y-130168234D01*
X131665237Y-130045247D01*
X131639266Y-129914683D01*
X131639266Y-129781563D01*
X131665237Y-129650999D01*
X131716180Y-129528012D01*
X131770430Y-129446821D01*
X131775096Y-129438092D01*
X131777970Y-129428619D01*
X131778940Y-129418767D01*
X131777970Y-129408915D01*
X131775096Y-129399442D01*
X131770430Y-129390711D01*
X131764149Y-129383059D01*
X131756497Y-129376779D01*
X131747766Y-129372112D01*
X131667082Y-129338691D01*
X131313678Y-129102555D01*
X131013132Y-128802009D01*
X130776996Y-128448605D01*
X130614342Y-128055925D01*
X130531421Y-127639053D01*
X130531421Y-127214019D01*
X130536792Y-127187019D01*
X130612232Y-126807756D01*
X130614342Y-126797147D01*
X130776996Y-126404467D01*
X131013132Y-126051063D01*
X131313678Y-125750517D01*
X131667082Y-125514381D01*
X132059762Y-125351727D01*
X132337677Y-125296446D01*
X132476633Y-125268806D01*
X132901669Y-125268806D01*
X133040625Y-125296446D01*
X133040625Y-125296446D01*
G37*
G36*
X67548304Y-125268806D02*
G01*
X67829438Y-125324727D01*
X68222118Y-125487381D01*
X68575522Y-125723517D01*
X68876068Y-126024063D01*
X69112204Y-126377467D01*
X69274858Y-126770147D01*
X69280229Y-126797149D01*
X69357779Y-127187018D01*
X69357779Y-127612054D01*
X69352408Y-127639054D01*
X69274858Y-128028925D01*
X69112204Y-128421605D01*
X68876068Y-128775009D01*
X68575522Y-129075555D01*
X68222118Y-129311691D01*
X67829438Y-129474345D01*
X67559636Y-129528012D01*
X67412567Y-129557266D01*
X66987531Y-129557266D01*
X66840462Y-129528012D01*
X66570660Y-129474345D01*
X66177980Y-129311691D01*
X65824576Y-129075555D01*
X65524030Y-128775009D01*
X65287894Y-128421605D01*
X65125240Y-128028925D01*
X65047690Y-127639054D01*
X65042319Y-127612054D01*
X65042319Y-127328958D01*
X65041349Y-127319106D01*
X65038475Y-127309633D01*
X65033808Y-127300902D01*
X65027528Y-127293250D01*
X65019876Y-127286970D01*
X65011145Y-127282303D01*
X65001672Y-127279429D01*
X64991820Y-127278459D01*
X64981968Y-127279429D01*
X64946772Y-127286430D01*
X64813652Y-127286430D01*
X64683088Y-127260459D01*
X64560101Y-127209516D01*
X64449415Y-127135558D01*
X64355284Y-127041427D01*
X64281326Y-126930741D01*
X64230383Y-126807754D01*
X64204412Y-126677190D01*
X64204412Y-126544070D01*
X64230383Y-126413506D01*
X64281326Y-126290519D01*
X64355284Y-126179833D01*
X64449415Y-126085702D01*
X64560101Y-126011744D01*
X64683088Y-125960801D01*
X64813652Y-125934830D01*
X64946772Y-125934830D01*
X65077336Y-125960801D01*
X65077339Y-125960802D01*
X65077338Y-125960802D01*
X65200323Y-126011744D01*
X65311009Y-126085702D01*
X65370506Y-126145199D01*
X65378158Y-126151479D01*
X65386889Y-126156146D01*
X65396362Y-126159020D01*
X65406214Y-126159990D01*
X65416066Y-126159020D01*
X65425539Y-126156146D01*
X65434270Y-126151479D01*
X65441922Y-126145199D01*
X65448202Y-126137547D01*
X65524030Y-126024063D01*
X65824576Y-125723517D01*
X66177980Y-125487381D01*
X66570660Y-125324727D01*
X66851794Y-125268806D01*
X66987531Y-125241806D01*
X67412567Y-125241806D01*
X67548304Y-125268806D01*
X67548304Y-125268806D01*
G37*
G36*
X137251415Y-119369910D02*
G01*
X137529330Y-119425191D01*
X137922010Y-119587845D01*
X138275414Y-119823981D01*
X138575960Y-120124527D01*
X138812096Y-120477931D01*
X138974750Y-120870611D01*
X139057671Y-121287483D01*
X139057671Y-121712517D01*
X138974750Y-122129389D01*
X138812096Y-122522069D01*
X138575960Y-122875473D01*
X138275414Y-123176019D01*
X137922010Y-123412155D01*
X137574399Y-123556141D01*
X137565668Y-123560808D01*
X137558016Y-123567088D01*
X137551736Y-123574740D01*
X137547069Y-123583471D01*
X137544195Y-123592944D01*
X137543225Y-123602796D01*
X137544195Y-123612648D01*
X137547069Y-123622121D01*
X137550374Y-123628305D01*
X137550929Y-123629645D01*
X137601872Y-123752632D01*
X137627843Y-123883196D01*
X137627843Y-124016316D01*
X137601872Y-124146880D01*
X137550929Y-124269867D01*
X137476971Y-124380553D01*
X137382840Y-124474684D01*
X137272154Y-124548642D01*
X137149167Y-124599585D01*
X137018603Y-124625556D01*
X136885483Y-124625556D01*
X136754919Y-124599585D01*
X136631932Y-124548642D01*
X136521246Y-124474684D01*
X136427115Y-124380553D01*
X136353157Y-124269867D01*
X136302214Y-124146880D01*
X136276243Y-124016316D01*
X136276243Y-123883196D01*
X136302214Y-123752632D01*
X136344306Y-123651013D01*
X136347180Y-123641540D01*
X136348150Y-123631688D01*
X136347180Y-123621836D01*
X136344306Y-123612363D01*
X136339639Y-123603632D01*
X136333359Y-123595980D01*
X136325707Y-123589700D01*
X136316976Y-123585033D01*
X136307503Y-123582159D01*
X136270552Y-123574809D01*
X135877872Y-123412155D01*
X135524468Y-123176019D01*
X135223922Y-122875473D01*
X134987786Y-122522069D01*
X134825132Y-122129389D01*
X134742211Y-121712517D01*
X134742211Y-121287483D01*
X134825132Y-120870611D01*
X134987786Y-120477931D01*
X135223922Y-120124527D01*
X135524468Y-119823981D01*
X135877872Y-119587845D01*
X136270552Y-119425191D01*
X136548467Y-119369910D01*
X136687423Y-119342270D01*
X137112459Y-119342270D01*
X137251415Y-119369910D01*
X137251415Y-119369910D01*
G37*
G36*
X63411533Y-119423910D02*
G01*
X63689448Y-119479191D01*
X64082128Y-119641845D01*
X64435532Y-119877981D01*
X64736078Y-120178527D01*
X64972214Y-120531931D01*
X65134868Y-120924611D01*
X65217789Y-121341483D01*
X65217789Y-121766517D01*
X65134868Y-122183389D01*
X64972214Y-122576069D01*
X64736078Y-122929473D01*
X64435532Y-123230019D01*
X64082128Y-123466155D01*
X63689448Y-123628809D01*
X63411533Y-123684090D01*
X63272577Y-123711730D01*
X62847541Y-123711730D01*
X62708585Y-123684090D01*
X62430670Y-123628809D01*
X62037990Y-123466155D01*
X61684586Y-123230019D01*
X61384040Y-122929473D01*
X61147904Y-122576069D01*
X60985250Y-122183389D01*
X60902329Y-121766517D01*
X60902329Y-121341483D01*
X60948295Y-121110395D01*
X60949265Y-121100543D01*
X60948295Y-121090691D01*
X60945421Y-121081218D01*
X60940754Y-121072487D01*
X60934474Y-121064835D01*
X60926822Y-121058555D01*
X60918091Y-121053888D01*
X60908618Y-121051014D01*
X60898766Y-121050044D01*
X60845897Y-121050044D01*
X60715333Y-121024073D01*
X60592346Y-120973130D01*
X60481660Y-120899172D01*
X60387529Y-120805041D01*
X60313571Y-120694355D01*
X60262628Y-120571368D01*
X60236657Y-120440804D01*
X60236657Y-120307684D01*
X60262628Y-120177120D01*
X60313571Y-120054133D01*
X60387529Y-119943447D01*
X60481660Y-119849316D01*
X60592346Y-119775358D01*
X60715333Y-119724415D01*
X60845897Y-119698444D01*
X60979017Y-119698444D01*
X61109581Y-119724415D01*
X61109584Y-119724416D01*
X61109583Y-119724416D01*
X61232568Y-119775358D01*
X61343254Y-119849316D01*
X61437385Y-119943447D01*
X61475992Y-120001227D01*
X61482272Y-120008879D01*
X61489924Y-120015159D01*
X61498655Y-120019826D01*
X61508128Y-120022700D01*
X61517980Y-120023670D01*
X61527832Y-120022700D01*
X61537305Y-120019826D01*
X61546036Y-120015159D01*
X61553688Y-120008879D01*
X61684586Y-119877981D01*
X62037990Y-119641845D01*
X62430670Y-119479191D01*
X62708585Y-119423910D01*
X62847541Y-119396270D01*
X63272577Y-119396270D01*
X63411533Y-119423910D01*
X63411533Y-119423910D01*
G37*
G36*
X140433748Y-112640058D02*
G01*
X140729753Y-112698937D01*
X141122433Y-112861591D01*
X141475837Y-113097727D01*
X141776383Y-113398273D01*
X142012519Y-113751677D01*
X142175173Y-114144357D01*
X142175173Y-114144359D01*
X142243375Y-114487229D01*
X142258094Y-114561229D01*
X142258094Y-114986263D01*
X142175173Y-115403135D01*
X142012519Y-115795815D01*
X141776383Y-116149219D01*
X141475837Y-116449765D01*
X141122328Y-116685972D01*
X141114676Y-116692252D01*
X141108396Y-116699904D01*
X141103729Y-116708635D01*
X141100855Y-116718108D01*
X141099885Y-116727960D01*
X141100855Y-116737812D01*
X141103729Y-116747285D01*
X141108396Y-116756016D01*
X141175956Y-116857127D01*
X141226899Y-116980114D01*
X141252870Y-117110678D01*
X141252870Y-117243798D01*
X141226899Y-117374362D01*
X141175956Y-117497349D01*
X141101998Y-117608035D01*
X141007867Y-117702166D01*
X140897181Y-117776124D01*
X140774194Y-117827067D01*
X140643630Y-117853038D01*
X140510510Y-117853038D01*
X140379946Y-117827067D01*
X140256959Y-117776124D01*
X140146273Y-117702166D01*
X140052142Y-117608035D01*
X139978184Y-117497349D01*
X139927241Y-117374362D01*
X139901270Y-117243798D01*
X139901270Y-117110678D01*
X139925198Y-116990386D01*
X139926167Y-116980542D01*
X139925197Y-116970690D01*
X139922323Y-116961217D01*
X139917657Y-116952486D01*
X139911376Y-116944834D01*
X139903724Y-116938554D01*
X139894993Y-116933887D01*
X139885523Y-116931014D01*
X139698664Y-116893845D01*
X139470975Y-116848555D01*
X139078295Y-116685901D01*
X138724891Y-116449765D01*
X138424345Y-116149219D01*
X138188209Y-115795815D01*
X138025555Y-115403135D01*
X137942634Y-114986263D01*
X137942634Y-114561229D01*
X137957354Y-114487229D01*
X138025555Y-114144359D01*
X138025555Y-114144357D01*
X138188209Y-113751677D01*
X138424345Y-113398273D01*
X138724891Y-113097727D01*
X139078295Y-112861591D01*
X139470975Y-112698937D01*
X139766980Y-112640058D01*
X139887846Y-112616016D01*
X140312882Y-112616016D01*
X140433748Y-112640058D01*
X140433748Y-112640058D01*
G37*
G36*
X58187047Y-112515157D02*
G01*
X58187050Y-112515158D01*
X58187049Y-112515158D01*
X58310034Y-112566100D01*
X58420720Y-112640058D01*
X58514851Y-112734189D01*
X58588810Y-112844876D01*
X58609358Y-112894485D01*
X58614024Y-112903216D01*
X58620304Y-112910869D01*
X58627957Y-112917149D01*
X58636687Y-112921816D01*
X58646160Y-112924690D01*
X58656012Y-112925660D01*
X58665864Y-112924690D01*
X58675337Y-112921816D01*
X58684069Y-112917149D01*
X58877967Y-112787591D01*
X59270647Y-112624937D01*
X59548562Y-112569656D01*
X59687518Y-112542016D01*
X60112554Y-112542016D01*
X60251510Y-112569656D01*
X60529425Y-112624937D01*
X60922105Y-112787591D01*
X61275509Y-113023727D01*
X61576055Y-113324273D01*
X61812191Y-113677677D01*
X61974845Y-114070357D01*
X61989565Y-114144359D01*
X62057766Y-114487228D01*
X62057766Y-114912264D01*
X62043046Y-114986264D01*
X61974845Y-115329135D01*
X61812191Y-115721815D01*
X61576055Y-116075219D01*
X61275509Y-116375765D01*
X60922105Y-116611901D01*
X60529425Y-116774555D01*
X60251510Y-116829836D01*
X60112554Y-116857476D01*
X59687518Y-116857476D01*
X59548562Y-116829836D01*
X59270647Y-116774555D01*
X58877967Y-116611901D01*
X58524563Y-116375765D01*
X58224017Y-116075219D01*
X57987881Y-115721815D01*
X57825227Y-115329135D01*
X57757026Y-114986264D01*
X57742306Y-114912264D01*
X57742306Y-114487228D01*
X57810507Y-114144359D01*
X57825227Y-114070357D01*
X57897003Y-113897075D01*
X57899877Y-113887602D01*
X57900847Y-113877750D01*
X57899877Y-113867898D01*
X57897003Y-113858425D01*
X57892336Y-113849694D01*
X57886056Y-113842042D01*
X57878404Y-113835762D01*
X57869673Y-113831095D01*
X57860210Y-113828224D01*
X57792799Y-113814815D01*
X57669812Y-113763872D01*
X57559126Y-113689914D01*
X57464995Y-113595783D01*
X57391037Y-113485097D01*
X57340094Y-113362110D01*
X57314123Y-113231546D01*
X57314123Y-113098426D01*
X57340094Y-112967862D01*
X57391037Y-112844875D01*
X57464995Y-112734189D01*
X57559126Y-112640058D01*
X57669812Y-112566100D01*
X57792799Y-112515157D01*
X57923363Y-112489186D01*
X58056483Y-112489186D01*
X58187047Y-112515157D01*
X58187047Y-112515157D01*
G37*
G36*
X142351756Y-105658123D02*
G01*
X142629671Y-105713404D01*
X143022351Y-105876058D01*
X143375755Y-106112194D01*
X143676301Y-106412740D01*
X143912437Y-106766144D01*
X144075091Y-107158824D01*
X144080834Y-107187696D01*
X144158012Y-107575695D01*
X144158012Y-108000731D01*
X144152269Y-108029602D01*
X144075091Y-108417602D01*
X143912437Y-108810282D01*
X143676301Y-109163686D01*
X143375757Y-109464230D01*
X143342334Y-109486562D01*
X143334681Y-109492842D01*
X143328401Y-109500495D01*
X143323734Y-109509225D01*
X143320860Y-109518698D01*
X143319890Y-109528550D01*
X143320860Y-109538402D01*
X143323734Y-109547875D01*
X143328400Y-109556606D01*
X143334681Y-109564259D01*
X143412036Y-109641614D01*
X143485994Y-109752300D01*
X143536937Y-109875287D01*
X143562908Y-110005851D01*
X143562908Y-110138971D01*
X143536937Y-110269535D01*
X143485994Y-110392522D01*
X143412036Y-110503208D01*
X143317905Y-110597339D01*
X143207219Y-110671297D01*
X143084232Y-110722240D01*
X142953668Y-110748211D01*
X142820548Y-110748211D01*
X142689984Y-110722240D01*
X142566997Y-110671297D01*
X142456311Y-110597339D01*
X142362180Y-110503208D01*
X142288222Y-110392522D01*
X142237279Y-110269535D01*
X142211308Y-110138971D01*
X142211308Y-110005398D01*
X142212190Y-109996440D01*
X142211219Y-109986588D01*
X142208345Y-109977115D01*
X142203678Y-109968385D01*
X142197398Y-109960732D01*
X142189745Y-109954453D01*
X142181014Y-109949786D01*
X142171541Y-109946913D01*
X142161691Y-109945943D01*
X141787764Y-109945943D01*
X141648808Y-109918303D01*
X141370893Y-109863022D01*
X140978213Y-109700368D01*
X140624809Y-109464232D01*
X140324263Y-109163686D01*
X140088127Y-108810282D01*
X139925473Y-108417602D01*
X139848295Y-108029602D01*
X139842552Y-108000731D01*
X139842552Y-107575695D01*
X139919730Y-107187696D01*
X139925473Y-107158824D01*
X140088127Y-106766144D01*
X140324263Y-106412740D01*
X140624809Y-106112194D01*
X140978213Y-105876058D01*
X141370893Y-105713404D01*
X141648808Y-105658123D01*
X141787764Y-105630483D01*
X142212800Y-105630483D01*
X142351756Y-105658123D01*
X142351756Y-105658123D01*
G37*
G36*
X56490256Y-104907253D02*
G01*
X56613243Y-104958196D01*
X56723929Y-105032154D01*
X56818060Y-105126285D01*
X56892018Y-105236971D01*
X56942961Y-105359958D01*
X56950137Y-105396034D01*
X56953008Y-105405497D01*
X56957674Y-105414227D01*
X56963955Y-105421880D01*
X56971607Y-105428160D01*
X56980338Y-105432827D01*
X56989811Y-105435701D01*
X56999663Y-105436671D01*
X57009515Y-105435701D01*
X57018988Y-105432827D01*
X57278329Y-105325404D01*
X57556244Y-105270123D01*
X57695200Y-105242483D01*
X58120236Y-105242483D01*
X58259192Y-105270123D01*
X58537107Y-105325404D01*
X58929787Y-105488058D01*
X59283191Y-105724194D01*
X59583737Y-106024740D01*
X59819873Y-106378144D01*
X59982527Y-106770824D01*
X59982527Y-106770826D01*
X60059706Y-107158826D01*
X60065448Y-107187696D01*
X60065448Y-107612730D01*
X59982527Y-108029602D01*
X59819873Y-108422282D01*
X59583737Y-108775686D01*
X59283191Y-109076232D01*
X58929787Y-109312368D01*
X58537107Y-109475022D01*
X58317533Y-109518698D01*
X58120236Y-109557943D01*
X57695200Y-109557943D01*
X57497903Y-109518698D01*
X57278329Y-109475022D01*
X56885649Y-109312368D01*
X56532245Y-109076232D01*
X56231699Y-108775686D01*
X55995563Y-108422282D01*
X55832909Y-108029602D01*
X55749988Y-107612730D01*
X55749988Y-107187696D01*
X55755731Y-107158826D01*
X55832909Y-106770826D01*
X55832909Y-106770824D01*
X55995563Y-106378144D01*
X56072762Y-106262606D01*
X56077429Y-106253875D01*
X56080303Y-106244402D01*
X56081273Y-106234550D01*
X56080303Y-106224698D01*
X56077429Y-106215225D01*
X56072762Y-106206494D01*
X56066482Y-106198842D01*
X56058830Y-106192562D01*
X56050099Y-106187895D01*
X55973021Y-106155968D01*
X55862335Y-106082010D01*
X55768204Y-105987879D01*
X55694246Y-105877193D01*
X55643304Y-105754208D01*
X55643303Y-105754206D01*
X55617332Y-105623642D01*
X55617332Y-105490522D01*
X55643303Y-105359958D01*
X55694246Y-105236971D01*
X55768204Y-105126285D01*
X55862335Y-105032154D01*
X55973021Y-104958196D01*
X56096008Y-104907253D01*
X56226572Y-104881282D01*
X56359692Y-104881282D01*
X56490256Y-104907253D01*
X56490256Y-104907253D01*
G37*
G36*
X127191166Y-102362661D02*
G01*
X127326509Y-102389582D01*
X127517741Y-102468793D01*
X127689846Y-102583790D01*
X127836210Y-102730154D01*
X127951207Y-102902259D01*
X128030418Y-103093491D01*
X128070800Y-103296506D01*
X128070800Y-103503494D01*
X128030418Y-103706509D01*
X127951207Y-103897741D01*
X127836210Y-104069846D01*
X127689846Y-104216210D01*
X127517741Y-104331207D01*
X127326509Y-104410418D01*
X127191166Y-104437339D01*
X127123495Y-104450800D01*
X126916505Y-104450800D01*
X126848834Y-104437339D01*
X126713491Y-104410418D01*
X126522259Y-104331207D01*
X126350154Y-104216210D01*
X126203790Y-104069846D01*
X126088793Y-103897741D01*
X126009582Y-103706509D01*
X125969200Y-103503494D01*
X125969200Y-103296506D01*
X126009582Y-103093491D01*
X126088793Y-102902259D01*
X126203790Y-102730154D01*
X126350154Y-102583790D01*
X126522259Y-102468793D01*
X126713491Y-102389582D01*
X126848834Y-102362661D01*
X126916505Y-102349200D01*
X127123495Y-102349200D01*
X127191166Y-102362661D01*
X127191166Y-102362661D01*
G37*
G36*
X142654530Y-91999210D02*
G01*
X142932445Y-92054491D01*
X143325125Y-92217145D01*
X143678529Y-92453281D01*
X143979075Y-92753827D01*
X144215211Y-93107231D01*
X144377865Y-93499911D01*
X144460786Y-93916783D01*
X144460786Y-94341817D01*
X144377865Y-94758689D01*
X144215211Y-95151369D01*
X144094953Y-95331349D01*
X144090286Y-95340080D01*
X144087412Y-95349553D01*
X144086442Y-95359405D01*
X144087412Y-95369257D01*
X144090286Y-95378730D01*
X144094953Y-95387461D01*
X144101233Y-95395113D01*
X144108885Y-95401393D01*
X144117616Y-95406060D01*
X144172445Y-95428771D01*
X144283131Y-95502729D01*
X144377262Y-95596860D01*
X144451220Y-95707546D01*
X144502163Y-95830533D01*
X144528134Y-95961097D01*
X144528134Y-96094217D01*
X144502163Y-96224781D01*
X144451220Y-96347768D01*
X144377262Y-96458454D01*
X144283131Y-96552585D01*
X144172445Y-96626543D01*
X144049458Y-96677486D01*
X143918894Y-96703457D01*
X143785774Y-96703457D01*
X143655210Y-96677486D01*
X143532223Y-96626543D01*
X143421537Y-96552585D01*
X143327406Y-96458454D01*
X143253448Y-96347768D01*
X143202505Y-96224781D01*
X143190152Y-96162681D01*
X143187280Y-96153213D01*
X143182613Y-96144482D01*
X143176333Y-96136830D01*
X143168681Y-96130550D01*
X143159950Y-96125883D01*
X143150477Y-96123009D01*
X143140625Y-96122039D01*
X143130773Y-96123009D01*
X143121300Y-96125883D01*
X142932445Y-96204109D01*
X142654530Y-96259390D01*
X142515574Y-96287030D01*
X142090538Y-96287030D01*
X141951582Y-96259390D01*
X141673667Y-96204109D01*
X141280987Y-96041455D01*
X140927583Y-95805319D01*
X140627037Y-95504773D01*
X140390901Y-95151369D01*
X140228247Y-94758689D01*
X140145326Y-94341817D01*
X140145326Y-93916783D01*
X140228247Y-93499911D01*
X140390901Y-93107231D01*
X140627037Y-92753827D01*
X140927583Y-92453281D01*
X141280987Y-92217145D01*
X141673667Y-92054491D01*
X141951582Y-91999210D01*
X142090538Y-91971570D01*
X142515574Y-91971570D01*
X142654530Y-91999210D01*
X142654530Y-91999210D01*
G37*
G36*
X56891954Y-91315507D02*
G01*
X57014941Y-91366450D01*
X57125627Y-91440408D01*
X57219758Y-91534539D01*
X57293716Y-91645225D01*
X57344659Y-91768212D01*
X57370630Y-91898776D01*
X57370630Y-92003967D01*
X57371600Y-92013819D01*
X57374474Y-92023292D01*
X57379141Y-92032023D01*
X57385421Y-92039675D01*
X57393073Y-92045955D01*
X57401804Y-92050622D01*
X57411277Y-92053496D01*
X57421129Y-92054466D01*
X57430981Y-92053496D01*
X57468893Y-92045955D01*
X57487469Y-92042260D01*
X57912505Y-92042260D01*
X58051461Y-92069900D01*
X58329376Y-92125181D01*
X58722056Y-92287835D01*
X59075460Y-92523971D01*
X59376006Y-92824517D01*
X59612142Y-93177921D01*
X59774796Y-93570601D01*
X59857717Y-93987473D01*
X59857717Y-94412507D01*
X59774796Y-94829379D01*
X59612142Y-95222059D01*
X59376006Y-95575463D01*
X59075460Y-95876009D01*
X58722056Y-96112145D01*
X58329376Y-96274799D01*
X58051461Y-96330080D01*
X57912505Y-96357720D01*
X57487469Y-96357720D01*
X57348513Y-96330080D01*
X57070598Y-96274799D01*
X56677918Y-96112145D01*
X56324514Y-95876009D01*
X56023968Y-95575463D01*
X55787832Y-95222059D01*
X55625178Y-94829379D01*
X55542257Y-94412507D01*
X55542257Y-93987473D01*
X55625178Y-93570601D01*
X55787832Y-93177921D01*
X56023968Y-92824517D01*
X56276984Y-92571501D01*
X56283264Y-92563849D01*
X56287931Y-92555118D01*
X56290805Y-92545645D01*
X56291775Y-92535793D01*
X56290805Y-92525941D01*
X56287931Y-92516468D01*
X56283264Y-92507737D01*
X56276984Y-92500085D01*
X56269335Y-92493807D01*
X56264033Y-92490264D01*
X56169902Y-92396133D01*
X56095944Y-92285447D01*
X56045001Y-92162460D01*
X56019030Y-92031896D01*
X56019030Y-91898776D01*
X56045001Y-91768212D01*
X56095944Y-91645225D01*
X56169902Y-91534539D01*
X56264033Y-91440408D01*
X56374719Y-91366450D01*
X56497706Y-91315507D01*
X56628270Y-91289536D01*
X56761390Y-91289536D01*
X56891954Y-91315507D01*
X56891954Y-91315507D01*
G37*
G36*
X128070800Y-91750800D02*
G01*
X125969200Y-91750800D01*
X125969200Y-89649200D01*
X128070800Y-89649200D01*
X128070800Y-91750800D01*
X128070800Y-91750800D01*
G37*
G36*
X141313043Y-86013780D02*
G01*
X141629192Y-86076666D01*
X142021872Y-86239320D01*
X142375276Y-86475456D01*
X142675822Y-86776002D01*
X142911958Y-87129406D01*
X143074612Y-87522086D01*
X143157533Y-87938958D01*
X143157533Y-88363992D01*
X143074612Y-88780864D01*
X142959071Y-89059803D01*
X142956197Y-89069276D01*
X142955227Y-89079128D01*
X142956197Y-89088980D01*
X142959071Y-89098453D01*
X142963738Y-89107184D01*
X142970018Y-89114836D01*
X142977670Y-89121116D01*
X142986401Y-89125783D01*
X142995871Y-89128656D01*
X143024099Y-89134271D01*
X143147086Y-89185214D01*
X143257772Y-89259172D01*
X143351903Y-89353303D01*
X143425861Y-89463989D01*
X143476804Y-89586976D01*
X143502775Y-89717540D01*
X143502775Y-89850660D01*
X143476804Y-89981224D01*
X143425861Y-90104211D01*
X143351903Y-90214897D01*
X143257772Y-90309028D01*
X143147086Y-90382986D01*
X143024099Y-90433929D01*
X142893535Y-90459900D01*
X142760415Y-90459900D01*
X142629851Y-90433929D01*
X142506864Y-90382986D01*
X142396178Y-90309028D01*
X142302047Y-90214897D01*
X142228089Y-90104211D01*
X142193769Y-90021356D01*
X142189102Y-90012625D01*
X142182822Y-90004973D01*
X142175170Y-89998693D01*
X142166439Y-89994026D01*
X142156966Y-89991152D01*
X142147114Y-89990182D01*
X142137262Y-89991152D01*
X142127789Y-89994026D01*
X142119058Y-89998693D01*
X142021872Y-90063630D01*
X141629192Y-90226284D01*
X141351277Y-90281565D01*
X141212321Y-90309205D01*
X140787285Y-90309205D01*
X140648329Y-90281565D01*
X140370414Y-90226284D01*
X139977734Y-90063630D01*
X139624330Y-89827494D01*
X139323784Y-89526948D01*
X139087648Y-89173544D01*
X138924994Y-88780864D01*
X138842073Y-88363992D01*
X138842073Y-87938958D01*
X138924994Y-87522086D01*
X139087648Y-87129406D01*
X139323784Y-86776002D01*
X139624330Y-86475456D01*
X139977734Y-86239320D01*
X140370414Y-86076666D01*
X140686563Y-86013780D01*
X140787285Y-85993745D01*
X141212321Y-85993745D01*
X141313043Y-86013780D01*
X141313043Y-86013780D01*
G37*
G36*
X58422063Y-85297393D02*
G01*
X58545050Y-85348336D01*
X58655736Y-85422294D01*
X58749867Y-85516425D01*
X58823825Y-85627111D01*
X58874768Y-85750098D01*
X58900739Y-85880662D01*
X58900739Y-86013782D01*
X58887180Y-86081945D01*
X58886211Y-86091791D01*
X58887181Y-86101643D01*
X58890055Y-86111116D01*
X58894721Y-86119847D01*
X58901002Y-86127499D01*
X58908654Y-86133779D01*
X58917385Y-86138446D01*
X58926858Y-86141320D01*
X58936710Y-86142290D01*
X59121828Y-86142290D01*
X59260784Y-86169930D01*
X59538699Y-86225211D01*
X59931379Y-86387865D01*
X60284783Y-86624001D01*
X60585329Y-86924547D01*
X60821465Y-87277951D01*
X60984119Y-87670631D01*
X61067040Y-88087503D01*
X61067040Y-88512537D01*
X60984119Y-88929409D01*
X60821465Y-89322089D01*
X60585329Y-89675493D01*
X60284783Y-89976039D01*
X59931379Y-90212175D01*
X59538699Y-90374829D01*
X59260784Y-90430110D01*
X59121828Y-90457750D01*
X58696792Y-90457750D01*
X58557836Y-90430110D01*
X58279921Y-90374829D01*
X57887241Y-90212175D01*
X57533837Y-89976039D01*
X57233291Y-89675493D01*
X56997155Y-89322089D01*
X56834501Y-88929409D01*
X56751580Y-88512537D01*
X56751580Y-88087503D01*
X56834501Y-87670631D01*
X56997155Y-87277951D01*
X57233291Y-86924547D01*
X57533837Y-86624001D01*
X57729744Y-86493100D01*
X57737396Y-86486820D01*
X57743676Y-86479168D01*
X57748343Y-86470437D01*
X57751217Y-86460964D01*
X57752187Y-86451112D01*
X57751217Y-86441260D01*
X57748343Y-86431787D01*
X57743676Y-86423056D01*
X57737396Y-86415404D01*
X57700011Y-86378019D01*
X57626053Y-86267333D01*
X57614450Y-86239320D01*
X57575110Y-86144346D01*
X57549139Y-86013782D01*
X57549139Y-85880662D01*
X57575110Y-85750098D01*
X57626053Y-85627111D01*
X57700011Y-85516425D01*
X57794142Y-85422294D01*
X57904828Y-85348336D01*
X58027815Y-85297393D01*
X58158379Y-85271422D01*
X58291499Y-85271422D01*
X58422063Y-85297393D01*
X58422063Y-85297393D01*
G37*
G36*
X60739643Y-79641233D02*
G01*
X60862630Y-79692176D01*
X60973316Y-79766134D01*
X61067447Y-79860265D01*
X61141405Y-79970951D01*
X61192348Y-80093938D01*
X61218319Y-80224502D01*
X61218319Y-80357622D01*
X61192348Y-80488186D01*
X61192346Y-80488190D01*
X61182370Y-80512277D01*
X61179496Y-80521750D01*
X61178526Y-80531602D01*
X61179497Y-80541454D01*
X61182370Y-80550927D01*
X61187037Y-80559658D01*
X61193318Y-80567310D01*
X61200970Y-80573590D01*
X61209701Y-80578256D01*
X61219168Y-80581129D01*
X61370216Y-80611174D01*
X61522173Y-80641400D01*
X61914853Y-80804054D01*
X62268257Y-81040190D01*
X62568803Y-81340736D01*
X62804939Y-81694140D01*
X62967593Y-82086820D01*
X63050514Y-82503692D01*
X63050514Y-82928726D01*
X62967593Y-83345598D01*
X62804939Y-83738278D01*
X62568803Y-84091682D01*
X62268257Y-84392228D01*
X61914853Y-84628364D01*
X61522173Y-84791018D01*
X61244258Y-84846299D01*
X61105302Y-84873939D01*
X60680266Y-84873939D01*
X60541310Y-84846299D01*
X60263395Y-84791018D01*
X59870715Y-84628364D01*
X59517311Y-84392228D01*
X59216765Y-84091682D01*
X58980629Y-83738278D01*
X58817975Y-83345598D01*
X58735054Y-82928726D01*
X58735054Y-82503692D01*
X58817975Y-82086820D01*
X58980629Y-81694140D01*
X59216765Y-81340736D01*
X59517311Y-81040190D01*
X59870715Y-80804054D01*
X59971918Y-80762134D01*
X59980649Y-80757467D01*
X59988301Y-80751187D01*
X59994581Y-80743535D01*
X59999248Y-80734804D01*
X60002122Y-80725331D01*
X60003092Y-80715479D01*
X60002122Y-80705627D01*
X59999248Y-80696154D01*
X59994581Y-80687423D01*
X59943633Y-80611174D01*
X59892691Y-80488188D01*
X59892690Y-80488186D01*
X59866719Y-80357622D01*
X59866719Y-80224502D01*
X59892690Y-80093938D01*
X59943633Y-79970951D01*
X60017591Y-79860265D01*
X60111722Y-79766134D01*
X60222408Y-79692176D01*
X60345395Y-79641233D01*
X60475959Y-79615262D01*
X60609079Y-79615262D01*
X60739643Y-79641233D01*
X60739643Y-79641233D01*
G37*
G36*
X139394359Y-80558479D02*
G01*
X139729793Y-80625201D01*
X140122473Y-80787855D01*
X140475877Y-81023991D01*
X140776423Y-81324537D01*
X141012559Y-81677941D01*
X141175213Y-82070621D01*
X141258134Y-82487493D01*
X141258134Y-82912527D01*
X141175189Y-83329519D01*
X141174219Y-83339371D01*
X141175189Y-83349223D01*
X141178063Y-83358696D01*
X141182730Y-83367427D01*
X141189010Y-83375079D01*
X141196662Y-83381359D01*
X141205393Y-83386026D01*
X141214862Y-83388899D01*
X141334136Y-83412624D01*
X141457123Y-83463567D01*
X141567809Y-83537525D01*
X141661940Y-83631656D01*
X141735898Y-83742342D01*
X141786841Y-83865329D01*
X141812812Y-83995893D01*
X141812812Y-84129013D01*
X141786841Y-84259577D01*
X141735898Y-84382564D01*
X141661940Y-84493250D01*
X141567809Y-84587381D01*
X141457123Y-84661339D01*
X141334136Y-84712282D01*
X141203572Y-84738253D01*
X141070452Y-84738253D01*
X140939888Y-84712282D01*
X140816901Y-84661339D01*
X140706215Y-84587381D01*
X140612084Y-84493250D01*
X140544583Y-84392228D01*
X140543949Y-84391279D01*
X140537669Y-84383627D01*
X140530017Y-84377347D01*
X140521286Y-84372680D01*
X140511813Y-84369806D01*
X140501961Y-84368836D01*
X140492109Y-84369806D01*
X140482636Y-84372680D01*
X140473905Y-84377347D01*
X140122473Y-84612165D01*
X139729793Y-84774819D01*
X139451878Y-84830100D01*
X139312922Y-84857740D01*
X138887886Y-84857740D01*
X138748930Y-84830100D01*
X138471015Y-84774819D01*
X138078335Y-84612165D01*
X137724931Y-84376029D01*
X137424385Y-84075483D01*
X137188249Y-83722079D01*
X137025595Y-83329399D01*
X136942674Y-82912527D01*
X136942674Y-82487493D01*
X137025595Y-82070621D01*
X137188249Y-81677941D01*
X137424385Y-81324537D01*
X137724931Y-81023991D01*
X138078335Y-80787855D01*
X138471015Y-80625201D01*
X138806449Y-80558479D01*
X138887886Y-80542280D01*
X139312922Y-80542280D01*
X139394359Y-80558479D01*
X139394359Y-80558479D01*
G37*
G36*
X96312085Y-79818435D02*
G01*
X96460005Y-79879706D01*
X96593130Y-79968657D01*
X96706343Y-80081870D01*
X96795294Y-80214995D01*
X96856565Y-80362915D01*
X96887800Y-80519946D01*
X96887800Y-80680054D01*
X96856565Y-80837085D01*
X96795294Y-80985005D01*
X96706343Y-81118130D01*
X96593130Y-81231343D01*
X96460005Y-81320294D01*
X96312085Y-81381565D01*
X96155054Y-81412800D01*
X95994946Y-81412800D01*
X95837915Y-81381565D01*
X95689995Y-81320294D01*
X95556870Y-81231343D01*
X95443657Y-81118130D01*
X95354706Y-80985005D01*
X95293435Y-80837085D01*
X95262200Y-80680054D01*
X95262200Y-80519946D01*
X95293435Y-80362915D01*
X95354706Y-80214995D01*
X95443657Y-80081870D01*
X95556870Y-79968657D01*
X95689995Y-79879706D01*
X95837915Y-79818435D01*
X95994946Y-79787200D01*
X96155054Y-79787200D01*
X96312085Y-79818435D01*
X96312085Y-79818435D01*
G37*
G36*
X98852085Y-79818435D02*
G01*
X99000005Y-79879706D01*
X99133130Y-79968657D01*
X99246343Y-80081870D01*
X99335294Y-80214995D01*
X99396565Y-80362915D01*
X99427800Y-80519946D01*
X99427800Y-80680054D01*
X99396565Y-80837085D01*
X99335294Y-80985005D01*
X99246343Y-81118130D01*
X99133130Y-81231343D01*
X99000005Y-81320294D01*
X98852085Y-81381565D01*
X98695054Y-81412800D01*
X98534946Y-81412800D01*
X98377915Y-81381565D01*
X98229995Y-81320294D01*
X98096870Y-81231343D01*
X97983657Y-81118130D01*
X97894706Y-80985005D01*
X97833435Y-80837085D01*
X97802200Y-80680054D01*
X97802200Y-80519946D01*
X97833435Y-80362915D01*
X97894706Y-80214995D01*
X97983657Y-80081870D01*
X98096870Y-79968657D01*
X98229995Y-79879706D01*
X98377915Y-79818435D01*
X98534946Y-79787200D01*
X98695054Y-79787200D01*
X98852085Y-79818435D01*
X98852085Y-79818435D01*
G37*
G36*
X101392085Y-79818435D02*
G01*
X101540005Y-79879706D01*
X101673130Y-79968657D01*
X101786343Y-80081870D01*
X101875294Y-80214995D01*
X101936565Y-80362915D01*
X101967800Y-80519946D01*
X101967800Y-80680054D01*
X101936565Y-80837085D01*
X101875294Y-80985005D01*
X101786343Y-81118130D01*
X101673130Y-81231343D01*
X101540005Y-81320294D01*
X101392085Y-81381565D01*
X101235054Y-81412800D01*
X101074946Y-81412800D01*
X100917915Y-81381565D01*
X100769995Y-81320294D01*
X100636870Y-81231343D01*
X100523657Y-81118130D01*
X100434706Y-80985005D01*
X100373435Y-80837085D01*
X100342200Y-80680054D01*
X100342200Y-80519946D01*
X100373435Y-80362915D01*
X100434706Y-80214995D01*
X100523657Y-80081870D01*
X100636870Y-79968657D01*
X100769995Y-79879706D01*
X100917915Y-79818435D01*
X101074946Y-79787200D01*
X101235054Y-79787200D01*
X101392085Y-79818435D01*
X101392085Y-79818435D01*
G37*
G36*
X103932085Y-79818435D02*
G01*
X104080005Y-79879706D01*
X104213130Y-79968657D01*
X104326343Y-80081870D01*
X104415294Y-80214995D01*
X104476565Y-80362915D01*
X104507800Y-80519946D01*
X104507800Y-80680054D01*
X104476565Y-80837085D01*
X104415294Y-80985005D01*
X104326343Y-81118130D01*
X104213130Y-81231343D01*
X104080005Y-81320294D01*
X103932085Y-81381565D01*
X103775054Y-81412800D01*
X103614946Y-81412800D01*
X103457915Y-81381565D01*
X103309995Y-81320294D01*
X103176870Y-81231343D01*
X103063657Y-81118130D01*
X102974706Y-80985005D01*
X102913435Y-80837085D01*
X102882200Y-80680054D01*
X102882200Y-80519946D01*
X102913435Y-80362915D01*
X102974706Y-80214995D01*
X103063657Y-80081870D01*
X103176870Y-79968657D01*
X103309995Y-79879706D01*
X103457915Y-79818435D01*
X103614946Y-79787200D01*
X103775054Y-79787200D01*
X103932085Y-79818435D01*
X103932085Y-79818435D01*
G37*
G36*
X136566953Y-75249673D02*
G01*
X136870197Y-75309992D01*
X137262877Y-75472646D01*
X137616281Y-75708782D01*
X137916827Y-76009328D01*
X138152963Y-76362732D01*
X138315617Y-76755412D01*
X138398538Y-77172284D01*
X138398538Y-77597317D01*
X138367623Y-77752737D01*
X138366653Y-77762589D01*
X138367623Y-77772441D01*
X138370497Y-77781914D01*
X138375164Y-77790645D01*
X138381444Y-77798297D01*
X138389096Y-77804577D01*
X138397827Y-77809244D01*
X138407300Y-77812118D01*
X138417152Y-77813088D01*
X138494835Y-77813088D01*
X138625399Y-77839059D01*
X138748386Y-77890002D01*
X138859072Y-77963960D01*
X138953203Y-78058091D01*
X139027161Y-78168777D01*
X139078104Y-78291764D01*
X139104075Y-78422328D01*
X139104075Y-78555448D01*
X139078104Y-78686012D01*
X139027161Y-78808999D01*
X138953203Y-78919685D01*
X138859072Y-79013816D01*
X138748386Y-79087774D01*
X138625399Y-79138717D01*
X138494835Y-79164688D01*
X138361715Y-79164688D01*
X138231151Y-79138717D01*
X138108164Y-79087774D01*
X137997478Y-79013816D01*
X137903347Y-78919685D01*
X137879080Y-78883366D01*
X137872801Y-78875716D01*
X137865149Y-78869436D01*
X137856418Y-78864769D01*
X137846945Y-78861895D01*
X137837093Y-78860925D01*
X137827241Y-78861895D01*
X137817768Y-78864769D01*
X137809037Y-78869436D01*
X137801385Y-78875716D01*
X137616281Y-79060820D01*
X137262877Y-79296956D01*
X136870197Y-79459610D01*
X136592282Y-79514891D01*
X136453326Y-79542531D01*
X136028290Y-79542531D01*
X135889334Y-79514891D01*
X135611419Y-79459610D01*
X135218739Y-79296956D01*
X134865335Y-79060820D01*
X134564789Y-78760274D01*
X134328653Y-78406870D01*
X134165999Y-78014190D01*
X134083078Y-77597318D01*
X134083078Y-77172284D01*
X134165999Y-76755412D01*
X134328653Y-76362732D01*
X134564789Y-76009328D01*
X134865335Y-75708782D01*
X135218739Y-75472646D01*
X135611419Y-75309992D01*
X135914663Y-75249673D01*
X136028290Y-75227071D01*
X136453326Y-75227071D01*
X136566953Y-75249673D01*
X136566953Y-75249673D01*
G37*
G36*
X63999740Y-74230890D02*
G01*
X64122727Y-74281833D01*
X64233413Y-74355791D01*
X64327544Y-74449922D01*
X64401502Y-74560608D01*
X64452445Y-74683595D01*
X64478416Y-74814159D01*
X64478416Y-74947279D01*
X64452445Y-75077843D01*
X64452444Y-75077845D01*
X64400897Y-75202292D01*
X64398023Y-75211765D01*
X64397053Y-75221617D01*
X64398023Y-75231469D01*
X64400897Y-75240942D01*
X64405564Y-75249673D01*
X64411844Y-75257325D01*
X64419496Y-75263606D01*
X64428227Y-75268272D01*
X64791261Y-75418646D01*
X65144665Y-75654782D01*
X65445211Y-75955328D01*
X65681347Y-76308732D01*
X65844001Y-76701412D01*
X65926922Y-77118284D01*
X65926922Y-77543318D01*
X65844001Y-77960190D01*
X65681347Y-78352870D01*
X65445211Y-78706274D01*
X65144665Y-79006820D01*
X64791261Y-79242956D01*
X64398581Y-79405610D01*
X64127105Y-79459610D01*
X63981710Y-79488531D01*
X63556674Y-79488531D01*
X63411279Y-79459610D01*
X63139803Y-79405610D01*
X62747123Y-79242956D01*
X62393719Y-79006820D01*
X62093173Y-78706274D01*
X61857037Y-78352870D01*
X61694383Y-77960190D01*
X61611462Y-77543318D01*
X61611462Y-77118284D01*
X61694383Y-76701412D01*
X61857037Y-76308732D01*
X62093173Y-75955328D01*
X62393719Y-75654782D01*
X62747123Y-75418646D01*
X63139803Y-75255992D01*
X63159622Y-75252050D01*
X63169095Y-75249176D01*
X63177826Y-75244510D01*
X63185478Y-75238229D01*
X63191758Y-75230577D01*
X63196425Y-75221846D01*
X63199299Y-75212373D01*
X63200269Y-75202521D01*
X63199299Y-75192669D01*
X63196425Y-75183196D01*
X63152788Y-75077845D01*
X63152787Y-75077843D01*
X63126816Y-74947279D01*
X63126816Y-74814159D01*
X63152787Y-74683595D01*
X63203730Y-74560608D01*
X63277688Y-74449922D01*
X63371819Y-74355791D01*
X63482505Y-74281833D01*
X63605492Y-74230890D01*
X63736056Y-74204919D01*
X63869176Y-74204919D01*
X63999740Y-74230890D01*
X63999740Y-74230890D01*
G37*
G36*
X107006530Y-79255650D02*
G01*
X106145470Y-79255650D01*
X106145470Y-76555630D01*
X107006530Y-76555630D01*
X107006530Y-79255650D01*
X107006530Y-79255650D01*
G37*
G36*
X104466530Y-79255650D02*
G01*
X103605470Y-79255650D01*
X103605470Y-76555630D01*
X104466530Y-76555630D01*
X104466530Y-79255650D01*
X104466530Y-79255650D01*
G37*
G36*
X105736530Y-79255650D02*
G01*
X104875470Y-79255650D01*
X104875470Y-76555630D01*
X105736530Y-76555630D01*
X105736530Y-79255650D01*
X105736530Y-79255650D01*
G37*
G36*
X109546530Y-79255650D02*
G01*
X108685470Y-79255650D01*
X108685470Y-76555630D01*
X109546530Y-76555630D01*
X109546530Y-79255650D01*
X109546530Y-79255650D01*
G37*
G36*
X108276530Y-79255650D02*
G01*
X107415470Y-79255650D01*
X107415470Y-76555630D01*
X108276530Y-76555630D01*
X108276530Y-79255650D01*
X108276530Y-79255650D01*
G37*
G36*
X125025090Y-78857220D02*
G01*
X122924510Y-78857220D01*
X122924510Y-77556740D01*
X125025090Y-77556740D01*
X125025090Y-78857220D01*
X125025090Y-78857220D01*
G37*
G36*
X118827490Y-78857220D02*
G01*
X116726910Y-78857220D01*
X116726910Y-77556740D01*
X118827490Y-77556740D01*
X118827490Y-78857220D01*
X118827490Y-78857220D01*
G37*
G36*
X95109585Y-75077974D02*
G01*
X95255321Y-75138340D01*
X95386480Y-75225978D01*
X95498022Y-75337520D01*
X95585660Y-75468679D01*
X95646026Y-75614415D01*
X95676800Y-75769128D01*
X95676800Y-75926872D01*
X95646026Y-76081585D01*
X95585660Y-76227321D01*
X95498022Y-76358480D01*
X95386480Y-76470022D01*
X95255321Y-76557660D01*
X95109585Y-76618026D01*
X94954872Y-76648800D01*
X94797128Y-76648800D01*
X94642415Y-76618026D01*
X94496679Y-76557660D01*
X94365520Y-76470022D01*
X94253978Y-76358480D01*
X94166340Y-76227321D01*
X94105974Y-76081585D01*
X94075200Y-75926872D01*
X94075200Y-75769128D01*
X94105974Y-75614415D01*
X94166340Y-75468679D01*
X94253978Y-75337520D01*
X94365520Y-75225978D01*
X94496679Y-75138340D01*
X94642415Y-75077974D01*
X94797128Y-75047200D01*
X94954872Y-75047200D01*
X95109585Y-75077974D01*
X95109585Y-75077974D01*
G37*
G36*
X92569585Y-75077974D02*
G01*
X92715321Y-75138340D01*
X92846480Y-75225978D01*
X92958022Y-75337520D01*
X93045660Y-75468679D01*
X93106026Y-75614415D01*
X93136800Y-75769128D01*
X93136800Y-75926872D01*
X93106026Y-76081585D01*
X93045660Y-76227321D01*
X92958022Y-76358480D01*
X92846480Y-76470022D01*
X92715321Y-76557660D01*
X92569585Y-76618026D01*
X92414872Y-76648800D01*
X92257128Y-76648800D01*
X92102415Y-76618026D01*
X91956679Y-76557660D01*
X91825520Y-76470022D01*
X91713978Y-76358480D01*
X91626340Y-76227321D01*
X91565974Y-76081585D01*
X91535200Y-75926872D01*
X91535200Y-75769128D01*
X91565974Y-75614415D01*
X91626340Y-75468679D01*
X91713978Y-75337520D01*
X91825520Y-75225978D01*
X91956679Y-75138340D01*
X92102415Y-75077974D01*
X92257128Y-75047200D01*
X92414872Y-75047200D01*
X92569585Y-75077974D01*
X92569585Y-75077974D01*
G37*
G36*
X90029585Y-75077974D02*
G01*
X90175321Y-75138340D01*
X90306480Y-75225978D01*
X90418022Y-75337520D01*
X90505660Y-75468679D01*
X90566026Y-75614415D01*
X90596800Y-75769128D01*
X90596800Y-75926872D01*
X90566026Y-76081585D01*
X90505660Y-76227321D01*
X90418022Y-76358480D01*
X90306480Y-76470022D01*
X90175321Y-76557660D01*
X90029585Y-76618026D01*
X89874872Y-76648800D01*
X89717128Y-76648800D01*
X89562415Y-76618026D01*
X89416679Y-76557660D01*
X89285520Y-76470022D01*
X89173978Y-76358480D01*
X89086340Y-76227321D01*
X89025974Y-76081585D01*
X88995200Y-75926872D01*
X88995200Y-75769128D01*
X89025974Y-75614415D01*
X89086340Y-75468679D01*
X89173978Y-75337520D01*
X89285520Y-75225978D01*
X89416679Y-75138340D01*
X89562415Y-75077974D01*
X89717128Y-75047200D01*
X89874872Y-75047200D01*
X90029585Y-75077974D01*
X90029585Y-75077974D01*
G37*
G36*
X104466530Y-74957970D02*
G01*
X103605470Y-74957970D01*
X103605470Y-72257950D01*
X104466530Y-72257950D01*
X104466530Y-74957970D01*
X104466530Y-74957970D01*
G37*
G36*
X107006530Y-74957970D02*
G01*
X106145470Y-74957970D01*
X106145470Y-72257950D01*
X107006530Y-72257950D01*
X107006530Y-74957970D01*
X107006530Y-74957970D01*
G37*
G36*
X105736530Y-74957970D02*
G01*
X104875470Y-74957970D01*
X104875470Y-72257950D01*
X105736530Y-72257950D01*
X105736530Y-74957970D01*
X105736530Y-74957970D01*
G37*
G36*
X109546530Y-74957970D02*
G01*
X108685470Y-74957970D01*
X108685470Y-72257950D01*
X109546530Y-72257950D01*
X109546530Y-74957970D01*
X109546530Y-74957970D01*
G37*
G36*
X108276530Y-74957970D02*
G01*
X107415470Y-74957970D01*
X107415470Y-72257950D01*
X108276530Y-72257950D01*
X108276530Y-74957970D01*
X108276530Y-74957970D01*
G37*
G36*
X125025090Y-74859260D02*
G01*
X122924510Y-74859260D01*
X122924510Y-73558780D01*
X125025090Y-73558780D01*
X125025090Y-74859260D01*
X125025090Y-74859260D01*
G37*
G36*
X118827490Y-74859260D02*
G01*
X116726910Y-74859260D01*
X116726910Y-73558780D01*
X118827490Y-73558780D01*
X118827490Y-74859260D01*
X118827490Y-74859260D01*
G37*
G36*
X67723299Y-69529230D02*
G01*
X67846286Y-69580173D01*
X67956972Y-69654131D01*
X68051103Y-69748262D01*
X68125061Y-69858948D01*
X68176004Y-69981935D01*
X68201975Y-70112499D01*
X68201975Y-70245619D01*
X68176004Y-70376183D01*
X68176003Y-70376185D01*
X68125061Y-70499171D01*
X68076763Y-70571454D01*
X68072096Y-70580185D01*
X68069222Y-70589658D01*
X68068252Y-70599510D01*
X68069222Y-70609362D01*
X68072096Y-70618835D01*
X68076763Y-70627566D01*
X68083043Y-70635218D01*
X68090695Y-70641498D01*
X68099426Y-70646165D01*
X68216479Y-70694650D01*
X68569883Y-70930786D01*
X68870429Y-71231332D01*
X69106565Y-71584736D01*
X69269219Y-71977416D01*
X69352140Y-72394288D01*
X69352140Y-72819322D01*
X69269219Y-73236194D01*
X69106565Y-73628874D01*
X68870429Y-73982278D01*
X68569883Y-74282824D01*
X68216479Y-74518960D01*
X67823799Y-74681614D01*
X67545884Y-74736895D01*
X67406928Y-74764535D01*
X66981892Y-74764535D01*
X66842936Y-74736895D01*
X66565021Y-74681614D01*
X66172341Y-74518960D01*
X65818937Y-74282824D01*
X65518391Y-73982278D01*
X65282255Y-73628874D01*
X65119601Y-73236194D01*
X65036680Y-72819322D01*
X65036680Y-72394288D01*
X65119601Y-71977416D01*
X65282255Y-71584736D01*
X65518391Y-71231332D01*
X65818937Y-70930786D01*
X66172341Y-70694650D01*
X66565021Y-70531996D01*
X66851924Y-70474927D01*
X66861397Y-70472053D01*
X66870128Y-70467386D01*
X66877780Y-70461106D01*
X66884060Y-70453454D01*
X66888727Y-70444723D01*
X66891601Y-70435250D01*
X66892571Y-70425398D01*
X66891601Y-70415546D01*
X66888727Y-70406073D01*
X66876347Y-70376185D01*
X66876346Y-70376183D01*
X66850375Y-70245619D01*
X66850375Y-70112499D01*
X66876346Y-69981935D01*
X66927289Y-69858948D01*
X67001247Y-69748262D01*
X67095378Y-69654131D01*
X67206064Y-69580173D01*
X67329051Y-69529230D01*
X67459615Y-69503259D01*
X67592735Y-69503259D01*
X67723299Y-69529230D01*
X67723299Y-69529230D01*
G37*
G36*
X133151625Y-70369874D02*
G01*
X133429540Y-70425155D01*
X133822220Y-70587809D01*
X134175624Y-70823945D01*
X134476170Y-71124491D01*
X134712306Y-71477895D01*
X134874960Y-71870575D01*
X134957881Y-72287447D01*
X134957881Y-72570542D01*
X134958851Y-72580394D01*
X134961725Y-72589867D01*
X134966392Y-72598598D01*
X134972672Y-72606250D01*
X134980324Y-72612530D01*
X134989055Y-72617197D01*
X134998528Y-72620071D01*
X135008380Y-72621041D01*
X135018232Y-72620071D01*
X135053428Y-72613070D01*
X135186548Y-72613070D01*
X135317112Y-72639041D01*
X135440099Y-72689984D01*
X135550785Y-72763942D01*
X135644916Y-72858073D01*
X135718874Y-72968759D01*
X135769817Y-73091746D01*
X135795788Y-73222310D01*
X135795788Y-73355430D01*
X135769817Y-73485994D01*
X135718874Y-73608981D01*
X135644916Y-73719667D01*
X135550785Y-73813798D01*
X135440099Y-73887756D01*
X135317112Y-73938699D01*
X135186548Y-73964670D01*
X135053428Y-73964670D01*
X134922864Y-73938699D01*
X134799877Y-73887756D01*
X134689191Y-73813798D01*
X134629694Y-73754301D01*
X134622042Y-73748021D01*
X134613311Y-73743354D01*
X134603838Y-73740480D01*
X134593986Y-73739510D01*
X134584134Y-73740480D01*
X134574661Y-73743354D01*
X134565930Y-73748021D01*
X134558278Y-73754301D01*
X134551998Y-73761953D01*
X134476170Y-73875437D01*
X134175624Y-74175983D01*
X133822220Y-74412119D01*
X133429540Y-74574773D01*
X133151625Y-74630054D01*
X133012669Y-74657694D01*
X132587633Y-74657694D01*
X132448677Y-74630054D01*
X132170762Y-74574773D01*
X131778082Y-74412119D01*
X131424678Y-74175983D01*
X131124132Y-73875437D01*
X130887996Y-73522033D01*
X130725342Y-73129353D01*
X130642421Y-72712481D01*
X130642421Y-72287447D01*
X130725342Y-71870575D01*
X130887996Y-71477895D01*
X131124132Y-71124491D01*
X131424678Y-70823945D01*
X131778082Y-70587809D01*
X132170762Y-70425155D01*
X132448677Y-70369874D01*
X132587633Y-70342234D01*
X133012669Y-70342234D01*
X133151625Y-70369874D01*
X133151625Y-70369874D01*
G37*
G36*
X92569585Y-72537974D02*
G01*
X92715321Y-72598340D01*
X92846480Y-72685978D01*
X92958022Y-72797520D01*
X93045660Y-72928679D01*
X93106026Y-73074415D01*
X93136800Y-73229128D01*
X93136800Y-73386872D01*
X93106026Y-73541585D01*
X93045660Y-73687321D01*
X92958022Y-73818480D01*
X92846480Y-73930022D01*
X92715321Y-74017660D01*
X92569585Y-74078026D01*
X92414872Y-74108800D01*
X92257128Y-74108800D01*
X92102415Y-74078026D01*
X91956679Y-74017660D01*
X91825520Y-73930022D01*
X91713978Y-73818480D01*
X91626340Y-73687321D01*
X91565974Y-73541585D01*
X91535200Y-73386872D01*
X91535200Y-73229128D01*
X91565974Y-73074415D01*
X91626340Y-72928679D01*
X91713978Y-72797520D01*
X91825520Y-72685978D01*
X91956679Y-72598340D01*
X92102415Y-72537974D01*
X92257128Y-72507200D01*
X92414872Y-72507200D01*
X92569585Y-72537974D01*
X92569585Y-72537974D01*
G37*
G36*
X90029585Y-72537974D02*
G01*
X90175321Y-72598340D01*
X90306480Y-72685978D01*
X90418022Y-72797520D01*
X90505660Y-72928679D01*
X90566026Y-73074415D01*
X90596800Y-73229128D01*
X90596800Y-73386872D01*
X90566026Y-73541585D01*
X90505660Y-73687321D01*
X90418022Y-73818480D01*
X90306480Y-73930022D01*
X90175321Y-74017660D01*
X90029585Y-74078026D01*
X89874872Y-74108800D01*
X89717128Y-74108800D01*
X89562415Y-74078026D01*
X89416679Y-74017660D01*
X89285520Y-73930022D01*
X89173978Y-73818480D01*
X89086340Y-73687321D01*
X89025974Y-73541585D01*
X88995200Y-73386872D01*
X88995200Y-73229128D01*
X89025974Y-73074415D01*
X89086340Y-72928679D01*
X89173978Y-72797520D01*
X89285520Y-72685978D01*
X89416679Y-72598340D01*
X89562415Y-72537974D01*
X89717128Y-72507200D01*
X89874872Y-72507200D01*
X90029585Y-72537974D01*
X90029585Y-72537974D01*
G37*
G36*
X95109585Y-72537974D02*
G01*
X95255321Y-72598340D01*
X95386480Y-72685978D01*
X95498022Y-72797520D01*
X95585660Y-72928679D01*
X95646026Y-73074415D01*
X95676800Y-73229128D01*
X95676800Y-73386872D01*
X95646026Y-73541585D01*
X95585660Y-73687321D01*
X95498022Y-73818480D01*
X95386480Y-73930022D01*
X95255321Y-74017660D01*
X95109585Y-74078026D01*
X94954872Y-74108800D01*
X94797128Y-74108800D01*
X94642415Y-74078026D01*
X94496679Y-74017660D01*
X94365520Y-73930022D01*
X94253978Y-73818480D01*
X94166340Y-73687321D01*
X94105974Y-73541585D01*
X94075200Y-73386872D01*
X94075200Y-73229128D01*
X94105974Y-73074415D01*
X94166340Y-72928679D01*
X94253978Y-72797520D01*
X94365520Y-72685978D01*
X94496679Y-72598340D01*
X94642415Y-72537974D01*
X94797128Y-72507200D01*
X94954872Y-72507200D01*
X95109585Y-72537974D01*
X95109585Y-72537974D01*
G37*
G36*
X128842563Y-66068136D02*
G01*
X129129307Y-66125173D01*
X129521987Y-66287827D01*
X129875391Y-66523963D01*
X130175937Y-66824509D01*
X130412073Y-67177913D01*
X130574727Y-67570593D01*
X130574727Y-67570595D01*
X130653814Y-67968187D01*
X130656686Y-67977655D01*
X130661353Y-67986386D01*
X130667633Y-67994038D01*
X130675285Y-68000318D01*
X130684016Y-68004985D01*
X130693489Y-68007859D01*
X130703341Y-68008829D01*
X130713183Y-68007860D01*
X130840414Y-67982552D01*
X130973534Y-67982552D01*
X131104098Y-68008523D01*
X131227085Y-68059466D01*
X131337771Y-68133424D01*
X131431902Y-68227555D01*
X131505860Y-68338241D01*
X131556803Y-68461228D01*
X131582774Y-68591792D01*
X131582774Y-68724912D01*
X131556803Y-68855476D01*
X131505860Y-68978463D01*
X131431902Y-69089149D01*
X131337771Y-69183280D01*
X131227085Y-69257238D01*
X131104098Y-69308181D01*
X130973534Y-69334152D01*
X130840414Y-69334152D01*
X130709850Y-69308181D01*
X130586863Y-69257238D01*
X130489710Y-69192322D01*
X130480980Y-69187656D01*
X130471507Y-69184782D01*
X130461655Y-69183812D01*
X130451803Y-69184782D01*
X130442330Y-69187656D01*
X130433599Y-69192323D01*
X130425947Y-69198603D01*
X130419667Y-69206255D01*
X130415000Y-69214985D01*
X130412072Y-69222053D01*
X130175937Y-69575455D01*
X129875391Y-69876001D01*
X129521987Y-70112137D01*
X129129307Y-70274791D01*
X128851392Y-70330072D01*
X128712436Y-70357712D01*
X128287400Y-70357712D01*
X128148444Y-70330072D01*
X127870529Y-70274791D01*
X127477849Y-70112137D01*
X127124445Y-69876001D01*
X126823899Y-69575455D01*
X126587763Y-69222051D01*
X126425109Y-68829371D01*
X126342188Y-68412499D01*
X126342188Y-67987465D01*
X126342403Y-67986386D01*
X126425109Y-67570595D01*
X126425109Y-67570593D01*
X126587763Y-67177913D01*
X126823899Y-66824509D01*
X127124445Y-66523963D01*
X127477849Y-66287827D01*
X127870529Y-66125173D01*
X128157273Y-66068136D01*
X128287400Y-66042252D01*
X128712436Y-66042252D01*
X128842563Y-66068136D01*
X128842563Y-66068136D01*
G37*
G36*
X72511170Y-65098196D02*
G01*
X72634157Y-65149139D01*
X72744843Y-65223097D01*
X72838974Y-65317228D01*
X72912932Y-65427914D01*
X72963875Y-65550901D01*
X72989846Y-65681465D01*
X72989846Y-65814585D01*
X72963875Y-65945149D01*
X72918799Y-66053973D01*
X72912932Y-66068136D01*
X72838974Y-66178822D01*
X72796440Y-66221356D01*
X72790160Y-66229008D01*
X72785493Y-66237739D01*
X72782619Y-66247212D01*
X72781649Y-66257064D01*
X72782619Y-66266916D01*
X72785493Y-66276389D01*
X72790160Y-66285120D01*
X72796440Y-66292772D01*
X72804092Y-66299052D01*
X72982055Y-66417963D01*
X73282601Y-66718509D01*
X73518737Y-67071913D01*
X73681391Y-67464593D01*
X73764312Y-67881465D01*
X73764312Y-68306499D01*
X73681391Y-68723371D01*
X73518737Y-69116051D01*
X73282601Y-69469455D01*
X72982055Y-69770001D01*
X72628651Y-70006137D01*
X72235971Y-70168791D01*
X71958056Y-70224072D01*
X71819100Y-70251712D01*
X71394064Y-70251712D01*
X71255108Y-70224072D01*
X70977193Y-70168791D01*
X70584513Y-70006137D01*
X70231109Y-69770001D01*
X69930563Y-69469455D01*
X69694427Y-69116051D01*
X69531773Y-68723371D01*
X69448852Y-68306499D01*
X69448852Y-67881465D01*
X69531773Y-67464593D01*
X69694427Y-67071913D01*
X69930563Y-66718509D01*
X70231109Y-66417963D01*
X70584513Y-66181827D01*
X70977193Y-66019173D01*
X71255108Y-65963892D01*
X71394064Y-65936252D01*
X71600914Y-65936252D01*
X71610766Y-65935282D01*
X71620239Y-65932408D01*
X71628970Y-65927741D01*
X71636622Y-65921461D01*
X71642902Y-65913809D01*
X71647569Y-65905078D01*
X71650443Y-65895605D01*
X71651413Y-65885753D01*
X71650443Y-65875901D01*
X71638246Y-65814583D01*
X71638246Y-65681467D01*
X71646172Y-65641619D01*
X71664217Y-65550901D01*
X71715160Y-65427914D01*
X71789118Y-65317228D01*
X71883249Y-65223097D01*
X71993935Y-65149139D01*
X72116922Y-65098196D01*
X72247486Y-65072225D01*
X72380606Y-65072225D01*
X72511170Y-65098196D01*
X72511170Y-65098196D01*
G37*
G36*
X115756577Y-64388831D02*
G01*
X115866723Y-64410740D01*
X116033131Y-64479669D01*
X116182896Y-64579739D01*
X116310261Y-64707104D01*
X116410331Y-64856869D01*
X116479260Y-65023277D01*
X116514400Y-65199941D01*
X116514400Y-65380059D01*
X116479260Y-65556723D01*
X116410331Y-65723131D01*
X116310261Y-65872896D01*
X116182896Y-66000261D01*
X116033131Y-66100331D01*
X115866723Y-66169260D01*
X115803543Y-66181827D01*
X115690061Y-66204400D01*
X115509939Y-66204400D01*
X115396457Y-66181827D01*
X115333277Y-66169260D01*
X115166869Y-66100331D01*
X115017104Y-66000261D01*
X114889739Y-65872896D01*
X114789669Y-65723131D01*
X114720740Y-65556723D01*
X114685600Y-65380059D01*
X114685600Y-65199941D01*
X114720740Y-65023277D01*
X114789669Y-64856869D01*
X114889739Y-64707104D01*
X115017104Y-64579739D01*
X115166869Y-64479669D01*
X115333277Y-64410740D01*
X115443423Y-64388831D01*
X115509939Y-64375600D01*
X115690061Y-64375600D01*
X115756577Y-64388831D01*
X115756577Y-64388831D01*
G37*
G36*
X113239254Y-64388831D02*
G01*
X113411619Y-64441117D01*
X113570471Y-64526026D01*
X113709707Y-64640293D01*
X113823974Y-64779529D01*
X113908883Y-64938381D01*
X113961169Y-65110746D01*
X113978824Y-65290000D01*
X113961169Y-65469254D01*
X113908883Y-65641619D01*
X113823974Y-65800471D01*
X113709707Y-65939707D01*
X113570471Y-66053974D01*
X113411619Y-66138883D01*
X113239254Y-66191169D01*
X113104918Y-66204400D01*
X113015082Y-66204400D01*
X112880746Y-66191169D01*
X112708381Y-66138883D01*
X112549529Y-66053974D01*
X112410293Y-65939707D01*
X112296026Y-65800471D01*
X112211117Y-65641619D01*
X112158831Y-65469254D01*
X112141176Y-65290000D01*
X112158831Y-65110746D01*
X112211117Y-64938381D01*
X112296026Y-64779529D01*
X112410293Y-64640293D01*
X112549529Y-64526026D01*
X112708381Y-64441117D01*
X112880746Y-64388831D01*
X113015082Y-64375600D01*
X113104918Y-64375600D01*
X113239254Y-64388831D01*
X113239254Y-64388831D01*
G37*
G36*
X111434400Y-66204400D02*
G01*
X109605600Y-66204400D01*
X109605600Y-64375600D01*
X111434400Y-64375600D01*
X111434400Y-66204400D01*
X111434400Y-66204400D01*
G37*
G36*
X115756577Y-61848831D02*
G01*
X115866723Y-61870740D01*
X116033131Y-61939669D01*
X116182896Y-62039739D01*
X116310261Y-62167104D01*
X116410331Y-62316869D01*
X116479260Y-62483277D01*
X116514400Y-62659941D01*
X116514400Y-62840059D01*
X116479260Y-63016723D01*
X116410331Y-63183131D01*
X116310261Y-63332896D01*
X116182896Y-63460261D01*
X116033131Y-63560331D01*
X115866723Y-63629260D01*
X115778391Y-63646830D01*
X115690061Y-63664400D01*
X115509939Y-63664400D01*
X115421609Y-63646830D01*
X115333277Y-63629260D01*
X115166869Y-63560331D01*
X115017104Y-63460261D01*
X114889739Y-63332896D01*
X114789669Y-63183131D01*
X114720740Y-63016723D01*
X114685600Y-62840059D01*
X114685600Y-62659941D01*
X114720740Y-62483277D01*
X114789669Y-62316869D01*
X114889739Y-62167104D01*
X115017104Y-62039739D01*
X115166869Y-61939669D01*
X115333277Y-61870740D01*
X115443423Y-61848831D01*
X115509939Y-61835600D01*
X115690061Y-61835600D01*
X115756577Y-61848831D01*
X115756577Y-61848831D01*
G37*
G36*
X113239254Y-61848831D02*
G01*
X113411619Y-61901117D01*
X113570471Y-61986026D01*
X113709707Y-62100293D01*
X113823974Y-62239529D01*
X113908883Y-62398381D01*
X113961169Y-62570746D01*
X113978824Y-62750000D01*
X113961169Y-62929254D01*
X113908883Y-63101619D01*
X113823974Y-63260471D01*
X113709707Y-63399707D01*
X113570471Y-63513974D01*
X113411619Y-63598883D01*
X113239254Y-63651169D01*
X113104918Y-63664400D01*
X113015082Y-63664400D01*
X112880746Y-63651169D01*
X112708381Y-63598883D01*
X112549529Y-63513974D01*
X112410293Y-63399707D01*
X112296026Y-63260471D01*
X112211117Y-63101619D01*
X112158831Y-62929254D01*
X112141176Y-62750000D01*
X112158831Y-62570746D01*
X112211117Y-62398381D01*
X112296026Y-62239529D01*
X112410293Y-62100293D01*
X112549529Y-61986026D01*
X112708381Y-61901117D01*
X112880746Y-61848831D01*
X113015082Y-61835600D01*
X113104918Y-61835600D01*
X113239254Y-61848831D01*
X113239254Y-61848831D01*
G37*
G36*
X110699254Y-61848831D02*
G01*
X110871619Y-61901117D01*
X111030471Y-61986026D01*
X111169707Y-62100293D01*
X111283974Y-62239529D01*
X111368883Y-62398381D01*
X111421169Y-62570746D01*
X111438824Y-62750000D01*
X111421169Y-62929254D01*
X111368883Y-63101619D01*
X111283974Y-63260471D01*
X111169707Y-63399707D01*
X111030471Y-63513974D01*
X110871619Y-63598883D01*
X110699254Y-63651169D01*
X110564918Y-63664400D01*
X110475082Y-63664400D01*
X110340746Y-63651169D01*
X110168381Y-63598883D01*
X110009529Y-63513974D01*
X109870293Y-63399707D01*
X109756026Y-63260471D01*
X109671117Y-63101619D01*
X109618831Y-62929254D01*
X109601176Y-62750000D01*
X109618831Y-62570746D01*
X109671117Y-62398381D01*
X109756026Y-62239529D01*
X109870293Y-62100293D01*
X110009529Y-61986026D01*
X110168381Y-61901117D01*
X110340746Y-61848831D01*
X110475082Y-61835600D01*
X110564918Y-61835600D01*
X110699254Y-61848831D01*
X110699254Y-61848831D01*
G37*
M02*
