G04 #@! TF.GenerationSoftware,KiCad,Pcbnew,(5.1.4-0-10_14)*
G04 #@! TF.CreationDate,2019-11-18T16:06:03-06:00*
G04 #@! TF.ProjectId,CircuitPythonBadge v1_3,43697263-7569-4745-9079-74686f6e4261,rev?*
G04 #@! TF.SameCoordinates,Original*
G04 #@! TF.FileFunction,Paste,Bot*
G04 #@! TF.FilePolarity,Positive*
%FSLAX46Y46*%
G04 Gerber Fmt 4.6, Leading zero omitted, Abs format (unit mm)*
G04 Created by KiCad (PCBNEW (5.1.4-0-10_14)) date 2019-11-18 16:06:03*
%MOMM*%
%LPD*%
G04 APERTURE LIST*
%ADD10C,1.250000*%
%ADD11C,4.213860*%
%ADD12C,1.500000*%
%ADD13R,1.998980X1.198880*%
%ADD14R,0.759460X2.598420*%
G04 APERTURE END LIST*
D10*
X56694830Y-91965336D03*
D11*
X57699987Y-94199990D03*
D10*
X70178377Y-132415066D03*
D11*
X72599964Y-132789151D03*
D10*
X142826975Y-89784100D03*
D11*
X140999803Y-88151475D03*
D10*
X58224939Y-85947222D03*
D11*
X58909310Y-88300020D03*
D10*
X60542519Y-80291062D03*
D11*
X60892784Y-82716209D03*
D10*
X63802616Y-74880719D03*
D11*
X63769192Y-77330801D03*
D10*
X67526175Y-70179059D03*
D11*
X67194410Y-72606805D03*
D10*
X72314046Y-65748025D03*
D11*
X71606582Y-68093982D03*
D10*
X140577070Y-117177238D03*
D11*
X140100364Y-114773746D03*
D10*
X142887108Y-110072411D03*
D11*
X142000282Y-107788213D03*
D10*
X136952043Y-123949756D03*
D11*
X136899941Y-121500000D03*
D10*
X64880212Y-126610630D03*
D11*
X67200049Y-127399536D03*
D10*
X60912457Y-120374244D03*
D11*
X63060059Y-121554000D03*
D10*
X57989923Y-113164986D03*
D11*
X59900036Y-114699746D03*
D10*
X56293132Y-105557082D03*
D11*
X57907718Y-107400213D03*
D10*
X138428275Y-78488888D03*
D11*
X136240808Y-77384801D03*
D10*
X135119988Y-73288870D03*
D11*
X132800151Y-72499964D03*
D10*
X143852334Y-96027657D03*
D11*
X142303056Y-94129300D03*
D10*
X130906974Y-68658352D03*
D11*
X128499918Y-68199982D03*
D10*
X141137012Y-84062453D03*
D11*
X139100404Y-82700010D03*
D10*
X126610630Y-135119988D03*
D11*
X127399536Y-132800151D03*
D10*
X132315066Y-129848123D03*
D11*
X132689151Y-127426536D03*
D12*
X94876000Y-73308000D03*
X92336000Y-73308000D03*
X89796000Y-73308000D03*
X94876000Y-75848000D03*
X92336000Y-75848000D03*
X89796000Y-75848000D03*
D13*
X117777200Y-74209020D03*
X123974800Y-74209020D03*
X117777200Y-78206980D03*
X123974800Y-78206980D03*
D14*
X109116000Y-77905640D03*
X109116000Y-73607960D03*
X107846000Y-77905640D03*
X107846000Y-73607960D03*
X106576000Y-77905640D03*
X106576000Y-73607960D03*
X105306000Y-77905640D03*
X105306000Y-73607960D03*
X104036000Y-77905640D03*
X104036000Y-73607960D03*
M02*
