G04 #@! TF.GenerationSoftware,KiCad,Pcbnew,(5.1.4-0-10_14)*
G04 #@! TF.CreationDate,2019-11-18T16:06:03-06:00*
G04 #@! TF.ProjectId,CircuitPythonBadge v1_3,43697263-7569-4745-9079-74686f6e4261,rev?*
G04 #@! TF.SameCoordinates,Original*
G04 #@! TF.FileFunction,Legend,Bot*
G04 #@! TF.FilePolarity,Positive*
%FSLAX46Y46*%
G04 Gerber Fmt 4.6, Leading zero omitted, Abs format (unit mm)*
G04 Created by KiCad (PCBNEW (5.1.4-0-10_14)) date 2019-11-18 16:06:03*
%MOMM*%
%LPD*%
G04 APERTURE LIST*
%ADD10C,0.150000*%
%ADD11C,0.120000*%
%ADD12C,0.203200*%
%ADD13C,0.127000*%
G04 APERTURE END LIST*
D10*
X82419047Y-111452380D02*
X82419047Y-112166666D01*
X82466666Y-112309523D01*
X82561904Y-112404761D01*
X82704761Y-112452380D01*
X82800000Y-112452380D01*
X81466666Y-112452380D02*
X81942857Y-112452380D01*
X81942857Y-111452380D01*
X80561904Y-112357142D02*
X80609523Y-112404761D01*
X80752380Y-112452380D01*
X80847619Y-112452380D01*
X80990476Y-112404761D01*
X81085714Y-112309523D01*
X81133333Y-112214285D01*
X81180952Y-112023809D01*
X81180952Y-111880952D01*
X81133333Y-111690476D01*
X81085714Y-111595238D01*
X80990476Y-111500000D01*
X80847619Y-111452380D01*
X80752380Y-111452380D01*
X80609523Y-111500000D01*
X80561904Y-111547619D01*
X79847619Y-111452380D02*
X79847619Y-112166666D01*
X79895238Y-112309523D01*
X79990476Y-112404761D01*
X80133333Y-112452380D01*
X80228571Y-112452380D01*
X78895238Y-112452380D02*
X79371428Y-112452380D01*
X79371428Y-111452380D01*
X77990476Y-112357142D02*
X78038095Y-112404761D01*
X78180952Y-112452380D01*
X78276190Y-112452380D01*
X78419047Y-112404761D01*
X78514285Y-112309523D01*
X78561904Y-112214285D01*
X78609523Y-112023809D01*
X78609523Y-111880952D01*
X78561904Y-111690476D01*
X78514285Y-111595238D01*
X78419047Y-111500000D01*
X78276190Y-111452380D01*
X78180952Y-111452380D01*
X78038095Y-111500000D01*
X77990476Y-111547619D01*
X77276190Y-111452380D02*
X77276190Y-112166666D01*
X77323809Y-112309523D01*
X77419047Y-112404761D01*
X77561904Y-112452380D01*
X77657142Y-112452380D01*
X76323809Y-112452380D02*
X76800000Y-112452380D01*
X76800000Y-111452380D01*
X75419047Y-112357142D02*
X75466666Y-112404761D01*
X75609523Y-112452380D01*
X75704761Y-112452380D01*
X75847619Y-112404761D01*
X75942857Y-112309523D01*
X75990476Y-112214285D01*
X76038095Y-112023809D01*
X76038095Y-111880952D01*
X75990476Y-111690476D01*
X75942857Y-111595238D01*
X75847619Y-111500000D01*
X75704761Y-111452380D01*
X75609523Y-111452380D01*
X75466666Y-111500000D01*
X75419047Y-111547619D01*
X74704761Y-111452380D02*
X74704761Y-112166666D01*
X74752380Y-112309523D01*
X74847619Y-112404761D01*
X74990476Y-112452380D01*
X75085714Y-112452380D01*
X73752380Y-112452380D02*
X74228571Y-112452380D01*
X74228571Y-111452380D01*
X72847619Y-112357142D02*
X72895238Y-112404761D01*
X73038095Y-112452380D01*
X73133333Y-112452380D01*
X73276190Y-112404761D01*
X73371428Y-112309523D01*
X73419047Y-112214285D01*
X73466666Y-112023809D01*
X73466666Y-111880952D01*
X73419047Y-111690476D01*
X73371428Y-111595238D01*
X73276190Y-111500000D01*
X73133333Y-111452380D01*
X73038095Y-111452380D01*
X72895238Y-111500000D01*
X72847619Y-111547619D01*
X95971238Y-79712761D02*
X95828380Y-79760380D01*
X95590285Y-79760380D01*
X95495047Y-79712761D01*
X95447428Y-79665142D01*
X95399809Y-79569904D01*
X95399809Y-79474666D01*
X95447428Y-79379428D01*
X95495047Y-79331809D01*
X95590285Y-79284190D01*
X95780761Y-79236571D01*
X95876000Y-79188952D01*
X95923619Y-79141333D01*
X95971238Y-79046095D01*
X95971238Y-78950857D01*
X95923619Y-78855619D01*
X95876000Y-78808000D01*
X95780761Y-78760380D01*
X95542666Y-78760380D01*
X95399809Y-78808000D01*
X95066476Y-78760380D02*
X94828380Y-79760380D01*
X94637904Y-79046095D01*
X94447428Y-79760380D01*
X94209333Y-78760380D01*
X93828380Y-79760380D02*
X93828380Y-78760380D01*
X93590285Y-78760380D01*
X93447428Y-78808000D01*
X93352190Y-78903238D01*
X93304571Y-78998476D01*
X93256952Y-79188952D01*
X93256952Y-79331809D01*
X93304571Y-79522285D01*
X93352190Y-79617523D01*
X93447428Y-79712761D01*
X93590285Y-79760380D01*
X93828380Y-79760380D01*
X92066476Y-79760380D02*
X92066476Y-78760380D01*
X91685523Y-78760380D01*
X91590285Y-78808000D01*
X91542666Y-78855619D01*
X91495047Y-78950857D01*
X91495047Y-79093714D01*
X91542666Y-79188952D01*
X91590285Y-79236571D01*
X91685523Y-79284190D01*
X92066476Y-79284190D01*
X90923619Y-79760380D02*
X91018857Y-79712761D01*
X91066476Y-79665142D01*
X91114095Y-79569904D01*
X91114095Y-79284190D01*
X91066476Y-79188952D01*
X91018857Y-79141333D01*
X90923619Y-79093714D01*
X90780761Y-79093714D01*
X90685523Y-79141333D01*
X90637904Y-79188952D01*
X90590285Y-79284190D01*
X90590285Y-79569904D01*
X90637904Y-79665142D01*
X90685523Y-79712761D01*
X90780761Y-79760380D01*
X90923619Y-79760380D01*
X89733142Y-79093714D02*
X89733142Y-79903238D01*
X89780761Y-79998476D01*
X89828380Y-80046095D01*
X89923619Y-80093714D01*
X90066476Y-80093714D01*
X90161714Y-80046095D01*
X89733142Y-79712761D02*
X89828380Y-79760380D01*
X90018857Y-79760380D01*
X90114095Y-79712761D01*
X90161714Y-79665142D01*
X90209333Y-79569904D01*
X90209333Y-79284190D01*
X90161714Y-79188952D01*
X90114095Y-79141333D01*
X90018857Y-79093714D01*
X89828380Y-79093714D01*
X89733142Y-79141333D01*
X89114095Y-79760380D02*
X89209333Y-79712761D01*
X89256952Y-79665142D01*
X89304571Y-79569904D01*
X89304571Y-79284190D01*
X89256952Y-79188952D01*
X89209333Y-79141333D01*
X89114095Y-79093714D01*
X88971238Y-79093714D01*
X88876000Y-79141333D01*
X88828380Y-79188952D01*
X88780761Y-79284190D01*
X88780761Y-79569904D01*
X88828380Y-79665142D01*
X88876000Y-79712761D01*
X88971238Y-79760380D01*
X89114095Y-79760380D01*
X117557261Y-139502380D02*
X116985833Y-139502380D01*
X117271547Y-140502380D02*
X117271547Y-139502380D01*
X116747738Y-139835714D02*
X116557261Y-140502380D01*
X116366785Y-140026190D01*
X116176309Y-140502380D01*
X115985833Y-139835714D01*
X115604880Y-140502380D02*
X115604880Y-139835714D01*
X115604880Y-139502380D02*
X115652500Y-139550000D01*
X115604880Y-139597619D01*
X115557261Y-139550000D01*
X115604880Y-139502380D01*
X115604880Y-139597619D01*
X115271547Y-139835714D02*
X114890595Y-139835714D01*
X115128690Y-139502380D02*
X115128690Y-140359523D01*
X115081071Y-140454761D01*
X114985833Y-140502380D01*
X114890595Y-140502380D01*
X114700119Y-139835714D02*
X114319166Y-139835714D01*
X114557261Y-139502380D02*
X114557261Y-140359523D01*
X114509642Y-140454761D01*
X114414404Y-140502380D01*
X114319166Y-140502380D01*
X113604880Y-140454761D02*
X113700119Y-140502380D01*
X113890595Y-140502380D01*
X113985833Y-140454761D01*
X114033452Y-140359523D01*
X114033452Y-139978571D01*
X113985833Y-139883333D01*
X113890595Y-139835714D01*
X113700119Y-139835714D01*
X113604880Y-139883333D01*
X113557261Y-139978571D01*
X113557261Y-140073809D01*
X114033452Y-140169047D01*
X113128690Y-140502380D02*
X113128690Y-139835714D01*
X113128690Y-140026190D02*
X113081071Y-139930952D01*
X113033452Y-139883333D01*
X112938214Y-139835714D01*
X112842976Y-139835714D01*
X112509642Y-140407142D02*
X112462023Y-140454761D01*
X112509642Y-140502380D01*
X112557261Y-140454761D01*
X112509642Y-140407142D01*
X112509642Y-140502380D01*
X112509642Y-139883333D02*
X112462023Y-139930952D01*
X112509642Y-139978571D01*
X112557261Y-139930952D01*
X112509642Y-139883333D01*
X112509642Y-139978571D01*
X110652500Y-140026190D02*
X110700119Y-139978571D01*
X110795357Y-139930952D01*
X110890595Y-139930952D01*
X110985833Y-139978571D01*
X111033452Y-140026190D01*
X111081071Y-140121428D01*
X111081071Y-140216666D01*
X111033452Y-140311904D01*
X110985833Y-140359523D01*
X110890595Y-140407142D01*
X110795357Y-140407142D01*
X110700119Y-140359523D01*
X110652500Y-140311904D01*
X110652500Y-139930952D02*
X110652500Y-140311904D01*
X110604880Y-140359523D01*
X110557261Y-140359523D01*
X110462023Y-140311904D01*
X110414404Y-140216666D01*
X110414404Y-139978571D01*
X110509642Y-139835714D01*
X110652500Y-139740476D01*
X110842976Y-139692857D01*
X111033452Y-139740476D01*
X111176309Y-139835714D01*
X111271547Y-139978571D01*
X111319166Y-140169047D01*
X111271547Y-140359523D01*
X111176309Y-140502380D01*
X111033452Y-140597619D01*
X110842976Y-140645238D01*
X110652500Y-140597619D01*
X110509642Y-140502380D01*
X109985833Y-140502380D02*
X109985833Y-139502380D01*
X109890595Y-140121428D02*
X109604880Y-140502380D01*
X109604880Y-139835714D02*
X109985833Y-140216666D01*
X108795357Y-140454761D02*
X108890595Y-140502380D01*
X109081071Y-140502380D01*
X109176309Y-140454761D01*
X109223928Y-140359523D01*
X109223928Y-139978571D01*
X109176309Y-139883333D01*
X109081071Y-139835714D01*
X108890595Y-139835714D01*
X108795357Y-139883333D01*
X108747738Y-139978571D01*
X108747738Y-140073809D01*
X109223928Y-140169047D01*
X108414404Y-139835714D02*
X108176309Y-140502380D01*
X107938214Y-139835714D01*
X107557261Y-140502380D02*
X107557261Y-139835714D01*
X107557261Y-139502380D02*
X107604880Y-139550000D01*
X107557261Y-139597619D01*
X107509642Y-139550000D01*
X107557261Y-139502380D01*
X107557261Y-139597619D01*
X107081071Y-139835714D02*
X107081071Y-140502380D01*
X107081071Y-139930952D02*
X107033452Y-139883333D01*
X106938214Y-139835714D01*
X106795357Y-139835714D01*
X106700119Y-139883333D01*
X106652500Y-139978571D01*
X106652500Y-140502380D01*
X106176309Y-139835714D02*
X106176309Y-140502380D01*
X106176309Y-139930952D02*
X106128690Y-139883333D01*
X106033452Y-139835714D01*
X105890595Y-139835714D01*
X105795357Y-139883333D01*
X105747738Y-139978571D01*
X105747738Y-140502380D01*
X104890595Y-140454761D02*
X104985833Y-140502380D01*
X105176309Y-140502380D01*
X105271547Y-140454761D01*
X105319166Y-140359523D01*
X105319166Y-139978571D01*
X105271547Y-139883333D01*
X105176309Y-139835714D01*
X104985833Y-139835714D01*
X104890595Y-139883333D01*
X104842976Y-139978571D01*
X104842976Y-140073809D01*
X105319166Y-140169047D01*
X103985833Y-139835714D02*
X103985833Y-140502380D01*
X104414404Y-139835714D02*
X104414404Y-140359523D01*
X104366785Y-140454761D01*
X104271547Y-140502380D01*
X104128690Y-140502380D01*
X104033452Y-140454761D01*
X103985833Y-140407142D01*
X103509642Y-140502380D02*
X103509642Y-139502380D01*
X103509642Y-139883333D02*
X103414404Y-139835714D01*
X103223928Y-139835714D01*
X103128690Y-139883333D01*
X103081071Y-139930952D01*
X103033452Y-140026190D01*
X103033452Y-140311904D01*
X103081071Y-140407142D01*
X103128690Y-140454761D01*
X103223928Y-140502380D01*
X103414404Y-140502380D01*
X103509642Y-140454761D01*
X102176309Y-140502380D02*
X102176309Y-139978571D01*
X102223928Y-139883333D01*
X102319166Y-139835714D01*
X102509642Y-139835714D01*
X102604880Y-139883333D01*
X102176309Y-140454761D02*
X102271547Y-140502380D01*
X102509642Y-140502380D01*
X102604880Y-140454761D01*
X102652500Y-140359523D01*
X102652500Y-140264285D01*
X102604880Y-140169047D01*
X102509642Y-140121428D01*
X102271547Y-140121428D01*
X102176309Y-140073809D01*
X101271547Y-139835714D02*
X101271547Y-140502380D01*
X101700119Y-139835714D02*
X101700119Y-140359523D01*
X101652500Y-140454761D01*
X101557261Y-140502380D01*
X101414404Y-140502380D01*
X101319166Y-140454761D01*
X101271547Y-140407142D01*
X100414404Y-140454761D02*
X100509642Y-140502380D01*
X100700119Y-140502380D01*
X100795357Y-140454761D01*
X100842976Y-140359523D01*
X100842976Y-139978571D01*
X100795357Y-139883333D01*
X100700119Y-139835714D01*
X100509642Y-139835714D01*
X100414404Y-139883333D01*
X100366785Y-139978571D01*
X100366785Y-140073809D01*
X100842976Y-140169047D01*
X99938214Y-140502380D02*
X99938214Y-139835714D01*
X99938214Y-140026190D02*
X99890595Y-139930952D01*
X99842976Y-139883333D01*
X99747738Y-139835714D01*
X99652500Y-139835714D01*
X108033142Y-80712761D02*
X107890285Y-80760380D01*
X107652190Y-80760380D01*
X107556952Y-80712761D01*
X107509333Y-80665142D01*
X107461714Y-80569904D01*
X107461714Y-80474666D01*
X107509333Y-80379428D01*
X107556952Y-80331809D01*
X107652190Y-80284190D01*
X107842666Y-80236571D01*
X107937904Y-80188952D01*
X107985523Y-80141333D01*
X108033142Y-80046095D01*
X108033142Y-79950857D01*
X107985523Y-79855619D01*
X107937904Y-79808000D01*
X107842666Y-79760380D01*
X107604571Y-79760380D01*
X107461714Y-79808000D01*
X107128380Y-79760380D02*
X106890285Y-80760380D01*
X106699809Y-80046095D01*
X106509333Y-80760380D01*
X106271238Y-79760380D01*
X105890285Y-80760380D02*
X105890285Y-79760380D01*
X105652190Y-79760380D01*
X105509333Y-79808000D01*
X105414095Y-79903238D01*
X105366476Y-79998476D01*
X105318857Y-80188952D01*
X105318857Y-80331809D01*
X105366476Y-80522285D01*
X105414095Y-80617523D01*
X105509333Y-80712761D01*
X105652190Y-80760380D01*
X105890285Y-80760380D01*
X122428380Y-72560380D02*
X122761714Y-72084190D01*
X122999809Y-72560380D02*
X122999809Y-71560380D01*
X122618857Y-71560380D01*
X122523619Y-71608000D01*
X122476000Y-71655619D01*
X122428380Y-71750857D01*
X122428380Y-71893714D01*
X122476000Y-71988952D01*
X122523619Y-72036571D01*
X122618857Y-72084190D01*
X122999809Y-72084190D01*
X121999809Y-72036571D02*
X121666476Y-72036571D01*
X121523619Y-72560380D02*
X121999809Y-72560380D01*
X121999809Y-71560380D01*
X121523619Y-71560380D01*
X121142666Y-72512761D02*
X120999809Y-72560380D01*
X120761714Y-72560380D01*
X120666476Y-72512761D01*
X120618857Y-72465142D01*
X120571238Y-72369904D01*
X120571238Y-72274666D01*
X120618857Y-72179428D01*
X120666476Y-72131809D01*
X120761714Y-72084190D01*
X120952190Y-72036571D01*
X121047428Y-71988952D01*
X121095047Y-71941333D01*
X121142666Y-71846095D01*
X121142666Y-71750857D01*
X121095047Y-71655619D01*
X121047428Y-71608000D01*
X120952190Y-71560380D01*
X120714095Y-71560380D01*
X120571238Y-71608000D01*
X120142666Y-72036571D02*
X119809333Y-72036571D01*
X119666476Y-72560380D02*
X120142666Y-72560380D01*
X120142666Y-71560380D01*
X119666476Y-71560380D01*
X119380761Y-71560380D02*
X118809333Y-71560380D01*
X119095047Y-72560380D02*
X119095047Y-71560380D01*
X116842976Y-135607142D02*
X116890595Y-135654761D01*
X117033452Y-135702380D01*
X117128690Y-135702380D01*
X117271547Y-135654761D01*
X117366785Y-135559523D01*
X117414404Y-135464285D01*
X117462023Y-135273809D01*
X117462023Y-135130952D01*
X117414404Y-134940476D01*
X117366785Y-134845238D01*
X117271547Y-134750000D01*
X117128690Y-134702380D01*
X117033452Y-134702380D01*
X116890595Y-134750000D01*
X116842976Y-134797619D01*
X116414404Y-135702380D02*
X116414404Y-135035714D01*
X116414404Y-134702380D02*
X116462023Y-134750000D01*
X116414404Y-134797619D01*
X116366785Y-134750000D01*
X116414404Y-134702380D01*
X116414404Y-134797619D01*
X115938214Y-135702380D02*
X115938214Y-135035714D01*
X115938214Y-135226190D02*
X115890595Y-135130952D01*
X115842976Y-135083333D01*
X115747738Y-135035714D01*
X115652500Y-135035714D01*
X114890595Y-135654761D02*
X114985833Y-135702380D01*
X115176309Y-135702380D01*
X115271547Y-135654761D01*
X115319166Y-135607142D01*
X115366785Y-135511904D01*
X115366785Y-135226190D01*
X115319166Y-135130952D01*
X115271547Y-135083333D01*
X115176309Y-135035714D01*
X114985833Y-135035714D01*
X114890595Y-135083333D01*
X114033452Y-135035714D02*
X114033452Y-135702380D01*
X114462023Y-135035714D02*
X114462023Y-135559523D01*
X114414404Y-135654761D01*
X114319166Y-135702380D01*
X114176309Y-135702380D01*
X114081071Y-135654761D01*
X114033452Y-135607142D01*
X113557261Y-135702380D02*
X113557261Y-135035714D01*
X113557261Y-134702380D02*
X113604880Y-134750000D01*
X113557261Y-134797619D01*
X113509642Y-134750000D01*
X113557261Y-134702380D01*
X113557261Y-134797619D01*
X113223928Y-135035714D02*
X112842976Y-135035714D01*
X113081071Y-134702380D02*
X113081071Y-135559523D01*
X113033452Y-135654761D01*
X112938214Y-135702380D01*
X112842976Y-135702380D01*
X112509642Y-135702380D02*
X112509642Y-134702380D01*
X112128690Y-134702380D01*
X112033452Y-134750000D01*
X111985833Y-134797619D01*
X111938214Y-134892857D01*
X111938214Y-135035714D01*
X111985833Y-135130952D01*
X112033452Y-135178571D01*
X112128690Y-135226190D01*
X112509642Y-135226190D01*
X111604880Y-135035714D02*
X111366785Y-135702380D01*
X111128690Y-135035714D02*
X111366785Y-135702380D01*
X111462023Y-135940476D01*
X111509642Y-135988095D01*
X111604880Y-136035714D01*
X110890595Y-135035714D02*
X110509642Y-135035714D01*
X110747738Y-134702380D02*
X110747738Y-135559523D01*
X110700119Y-135654761D01*
X110604880Y-135702380D01*
X110509642Y-135702380D01*
X110176309Y-135702380D02*
X110176309Y-134702380D01*
X109747738Y-135702380D02*
X109747738Y-135178571D01*
X109795357Y-135083333D01*
X109890595Y-135035714D01*
X110033452Y-135035714D01*
X110128690Y-135083333D01*
X110176309Y-135130952D01*
X109128690Y-135702380D02*
X109223928Y-135654761D01*
X109271547Y-135607142D01*
X109319166Y-135511904D01*
X109319166Y-135226190D01*
X109271547Y-135130952D01*
X109223928Y-135083333D01*
X109128690Y-135035714D01*
X108985833Y-135035714D01*
X108890595Y-135083333D01*
X108842976Y-135130952D01*
X108795357Y-135226190D01*
X108795357Y-135511904D01*
X108842976Y-135607142D01*
X108890595Y-135654761D01*
X108985833Y-135702380D01*
X109128690Y-135702380D01*
X108366785Y-135035714D02*
X108366785Y-135702380D01*
X108366785Y-135130952D02*
X108319166Y-135083333D01*
X108223928Y-135035714D01*
X108081071Y-135035714D01*
X107985833Y-135083333D01*
X107938214Y-135178571D01*
X107938214Y-135702380D01*
X106366785Y-135178571D02*
X106223928Y-135226190D01*
X106176309Y-135273809D01*
X106128690Y-135369047D01*
X106128690Y-135511904D01*
X106176309Y-135607142D01*
X106223928Y-135654761D01*
X106319166Y-135702380D01*
X106700119Y-135702380D01*
X106700119Y-134702380D01*
X106366785Y-134702380D01*
X106271547Y-134750000D01*
X106223928Y-134797619D01*
X106176309Y-134892857D01*
X106176309Y-134988095D01*
X106223928Y-135083333D01*
X106271547Y-135130952D01*
X106366785Y-135178571D01*
X106700119Y-135178571D01*
X105271547Y-135702380D02*
X105271547Y-135178571D01*
X105319166Y-135083333D01*
X105414404Y-135035714D01*
X105604880Y-135035714D01*
X105700119Y-135083333D01*
X105271547Y-135654761D02*
X105366785Y-135702380D01*
X105604880Y-135702380D01*
X105700119Y-135654761D01*
X105747738Y-135559523D01*
X105747738Y-135464285D01*
X105700119Y-135369047D01*
X105604880Y-135321428D01*
X105366785Y-135321428D01*
X105271547Y-135273809D01*
X104366785Y-135702380D02*
X104366785Y-134702380D01*
X104366785Y-135654761D02*
X104462023Y-135702380D01*
X104652500Y-135702380D01*
X104747738Y-135654761D01*
X104795357Y-135607142D01*
X104842976Y-135511904D01*
X104842976Y-135226190D01*
X104795357Y-135130952D01*
X104747738Y-135083333D01*
X104652500Y-135035714D01*
X104462023Y-135035714D01*
X104366785Y-135083333D01*
X103462023Y-135035714D02*
X103462023Y-135845238D01*
X103509642Y-135940476D01*
X103557261Y-135988095D01*
X103652500Y-136035714D01*
X103795357Y-136035714D01*
X103890595Y-135988095D01*
X103462023Y-135654761D02*
X103557261Y-135702380D01*
X103747738Y-135702380D01*
X103842976Y-135654761D01*
X103890595Y-135607142D01*
X103938214Y-135511904D01*
X103938214Y-135226190D01*
X103890595Y-135130952D01*
X103842976Y-135083333D01*
X103747738Y-135035714D01*
X103557261Y-135035714D01*
X103462023Y-135083333D01*
X102604880Y-135654761D02*
X102700119Y-135702380D01*
X102890595Y-135702380D01*
X102985833Y-135654761D01*
X103033452Y-135559523D01*
X103033452Y-135178571D01*
X102985833Y-135083333D01*
X102890595Y-135035714D01*
X102700119Y-135035714D01*
X102604880Y-135083333D01*
X102557261Y-135178571D01*
X102557261Y-135273809D01*
X103033452Y-135369047D01*
X117509642Y-136635714D02*
X117271547Y-137302380D01*
X117033452Y-136635714D01*
X116128690Y-137302380D02*
X116700119Y-137302380D01*
X116414404Y-137302380D02*
X116414404Y-136302380D01*
X116509642Y-136445238D01*
X116604880Y-136540476D01*
X116700119Y-136588095D01*
X115700119Y-137207142D02*
X115652500Y-137254761D01*
X115700119Y-137302380D01*
X115747738Y-137254761D01*
X115700119Y-137207142D01*
X115700119Y-137302380D01*
X115319166Y-136302380D02*
X114700119Y-136302380D01*
X115033452Y-136683333D01*
X114890595Y-136683333D01*
X114795357Y-136730952D01*
X114747738Y-136778571D01*
X114700119Y-136873809D01*
X114700119Y-137111904D01*
X114747738Y-137207142D01*
X114795357Y-137254761D01*
X114890595Y-137302380D01*
X115176309Y-137302380D01*
X115271547Y-137254761D01*
X115319166Y-137207142D01*
X117414404Y-138902380D02*
X117414404Y-137902380D01*
X116985833Y-138902380D02*
X116985833Y-138378571D01*
X117033452Y-138283333D01*
X117128690Y-138235714D01*
X117271547Y-138235714D01*
X117366785Y-138283333D01*
X117414404Y-138330952D01*
X116652500Y-138235714D02*
X116271547Y-138235714D01*
X116509642Y-137902380D02*
X116509642Y-138759523D01*
X116462023Y-138854761D01*
X116366785Y-138902380D01*
X116271547Y-138902380D01*
X116081071Y-138235714D02*
X115700119Y-138235714D01*
X115938214Y-137902380D02*
X115938214Y-138759523D01*
X115890595Y-138854761D01*
X115795357Y-138902380D01*
X115700119Y-138902380D01*
X115366785Y-138235714D02*
X115366785Y-139235714D01*
X115366785Y-138283333D02*
X115271547Y-138235714D01*
X115081071Y-138235714D01*
X114985833Y-138283333D01*
X114938214Y-138330952D01*
X114890595Y-138426190D01*
X114890595Y-138711904D01*
X114938214Y-138807142D01*
X114985833Y-138854761D01*
X115081071Y-138902380D01*
X115271547Y-138902380D01*
X115366785Y-138854761D01*
X114462023Y-138807142D02*
X114414404Y-138854761D01*
X114462023Y-138902380D01*
X114509642Y-138854761D01*
X114462023Y-138807142D01*
X114462023Y-138902380D01*
X114462023Y-138283333D02*
X114414404Y-138330952D01*
X114462023Y-138378571D01*
X114509642Y-138330952D01*
X114462023Y-138283333D01*
X114462023Y-138378571D01*
X113271547Y-137854761D02*
X114128690Y-139140476D01*
X112223928Y-137854761D02*
X113081071Y-139140476D01*
X111890595Y-138902380D02*
X111890595Y-137902380D01*
X111890595Y-138283333D02*
X111795357Y-138235714D01*
X111604880Y-138235714D01*
X111509642Y-138283333D01*
X111462023Y-138330952D01*
X111414404Y-138426190D01*
X111414404Y-138711904D01*
X111462023Y-138807142D01*
X111509642Y-138854761D01*
X111604880Y-138902380D01*
X111795357Y-138902380D01*
X111890595Y-138854761D01*
X110985833Y-138902380D02*
X110985833Y-138235714D01*
X110985833Y-137902380D02*
X111033452Y-137950000D01*
X110985833Y-137997619D01*
X110938214Y-137950000D01*
X110985833Y-137902380D01*
X110985833Y-137997619D01*
X110652500Y-138235714D02*
X110271547Y-138235714D01*
X110509642Y-137902380D02*
X110509642Y-138759523D01*
X110462023Y-138854761D01*
X110366785Y-138902380D01*
X110271547Y-138902380D01*
X109938214Y-138807142D02*
X109890595Y-138854761D01*
X109938214Y-138902380D01*
X109985833Y-138854761D01*
X109938214Y-138807142D01*
X109938214Y-138902380D01*
X109319166Y-138902380D02*
X109414404Y-138854761D01*
X109462023Y-138759523D01*
X109462023Y-137902380D01*
X109033452Y-138235714D02*
X108795357Y-138902380D01*
X108557261Y-138235714D02*
X108795357Y-138902380D01*
X108890595Y-139140476D01*
X108938214Y-139188095D01*
X109033452Y-139235714D01*
X107462023Y-137854761D02*
X108319166Y-139140476D01*
X106557261Y-138807142D02*
X106604880Y-138854761D01*
X106747738Y-138902380D01*
X106842976Y-138902380D01*
X106985833Y-138854761D01*
X107081071Y-138759523D01*
X107128690Y-138664285D01*
X107176309Y-138473809D01*
X107176309Y-138330952D01*
X107128690Y-138140476D01*
X107081071Y-138045238D01*
X106985833Y-137950000D01*
X106842976Y-137902380D01*
X106747738Y-137902380D01*
X106604880Y-137950000D01*
X106557261Y-137997619D01*
X106128690Y-138902380D02*
X106128690Y-137902380D01*
X105747738Y-137902380D01*
X105652500Y-137950000D01*
X105604880Y-137997619D01*
X105557261Y-138092857D01*
X105557261Y-138235714D01*
X105604880Y-138330952D01*
X105652500Y-138378571D01*
X105747738Y-138426190D01*
X106128690Y-138426190D01*
X104795357Y-138378571D02*
X104652500Y-138426190D01*
X104604880Y-138473809D01*
X104557261Y-138569047D01*
X104557261Y-138711904D01*
X104604880Y-138807142D01*
X104652500Y-138854761D01*
X104747738Y-138902380D01*
X105128690Y-138902380D01*
X105128690Y-137902380D01*
X104795357Y-137902380D01*
X104700119Y-137950000D01*
X104652500Y-137997619D01*
X104604880Y-138092857D01*
X104604880Y-138188095D01*
X104652500Y-138283333D01*
X104700119Y-138330952D01*
X104795357Y-138378571D01*
X105128690Y-138378571D01*
X103700119Y-138902380D02*
X103700119Y-138378571D01*
X103747738Y-138283333D01*
X103842976Y-138235714D01*
X104033452Y-138235714D01*
X104128690Y-138283333D01*
X103700119Y-138854761D02*
X103795357Y-138902380D01*
X104033452Y-138902380D01*
X104128690Y-138854761D01*
X104176309Y-138759523D01*
X104176309Y-138664285D01*
X104128690Y-138569047D01*
X104033452Y-138521428D01*
X103795357Y-138521428D01*
X103700119Y-138473809D01*
X102795357Y-138902380D02*
X102795357Y-137902380D01*
X102795357Y-138854761D02*
X102890595Y-138902380D01*
X103081071Y-138902380D01*
X103176309Y-138854761D01*
X103223928Y-138807142D01*
X103271547Y-138711904D01*
X103271547Y-138426190D01*
X103223928Y-138330952D01*
X103176309Y-138283333D01*
X103081071Y-138235714D01*
X102890595Y-138235714D01*
X102795357Y-138283333D01*
X101890595Y-138235714D02*
X101890595Y-139045238D01*
X101938214Y-139140476D01*
X101985833Y-139188095D01*
X102081071Y-139235714D01*
X102223928Y-139235714D01*
X102319166Y-139188095D01*
X101890595Y-138854761D02*
X101985833Y-138902380D01*
X102176309Y-138902380D01*
X102271547Y-138854761D01*
X102319166Y-138807142D01*
X102366785Y-138711904D01*
X102366785Y-138426190D01*
X102319166Y-138330952D01*
X102271547Y-138283333D01*
X102176309Y-138235714D01*
X101985833Y-138235714D01*
X101890595Y-138283333D01*
X101033452Y-138854761D02*
X101128690Y-138902380D01*
X101319166Y-138902380D01*
X101414404Y-138854761D01*
X101462023Y-138759523D01*
X101462023Y-138378571D01*
X101414404Y-138283333D01*
X101319166Y-138235714D01*
X101128690Y-138235714D01*
X101033452Y-138283333D01*
X100985833Y-138378571D01*
X100985833Y-138473809D01*
X101462023Y-138569047D01*
D11*
X90416000Y-119017000D02*
X90416000Y-124097000D01*
X90416000Y-124097000D02*
X108196000Y-124097000D01*
X108196000Y-124097000D02*
X108196000Y-122827000D01*
X108196000Y-122827000D02*
X109466000Y-122827000D01*
X109466000Y-122827000D02*
X109466000Y-120287000D01*
X109466000Y-120287000D02*
X108196000Y-120287000D01*
X108196000Y-120287000D02*
X108196000Y-119017000D01*
X108196000Y-119017000D02*
X90416000Y-119017000D01*
X128437000Y-114068000D02*
X71267000Y-114068000D01*
X71270000Y-113562000D02*
X128440000Y-113562000D01*
X77645000Y-129487000D02*
X77645000Y-126947000D01*
X71270000Y-129487000D02*
X77645000Y-129487000D01*
X71270000Y-82905000D02*
X71267000Y-129435000D01*
X77645000Y-82905000D02*
X77645000Y-85445000D01*
X71270000Y-82905000D02*
X77645000Y-82905000D01*
X122095000Y-126947000D02*
X109395000Y-126947000D01*
X122095000Y-129487000D02*
X122095000Y-126947000D01*
X128440000Y-129487000D02*
X122095000Y-129487000D01*
X128440000Y-82905000D02*
X128440000Y-129487000D01*
X122095000Y-82905000D02*
X128440000Y-82905000D01*
X122095000Y-85445000D02*
X122095000Y-82905000D01*
X122095000Y-85445000D02*
X109395000Y-85445000D01*
X77645000Y-126947000D02*
X90345000Y-126947000D01*
X109395000Y-82905000D02*
X109395000Y-85445000D01*
X90345000Y-82905000D02*
X109395000Y-82905000D01*
X90345000Y-85445000D02*
X90345000Y-82905000D01*
X77645000Y-85445000D02*
X90345000Y-85445000D01*
X90345000Y-129487000D02*
X90345000Y-126947000D01*
X109395000Y-129487000D02*
X90345000Y-129487000D01*
X109395000Y-126947000D02*
X109395000Y-129487000D01*
X71270000Y-98449000D02*
X128440000Y-98449000D01*
X128440000Y-97941000D02*
X71270000Y-97941000D01*
X90345000Y-88160000D02*
X90345000Y-89430000D01*
X108125000Y-88160000D02*
X90345000Y-88160000D01*
X108125000Y-89430000D02*
X108125000Y-88160000D01*
X109395000Y-89430000D02*
X108125000Y-89430000D01*
X109395000Y-91970000D02*
X109395000Y-89430000D01*
X108125000Y-91970000D02*
X109395000Y-91970000D01*
X108125000Y-93240000D02*
X108125000Y-91970000D01*
X90345000Y-93240000D02*
X108125000Y-93240000D01*
X90345000Y-89430000D02*
X90345000Y-93240000D01*
X91615000Y-108230000D02*
X109395000Y-108230000D01*
X91615000Y-106960000D02*
X91615000Y-108230000D01*
X90345000Y-106960000D02*
X91615000Y-106960000D01*
X90345000Y-104420000D02*
X90345000Y-106960000D01*
X91615000Y-104420000D02*
X90345000Y-104420000D01*
X91615000Y-103150000D02*
X91615000Y-104420000D01*
X109395000Y-103150000D02*
X91615000Y-103150000D01*
X109395000Y-108230000D02*
X109395000Y-103150000D01*
X70000000Y-81635000D02*
X129710000Y-81635000D01*
X129710000Y-81635000D02*
X129710000Y-130070000D01*
X129710000Y-130070000D02*
X70000000Y-130070000D01*
X70000000Y-130070000D02*
X70000000Y-81635000D01*
D12*
X121874220Y-76208000D02*
G75*
G03X121874220Y-76208000I-998220J0D01*
G01*
X122377140Y-76208000D02*
G75*
G03X122377140Y-76208000I-1501140J0D01*
G01*
X117576540Y-75009120D02*
X117576540Y-77406880D01*
X124175460Y-77406880D02*
X124175460Y-75009120D01*
X117576540Y-79207740D02*
X124175460Y-79207740D01*
X124175460Y-73208260D02*
X117576540Y-73208260D01*
D13*
X109773860Y-73059320D02*
X113075860Y-73059320D01*
X113075860Y-73059320D02*
X113075860Y-78454280D01*
X113075860Y-78454280D02*
X109773860Y-78454280D01*
X103378140Y-73059320D02*
X100076140Y-73059320D01*
X100076140Y-73059320D02*
X100076140Y-78454280D01*
X100076140Y-78454280D02*
X103378140Y-78454280D01*
G36*
X113075860Y-79754760D02*
G01*
X112075100Y-79754760D01*
X112575480Y-78756540D01*
X113075860Y-79754760D01*
X113075860Y-79754760D01*
G37*
X113075860Y-79754760D02*
X112075100Y-79754760D01*
X112575480Y-78756540D01*
X113075860Y-79754760D01*
D10*
X111236428Y-90807142D02*
X110093571Y-90807142D01*
X110665000Y-91378571D02*
X110665000Y-90235714D01*
X89646428Y-90807142D02*
X88503571Y-90807142D01*
X131401428Y-105797142D02*
X130258571Y-105797142D01*
X131401428Y-90807142D02*
X130258571Y-90807142D01*
X130830000Y-91378571D02*
X130830000Y-90235714D01*
X111236428Y-105797142D02*
X110093571Y-105797142D01*
X89646428Y-105797142D02*
X88503571Y-105797142D01*
X89075000Y-106368571D02*
X89075000Y-105225714D01*
X111236428Y-90807142D02*
X110093571Y-90807142D01*
X110665000Y-91378571D02*
X110665000Y-90235714D01*
X89646428Y-90807142D02*
X88503571Y-90807142D01*
X99535047Y-71934761D02*
X99392190Y-71982380D01*
X99154095Y-71982380D01*
X99058857Y-71934761D01*
X99011238Y-71887142D01*
X98963619Y-71791904D01*
X98963619Y-71696666D01*
X99011238Y-71601428D01*
X99058857Y-71553809D01*
X99154095Y-71506190D01*
X99344571Y-71458571D01*
X99439809Y-71410952D01*
X99487428Y-71363333D01*
X99535047Y-71268095D01*
X99535047Y-71172857D01*
X99487428Y-71077619D01*
X99439809Y-71030000D01*
X99344571Y-70982380D01*
X99106476Y-70982380D01*
X98963619Y-71030000D01*
X98630285Y-70982380D02*
X98392190Y-71982380D01*
X98201714Y-71268095D01*
X98011238Y-71982380D01*
X97773142Y-70982380D01*
X97392190Y-71982380D02*
X97392190Y-70982380D01*
X97154095Y-70982380D01*
X97011238Y-71030000D01*
X96916000Y-71125238D01*
X96868380Y-71220476D01*
X96820761Y-71410952D01*
X96820761Y-71553809D01*
X96868380Y-71744285D01*
X96916000Y-71839523D01*
X97011238Y-71934761D01*
X97154095Y-71982380D01*
X97392190Y-71982380D01*
X96392190Y-71982380D02*
X96392190Y-70982380D01*
X95725523Y-70982380D02*
X95535047Y-70982380D01*
X95439809Y-71030000D01*
X95344571Y-71125238D01*
X95296952Y-71315714D01*
X95296952Y-71649047D01*
X95344571Y-71839523D01*
X95439809Y-71934761D01*
X95535047Y-71982380D01*
X95725523Y-71982380D01*
X95820761Y-71934761D01*
X95916000Y-71839523D01*
X95963619Y-71649047D01*
X95963619Y-71315714D01*
X95916000Y-71125238D01*
X95820761Y-71030000D01*
X95725523Y-70982380D01*
X94597904Y-71934761D02*
X94455047Y-71982380D01*
X94216952Y-71982380D01*
X94121714Y-71934761D01*
X94074095Y-71887142D01*
X94026476Y-71791904D01*
X94026476Y-71696666D01*
X94074095Y-71601428D01*
X94121714Y-71553809D01*
X94216952Y-71506190D01*
X94407428Y-71458571D01*
X94502666Y-71410952D01*
X94550285Y-71363333D01*
X94597904Y-71268095D01*
X94597904Y-71172857D01*
X94550285Y-71077619D01*
X94502666Y-71030000D01*
X94407428Y-70982380D01*
X94169333Y-70982380D01*
X94026476Y-71030000D01*
X93693142Y-70982380D02*
X93455047Y-71982380D01*
X93264571Y-71268095D01*
X93074095Y-71982380D01*
X92836000Y-70982380D01*
X91883619Y-71887142D02*
X91931238Y-71934761D01*
X92074095Y-71982380D01*
X92169333Y-71982380D01*
X92312190Y-71934761D01*
X92407428Y-71839523D01*
X92455047Y-71744285D01*
X92502666Y-71553809D01*
X92502666Y-71410952D01*
X92455047Y-71220476D01*
X92407428Y-71125238D01*
X92312190Y-71030000D01*
X92169333Y-70982380D01*
X92074095Y-70982380D01*
X91931238Y-71030000D01*
X91883619Y-71077619D01*
X90978857Y-71982380D02*
X91455047Y-71982380D01*
X91455047Y-70982380D01*
X90645523Y-71982380D02*
X90645523Y-70982380D01*
X90074095Y-71982380D02*
X90502666Y-71410952D01*
X90074095Y-70982380D02*
X90645523Y-71553809D01*
X89398952Y-71934761D02*
X89256095Y-71982380D01*
X89018000Y-71982380D01*
X88922761Y-71934761D01*
X88875142Y-71887142D01*
X88827523Y-71791904D01*
X88827523Y-71696666D01*
X88875142Y-71601428D01*
X88922761Y-71553809D01*
X89018000Y-71506190D01*
X89208476Y-71458571D01*
X89303714Y-71410952D01*
X89351333Y-71363333D01*
X89398952Y-71268095D01*
X89398952Y-71172857D01*
X89351333Y-71077619D01*
X89303714Y-71030000D01*
X89208476Y-70982380D01*
X88970380Y-70982380D01*
X88827523Y-71030000D01*
X88494190Y-70982380D02*
X88256095Y-71982380D01*
X88065619Y-71268095D01*
X87875142Y-71982380D01*
X87637047Y-70982380D01*
X87065619Y-70982380D02*
X86875142Y-70982380D01*
X86779904Y-71030000D01*
X86684666Y-71125238D01*
X86637047Y-71315714D01*
X86637047Y-71649047D01*
X86684666Y-71839523D01*
X86779904Y-71934761D01*
X86875142Y-71982380D01*
X87065619Y-71982380D01*
X87160857Y-71934761D01*
X87256095Y-71839523D01*
X87303714Y-71649047D01*
X87303714Y-71315714D01*
X87256095Y-71125238D01*
X87160857Y-71030000D01*
X87065619Y-70982380D01*
X95931619Y-78078380D02*
X96264952Y-77602190D01*
X96503047Y-78078380D02*
X96503047Y-77078380D01*
X96122095Y-77078380D01*
X96026857Y-77126000D01*
X95979238Y-77173619D01*
X95931619Y-77268857D01*
X95931619Y-77411714D01*
X95979238Y-77506952D01*
X96026857Y-77554571D01*
X96122095Y-77602190D01*
X96503047Y-77602190D01*
X95550666Y-78030761D02*
X95407809Y-78078380D01*
X95169714Y-78078380D01*
X95074476Y-78030761D01*
X95026857Y-77983142D01*
X94979238Y-77887904D01*
X94979238Y-77792666D01*
X95026857Y-77697428D01*
X95074476Y-77649809D01*
X95169714Y-77602190D01*
X95360190Y-77554571D01*
X95455428Y-77506952D01*
X95503047Y-77459333D01*
X95550666Y-77364095D01*
X95550666Y-77268857D01*
X95503047Y-77173619D01*
X95455428Y-77126000D01*
X95360190Y-77078380D01*
X95122095Y-77078380D01*
X94979238Y-77126000D01*
X94693523Y-77078380D02*
X94122095Y-77078380D01*
X94407809Y-78078380D02*
X94407809Y-77078380D01*
X93097904Y-77126000D02*
X93193142Y-77078380D01*
X93336000Y-77078380D01*
X93478857Y-77126000D01*
X93574095Y-77221238D01*
X93621714Y-77316476D01*
X93669333Y-77506952D01*
X93669333Y-77649809D01*
X93621714Y-77840285D01*
X93574095Y-77935523D01*
X93478857Y-78030761D01*
X93336000Y-78078380D01*
X93240761Y-78078380D01*
X93097904Y-78030761D01*
X93050285Y-77983142D01*
X93050285Y-77649809D01*
X93240761Y-77649809D01*
X92621714Y-78078380D02*
X92621714Y-77078380D01*
X92050285Y-78078380D01*
X92050285Y-77078380D01*
X91574095Y-78078380D02*
X91574095Y-77078380D01*
X91336000Y-77078380D01*
X91193142Y-77126000D01*
X91097904Y-77221238D01*
X91050285Y-77316476D01*
X91002666Y-77506952D01*
X91002666Y-77649809D01*
X91050285Y-77840285D01*
X91097904Y-77935523D01*
X91193142Y-78030761D01*
X91336000Y-78078380D01*
X91574095Y-78078380D01*
X90526095Y-77078380D02*
X89907047Y-77078380D01*
X90240380Y-77459333D01*
X90097523Y-77459333D01*
X90002285Y-77506952D01*
X89954666Y-77554571D01*
X89907047Y-77649809D01*
X89907047Y-77887904D01*
X89954666Y-77983142D01*
X90002285Y-78030761D01*
X90097523Y-78078380D01*
X90383238Y-78078380D01*
X90478476Y-78030761D01*
X90526095Y-77983142D01*
X89621333Y-77078380D02*
X89288000Y-78078380D01*
X88954666Y-77078380D01*
X88716571Y-77078380D02*
X88097523Y-77078380D01*
X88430857Y-77459333D01*
X88288000Y-77459333D01*
X88192761Y-77506952D01*
X88145142Y-77554571D01*
X88097523Y-77649809D01*
X88097523Y-77887904D01*
X88145142Y-77983142D01*
X88192761Y-78030761D01*
X88288000Y-78078380D01*
X88573714Y-78078380D01*
X88668952Y-78030761D01*
X88716571Y-77983142D01*
X118044142Y-60831000D02*
X118115571Y-60795285D01*
X118222714Y-60795285D01*
X118329857Y-60831000D01*
X118401285Y-60902428D01*
X118437000Y-60973857D01*
X118472714Y-61116714D01*
X118472714Y-61223857D01*
X118437000Y-61366714D01*
X118401285Y-61438142D01*
X118329857Y-61509571D01*
X118222714Y-61545285D01*
X118151285Y-61545285D01*
X118044142Y-61509571D01*
X118008428Y-61473857D01*
X118008428Y-61223857D01*
X118151285Y-61223857D01*
X117687000Y-61545285D02*
X117687000Y-60795285D01*
X117401285Y-60795285D01*
X117329857Y-60831000D01*
X117294142Y-60866714D01*
X117258428Y-60938142D01*
X117258428Y-61045285D01*
X117294142Y-61116714D01*
X117329857Y-61152428D01*
X117401285Y-61188142D01*
X117687000Y-61188142D01*
X116937000Y-61545285D02*
X116937000Y-60795285D01*
X116437000Y-60795285D02*
X116294142Y-60795285D01*
X116222714Y-60831000D01*
X116151285Y-60902428D01*
X116115571Y-61045285D01*
X116115571Y-61295285D01*
X116151285Y-61438142D01*
X116222714Y-61509571D01*
X116294142Y-61545285D01*
X116437000Y-61545285D01*
X116508428Y-61509571D01*
X116579857Y-61438142D01*
X116615571Y-61295285D01*
X116615571Y-61045285D01*
X116579857Y-60902428D01*
X116508428Y-60831000D01*
X116437000Y-60795285D01*
X115401285Y-61545285D02*
X115829857Y-61545285D01*
X115615571Y-61545285D02*
X115615571Y-60795285D01*
X115687000Y-60902428D01*
X115758428Y-60973857D01*
X115829857Y-61009571D01*
X118044142Y-66673000D02*
X118115571Y-66637285D01*
X118222714Y-66637285D01*
X118329857Y-66673000D01*
X118401285Y-66744428D01*
X118437000Y-66815857D01*
X118472714Y-66958714D01*
X118472714Y-67065857D01*
X118437000Y-67208714D01*
X118401285Y-67280142D01*
X118329857Y-67351571D01*
X118222714Y-67387285D01*
X118151285Y-67387285D01*
X118044142Y-67351571D01*
X118008428Y-67315857D01*
X118008428Y-67065857D01*
X118151285Y-67065857D01*
X117687000Y-67387285D02*
X117687000Y-66637285D01*
X117401285Y-66637285D01*
X117329857Y-66673000D01*
X117294142Y-66708714D01*
X117258428Y-66780142D01*
X117258428Y-66887285D01*
X117294142Y-66958714D01*
X117329857Y-66994428D01*
X117401285Y-67030142D01*
X117687000Y-67030142D01*
X116937000Y-67387285D02*
X116937000Y-66637285D01*
X116437000Y-66637285D02*
X116294142Y-66637285D01*
X116222714Y-66673000D01*
X116151285Y-66744428D01*
X116115571Y-66887285D01*
X116115571Y-67137285D01*
X116151285Y-67280142D01*
X116222714Y-67351571D01*
X116294142Y-67387285D01*
X116437000Y-67387285D01*
X116508428Y-67351571D01*
X116579857Y-67280142D01*
X116615571Y-67137285D01*
X116615571Y-66887285D01*
X116579857Y-66744428D01*
X116508428Y-66673000D01*
X116437000Y-66637285D01*
X115829857Y-66708714D02*
X115794142Y-66673000D01*
X115722714Y-66637285D01*
X115544142Y-66637285D01*
X115472714Y-66673000D01*
X115437000Y-66708714D01*
X115401285Y-66780142D01*
X115401285Y-66851571D01*
X115437000Y-66958714D01*
X115865571Y-67387285D01*
X115401285Y-67387285D01*
X113892857Y-67351571D02*
X113785714Y-67387285D01*
X113607142Y-67387285D01*
X113535714Y-67351571D01*
X113500000Y-67315857D01*
X113464285Y-67244428D01*
X113464285Y-67173000D01*
X113500000Y-67101571D01*
X113535714Y-67065857D01*
X113607142Y-67030142D01*
X113750000Y-66994428D01*
X113821428Y-66958714D01*
X113857142Y-66923000D01*
X113892857Y-66851571D01*
X113892857Y-66780142D01*
X113857142Y-66708714D01*
X113821428Y-66673000D01*
X113750000Y-66637285D01*
X113571428Y-66637285D01*
X113464285Y-66673000D01*
X112714285Y-67315857D02*
X112750000Y-67351571D01*
X112857142Y-67387285D01*
X112928571Y-67387285D01*
X113035714Y-67351571D01*
X113107142Y-67280142D01*
X113142857Y-67208714D01*
X113178571Y-67065857D01*
X113178571Y-66958714D01*
X113142857Y-66815857D01*
X113107142Y-66744428D01*
X113035714Y-66673000D01*
X112928571Y-66637285D01*
X112857142Y-66637285D01*
X112750000Y-66673000D01*
X112714285Y-66708714D01*
X112035714Y-67387285D02*
X112392857Y-67387285D01*
X112392857Y-66637285D01*
X113910714Y-61509571D02*
X113803571Y-61545285D01*
X113625000Y-61545285D01*
X113553571Y-61509571D01*
X113517857Y-61473857D01*
X113482142Y-61402428D01*
X113482142Y-61331000D01*
X113517857Y-61259571D01*
X113553571Y-61223857D01*
X113625000Y-61188142D01*
X113767857Y-61152428D01*
X113839285Y-61116714D01*
X113875000Y-61081000D01*
X113910714Y-61009571D01*
X113910714Y-60938142D01*
X113875000Y-60866714D01*
X113839285Y-60831000D01*
X113767857Y-60795285D01*
X113589285Y-60795285D01*
X113482142Y-60831000D01*
X113160714Y-61545285D02*
X113160714Y-60795285D01*
X112982142Y-60795285D01*
X112875000Y-60831000D01*
X112803571Y-60902428D01*
X112767857Y-60973857D01*
X112732142Y-61116714D01*
X112732142Y-61223857D01*
X112767857Y-61366714D01*
X112803571Y-61438142D01*
X112875000Y-61509571D01*
X112982142Y-61545285D01*
X113160714Y-61545285D01*
X112446428Y-61331000D02*
X112089285Y-61331000D01*
X112517857Y-61545285D02*
X112267857Y-60795285D01*
X112017857Y-61545285D01*
X111031428Y-66673000D02*
X111102857Y-66637285D01*
X111210000Y-66637285D01*
X111317142Y-66673000D01*
X111388571Y-66744428D01*
X111424285Y-66815857D01*
X111460000Y-66958714D01*
X111460000Y-67065857D01*
X111424285Y-67208714D01*
X111388571Y-67280142D01*
X111317142Y-67351571D01*
X111210000Y-67387285D01*
X111138571Y-67387285D01*
X111031428Y-67351571D01*
X110995714Y-67315857D01*
X110995714Y-67065857D01*
X111138571Y-67065857D01*
X110674285Y-67387285D02*
X110674285Y-66637285D01*
X110245714Y-67387285D01*
X110245714Y-66637285D01*
X109888571Y-67387285D02*
X109888571Y-66637285D01*
X109710000Y-66637285D01*
X109602857Y-66673000D01*
X109531428Y-66744428D01*
X109495714Y-66815857D01*
X109460000Y-66958714D01*
X109460000Y-67065857D01*
X109495714Y-67208714D01*
X109531428Y-67280142D01*
X109602857Y-67351571D01*
X109710000Y-67387285D01*
X109888571Y-67387285D01*
X111460000Y-60795285D02*
X111210000Y-61545285D01*
X110960000Y-60795285D01*
X110281428Y-61473857D02*
X110317142Y-61509571D01*
X110424285Y-61545285D01*
X110495714Y-61545285D01*
X110602857Y-61509571D01*
X110674285Y-61438142D01*
X110710000Y-61366714D01*
X110745714Y-61223857D01*
X110745714Y-61116714D01*
X110710000Y-60973857D01*
X110674285Y-60902428D01*
X110602857Y-60831000D01*
X110495714Y-60795285D01*
X110424285Y-60795285D01*
X110317142Y-60831000D01*
X110281428Y-60866714D01*
X109531428Y-61473857D02*
X109567142Y-61509571D01*
X109674285Y-61545285D01*
X109745714Y-61545285D01*
X109852857Y-61509571D01*
X109924285Y-61438142D01*
X109960000Y-61366714D01*
X109995714Y-61223857D01*
X109995714Y-61116714D01*
X109960000Y-60973857D01*
X109924285Y-60902428D01*
X109852857Y-60831000D01*
X109745714Y-60795285D01*
X109674285Y-60795285D01*
X109567142Y-60831000D01*
X109531428Y-60866714D01*
M02*
