G04 #@! TF.GenerationSoftware,KiCad,Pcbnew,(5.1.4-0-10_14)*
G04 #@! TF.CreationDate,2019-11-18T16:06:03-06:00*
G04 #@! TF.ProjectId,CircuitPythonBadge v1_3,43697263-7569-4745-9079-74686f6e4261,rev?*
G04 #@! TF.SameCoordinates,Original*
G04 #@! TF.FileFunction,Paste,Top*
G04 #@! TF.FilePolarity,Positive*
%FSLAX46Y46*%
G04 Gerber Fmt 4.6, Leading zero omitted, Abs format (unit mm)*
G04 Created by KiCad (PCBNEW (5.1.4-0-10_14)) date 2019-11-18 16:06:03*
%MOMM*%
%LPD*%
G04 APERTURE LIST*
%ADD10C,0.850000*%
%ADD11C,0.850000*%
%ADD12O,0.850000X1.500000*%
%ADD13O,0.850000X1.300000*%
%ADD14O,0.850000X2.200000*%
%ADD15R,1.800860X1.597660*%
%ADD16C,1.250000*%
%ADD17C,4.213860*%
%ADD18C,1.198880*%
%ADD19C,0.100000*%
%ADD20C,0.875000*%
%ADD21R,1.399540X1.399540*%
%ADD22R,1.016000X2.199640*%
%ADD23R,0.635000X1.016000*%
%ADD24R,1.198880X0.548640*%
%ADD25R,0.497840X0.248920*%
%ADD26R,0.248920X0.497840*%
%ADD27R,1.798320X1.899920*%
%ADD28R,1.899920X1.899920*%
%ADD29R,2.098040X1.597660*%
%ADD30R,0.398780X1.348740*%
%ADD31R,1.099820X1.899920*%
%ADD32R,1.998980X1.998980*%
%ADD33C,0.998220*%
%ADD34R,1.998980X1.198880*%
%ADD35R,0.280000X1.470000*%
%ADD36R,1.470000X0.280000*%
%ADD37R,0.599440X2.199640*%
G04 APERTURE END LIST*
D10*
X108725237Y-72301650D03*
D11*
X109039163Y-72385766D02*
X108411311Y-72217534D01*
D10*
X106570171Y-69912468D03*
D11*
X106787504Y-69970702D02*
X106352838Y-69854234D01*
D10*
X106551904Y-71719307D03*
D11*
X107203904Y-71894010D02*
X105899904Y-71544604D01*
D10*
X108840096Y-70520693D03*
D11*
X109492096Y-70695396D02*
X108188096Y-70345990D01*
D10*
X91172763Y-127850350D03*
D11*
X90858837Y-127766234D02*
X91486689Y-127934466D01*
D10*
X93327829Y-130239532D03*
D11*
X93110496Y-130181298D02*
X93545162Y-130297766D01*
D10*
X93346096Y-128432693D03*
D11*
X92694096Y-128257990D02*
X93998096Y-128607396D01*
D10*
X91057904Y-129631307D03*
D11*
X90405904Y-129456604D02*
X91709904Y-129806010D01*
D10*
X123863335Y-83346297D03*
D11*
X124072241Y-83595261D02*
X123654429Y-83097333D01*
D10*
X123468386Y-80153099D03*
D11*
X123613013Y-80325459D02*
X123323759Y-79980739D01*
D10*
X122417063Y-81622697D03*
D11*
X122850945Y-82139777D02*
X121983181Y-81105617D01*
D10*
X124978937Y-81953303D03*
D11*
X125412819Y-82470383D02*
X124545055Y-81436223D01*
D10*
X76034665Y-116551703D03*
D11*
X75825759Y-116302739D02*
X76243571Y-116800667D01*
D10*
X76429614Y-119744901D03*
D11*
X76284987Y-119572541D02*
X76574241Y-119917261D01*
D10*
X77480937Y-118275303D03*
D11*
X77047055Y-117758223D02*
X77914819Y-118792383D01*
D10*
X74919063Y-117944697D03*
D11*
X74485181Y-117427617D02*
X75352945Y-118461777D01*
D12*
X70725000Y-98776000D03*
D13*
X68975000Y-101476000D03*
D14*
X70725000Y-101026000D03*
X68975000Y-99126000D03*
D10*
X122446087Y-118797419D03*
D11*
X122237181Y-119046383D02*
X122654993Y-118548455D01*
D10*
X125522192Y-117853977D03*
D11*
X125377565Y-118026337D02*
X125666819Y-117681617D01*
D10*
X123892359Y-117073819D03*
D11*
X123458477Y-117590899D02*
X124326241Y-116556739D01*
D10*
X124011641Y-119654181D03*
D11*
X123577759Y-120171261D02*
X124445523Y-119137101D01*
D10*
X77662407Y-81224982D03*
D11*
X77848819Y-80958758D02*
X77475995Y-81491206D01*
D10*
X74680235Y-82432933D03*
D11*
X74809290Y-82248624D02*
X74551180Y-82617242D01*
D10*
X76371860Y-83068074D03*
D11*
X76759024Y-82515146D02*
X75984696Y-83621002D01*
D10*
X76028140Y-80507926D03*
D11*
X76415304Y-79954998D02*
X75640976Y-81060854D01*
D10*
X106213830Y-128523280D03*
D11*
X105899904Y-128607396D02*
X106527756Y-128439164D01*
D10*
X109274763Y-129514838D03*
D11*
X109057430Y-129573072D02*
X109492096Y-129456604D01*
D10*
X108387163Y-127940937D03*
D11*
X107735163Y-128115640D02*
X109039163Y-127766234D01*
D10*
X107004837Y-130123063D03*
D11*
X106352837Y-130297766D02*
X107656837Y-129948360D01*
D10*
X93684170Y-71374720D03*
D11*
X93998096Y-71290604D02*
X93370244Y-71458836D01*
D10*
X90623237Y-70383162D03*
D11*
X90840570Y-70324928D02*
X90405904Y-70441396D01*
D10*
X91510837Y-71957063D03*
D11*
X92162837Y-71782360D02*
X90858837Y-72131766D01*
D10*
X92893163Y-69774937D03*
D11*
X93545163Y-69600234D02*
X92241163Y-69949640D01*
D15*
X93000000Y-141419860D03*
X93000000Y-138580140D03*
D16*
X56694830Y-91965336D03*
D17*
X57699987Y-94199990D03*
D16*
X70178377Y-132415066D03*
D17*
X72599964Y-132789151D03*
D16*
X142826975Y-89784100D03*
D17*
X140999803Y-88151475D03*
D16*
X58224939Y-85947222D03*
D17*
X58909310Y-88300020D03*
D16*
X60542519Y-80291062D03*
D17*
X60892784Y-82716209D03*
D16*
X63802616Y-74880719D03*
D17*
X63769192Y-77330801D03*
D16*
X67526175Y-70179059D03*
D17*
X67194410Y-72606805D03*
D16*
X72314046Y-65748025D03*
D17*
X71606582Y-68093982D03*
D16*
X140577070Y-117177238D03*
D17*
X140100364Y-114773746D03*
D16*
X142887108Y-110072411D03*
D17*
X142000282Y-107788213D03*
D16*
X136952043Y-123949756D03*
D17*
X136899941Y-121500000D03*
D16*
X64880212Y-126610630D03*
D17*
X67200049Y-127399536D03*
D16*
X60912457Y-120374244D03*
D17*
X63060059Y-121554000D03*
D16*
X57989923Y-113164986D03*
D17*
X59900036Y-114699746D03*
D16*
X56293132Y-105557082D03*
D17*
X57907718Y-107400213D03*
D16*
X138428275Y-78488888D03*
D17*
X136240808Y-77384801D03*
D16*
X135119988Y-73288870D03*
D17*
X132800151Y-72499964D03*
D16*
X143852334Y-96027657D03*
D17*
X142303056Y-94129300D03*
D16*
X130906974Y-68658352D03*
D17*
X128499918Y-68199982D03*
D16*
X141137012Y-84062453D03*
D17*
X139100404Y-82700010D03*
D16*
X126610630Y-135119988D03*
D17*
X127399536Y-132800151D03*
D16*
X132315066Y-129848123D03*
D17*
X132689151Y-127426536D03*
D18*
X77836511Y-134612655D03*
D19*
G36*
X76692541Y-135395190D02*
G01*
X77942221Y-133230680D01*
X78980481Y-133830120D01*
X77730801Y-135994630D01*
X76692541Y-135395190D01*
X76692541Y-135395190D01*
G37*
D18*
X80001020Y-135862335D03*
D19*
G36*
X78857050Y-136644870D02*
G01*
X80106730Y-134480360D01*
X81144990Y-135079800D01*
X79895310Y-137244310D01*
X78857050Y-136644870D01*
X78857050Y-136644870D01*
G37*
D18*
X82165529Y-137112015D03*
D19*
G36*
X81021559Y-137894550D02*
G01*
X82271239Y-135730040D01*
X83309499Y-136329480D01*
X82059819Y-138493990D01*
X81021559Y-137894550D01*
X81021559Y-137894550D01*
G37*
D18*
X86163489Y-130187345D03*
D19*
G36*
X85019519Y-130969880D02*
G01*
X86269199Y-128805370D01*
X87307459Y-129404810D01*
X86057779Y-131569320D01*
X85019519Y-130969880D01*
X85019519Y-130969880D01*
G37*
D18*
X83998980Y-128937665D03*
D19*
G36*
X82855010Y-129720200D02*
G01*
X84104690Y-127555690D01*
X85142950Y-128155130D01*
X83893270Y-130319640D01*
X82855010Y-129720200D01*
X82855010Y-129720200D01*
G37*
D18*
X81834471Y-127687985D03*
D19*
G36*
X80690501Y-128470520D02*
G01*
X81940181Y-126306010D01*
X82978441Y-126905450D01*
X81728761Y-129069960D01*
X80690501Y-128470520D01*
X80690501Y-128470520D01*
G37*
G36*
X101164691Y-87626053D02*
G01*
X101185926Y-87629203D01*
X101206750Y-87634419D01*
X101226962Y-87641651D01*
X101246368Y-87650830D01*
X101264781Y-87661866D01*
X101282024Y-87674654D01*
X101297930Y-87689070D01*
X101312346Y-87704976D01*
X101325134Y-87722219D01*
X101336170Y-87740632D01*
X101345349Y-87760038D01*
X101352581Y-87780250D01*
X101357797Y-87801074D01*
X101360947Y-87822309D01*
X101362000Y-87843750D01*
X101362000Y-88356250D01*
X101360947Y-88377691D01*
X101357797Y-88398926D01*
X101352581Y-88419750D01*
X101345349Y-88439962D01*
X101336170Y-88459368D01*
X101325134Y-88477781D01*
X101312346Y-88495024D01*
X101297930Y-88510930D01*
X101282024Y-88525346D01*
X101264781Y-88538134D01*
X101246368Y-88549170D01*
X101226962Y-88558349D01*
X101206750Y-88565581D01*
X101185926Y-88570797D01*
X101164691Y-88573947D01*
X101143250Y-88575000D01*
X100705750Y-88575000D01*
X100684309Y-88573947D01*
X100663074Y-88570797D01*
X100642250Y-88565581D01*
X100622038Y-88558349D01*
X100602632Y-88549170D01*
X100584219Y-88538134D01*
X100566976Y-88525346D01*
X100551070Y-88510930D01*
X100536654Y-88495024D01*
X100523866Y-88477781D01*
X100512830Y-88459368D01*
X100503651Y-88439962D01*
X100496419Y-88419750D01*
X100491203Y-88398926D01*
X100488053Y-88377691D01*
X100487000Y-88356250D01*
X100487000Y-87843750D01*
X100488053Y-87822309D01*
X100491203Y-87801074D01*
X100496419Y-87780250D01*
X100503651Y-87760038D01*
X100512830Y-87740632D01*
X100523866Y-87722219D01*
X100536654Y-87704976D01*
X100551070Y-87689070D01*
X100566976Y-87674654D01*
X100584219Y-87661866D01*
X100602632Y-87650830D01*
X100622038Y-87641651D01*
X100642250Y-87634419D01*
X100663074Y-87629203D01*
X100684309Y-87626053D01*
X100705750Y-87625000D01*
X101143250Y-87625000D01*
X101164691Y-87626053D01*
X101164691Y-87626053D01*
G37*
D20*
X100924500Y-88100000D03*
D19*
G36*
X102739691Y-87626053D02*
G01*
X102760926Y-87629203D01*
X102781750Y-87634419D01*
X102801962Y-87641651D01*
X102821368Y-87650830D01*
X102839781Y-87661866D01*
X102857024Y-87674654D01*
X102872930Y-87689070D01*
X102887346Y-87704976D01*
X102900134Y-87722219D01*
X102911170Y-87740632D01*
X102920349Y-87760038D01*
X102927581Y-87780250D01*
X102932797Y-87801074D01*
X102935947Y-87822309D01*
X102937000Y-87843750D01*
X102937000Y-88356250D01*
X102935947Y-88377691D01*
X102932797Y-88398926D01*
X102927581Y-88419750D01*
X102920349Y-88439962D01*
X102911170Y-88459368D01*
X102900134Y-88477781D01*
X102887346Y-88495024D01*
X102872930Y-88510930D01*
X102857024Y-88525346D01*
X102839781Y-88538134D01*
X102821368Y-88549170D01*
X102801962Y-88558349D01*
X102781750Y-88565581D01*
X102760926Y-88570797D01*
X102739691Y-88573947D01*
X102718250Y-88575000D01*
X102280750Y-88575000D01*
X102259309Y-88573947D01*
X102238074Y-88570797D01*
X102217250Y-88565581D01*
X102197038Y-88558349D01*
X102177632Y-88549170D01*
X102159219Y-88538134D01*
X102141976Y-88525346D01*
X102126070Y-88510930D01*
X102111654Y-88495024D01*
X102098866Y-88477781D01*
X102087830Y-88459368D01*
X102078651Y-88439962D01*
X102071419Y-88419750D01*
X102066203Y-88398926D01*
X102063053Y-88377691D01*
X102062000Y-88356250D01*
X102062000Y-87843750D01*
X102063053Y-87822309D01*
X102066203Y-87801074D01*
X102071419Y-87780250D01*
X102078651Y-87760038D01*
X102087830Y-87740632D01*
X102098866Y-87722219D01*
X102111654Y-87704976D01*
X102126070Y-87689070D01*
X102141976Y-87674654D01*
X102159219Y-87661866D01*
X102177632Y-87650830D01*
X102197038Y-87641651D01*
X102217250Y-87634419D01*
X102238074Y-87629203D01*
X102259309Y-87626053D01*
X102280750Y-87625000D01*
X102718250Y-87625000D01*
X102739691Y-87626053D01*
X102739691Y-87626053D01*
G37*
D20*
X102499500Y-88100000D03*
D19*
G36*
X105152691Y-87626053D02*
G01*
X105173926Y-87629203D01*
X105194750Y-87634419D01*
X105214962Y-87641651D01*
X105234368Y-87650830D01*
X105252781Y-87661866D01*
X105270024Y-87674654D01*
X105285930Y-87689070D01*
X105300346Y-87704976D01*
X105313134Y-87722219D01*
X105324170Y-87740632D01*
X105333349Y-87760038D01*
X105340581Y-87780250D01*
X105345797Y-87801074D01*
X105348947Y-87822309D01*
X105350000Y-87843750D01*
X105350000Y-88356250D01*
X105348947Y-88377691D01*
X105345797Y-88398926D01*
X105340581Y-88419750D01*
X105333349Y-88439962D01*
X105324170Y-88459368D01*
X105313134Y-88477781D01*
X105300346Y-88495024D01*
X105285930Y-88510930D01*
X105270024Y-88525346D01*
X105252781Y-88538134D01*
X105234368Y-88549170D01*
X105214962Y-88558349D01*
X105194750Y-88565581D01*
X105173926Y-88570797D01*
X105152691Y-88573947D01*
X105131250Y-88575000D01*
X104693750Y-88575000D01*
X104672309Y-88573947D01*
X104651074Y-88570797D01*
X104630250Y-88565581D01*
X104610038Y-88558349D01*
X104590632Y-88549170D01*
X104572219Y-88538134D01*
X104554976Y-88525346D01*
X104539070Y-88510930D01*
X104524654Y-88495024D01*
X104511866Y-88477781D01*
X104500830Y-88459368D01*
X104491651Y-88439962D01*
X104484419Y-88419750D01*
X104479203Y-88398926D01*
X104476053Y-88377691D01*
X104475000Y-88356250D01*
X104475000Y-87843750D01*
X104476053Y-87822309D01*
X104479203Y-87801074D01*
X104484419Y-87780250D01*
X104491651Y-87760038D01*
X104500830Y-87740632D01*
X104511866Y-87722219D01*
X104524654Y-87704976D01*
X104539070Y-87689070D01*
X104554976Y-87674654D01*
X104572219Y-87661866D01*
X104590632Y-87650830D01*
X104610038Y-87641651D01*
X104630250Y-87634419D01*
X104651074Y-87629203D01*
X104672309Y-87626053D01*
X104693750Y-87625000D01*
X105131250Y-87625000D01*
X105152691Y-87626053D01*
X105152691Y-87626053D01*
G37*
D20*
X104912500Y-88100000D03*
D19*
G36*
X106727691Y-87626053D02*
G01*
X106748926Y-87629203D01*
X106769750Y-87634419D01*
X106789962Y-87641651D01*
X106809368Y-87650830D01*
X106827781Y-87661866D01*
X106845024Y-87674654D01*
X106860930Y-87689070D01*
X106875346Y-87704976D01*
X106888134Y-87722219D01*
X106899170Y-87740632D01*
X106908349Y-87760038D01*
X106915581Y-87780250D01*
X106920797Y-87801074D01*
X106923947Y-87822309D01*
X106925000Y-87843750D01*
X106925000Y-88356250D01*
X106923947Y-88377691D01*
X106920797Y-88398926D01*
X106915581Y-88419750D01*
X106908349Y-88439962D01*
X106899170Y-88459368D01*
X106888134Y-88477781D01*
X106875346Y-88495024D01*
X106860930Y-88510930D01*
X106845024Y-88525346D01*
X106827781Y-88538134D01*
X106809368Y-88549170D01*
X106789962Y-88558349D01*
X106769750Y-88565581D01*
X106748926Y-88570797D01*
X106727691Y-88573947D01*
X106706250Y-88575000D01*
X106268750Y-88575000D01*
X106247309Y-88573947D01*
X106226074Y-88570797D01*
X106205250Y-88565581D01*
X106185038Y-88558349D01*
X106165632Y-88549170D01*
X106147219Y-88538134D01*
X106129976Y-88525346D01*
X106114070Y-88510930D01*
X106099654Y-88495024D01*
X106086866Y-88477781D01*
X106075830Y-88459368D01*
X106066651Y-88439962D01*
X106059419Y-88419750D01*
X106054203Y-88398926D01*
X106051053Y-88377691D01*
X106050000Y-88356250D01*
X106050000Y-87843750D01*
X106051053Y-87822309D01*
X106054203Y-87801074D01*
X106059419Y-87780250D01*
X106066651Y-87760038D01*
X106075830Y-87740632D01*
X106086866Y-87722219D01*
X106099654Y-87704976D01*
X106114070Y-87689070D01*
X106129976Y-87674654D01*
X106147219Y-87661866D01*
X106165632Y-87650830D01*
X106185038Y-87641651D01*
X106205250Y-87634419D01*
X106226074Y-87629203D01*
X106247309Y-87626053D01*
X106268750Y-87625000D01*
X106706250Y-87625000D01*
X106727691Y-87626053D01*
X106727691Y-87626053D01*
G37*
D20*
X106487500Y-88100000D03*
D19*
G36*
X109277691Y-108776053D02*
G01*
X109298926Y-108779203D01*
X109319750Y-108784419D01*
X109339962Y-108791651D01*
X109359368Y-108800830D01*
X109377781Y-108811866D01*
X109395024Y-108824654D01*
X109410930Y-108839070D01*
X109425346Y-108854976D01*
X109438134Y-108872219D01*
X109449170Y-108890632D01*
X109458349Y-108910038D01*
X109465581Y-108930250D01*
X109470797Y-108951074D01*
X109473947Y-108972309D01*
X109475000Y-108993750D01*
X109475000Y-109431250D01*
X109473947Y-109452691D01*
X109470797Y-109473926D01*
X109465581Y-109494750D01*
X109458349Y-109514962D01*
X109449170Y-109534368D01*
X109438134Y-109552781D01*
X109425346Y-109570024D01*
X109410930Y-109585930D01*
X109395024Y-109600346D01*
X109377781Y-109613134D01*
X109359368Y-109624170D01*
X109339962Y-109633349D01*
X109319750Y-109640581D01*
X109298926Y-109645797D01*
X109277691Y-109648947D01*
X109256250Y-109650000D01*
X108743750Y-109650000D01*
X108722309Y-109648947D01*
X108701074Y-109645797D01*
X108680250Y-109640581D01*
X108660038Y-109633349D01*
X108640632Y-109624170D01*
X108622219Y-109613134D01*
X108604976Y-109600346D01*
X108589070Y-109585930D01*
X108574654Y-109570024D01*
X108561866Y-109552781D01*
X108550830Y-109534368D01*
X108541651Y-109514962D01*
X108534419Y-109494750D01*
X108529203Y-109473926D01*
X108526053Y-109452691D01*
X108525000Y-109431250D01*
X108525000Y-108993750D01*
X108526053Y-108972309D01*
X108529203Y-108951074D01*
X108534419Y-108930250D01*
X108541651Y-108910038D01*
X108550830Y-108890632D01*
X108561866Y-108872219D01*
X108574654Y-108854976D01*
X108589070Y-108839070D01*
X108604976Y-108824654D01*
X108622219Y-108811866D01*
X108640632Y-108800830D01*
X108660038Y-108791651D01*
X108680250Y-108784419D01*
X108701074Y-108779203D01*
X108722309Y-108776053D01*
X108743750Y-108775000D01*
X109256250Y-108775000D01*
X109277691Y-108776053D01*
X109277691Y-108776053D01*
G37*
D20*
X109000000Y-109212500D03*
D19*
G36*
X109277691Y-110351053D02*
G01*
X109298926Y-110354203D01*
X109319750Y-110359419D01*
X109339962Y-110366651D01*
X109359368Y-110375830D01*
X109377781Y-110386866D01*
X109395024Y-110399654D01*
X109410930Y-110414070D01*
X109425346Y-110429976D01*
X109438134Y-110447219D01*
X109449170Y-110465632D01*
X109458349Y-110485038D01*
X109465581Y-110505250D01*
X109470797Y-110526074D01*
X109473947Y-110547309D01*
X109475000Y-110568750D01*
X109475000Y-111006250D01*
X109473947Y-111027691D01*
X109470797Y-111048926D01*
X109465581Y-111069750D01*
X109458349Y-111089962D01*
X109449170Y-111109368D01*
X109438134Y-111127781D01*
X109425346Y-111145024D01*
X109410930Y-111160930D01*
X109395024Y-111175346D01*
X109377781Y-111188134D01*
X109359368Y-111199170D01*
X109339962Y-111208349D01*
X109319750Y-111215581D01*
X109298926Y-111220797D01*
X109277691Y-111223947D01*
X109256250Y-111225000D01*
X108743750Y-111225000D01*
X108722309Y-111223947D01*
X108701074Y-111220797D01*
X108680250Y-111215581D01*
X108660038Y-111208349D01*
X108640632Y-111199170D01*
X108622219Y-111188134D01*
X108604976Y-111175346D01*
X108589070Y-111160930D01*
X108574654Y-111145024D01*
X108561866Y-111127781D01*
X108550830Y-111109368D01*
X108541651Y-111089962D01*
X108534419Y-111069750D01*
X108529203Y-111048926D01*
X108526053Y-111027691D01*
X108525000Y-111006250D01*
X108525000Y-110568750D01*
X108526053Y-110547309D01*
X108529203Y-110526074D01*
X108534419Y-110505250D01*
X108541651Y-110485038D01*
X108550830Y-110465632D01*
X108561866Y-110447219D01*
X108574654Y-110429976D01*
X108589070Y-110414070D01*
X108604976Y-110399654D01*
X108622219Y-110386866D01*
X108640632Y-110375830D01*
X108660038Y-110366651D01*
X108680250Y-110359419D01*
X108701074Y-110354203D01*
X108722309Y-110351053D01*
X108743750Y-110350000D01*
X109256250Y-110350000D01*
X109277691Y-110351053D01*
X109277691Y-110351053D01*
G37*
D20*
X109000000Y-110787500D03*
D19*
G36*
X112027691Y-102976053D02*
G01*
X112048926Y-102979203D01*
X112069750Y-102984419D01*
X112089962Y-102991651D01*
X112109368Y-103000830D01*
X112127781Y-103011866D01*
X112145024Y-103024654D01*
X112160930Y-103039070D01*
X112175346Y-103054976D01*
X112188134Y-103072219D01*
X112199170Y-103090632D01*
X112208349Y-103110038D01*
X112215581Y-103130250D01*
X112220797Y-103151074D01*
X112223947Y-103172309D01*
X112225000Y-103193750D01*
X112225000Y-103631250D01*
X112223947Y-103652691D01*
X112220797Y-103673926D01*
X112215581Y-103694750D01*
X112208349Y-103714962D01*
X112199170Y-103734368D01*
X112188134Y-103752781D01*
X112175346Y-103770024D01*
X112160930Y-103785930D01*
X112145024Y-103800346D01*
X112127781Y-103813134D01*
X112109368Y-103824170D01*
X112089962Y-103833349D01*
X112069750Y-103840581D01*
X112048926Y-103845797D01*
X112027691Y-103848947D01*
X112006250Y-103850000D01*
X111493750Y-103850000D01*
X111472309Y-103848947D01*
X111451074Y-103845797D01*
X111430250Y-103840581D01*
X111410038Y-103833349D01*
X111390632Y-103824170D01*
X111372219Y-103813134D01*
X111354976Y-103800346D01*
X111339070Y-103785930D01*
X111324654Y-103770024D01*
X111311866Y-103752781D01*
X111300830Y-103734368D01*
X111291651Y-103714962D01*
X111284419Y-103694750D01*
X111279203Y-103673926D01*
X111276053Y-103652691D01*
X111275000Y-103631250D01*
X111275000Y-103193750D01*
X111276053Y-103172309D01*
X111279203Y-103151074D01*
X111284419Y-103130250D01*
X111291651Y-103110038D01*
X111300830Y-103090632D01*
X111311866Y-103072219D01*
X111324654Y-103054976D01*
X111339070Y-103039070D01*
X111354976Y-103024654D01*
X111372219Y-103011866D01*
X111390632Y-103000830D01*
X111410038Y-102991651D01*
X111430250Y-102984419D01*
X111451074Y-102979203D01*
X111472309Y-102976053D01*
X111493750Y-102975000D01*
X112006250Y-102975000D01*
X112027691Y-102976053D01*
X112027691Y-102976053D01*
G37*
D20*
X111750000Y-103412500D03*
D19*
G36*
X112027691Y-104551053D02*
G01*
X112048926Y-104554203D01*
X112069750Y-104559419D01*
X112089962Y-104566651D01*
X112109368Y-104575830D01*
X112127781Y-104586866D01*
X112145024Y-104599654D01*
X112160930Y-104614070D01*
X112175346Y-104629976D01*
X112188134Y-104647219D01*
X112199170Y-104665632D01*
X112208349Y-104685038D01*
X112215581Y-104705250D01*
X112220797Y-104726074D01*
X112223947Y-104747309D01*
X112225000Y-104768750D01*
X112225000Y-105206250D01*
X112223947Y-105227691D01*
X112220797Y-105248926D01*
X112215581Y-105269750D01*
X112208349Y-105289962D01*
X112199170Y-105309368D01*
X112188134Y-105327781D01*
X112175346Y-105345024D01*
X112160930Y-105360930D01*
X112145024Y-105375346D01*
X112127781Y-105388134D01*
X112109368Y-105399170D01*
X112089962Y-105408349D01*
X112069750Y-105415581D01*
X112048926Y-105420797D01*
X112027691Y-105423947D01*
X112006250Y-105425000D01*
X111493750Y-105425000D01*
X111472309Y-105423947D01*
X111451074Y-105420797D01*
X111430250Y-105415581D01*
X111410038Y-105408349D01*
X111390632Y-105399170D01*
X111372219Y-105388134D01*
X111354976Y-105375346D01*
X111339070Y-105360930D01*
X111324654Y-105345024D01*
X111311866Y-105327781D01*
X111300830Y-105309368D01*
X111291651Y-105289962D01*
X111284419Y-105269750D01*
X111279203Y-105248926D01*
X111276053Y-105227691D01*
X111275000Y-105206250D01*
X111275000Y-104768750D01*
X111276053Y-104747309D01*
X111279203Y-104726074D01*
X111284419Y-104705250D01*
X111291651Y-104685038D01*
X111300830Y-104665632D01*
X111311866Y-104647219D01*
X111324654Y-104629976D01*
X111339070Y-104614070D01*
X111354976Y-104599654D01*
X111372219Y-104586866D01*
X111390632Y-104575830D01*
X111410038Y-104566651D01*
X111430250Y-104559419D01*
X111451074Y-104554203D01*
X111472309Y-104551053D01*
X111493750Y-104550000D01*
X112006250Y-104550000D01*
X112027691Y-104551053D01*
X112027691Y-104551053D01*
G37*
D20*
X111750000Y-104987500D03*
D19*
G36*
X110077691Y-104551053D02*
G01*
X110098926Y-104554203D01*
X110119750Y-104559419D01*
X110139962Y-104566651D01*
X110159368Y-104575830D01*
X110177781Y-104586866D01*
X110195024Y-104599654D01*
X110210930Y-104614070D01*
X110225346Y-104629976D01*
X110238134Y-104647219D01*
X110249170Y-104665632D01*
X110258349Y-104685038D01*
X110265581Y-104705250D01*
X110270797Y-104726074D01*
X110273947Y-104747309D01*
X110275000Y-104768750D01*
X110275000Y-105206250D01*
X110273947Y-105227691D01*
X110270797Y-105248926D01*
X110265581Y-105269750D01*
X110258349Y-105289962D01*
X110249170Y-105309368D01*
X110238134Y-105327781D01*
X110225346Y-105345024D01*
X110210930Y-105360930D01*
X110195024Y-105375346D01*
X110177781Y-105388134D01*
X110159368Y-105399170D01*
X110139962Y-105408349D01*
X110119750Y-105415581D01*
X110098926Y-105420797D01*
X110077691Y-105423947D01*
X110056250Y-105425000D01*
X109543750Y-105425000D01*
X109522309Y-105423947D01*
X109501074Y-105420797D01*
X109480250Y-105415581D01*
X109460038Y-105408349D01*
X109440632Y-105399170D01*
X109422219Y-105388134D01*
X109404976Y-105375346D01*
X109389070Y-105360930D01*
X109374654Y-105345024D01*
X109361866Y-105327781D01*
X109350830Y-105309368D01*
X109341651Y-105289962D01*
X109334419Y-105269750D01*
X109329203Y-105248926D01*
X109326053Y-105227691D01*
X109325000Y-105206250D01*
X109325000Y-104768750D01*
X109326053Y-104747309D01*
X109329203Y-104726074D01*
X109334419Y-104705250D01*
X109341651Y-104685038D01*
X109350830Y-104665632D01*
X109361866Y-104647219D01*
X109374654Y-104629976D01*
X109389070Y-104614070D01*
X109404976Y-104599654D01*
X109422219Y-104586866D01*
X109440632Y-104575830D01*
X109460038Y-104566651D01*
X109480250Y-104559419D01*
X109501074Y-104554203D01*
X109522309Y-104551053D01*
X109543750Y-104550000D01*
X110056250Y-104550000D01*
X110077691Y-104551053D01*
X110077691Y-104551053D01*
G37*
D20*
X109800000Y-104987500D03*
D19*
G36*
X110077691Y-102976053D02*
G01*
X110098926Y-102979203D01*
X110119750Y-102984419D01*
X110139962Y-102991651D01*
X110159368Y-103000830D01*
X110177781Y-103011866D01*
X110195024Y-103024654D01*
X110210930Y-103039070D01*
X110225346Y-103054976D01*
X110238134Y-103072219D01*
X110249170Y-103090632D01*
X110258349Y-103110038D01*
X110265581Y-103130250D01*
X110270797Y-103151074D01*
X110273947Y-103172309D01*
X110275000Y-103193750D01*
X110275000Y-103631250D01*
X110273947Y-103652691D01*
X110270797Y-103673926D01*
X110265581Y-103694750D01*
X110258349Y-103714962D01*
X110249170Y-103734368D01*
X110238134Y-103752781D01*
X110225346Y-103770024D01*
X110210930Y-103785930D01*
X110195024Y-103800346D01*
X110177781Y-103813134D01*
X110159368Y-103824170D01*
X110139962Y-103833349D01*
X110119750Y-103840581D01*
X110098926Y-103845797D01*
X110077691Y-103848947D01*
X110056250Y-103850000D01*
X109543750Y-103850000D01*
X109522309Y-103848947D01*
X109501074Y-103845797D01*
X109480250Y-103840581D01*
X109460038Y-103833349D01*
X109440632Y-103824170D01*
X109422219Y-103813134D01*
X109404976Y-103800346D01*
X109389070Y-103785930D01*
X109374654Y-103770024D01*
X109361866Y-103752781D01*
X109350830Y-103734368D01*
X109341651Y-103714962D01*
X109334419Y-103694750D01*
X109329203Y-103673926D01*
X109326053Y-103652691D01*
X109325000Y-103631250D01*
X109325000Y-103193750D01*
X109326053Y-103172309D01*
X109329203Y-103151074D01*
X109334419Y-103130250D01*
X109341651Y-103110038D01*
X109350830Y-103090632D01*
X109361866Y-103072219D01*
X109374654Y-103054976D01*
X109389070Y-103039070D01*
X109404976Y-103024654D01*
X109422219Y-103011866D01*
X109440632Y-103000830D01*
X109460038Y-102991651D01*
X109480250Y-102984419D01*
X109501074Y-102979203D01*
X109522309Y-102976053D01*
X109543750Y-102975000D01*
X110056250Y-102975000D01*
X110077691Y-102976053D01*
X110077691Y-102976053D01*
G37*
D20*
X109800000Y-103412500D03*
D19*
G36*
X111777691Y-98151053D02*
G01*
X111798926Y-98154203D01*
X111819750Y-98159419D01*
X111839962Y-98166651D01*
X111859368Y-98175830D01*
X111877781Y-98186866D01*
X111895024Y-98199654D01*
X111910930Y-98214070D01*
X111925346Y-98229976D01*
X111938134Y-98247219D01*
X111949170Y-98265632D01*
X111958349Y-98285038D01*
X111965581Y-98305250D01*
X111970797Y-98326074D01*
X111973947Y-98347309D01*
X111975000Y-98368750D01*
X111975000Y-98806250D01*
X111973947Y-98827691D01*
X111970797Y-98848926D01*
X111965581Y-98869750D01*
X111958349Y-98889962D01*
X111949170Y-98909368D01*
X111938134Y-98927781D01*
X111925346Y-98945024D01*
X111910930Y-98960930D01*
X111895024Y-98975346D01*
X111877781Y-98988134D01*
X111859368Y-98999170D01*
X111839962Y-99008349D01*
X111819750Y-99015581D01*
X111798926Y-99020797D01*
X111777691Y-99023947D01*
X111756250Y-99025000D01*
X111243750Y-99025000D01*
X111222309Y-99023947D01*
X111201074Y-99020797D01*
X111180250Y-99015581D01*
X111160038Y-99008349D01*
X111140632Y-98999170D01*
X111122219Y-98988134D01*
X111104976Y-98975346D01*
X111089070Y-98960930D01*
X111074654Y-98945024D01*
X111061866Y-98927781D01*
X111050830Y-98909368D01*
X111041651Y-98889962D01*
X111034419Y-98869750D01*
X111029203Y-98848926D01*
X111026053Y-98827691D01*
X111025000Y-98806250D01*
X111025000Y-98368750D01*
X111026053Y-98347309D01*
X111029203Y-98326074D01*
X111034419Y-98305250D01*
X111041651Y-98285038D01*
X111050830Y-98265632D01*
X111061866Y-98247219D01*
X111074654Y-98229976D01*
X111089070Y-98214070D01*
X111104976Y-98199654D01*
X111122219Y-98186866D01*
X111140632Y-98175830D01*
X111160038Y-98166651D01*
X111180250Y-98159419D01*
X111201074Y-98154203D01*
X111222309Y-98151053D01*
X111243750Y-98150000D01*
X111756250Y-98150000D01*
X111777691Y-98151053D01*
X111777691Y-98151053D01*
G37*
D20*
X111500000Y-98587500D03*
D19*
G36*
X111777691Y-96576053D02*
G01*
X111798926Y-96579203D01*
X111819750Y-96584419D01*
X111839962Y-96591651D01*
X111859368Y-96600830D01*
X111877781Y-96611866D01*
X111895024Y-96624654D01*
X111910930Y-96639070D01*
X111925346Y-96654976D01*
X111938134Y-96672219D01*
X111949170Y-96690632D01*
X111958349Y-96710038D01*
X111965581Y-96730250D01*
X111970797Y-96751074D01*
X111973947Y-96772309D01*
X111975000Y-96793750D01*
X111975000Y-97231250D01*
X111973947Y-97252691D01*
X111970797Y-97273926D01*
X111965581Y-97294750D01*
X111958349Y-97314962D01*
X111949170Y-97334368D01*
X111938134Y-97352781D01*
X111925346Y-97370024D01*
X111910930Y-97385930D01*
X111895024Y-97400346D01*
X111877781Y-97413134D01*
X111859368Y-97424170D01*
X111839962Y-97433349D01*
X111819750Y-97440581D01*
X111798926Y-97445797D01*
X111777691Y-97448947D01*
X111756250Y-97450000D01*
X111243750Y-97450000D01*
X111222309Y-97448947D01*
X111201074Y-97445797D01*
X111180250Y-97440581D01*
X111160038Y-97433349D01*
X111140632Y-97424170D01*
X111122219Y-97413134D01*
X111104976Y-97400346D01*
X111089070Y-97385930D01*
X111074654Y-97370024D01*
X111061866Y-97352781D01*
X111050830Y-97334368D01*
X111041651Y-97314962D01*
X111034419Y-97294750D01*
X111029203Y-97273926D01*
X111026053Y-97252691D01*
X111025000Y-97231250D01*
X111025000Y-96793750D01*
X111026053Y-96772309D01*
X111029203Y-96751074D01*
X111034419Y-96730250D01*
X111041651Y-96710038D01*
X111050830Y-96690632D01*
X111061866Y-96672219D01*
X111074654Y-96654976D01*
X111089070Y-96639070D01*
X111104976Y-96624654D01*
X111122219Y-96611866D01*
X111140632Y-96600830D01*
X111160038Y-96591651D01*
X111180250Y-96584419D01*
X111201074Y-96579203D01*
X111222309Y-96576053D01*
X111243750Y-96575000D01*
X111756250Y-96575000D01*
X111777691Y-96576053D01*
X111777691Y-96576053D01*
G37*
D20*
X111500000Y-97012500D03*
D19*
G36*
X98452691Y-90026053D02*
G01*
X98473926Y-90029203D01*
X98494750Y-90034419D01*
X98514962Y-90041651D01*
X98534368Y-90050830D01*
X98552781Y-90061866D01*
X98570024Y-90074654D01*
X98585930Y-90089070D01*
X98600346Y-90104976D01*
X98613134Y-90122219D01*
X98624170Y-90140632D01*
X98633349Y-90160038D01*
X98640581Y-90180250D01*
X98645797Y-90201074D01*
X98648947Y-90222309D01*
X98650000Y-90243750D01*
X98650000Y-90756250D01*
X98648947Y-90777691D01*
X98645797Y-90798926D01*
X98640581Y-90819750D01*
X98633349Y-90839962D01*
X98624170Y-90859368D01*
X98613134Y-90877781D01*
X98600346Y-90895024D01*
X98585930Y-90910930D01*
X98570024Y-90925346D01*
X98552781Y-90938134D01*
X98534368Y-90949170D01*
X98514962Y-90958349D01*
X98494750Y-90965581D01*
X98473926Y-90970797D01*
X98452691Y-90973947D01*
X98431250Y-90975000D01*
X97993750Y-90975000D01*
X97972309Y-90973947D01*
X97951074Y-90970797D01*
X97930250Y-90965581D01*
X97910038Y-90958349D01*
X97890632Y-90949170D01*
X97872219Y-90938134D01*
X97854976Y-90925346D01*
X97839070Y-90910930D01*
X97824654Y-90895024D01*
X97811866Y-90877781D01*
X97800830Y-90859368D01*
X97791651Y-90839962D01*
X97784419Y-90819750D01*
X97779203Y-90798926D01*
X97776053Y-90777691D01*
X97775000Y-90756250D01*
X97775000Y-90243750D01*
X97776053Y-90222309D01*
X97779203Y-90201074D01*
X97784419Y-90180250D01*
X97791651Y-90160038D01*
X97800830Y-90140632D01*
X97811866Y-90122219D01*
X97824654Y-90104976D01*
X97839070Y-90089070D01*
X97854976Y-90074654D01*
X97872219Y-90061866D01*
X97890632Y-90050830D01*
X97910038Y-90041651D01*
X97930250Y-90034419D01*
X97951074Y-90029203D01*
X97972309Y-90026053D01*
X97993750Y-90025000D01*
X98431250Y-90025000D01*
X98452691Y-90026053D01*
X98452691Y-90026053D01*
G37*
D20*
X98212500Y-90500000D03*
D19*
G36*
X100027691Y-90026053D02*
G01*
X100048926Y-90029203D01*
X100069750Y-90034419D01*
X100089962Y-90041651D01*
X100109368Y-90050830D01*
X100127781Y-90061866D01*
X100145024Y-90074654D01*
X100160930Y-90089070D01*
X100175346Y-90104976D01*
X100188134Y-90122219D01*
X100199170Y-90140632D01*
X100208349Y-90160038D01*
X100215581Y-90180250D01*
X100220797Y-90201074D01*
X100223947Y-90222309D01*
X100225000Y-90243750D01*
X100225000Y-90756250D01*
X100223947Y-90777691D01*
X100220797Y-90798926D01*
X100215581Y-90819750D01*
X100208349Y-90839962D01*
X100199170Y-90859368D01*
X100188134Y-90877781D01*
X100175346Y-90895024D01*
X100160930Y-90910930D01*
X100145024Y-90925346D01*
X100127781Y-90938134D01*
X100109368Y-90949170D01*
X100089962Y-90958349D01*
X100069750Y-90965581D01*
X100048926Y-90970797D01*
X100027691Y-90973947D01*
X100006250Y-90975000D01*
X99568750Y-90975000D01*
X99547309Y-90973947D01*
X99526074Y-90970797D01*
X99505250Y-90965581D01*
X99485038Y-90958349D01*
X99465632Y-90949170D01*
X99447219Y-90938134D01*
X99429976Y-90925346D01*
X99414070Y-90910930D01*
X99399654Y-90895024D01*
X99386866Y-90877781D01*
X99375830Y-90859368D01*
X99366651Y-90839962D01*
X99359419Y-90819750D01*
X99354203Y-90798926D01*
X99351053Y-90777691D01*
X99350000Y-90756250D01*
X99350000Y-90243750D01*
X99351053Y-90222309D01*
X99354203Y-90201074D01*
X99359419Y-90180250D01*
X99366651Y-90160038D01*
X99375830Y-90140632D01*
X99386866Y-90122219D01*
X99399654Y-90104976D01*
X99414070Y-90089070D01*
X99429976Y-90074654D01*
X99447219Y-90061866D01*
X99465632Y-90050830D01*
X99485038Y-90041651D01*
X99505250Y-90034419D01*
X99526074Y-90029203D01*
X99547309Y-90026053D01*
X99568750Y-90025000D01*
X100006250Y-90025000D01*
X100027691Y-90026053D01*
X100027691Y-90026053D01*
G37*
D20*
X99787500Y-90500000D03*
D19*
G36*
X104277691Y-110351053D02*
G01*
X104298926Y-110354203D01*
X104319750Y-110359419D01*
X104339962Y-110366651D01*
X104359368Y-110375830D01*
X104377781Y-110386866D01*
X104395024Y-110399654D01*
X104410930Y-110414070D01*
X104425346Y-110429976D01*
X104438134Y-110447219D01*
X104449170Y-110465632D01*
X104458349Y-110485038D01*
X104465581Y-110505250D01*
X104470797Y-110526074D01*
X104473947Y-110547309D01*
X104475000Y-110568750D01*
X104475000Y-111006250D01*
X104473947Y-111027691D01*
X104470797Y-111048926D01*
X104465581Y-111069750D01*
X104458349Y-111089962D01*
X104449170Y-111109368D01*
X104438134Y-111127781D01*
X104425346Y-111145024D01*
X104410930Y-111160930D01*
X104395024Y-111175346D01*
X104377781Y-111188134D01*
X104359368Y-111199170D01*
X104339962Y-111208349D01*
X104319750Y-111215581D01*
X104298926Y-111220797D01*
X104277691Y-111223947D01*
X104256250Y-111225000D01*
X103743750Y-111225000D01*
X103722309Y-111223947D01*
X103701074Y-111220797D01*
X103680250Y-111215581D01*
X103660038Y-111208349D01*
X103640632Y-111199170D01*
X103622219Y-111188134D01*
X103604976Y-111175346D01*
X103589070Y-111160930D01*
X103574654Y-111145024D01*
X103561866Y-111127781D01*
X103550830Y-111109368D01*
X103541651Y-111089962D01*
X103534419Y-111069750D01*
X103529203Y-111048926D01*
X103526053Y-111027691D01*
X103525000Y-111006250D01*
X103525000Y-110568750D01*
X103526053Y-110547309D01*
X103529203Y-110526074D01*
X103534419Y-110505250D01*
X103541651Y-110485038D01*
X103550830Y-110465632D01*
X103561866Y-110447219D01*
X103574654Y-110429976D01*
X103589070Y-110414070D01*
X103604976Y-110399654D01*
X103622219Y-110386866D01*
X103640632Y-110375830D01*
X103660038Y-110366651D01*
X103680250Y-110359419D01*
X103701074Y-110354203D01*
X103722309Y-110351053D01*
X103743750Y-110350000D01*
X104256250Y-110350000D01*
X104277691Y-110351053D01*
X104277691Y-110351053D01*
G37*
D20*
X104000000Y-110787500D03*
D19*
G36*
X104277691Y-108776053D02*
G01*
X104298926Y-108779203D01*
X104319750Y-108784419D01*
X104339962Y-108791651D01*
X104359368Y-108800830D01*
X104377781Y-108811866D01*
X104395024Y-108824654D01*
X104410930Y-108839070D01*
X104425346Y-108854976D01*
X104438134Y-108872219D01*
X104449170Y-108890632D01*
X104458349Y-108910038D01*
X104465581Y-108930250D01*
X104470797Y-108951074D01*
X104473947Y-108972309D01*
X104475000Y-108993750D01*
X104475000Y-109431250D01*
X104473947Y-109452691D01*
X104470797Y-109473926D01*
X104465581Y-109494750D01*
X104458349Y-109514962D01*
X104449170Y-109534368D01*
X104438134Y-109552781D01*
X104425346Y-109570024D01*
X104410930Y-109585930D01*
X104395024Y-109600346D01*
X104377781Y-109613134D01*
X104359368Y-109624170D01*
X104339962Y-109633349D01*
X104319750Y-109640581D01*
X104298926Y-109645797D01*
X104277691Y-109648947D01*
X104256250Y-109650000D01*
X103743750Y-109650000D01*
X103722309Y-109648947D01*
X103701074Y-109645797D01*
X103680250Y-109640581D01*
X103660038Y-109633349D01*
X103640632Y-109624170D01*
X103622219Y-109613134D01*
X103604976Y-109600346D01*
X103589070Y-109585930D01*
X103574654Y-109570024D01*
X103561866Y-109552781D01*
X103550830Y-109534368D01*
X103541651Y-109514962D01*
X103534419Y-109494750D01*
X103529203Y-109473926D01*
X103526053Y-109452691D01*
X103525000Y-109431250D01*
X103525000Y-108993750D01*
X103526053Y-108972309D01*
X103529203Y-108951074D01*
X103534419Y-108930250D01*
X103541651Y-108910038D01*
X103550830Y-108890632D01*
X103561866Y-108872219D01*
X103574654Y-108854976D01*
X103589070Y-108839070D01*
X103604976Y-108824654D01*
X103622219Y-108811866D01*
X103640632Y-108800830D01*
X103660038Y-108791651D01*
X103680250Y-108784419D01*
X103701074Y-108779203D01*
X103722309Y-108776053D01*
X103743750Y-108775000D01*
X104256250Y-108775000D01*
X104277691Y-108776053D01*
X104277691Y-108776053D01*
G37*
D20*
X104000000Y-109212500D03*
D19*
G36*
X90477691Y-97663553D02*
G01*
X90498926Y-97666703D01*
X90519750Y-97671919D01*
X90539962Y-97679151D01*
X90559368Y-97688330D01*
X90577781Y-97699366D01*
X90595024Y-97712154D01*
X90610930Y-97726570D01*
X90625346Y-97742476D01*
X90638134Y-97759719D01*
X90649170Y-97778132D01*
X90658349Y-97797538D01*
X90665581Y-97817750D01*
X90670797Y-97838574D01*
X90673947Y-97859809D01*
X90675000Y-97881250D01*
X90675000Y-98318750D01*
X90673947Y-98340191D01*
X90670797Y-98361426D01*
X90665581Y-98382250D01*
X90658349Y-98402462D01*
X90649170Y-98421868D01*
X90638134Y-98440281D01*
X90625346Y-98457524D01*
X90610930Y-98473430D01*
X90595024Y-98487846D01*
X90577781Y-98500634D01*
X90559368Y-98511670D01*
X90539962Y-98520849D01*
X90519750Y-98528081D01*
X90498926Y-98533297D01*
X90477691Y-98536447D01*
X90456250Y-98537500D01*
X89943750Y-98537500D01*
X89922309Y-98536447D01*
X89901074Y-98533297D01*
X89880250Y-98528081D01*
X89860038Y-98520849D01*
X89840632Y-98511670D01*
X89822219Y-98500634D01*
X89804976Y-98487846D01*
X89789070Y-98473430D01*
X89774654Y-98457524D01*
X89761866Y-98440281D01*
X89750830Y-98421868D01*
X89741651Y-98402462D01*
X89734419Y-98382250D01*
X89729203Y-98361426D01*
X89726053Y-98340191D01*
X89725000Y-98318750D01*
X89725000Y-97881250D01*
X89726053Y-97859809D01*
X89729203Y-97838574D01*
X89734419Y-97817750D01*
X89741651Y-97797538D01*
X89750830Y-97778132D01*
X89761866Y-97759719D01*
X89774654Y-97742476D01*
X89789070Y-97726570D01*
X89804976Y-97712154D01*
X89822219Y-97699366D01*
X89840632Y-97688330D01*
X89860038Y-97679151D01*
X89880250Y-97671919D01*
X89901074Y-97666703D01*
X89922309Y-97663553D01*
X89943750Y-97662500D01*
X90456250Y-97662500D01*
X90477691Y-97663553D01*
X90477691Y-97663553D01*
G37*
D20*
X90200000Y-98100000D03*
D19*
G36*
X90477691Y-96088553D02*
G01*
X90498926Y-96091703D01*
X90519750Y-96096919D01*
X90539962Y-96104151D01*
X90559368Y-96113330D01*
X90577781Y-96124366D01*
X90595024Y-96137154D01*
X90610930Y-96151570D01*
X90625346Y-96167476D01*
X90638134Y-96184719D01*
X90649170Y-96203132D01*
X90658349Y-96222538D01*
X90665581Y-96242750D01*
X90670797Y-96263574D01*
X90673947Y-96284809D01*
X90675000Y-96306250D01*
X90675000Y-96743750D01*
X90673947Y-96765191D01*
X90670797Y-96786426D01*
X90665581Y-96807250D01*
X90658349Y-96827462D01*
X90649170Y-96846868D01*
X90638134Y-96865281D01*
X90625346Y-96882524D01*
X90610930Y-96898430D01*
X90595024Y-96912846D01*
X90577781Y-96925634D01*
X90559368Y-96936670D01*
X90539962Y-96945849D01*
X90519750Y-96953081D01*
X90498926Y-96958297D01*
X90477691Y-96961447D01*
X90456250Y-96962500D01*
X89943750Y-96962500D01*
X89922309Y-96961447D01*
X89901074Y-96958297D01*
X89880250Y-96953081D01*
X89860038Y-96945849D01*
X89840632Y-96936670D01*
X89822219Y-96925634D01*
X89804976Y-96912846D01*
X89789070Y-96898430D01*
X89774654Y-96882524D01*
X89761866Y-96865281D01*
X89750830Y-96846868D01*
X89741651Y-96827462D01*
X89734419Y-96807250D01*
X89729203Y-96786426D01*
X89726053Y-96765191D01*
X89725000Y-96743750D01*
X89725000Y-96306250D01*
X89726053Y-96284809D01*
X89729203Y-96263574D01*
X89734419Y-96242750D01*
X89741651Y-96222538D01*
X89750830Y-96203132D01*
X89761866Y-96184719D01*
X89774654Y-96167476D01*
X89789070Y-96151570D01*
X89804976Y-96137154D01*
X89822219Y-96124366D01*
X89840632Y-96113330D01*
X89860038Y-96104151D01*
X89880250Y-96096919D01*
X89901074Y-96091703D01*
X89922309Y-96088553D01*
X89943750Y-96087500D01*
X90456250Y-96087500D01*
X90477691Y-96088553D01*
X90477691Y-96088553D01*
G37*
D20*
X90200000Y-96525000D03*
D19*
G36*
X110077691Y-98151053D02*
G01*
X110098926Y-98154203D01*
X110119750Y-98159419D01*
X110139962Y-98166651D01*
X110159368Y-98175830D01*
X110177781Y-98186866D01*
X110195024Y-98199654D01*
X110210930Y-98214070D01*
X110225346Y-98229976D01*
X110238134Y-98247219D01*
X110249170Y-98265632D01*
X110258349Y-98285038D01*
X110265581Y-98305250D01*
X110270797Y-98326074D01*
X110273947Y-98347309D01*
X110275000Y-98368750D01*
X110275000Y-98806250D01*
X110273947Y-98827691D01*
X110270797Y-98848926D01*
X110265581Y-98869750D01*
X110258349Y-98889962D01*
X110249170Y-98909368D01*
X110238134Y-98927781D01*
X110225346Y-98945024D01*
X110210930Y-98960930D01*
X110195024Y-98975346D01*
X110177781Y-98988134D01*
X110159368Y-98999170D01*
X110139962Y-99008349D01*
X110119750Y-99015581D01*
X110098926Y-99020797D01*
X110077691Y-99023947D01*
X110056250Y-99025000D01*
X109543750Y-99025000D01*
X109522309Y-99023947D01*
X109501074Y-99020797D01*
X109480250Y-99015581D01*
X109460038Y-99008349D01*
X109440632Y-98999170D01*
X109422219Y-98988134D01*
X109404976Y-98975346D01*
X109389070Y-98960930D01*
X109374654Y-98945024D01*
X109361866Y-98927781D01*
X109350830Y-98909368D01*
X109341651Y-98889962D01*
X109334419Y-98869750D01*
X109329203Y-98848926D01*
X109326053Y-98827691D01*
X109325000Y-98806250D01*
X109325000Y-98368750D01*
X109326053Y-98347309D01*
X109329203Y-98326074D01*
X109334419Y-98305250D01*
X109341651Y-98285038D01*
X109350830Y-98265632D01*
X109361866Y-98247219D01*
X109374654Y-98229976D01*
X109389070Y-98214070D01*
X109404976Y-98199654D01*
X109422219Y-98186866D01*
X109440632Y-98175830D01*
X109460038Y-98166651D01*
X109480250Y-98159419D01*
X109501074Y-98154203D01*
X109522309Y-98151053D01*
X109543750Y-98150000D01*
X110056250Y-98150000D01*
X110077691Y-98151053D01*
X110077691Y-98151053D01*
G37*
D20*
X109800000Y-98587500D03*
D19*
G36*
X110077691Y-96576053D02*
G01*
X110098926Y-96579203D01*
X110119750Y-96584419D01*
X110139962Y-96591651D01*
X110159368Y-96600830D01*
X110177781Y-96611866D01*
X110195024Y-96624654D01*
X110210930Y-96639070D01*
X110225346Y-96654976D01*
X110238134Y-96672219D01*
X110249170Y-96690632D01*
X110258349Y-96710038D01*
X110265581Y-96730250D01*
X110270797Y-96751074D01*
X110273947Y-96772309D01*
X110275000Y-96793750D01*
X110275000Y-97231250D01*
X110273947Y-97252691D01*
X110270797Y-97273926D01*
X110265581Y-97294750D01*
X110258349Y-97314962D01*
X110249170Y-97334368D01*
X110238134Y-97352781D01*
X110225346Y-97370024D01*
X110210930Y-97385930D01*
X110195024Y-97400346D01*
X110177781Y-97413134D01*
X110159368Y-97424170D01*
X110139962Y-97433349D01*
X110119750Y-97440581D01*
X110098926Y-97445797D01*
X110077691Y-97448947D01*
X110056250Y-97450000D01*
X109543750Y-97450000D01*
X109522309Y-97448947D01*
X109501074Y-97445797D01*
X109480250Y-97440581D01*
X109460038Y-97433349D01*
X109440632Y-97424170D01*
X109422219Y-97413134D01*
X109404976Y-97400346D01*
X109389070Y-97385930D01*
X109374654Y-97370024D01*
X109361866Y-97352781D01*
X109350830Y-97334368D01*
X109341651Y-97314962D01*
X109334419Y-97294750D01*
X109329203Y-97273926D01*
X109326053Y-97252691D01*
X109325000Y-97231250D01*
X109325000Y-96793750D01*
X109326053Y-96772309D01*
X109329203Y-96751074D01*
X109334419Y-96730250D01*
X109341651Y-96710038D01*
X109350830Y-96690632D01*
X109361866Y-96672219D01*
X109374654Y-96654976D01*
X109389070Y-96639070D01*
X109404976Y-96624654D01*
X109422219Y-96611866D01*
X109440632Y-96600830D01*
X109460038Y-96591651D01*
X109480250Y-96584419D01*
X109501074Y-96579203D01*
X109522309Y-96576053D01*
X109543750Y-96575000D01*
X110056250Y-96575000D01*
X110077691Y-96576053D01*
X110077691Y-96576053D01*
G37*
D20*
X109800000Y-97012500D03*
D19*
G36*
X96277691Y-110351053D02*
G01*
X96298926Y-110354203D01*
X96319750Y-110359419D01*
X96339962Y-110366651D01*
X96359368Y-110375830D01*
X96377781Y-110386866D01*
X96395024Y-110399654D01*
X96410930Y-110414070D01*
X96425346Y-110429976D01*
X96438134Y-110447219D01*
X96449170Y-110465632D01*
X96458349Y-110485038D01*
X96465581Y-110505250D01*
X96470797Y-110526074D01*
X96473947Y-110547309D01*
X96475000Y-110568750D01*
X96475000Y-111006250D01*
X96473947Y-111027691D01*
X96470797Y-111048926D01*
X96465581Y-111069750D01*
X96458349Y-111089962D01*
X96449170Y-111109368D01*
X96438134Y-111127781D01*
X96425346Y-111145024D01*
X96410930Y-111160930D01*
X96395024Y-111175346D01*
X96377781Y-111188134D01*
X96359368Y-111199170D01*
X96339962Y-111208349D01*
X96319750Y-111215581D01*
X96298926Y-111220797D01*
X96277691Y-111223947D01*
X96256250Y-111225000D01*
X95743750Y-111225000D01*
X95722309Y-111223947D01*
X95701074Y-111220797D01*
X95680250Y-111215581D01*
X95660038Y-111208349D01*
X95640632Y-111199170D01*
X95622219Y-111188134D01*
X95604976Y-111175346D01*
X95589070Y-111160930D01*
X95574654Y-111145024D01*
X95561866Y-111127781D01*
X95550830Y-111109368D01*
X95541651Y-111089962D01*
X95534419Y-111069750D01*
X95529203Y-111048926D01*
X95526053Y-111027691D01*
X95525000Y-111006250D01*
X95525000Y-110568750D01*
X95526053Y-110547309D01*
X95529203Y-110526074D01*
X95534419Y-110505250D01*
X95541651Y-110485038D01*
X95550830Y-110465632D01*
X95561866Y-110447219D01*
X95574654Y-110429976D01*
X95589070Y-110414070D01*
X95604976Y-110399654D01*
X95622219Y-110386866D01*
X95640632Y-110375830D01*
X95660038Y-110366651D01*
X95680250Y-110359419D01*
X95701074Y-110354203D01*
X95722309Y-110351053D01*
X95743750Y-110350000D01*
X96256250Y-110350000D01*
X96277691Y-110351053D01*
X96277691Y-110351053D01*
G37*
D20*
X96000000Y-110787500D03*
D19*
G36*
X96277691Y-108776053D02*
G01*
X96298926Y-108779203D01*
X96319750Y-108784419D01*
X96339962Y-108791651D01*
X96359368Y-108800830D01*
X96377781Y-108811866D01*
X96395024Y-108824654D01*
X96410930Y-108839070D01*
X96425346Y-108854976D01*
X96438134Y-108872219D01*
X96449170Y-108890632D01*
X96458349Y-108910038D01*
X96465581Y-108930250D01*
X96470797Y-108951074D01*
X96473947Y-108972309D01*
X96475000Y-108993750D01*
X96475000Y-109431250D01*
X96473947Y-109452691D01*
X96470797Y-109473926D01*
X96465581Y-109494750D01*
X96458349Y-109514962D01*
X96449170Y-109534368D01*
X96438134Y-109552781D01*
X96425346Y-109570024D01*
X96410930Y-109585930D01*
X96395024Y-109600346D01*
X96377781Y-109613134D01*
X96359368Y-109624170D01*
X96339962Y-109633349D01*
X96319750Y-109640581D01*
X96298926Y-109645797D01*
X96277691Y-109648947D01*
X96256250Y-109650000D01*
X95743750Y-109650000D01*
X95722309Y-109648947D01*
X95701074Y-109645797D01*
X95680250Y-109640581D01*
X95660038Y-109633349D01*
X95640632Y-109624170D01*
X95622219Y-109613134D01*
X95604976Y-109600346D01*
X95589070Y-109585930D01*
X95574654Y-109570024D01*
X95561866Y-109552781D01*
X95550830Y-109534368D01*
X95541651Y-109514962D01*
X95534419Y-109494750D01*
X95529203Y-109473926D01*
X95526053Y-109452691D01*
X95525000Y-109431250D01*
X95525000Y-108993750D01*
X95526053Y-108972309D01*
X95529203Y-108951074D01*
X95534419Y-108930250D01*
X95541651Y-108910038D01*
X95550830Y-108890632D01*
X95561866Y-108872219D01*
X95574654Y-108854976D01*
X95589070Y-108839070D01*
X95604976Y-108824654D01*
X95622219Y-108811866D01*
X95640632Y-108800830D01*
X95660038Y-108791651D01*
X95680250Y-108784419D01*
X95701074Y-108779203D01*
X95722309Y-108776053D01*
X95743750Y-108775000D01*
X96256250Y-108775000D01*
X96277691Y-108776053D01*
X96277691Y-108776053D01*
G37*
D20*
X96000000Y-109212500D03*
D19*
G36*
X110452691Y-135526053D02*
G01*
X110473926Y-135529203D01*
X110494750Y-135534419D01*
X110514962Y-135541651D01*
X110534368Y-135550830D01*
X110552781Y-135561866D01*
X110570024Y-135574654D01*
X110585930Y-135589070D01*
X110600346Y-135604976D01*
X110613134Y-135622219D01*
X110624170Y-135640632D01*
X110633349Y-135660038D01*
X110640581Y-135680250D01*
X110645797Y-135701074D01*
X110648947Y-135722309D01*
X110650000Y-135743750D01*
X110650000Y-136256250D01*
X110648947Y-136277691D01*
X110645797Y-136298926D01*
X110640581Y-136319750D01*
X110633349Y-136339962D01*
X110624170Y-136359368D01*
X110613134Y-136377781D01*
X110600346Y-136395024D01*
X110585930Y-136410930D01*
X110570024Y-136425346D01*
X110552781Y-136438134D01*
X110534368Y-136449170D01*
X110514962Y-136458349D01*
X110494750Y-136465581D01*
X110473926Y-136470797D01*
X110452691Y-136473947D01*
X110431250Y-136475000D01*
X109993750Y-136475000D01*
X109972309Y-136473947D01*
X109951074Y-136470797D01*
X109930250Y-136465581D01*
X109910038Y-136458349D01*
X109890632Y-136449170D01*
X109872219Y-136438134D01*
X109854976Y-136425346D01*
X109839070Y-136410930D01*
X109824654Y-136395024D01*
X109811866Y-136377781D01*
X109800830Y-136359368D01*
X109791651Y-136339962D01*
X109784419Y-136319750D01*
X109779203Y-136298926D01*
X109776053Y-136277691D01*
X109775000Y-136256250D01*
X109775000Y-135743750D01*
X109776053Y-135722309D01*
X109779203Y-135701074D01*
X109784419Y-135680250D01*
X109791651Y-135660038D01*
X109800830Y-135640632D01*
X109811866Y-135622219D01*
X109824654Y-135604976D01*
X109839070Y-135589070D01*
X109854976Y-135574654D01*
X109872219Y-135561866D01*
X109890632Y-135550830D01*
X109910038Y-135541651D01*
X109930250Y-135534419D01*
X109951074Y-135529203D01*
X109972309Y-135526053D01*
X109993750Y-135525000D01*
X110431250Y-135525000D01*
X110452691Y-135526053D01*
X110452691Y-135526053D01*
G37*
D20*
X110212500Y-136000000D03*
D19*
G36*
X112027691Y-135526053D02*
G01*
X112048926Y-135529203D01*
X112069750Y-135534419D01*
X112089962Y-135541651D01*
X112109368Y-135550830D01*
X112127781Y-135561866D01*
X112145024Y-135574654D01*
X112160930Y-135589070D01*
X112175346Y-135604976D01*
X112188134Y-135622219D01*
X112199170Y-135640632D01*
X112208349Y-135660038D01*
X112215581Y-135680250D01*
X112220797Y-135701074D01*
X112223947Y-135722309D01*
X112225000Y-135743750D01*
X112225000Y-136256250D01*
X112223947Y-136277691D01*
X112220797Y-136298926D01*
X112215581Y-136319750D01*
X112208349Y-136339962D01*
X112199170Y-136359368D01*
X112188134Y-136377781D01*
X112175346Y-136395024D01*
X112160930Y-136410930D01*
X112145024Y-136425346D01*
X112127781Y-136438134D01*
X112109368Y-136449170D01*
X112089962Y-136458349D01*
X112069750Y-136465581D01*
X112048926Y-136470797D01*
X112027691Y-136473947D01*
X112006250Y-136475000D01*
X111568750Y-136475000D01*
X111547309Y-136473947D01*
X111526074Y-136470797D01*
X111505250Y-136465581D01*
X111485038Y-136458349D01*
X111465632Y-136449170D01*
X111447219Y-136438134D01*
X111429976Y-136425346D01*
X111414070Y-136410930D01*
X111399654Y-136395024D01*
X111386866Y-136377781D01*
X111375830Y-136359368D01*
X111366651Y-136339962D01*
X111359419Y-136319750D01*
X111354203Y-136298926D01*
X111351053Y-136277691D01*
X111350000Y-136256250D01*
X111350000Y-135743750D01*
X111351053Y-135722309D01*
X111354203Y-135701074D01*
X111359419Y-135680250D01*
X111366651Y-135660038D01*
X111375830Y-135640632D01*
X111386866Y-135622219D01*
X111399654Y-135604976D01*
X111414070Y-135589070D01*
X111429976Y-135574654D01*
X111447219Y-135561866D01*
X111465632Y-135550830D01*
X111485038Y-135541651D01*
X111505250Y-135534419D01*
X111526074Y-135529203D01*
X111547309Y-135526053D01*
X111568750Y-135525000D01*
X112006250Y-135525000D01*
X112027691Y-135526053D01*
X112027691Y-135526053D01*
G37*
D20*
X111787500Y-136000000D03*
D19*
G36*
X115277691Y-138351053D02*
G01*
X115298926Y-138354203D01*
X115319750Y-138359419D01*
X115339962Y-138366651D01*
X115359368Y-138375830D01*
X115377781Y-138386866D01*
X115395024Y-138399654D01*
X115410930Y-138414070D01*
X115425346Y-138429976D01*
X115438134Y-138447219D01*
X115449170Y-138465632D01*
X115458349Y-138485038D01*
X115465581Y-138505250D01*
X115470797Y-138526074D01*
X115473947Y-138547309D01*
X115475000Y-138568750D01*
X115475000Y-139006250D01*
X115473947Y-139027691D01*
X115470797Y-139048926D01*
X115465581Y-139069750D01*
X115458349Y-139089962D01*
X115449170Y-139109368D01*
X115438134Y-139127781D01*
X115425346Y-139145024D01*
X115410930Y-139160930D01*
X115395024Y-139175346D01*
X115377781Y-139188134D01*
X115359368Y-139199170D01*
X115339962Y-139208349D01*
X115319750Y-139215581D01*
X115298926Y-139220797D01*
X115277691Y-139223947D01*
X115256250Y-139225000D01*
X114743750Y-139225000D01*
X114722309Y-139223947D01*
X114701074Y-139220797D01*
X114680250Y-139215581D01*
X114660038Y-139208349D01*
X114640632Y-139199170D01*
X114622219Y-139188134D01*
X114604976Y-139175346D01*
X114589070Y-139160930D01*
X114574654Y-139145024D01*
X114561866Y-139127781D01*
X114550830Y-139109368D01*
X114541651Y-139089962D01*
X114534419Y-139069750D01*
X114529203Y-139048926D01*
X114526053Y-139027691D01*
X114525000Y-139006250D01*
X114525000Y-138568750D01*
X114526053Y-138547309D01*
X114529203Y-138526074D01*
X114534419Y-138505250D01*
X114541651Y-138485038D01*
X114550830Y-138465632D01*
X114561866Y-138447219D01*
X114574654Y-138429976D01*
X114589070Y-138414070D01*
X114604976Y-138399654D01*
X114622219Y-138386866D01*
X114640632Y-138375830D01*
X114660038Y-138366651D01*
X114680250Y-138359419D01*
X114701074Y-138354203D01*
X114722309Y-138351053D01*
X114743750Y-138350000D01*
X115256250Y-138350000D01*
X115277691Y-138351053D01*
X115277691Y-138351053D01*
G37*
D20*
X115000000Y-138787500D03*
D19*
G36*
X115277691Y-136776053D02*
G01*
X115298926Y-136779203D01*
X115319750Y-136784419D01*
X115339962Y-136791651D01*
X115359368Y-136800830D01*
X115377781Y-136811866D01*
X115395024Y-136824654D01*
X115410930Y-136839070D01*
X115425346Y-136854976D01*
X115438134Y-136872219D01*
X115449170Y-136890632D01*
X115458349Y-136910038D01*
X115465581Y-136930250D01*
X115470797Y-136951074D01*
X115473947Y-136972309D01*
X115475000Y-136993750D01*
X115475000Y-137431250D01*
X115473947Y-137452691D01*
X115470797Y-137473926D01*
X115465581Y-137494750D01*
X115458349Y-137514962D01*
X115449170Y-137534368D01*
X115438134Y-137552781D01*
X115425346Y-137570024D01*
X115410930Y-137585930D01*
X115395024Y-137600346D01*
X115377781Y-137613134D01*
X115359368Y-137624170D01*
X115339962Y-137633349D01*
X115319750Y-137640581D01*
X115298926Y-137645797D01*
X115277691Y-137648947D01*
X115256250Y-137650000D01*
X114743750Y-137650000D01*
X114722309Y-137648947D01*
X114701074Y-137645797D01*
X114680250Y-137640581D01*
X114660038Y-137633349D01*
X114640632Y-137624170D01*
X114622219Y-137613134D01*
X114604976Y-137600346D01*
X114589070Y-137585930D01*
X114574654Y-137570024D01*
X114561866Y-137552781D01*
X114550830Y-137534368D01*
X114541651Y-137514962D01*
X114534419Y-137494750D01*
X114529203Y-137473926D01*
X114526053Y-137452691D01*
X114525000Y-137431250D01*
X114525000Y-136993750D01*
X114526053Y-136972309D01*
X114529203Y-136951074D01*
X114534419Y-136930250D01*
X114541651Y-136910038D01*
X114550830Y-136890632D01*
X114561866Y-136872219D01*
X114574654Y-136854976D01*
X114589070Y-136839070D01*
X114604976Y-136824654D01*
X114622219Y-136811866D01*
X114640632Y-136800830D01*
X114660038Y-136791651D01*
X114680250Y-136784419D01*
X114701074Y-136779203D01*
X114722309Y-136776053D01*
X114743750Y-136775000D01*
X115256250Y-136775000D01*
X115277691Y-136776053D01*
X115277691Y-136776053D01*
G37*
D20*
X115000000Y-137212500D03*
D19*
G36*
X118277691Y-136776053D02*
G01*
X118298926Y-136779203D01*
X118319750Y-136784419D01*
X118339962Y-136791651D01*
X118359368Y-136800830D01*
X118377781Y-136811866D01*
X118395024Y-136824654D01*
X118410930Y-136839070D01*
X118425346Y-136854976D01*
X118438134Y-136872219D01*
X118449170Y-136890632D01*
X118458349Y-136910038D01*
X118465581Y-136930250D01*
X118470797Y-136951074D01*
X118473947Y-136972309D01*
X118475000Y-136993750D01*
X118475000Y-137431250D01*
X118473947Y-137452691D01*
X118470797Y-137473926D01*
X118465581Y-137494750D01*
X118458349Y-137514962D01*
X118449170Y-137534368D01*
X118438134Y-137552781D01*
X118425346Y-137570024D01*
X118410930Y-137585930D01*
X118395024Y-137600346D01*
X118377781Y-137613134D01*
X118359368Y-137624170D01*
X118339962Y-137633349D01*
X118319750Y-137640581D01*
X118298926Y-137645797D01*
X118277691Y-137648947D01*
X118256250Y-137650000D01*
X117743750Y-137650000D01*
X117722309Y-137648947D01*
X117701074Y-137645797D01*
X117680250Y-137640581D01*
X117660038Y-137633349D01*
X117640632Y-137624170D01*
X117622219Y-137613134D01*
X117604976Y-137600346D01*
X117589070Y-137585930D01*
X117574654Y-137570024D01*
X117561866Y-137552781D01*
X117550830Y-137534368D01*
X117541651Y-137514962D01*
X117534419Y-137494750D01*
X117529203Y-137473926D01*
X117526053Y-137452691D01*
X117525000Y-137431250D01*
X117525000Y-136993750D01*
X117526053Y-136972309D01*
X117529203Y-136951074D01*
X117534419Y-136930250D01*
X117541651Y-136910038D01*
X117550830Y-136890632D01*
X117561866Y-136872219D01*
X117574654Y-136854976D01*
X117589070Y-136839070D01*
X117604976Y-136824654D01*
X117622219Y-136811866D01*
X117640632Y-136800830D01*
X117660038Y-136791651D01*
X117680250Y-136784419D01*
X117701074Y-136779203D01*
X117722309Y-136776053D01*
X117743750Y-136775000D01*
X118256250Y-136775000D01*
X118277691Y-136776053D01*
X118277691Y-136776053D01*
G37*
D20*
X118000000Y-137212500D03*
D19*
G36*
X118277691Y-138351053D02*
G01*
X118298926Y-138354203D01*
X118319750Y-138359419D01*
X118339962Y-138366651D01*
X118359368Y-138375830D01*
X118377781Y-138386866D01*
X118395024Y-138399654D01*
X118410930Y-138414070D01*
X118425346Y-138429976D01*
X118438134Y-138447219D01*
X118449170Y-138465632D01*
X118458349Y-138485038D01*
X118465581Y-138505250D01*
X118470797Y-138526074D01*
X118473947Y-138547309D01*
X118475000Y-138568750D01*
X118475000Y-139006250D01*
X118473947Y-139027691D01*
X118470797Y-139048926D01*
X118465581Y-139069750D01*
X118458349Y-139089962D01*
X118449170Y-139109368D01*
X118438134Y-139127781D01*
X118425346Y-139145024D01*
X118410930Y-139160930D01*
X118395024Y-139175346D01*
X118377781Y-139188134D01*
X118359368Y-139199170D01*
X118339962Y-139208349D01*
X118319750Y-139215581D01*
X118298926Y-139220797D01*
X118277691Y-139223947D01*
X118256250Y-139225000D01*
X117743750Y-139225000D01*
X117722309Y-139223947D01*
X117701074Y-139220797D01*
X117680250Y-139215581D01*
X117660038Y-139208349D01*
X117640632Y-139199170D01*
X117622219Y-139188134D01*
X117604976Y-139175346D01*
X117589070Y-139160930D01*
X117574654Y-139145024D01*
X117561866Y-139127781D01*
X117550830Y-139109368D01*
X117541651Y-139089962D01*
X117534419Y-139069750D01*
X117529203Y-139048926D01*
X117526053Y-139027691D01*
X117525000Y-139006250D01*
X117525000Y-138568750D01*
X117526053Y-138547309D01*
X117529203Y-138526074D01*
X117534419Y-138505250D01*
X117541651Y-138485038D01*
X117550830Y-138465632D01*
X117561866Y-138447219D01*
X117574654Y-138429976D01*
X117589070Y-138414070D01*
X117604976Y-138399654D01*
X117622219Y-138386866D01*
X117640632Y-138375830D01*
X117660038Y-138366651D01*
X117680250Y-138359419D01*
X117701074Y-138354203D01*
X117722309Y-138351053D01*
X117743750Y-138350000D01*
X118256250Y-138350000D01*
X118277691Y-138351053D01*
X118277691Y-138351053D01*
G37*
D20*
X118000000Y-138787500D03*
D19*
G36*
X118652691Y-94776053D02*
G01*
X118673926Y-94779203D01*
X118694750Y-94784419D01*
X118714962Y-94791651D01*
X118734368Y-94800830D01*
X118752781Y-94811866D01*
X118770024Y-94824654D01*
X118785930Y-94839070D01*
X118800346Y-94854976D01*
X118813134Y-94872219D01*
X118824170Y-94890632D01*
X118833349Y-94910038D01*
X118840581Y-94930250D01*
X118845797Y-94951074D01*
X118848947Y-94972309D01*
X118850000Y-94993750D01*
X118850000Y-95506250D01*
X118848947Y-95527691D01*
X118845797Y-95548926D01*
X118840581Y-95569750D01*
X118833349Y-95589962D01*
X118824170Y-95609368D01*
X118813134Y-95627781D01*
X118800346Y-95645024D01*
X118785930Y-95660930D01*
X118770024Y-95675346D01*
X118752781Y-95688134D01*
X118734368Y-95699170D01*
X118714962Y-95708349D01*
X118694750Y-95715581D01*
X118673926Y-95720797D01*
X118652691Y-95723947D01*
X118631250Y-95725000D01*
X118193750Y-95725000D01*
X118172309Y-95723947D01*
X118151074Y-95720797D01*
X118130250Y-95715581D01*
X118110038Y-95708349D01*
X118090632Y-95699170D01*
X118072219Y-95688134D01*
X118054976Y-95675346D01*
X118039070Y-95660930D01*
X118024654Y-95645024D01*
X118011866Y-95627781D01*
X118000830Y-95609368D01*
X117991651Y-95589962D01*
X117984419Y-95569750D01*
X117979203Y-95548926D01*
X117976053Y-95527691D01*
X117975000Y-95506250D01*
X117975000Y-94993750D01*
X117976053Y-94972309D01*
X117979203Y-94951074D01*
X117984419Y-94930250D01*
X117991651Y-94910038D01*
X118000830Y-94890632D01*
X118011866Y-94872219D01*
X118024654Y-94854976D01*
X118039070Y-94839070D01*
X118054976Y-94824654D01*
X118072219Y-94811866D01*
X118090632Y-94800830D01*
X118110038Y-94791651D01*
X118130250Y-94784419D01*
X118151074Y-94779203D01*
X118172309Y-94776053D01*
X118193750Y-94775000D01*
X118631250Y-94775000D01*
X118652691Y-94776053D01*
X118652691Y-94776053D01*
G37*
D20*
X118412500Y-95250000D03*
D19*
G36*
X120227691Y-94776053D02*
G01*
X120248926Y-94779203D01*
X120269750Y-94784419D01*
X120289962Y-94791651D01*
X120309368Y-94800830D01*
X120327781Y-94811866D01*
X120345024Y-94824654D01*
X120360930Y-94839070D01*
X120375346Y-94854976D01*
X120388134Y-94872219D01*
X120399170Y-94890632D01*
X120408349Y-94910038D01*
X120415581Y-94930250D01*
X120420797Y-94951074D01*
X120423947Y-94972309D01*
X120425000Y-94993750D01*
X120425000Y-95506250D01*
X120423947Y-95527691D01*
X120420797Y-95548926D01*
X120415581Y-95569750D01*
X120408349Y-95589962D01*
X120399170Y-95609368D01*
X120388134Y-95627781D01*
X120375346Y-95645024D01*
X120360930Y-95660930D01*
X120345024Y-95675346D01*
X120327781Y-95688134D01*
X120309368Y-95699170D01*
X120289962Y-95708349D01*
X120269750Y-95715581D01*
X120248926Y-95720797D01*
X120227691Y-95723947D01*
X120206250Y-95725000D01*
X119768750Y-95725000D01*
X119747309Y-95723947D01*
X119726074Y-95720797D01*
X119705250Y-95715581D01*
X119685038Y-95708349D01*
X119665632Y-95699170D01*
X119647219Y-95688134D01*
X119629976Y-95675346D01*
X119614070Y-95660930D01*
X119599654Y-95645024D01*
X119586866Y-95627781D01*
X119575830Y-95609368D01*
X119566651Y-95589962D01*
X119559419Y-95569750D01*
X119554203Y-95548926D01*
X119551053Y-95527691D01*
X119550000Y-95506250D01*
X119550000Y-94993750D01*
X119551053Y-94972309D01*
X119554203Y-94951074D01*
X119559419Y-94930250D01*
X119566651Y-94910038D01*
X119575830Y-94890632D01*
X119586866Y-94872219D01*
X119599654Y-94854976D01*
X119614070Y-94839070D01*
X119629976Y-94824654D01*
X119647219Y-94811866D01*
X119665632Y-94800830D01*
X119685038Y-94791651D01*
X119705250Y-94784419D01*
X119726074Y-94779203D01*
X119747309Y-94776053D01*
X119768750Y-94775000D01*
X120206250Y-94775000D01*
X120227691Y-94776053D01*
X120227691Y-94776053D01*
G37*
D20*
X119987500Y-95250000D03*
D21*
X97000000Y-137849120D03*
X97000000Y-134150880D03*
D22*
X112125220Y-101000000D03*
X109874780Y-101000000D03*
D19*
G36*
X87200691Y-62576053D02*
G01*
X87221926Y-62579203D01*
X87242750Y-62584419D01*
X87262962Y-62591651D01*
X87282368Y-62600830D01*
X87300781Y-62611866D01*
X87318024Y-62624654D01*
X87333930Y-62639070D01*
X87348346Y-62654976D01*
X87361134Y-62672219D01*
X87372170Y-62690632D01*
X87381349Y-62710038D01*
X87388581Y-62730250D01*
X87393797Y-62751074D01*
X87396947Y-62772309D01*
X87398000Y-62793750D01*
X87398000Y-63306250D01*
X87396947Y-63327691D01*
X87393797Y-63348926D01*
X87388581Y-63369750D01*
X87381349Y-63389962D01*
X87372170Y-63409368D01*
X87361134Y-63427781D01*
X87348346Y-63445024D01*
X87333930Y-63460930D01*
X87318024Y-63475346D01*
X87300781Y-63488134D01*
X87282368Y-63499170D01*
X87262962Y-63508349D01*
X87242750Y-63515581D01*
X87221926Y-63520797D01*
X87200691Y-63523947D01*
X87179250Y-63525000D01*
X86741750Y-63525000D01*
X86720309Y-63523947D01*
X86699074Y-63520797D01*
X86678250Y-63515581D01*
X86658038Y-63508349D01*
X86638632Y-63499170D01*
X86620219Y-63488134D01*
X86602976Y-63475346D01*
X86587070Y-63460930D01*
X86572654Y-63445024D01*
X86559866Y-63427781D01*
X86548830Y-63409368D01*
X86539651Y-63389962D01*
X86532419Y-63369750D01*
X86527203Y-63348926D01*
X86524053Y-63327691D01*
X86523000Y-63306250D01*
X86523000Y-62793750D01*
X86524053Y-62772309D01*
X86527203Y-62751074D01*
X86532419Y-62730250D01*
X86539651Y-62710038D01*
X86548830Y-62690632D01*
X86559866Y-62672219D01*
X86572654Y-62654976D01*
X86587070Y-62639070D01*
X86602976Y-62624654D01*
X86620219Y-62611866D01*
X86638632Y-62600830D01*
X86658038Y-62591651D01*
X86678250Y-62584419D01*
X86699074Y-62579203D01*
X86720309Y-62576053D01*
X86741750Y-62575000D01*
X87179250Y-62575000D01*
X87200691Y-62576053D01*
X87200691Y-62576053D01*
G37*
D20*
X86960500Y-63050000D03*
D19*
G36*
X88775691Y-62576053D02*
G01*
X88796926Y-62579203D01*
X88817750Y-62584419D01*
X88837962Y-62591651D01*
X88857368Y-62600830D01*
X88875781Y-62611866D01*
X88893024Y-62624654D01*
X88908930Y-62639070D01*
X88923346Y-62654976D01*
X88936134Y-62672219D01*
X88947170Y-62690632D01*
X88956349Y-62710038D01*
X88963581Y-62730250D01*
X88968797Y-62751074D01*
X88971947Y-62772309D01*
X88973000Y-62793750D01*
X88973000Y-63306250D01*
X88971947Y-63327691D01*
X88968797Y-63348926D01*
X88963581Y-63369750D01*
X88956349Y-63389962D01*
X88947170Y-63409368D01*
X88936134Y-63427781D01*
X88923346Y-63445024D01*
X88908930Y-63460930D01*
X88893024Y-63475346D01*
X88875781Y-63488134D01*
X88857368Y-63499170D01*
X88837962Y-63508349D01*
X88817750Y-63515581D01*
X88796926Y-63520797D01*
X88775691Y-63523947D01*
X88754250Y-63525000D01*
X88316750Y-63525000D01*
X88295309Y-63523947D01*
X88274074Y-63520797D01*
X88253250Y-63515581D01*
X88233038Y-63508349D01*
X88213632Y-63499170D01*
X88195219Y-63488134D01*
X88177976Y-63475346D01*
X88162070Y-63460930D01*
X88147654Y-63445024D01*
X88134866Y-63427781D01*
X88123830Y-63409368D01*
X88114651Y-63389962D01*
X88107419Y-63369750D01*
X88102203Y-63348926D01*
X88099053Y-63327691D01*
X88098000Y-63306250D01*
X88098000Y-62793750D01*
X88099053Y-62772309D01*
X88102203Y-62751074D01*
X88107419Y-62730250D01*
X88114651Y-62710038D01*
X88123830Y-62690632D01*
X88134866Y-62672219D01*
X88147654Y-62654976D01*
X88162070Y-62639070D01*
X88177976Y-62624654D01*
X88195219Y-62611866D01*
X88213632Y-62600830D01*
X88233038Y-62591651D01*
X88253250Y-62584419D01*
X88274074Y-62579203D01*
X88295309Y-62576053D01*
X88316750Y-62575000D01*
X88754250Y-62575000D01*
X88775691Y-62576053D01*
X88775691Y-62576053D01*
G37*
D20*
X88535500Y-63050000D03*
D19*
G36*
X83520191Y-62536053D02*
G01*
X83541426Y-62539203D01*
X83562250Y-62544419D01*
X83582462Y-62551651D01*
X83601868Y-62560830D01*
X83620281Y-62571866D01*
X83637524Y-62584654D01*
X83653430Y-62599070D01*
X83667846Y-62614976D01*
X83680634Y-62632219D01*
X83691670Y-62650632D01*
X83700849Y-62670038D01*
X83708081Y-62690250D01*
X83713297Y-62711074D01*
X83716447Y-62732309D01*
X83717500Y-62753750D01*
X83717500Y-63266250D01*
X83716447Y-63287691D01*
X83713297Y-63308926D01*
X83708081Y-63329750D01*
X83700849Y-63349962D01*
X83691670Y-63369368D01*
X83680634Y-63387781D01*
X83667846Y-63405024D01*
X83653430Y-63420930D01*
X83637524Y-63435346D01*
X83620281Y-63448134D01*
X83601868Y-63459170D01*
X83582462Y-63468349D01*
X83562250Y-63475581D01*
X83541426Y-63480797D01*
X83520191Y-63483947D01*
X83498750Y-63485000D01*
X83061250Y-63485000D01*
X83039809Y-63483947D01*
X83018574Y-63480797D01*
X82997750Y-63475581D01*
X82977538Y-63468349D01*
X82958132Y-63459170D01*
X82939719Y-63448134D01*
X82922476Y-63435346D01*
X82906570Y-63420930D01*
X82892154Y-63405024D01*
X82879366Y-63387781D01*
X82868330Y-63369368D01*
X82859151Y-63349962D01*
X82851919Y-63329750D01*
X82846703Y-63308926D01*
X82843553Y-63287691D01*
X82842500Y-63266250D01*
X82842500Y-62753750D01*
X82843553Y-62732309D01*
X82846703Y-62711074D01*
X82851919Y-62690250D01*
X82859151Y-62670038D01*
X82868330Y-62650632D01*
X82879366Y-62632219D01*
X82892154Y-62614976D01*
X82906570Y-62599070D01*
X82922476Y-62584654D01*
X82939719Y-62571866D01*
X82958132Y-62560830D01*
X82977538Y-62551651D01*
X82997750Y-62544419D01*
X83018574Y-62539203D01*
X83039809Y-62536053D01*
X83061250Y-62535000D01*
X83498750Y-62535000D01*
X83520191Y-62536053D01*
X83520191Y-62536053D01*
G37*
D20*
X83280000Y-63010000D03*
D19*
G36*
X81945191Y-62536053D02*
G01*
X81966426Y-62539203D01*
X81987250Y-62544419D01*
X82007462Y-62551651D01*
X82026868Y-62560830D01*
X82045281Y-62571866D01*
X82062524Y-62584654D01*
X82078430Y-62599070D01*
X82092846Y-62614976D01*
X82105634Y-62632219D01*
X82116670Y-62650632D01*
X82125849Y-62670038D01*
X82133081Y-62690250D01*
X82138297Y-62711074D01*
X82141447Y-62732309D01*
X82142500Y-62753750D01*
X82142500Y-63266250D01*
X82141447Y-63287691D01*
X82138297Y-63308926D01*
X82133081Y-63329750D01*
X82125849Y-63349962D01*
X82116670Y-63369368D01*
X82105634Y-63387781D01*
X82092846Y-63405024D01*
X82078430Y-63420930D01*
X82062524Y-63435346D01*
X82045281Y-63448134D01*
X82026868Y-63459170D01*
X82007462Y-63468349D01*
X81987250Y-63475581D01*
X81966426Y-63480797D01*
X81945191Y-63483947D01*
X81923750Y-63485000D01*
X81486250Y-63485000D01*
X81464809Y-63483947D01*
X81443574Y-63480797D01*
X81422750Y-63475581D01*
X81402538Y-63468349D01*
X81383132Y-63459170D01*
X81364719Y-63448134D01*
X81347476Y-63435346D01*
X81331570Y-63420930D01*
X81317154Y-63405024D01*
X81304366Y-63387781D01*
X81293330Y-63369368D01*
X81284151Y-63349962D01*
X81276919Y-63329750D01*
X81271703Y-63308926D01*
X81268553Y-63287691D01*
X81267500Y-63266250D01*
X81267500Y-62753750D01*
X81268553Y-62732309D01*
X81271703Y-62711074D01*
X81276919Y-62690250D01*
X81284151Y-62670038D01*
X81293330Y-62650632D01*
X81304366Y-62632219D01*
X81317154Y-62614976D01*
X81331570Y-62599070D01*
X81347476Y-62584654D01*
X81364719Y-62571866D01*
X81383132Y-62560830D01*
X81402538Y-62551651D01*
X81422750Y-62544419D01*
X81443574Y-62539203D01*
X81464809Y-62536053D01*
X81486250Y-62535000D01*
X81923750Y-62535000D01*
X81945191Y-62536053D01*
X81945191Y-62536053D01*
G37*
D20*
X81705000Y-63010000D03*
D23*
X87449960Y-138701780D03*
X85550040Y-138701780D03*
X86500000Y-140698220D03*
X90800000Y-133501780D03*
X91749960Y-135498220D03*
X89850040Y-135498220D03*
D19*
G36*
X74600691Y-107776053D02*
G01*
X74621926Y-107779203D01*
X74642750Y-107784419D01*
X74662962Y-107791651D01*
X74682368Y-107800830D01*
X74700781Y-107811866D01*
X74718024Y-107824654D01*
X74733930Y-107839070D01*
X74748346Y-107854976D01*
X74761134Y-107872219D01*
X74772170Y-107890632D01*
X74781349Y-107910038D01*
X74788581Y-107930250D01*
X74793797Y-107951074D01*
X74796947Y-107972309D01*
X74798000Y-107993750D01*
X74798000Y-108506250D01*
X74796947Y-108527691D01*
X74793797Y-108548926D01*
X74788581Y-108569750D01*
X74781349Y-108589962D01*
X74772170Y-108609368D01*
X74761134Y-108627781D01*
X74748346Y-108645024D01*
X74733930Y-108660930D01*
X74718024Y-108675346D01*
X74700781Y-108688134D01*
X74682368Y-108699170D01*
X74662962Y-108708349D01*
X74642750Y-108715581D01*
X74621926Y-108720797D01*
X74600691Y-108723947D01*
X74579250Y-108725000D01*
X74141750Y-108725000D01*
X74120309Y-108723947D01*
X74099074Y-108720797D01*
X74078250Y-108715581D01*
X74058038Y-108708349D01*
X74038632Y-108699170D01*
X74020219Y-108688134D01*
X74002976Y-108675346D01*
X73987070Y-108660930D01*
X73972654Y-108645024D01*
X73959866Y-108627781D01*
X73948830Y-108609368D01*
X73939651Y-108589962D01*
X73932419Y-108569750D01*
X73927203Y-108548926D01*
X73924053Y-108527691D01*
X73923000Y-108506250D01*
X73923000Y-107993750D01*
X73924053Y-107972309D01*
X73927203Y-107951074D01*
X73932419Y-107930250D01*
X73939651Y-107910038D01*
X73948830Y-107890632D01*
X73959866Y-107872219D01*
X73972654Y-107854976D01*
X73987070Y-107839070D01*
X74002976Y-107824654D01*
X74020219Y-107811866D01*
X74038632Y-107800830D01*
X74058038Y-107791651D01*
X74078250Y-107784419D01*
X74099074Y-107779203D01*
X74120309Y-107776053D01*
X74141750Y-107775000D01*
X74579250Y-107775000D01*
X74600691Y-107776053D01*
X74600691Y-107776053D01*
G37*
D20*
X74360500Y-108250000D03*
D19*
G36*
X76175691Y-107776053D02*
G01*
X76196926Y-107779203D01*
X76217750Y-107784419D01*
X76237962Y-107791651D01*
X76257368Y-107800830D01*
X76275781Y-107811866D01*
X76293024Y-107824654D01*
X76308930Y-107839070D01*
X76323346Y-107854976D01*
X76336134Y-107872219D01*
X76347170Y-107890632D01*
X76356349Y-107910038D01*
X76363581Y-107930250D01*
X76368797Y-107951074D01*
X76371947Y-107972309D01*
X76373000Y-107993750D01*
X76373000Y-108506250D01*
X76371947Y-108527691D01*
X76368797Y-108548926D01*
X76363581Y-108569750D01*
X76356349Y-108589962D01*
X76347170Y-108609368D01*
X76336134Y-108627781D01*
X76323346Y-108645024D01*
X76308930Y-108660930D01*
X76293024Y-108675346D01*
X76275781Y-108688134D01*
X76257368Y-108699170D01*
X76237962Y-108708349D01*
X76217750Y-108715581D01*
X76196926Y-108720797D01*
X76175691Y-108723947D01*
X76154250Y-108725000D01*
X75716750Y-108725000D01*
X75695309Y-108723947D01*
X75674074Y-108720797D01*
X75653250Y-108715581D01*
X75633038Y-108708349D01*
X75613632Y-108699170D01*
X75595219Y-108688134D01*
X75577976Y-108675346D01*
X75562070Y-108660930D01*
X75547654Y-108645024D01*
X75534866Y-108627781D01*
X75523830Y-108609368D01*
X75514651Y-108589962D01*
X75507419Y-108569750D01*
X75502203Y-108548926D01*
X75499053Y-108527691D01*
X75498000Y-108506250D01*
X75498000Y-107993750D01*
X75499053Y-107972309D01*
X75502203Y-107951074D01*
X75507419Y-107930250D01*
X75514651Y-107910038D01*
X75523830Y-107890632D01*
X75534866Y-107872219D01*
X75547654Y-107854976D01*
X75562070Y-107839070D01*
X75577976Y-107824654D01*
X75595219Y-107811866D01*
X75613632Y-107800830D01*
X75633038Y-107791651D01*
X75653250Y-107784419D01*
X75674074Y-107779203D01*
X75695309Y-107776053D01*
X75716750Y-107775000D01*
X76154250Y-107775000D01*
X76175691Y-107776053D01*
X76175691Y-107776053D01*
G37*
D20*
X75935500Y-108250000D03*
D19*
G36*
X76240191Y-110824053D02*
G01*
X76261426Y-110827203D01*
X76282250Y-110832419D01*
X76302462Y-110839651D01*
X76321868Y-110848830D01*
X76340281Y-110859866D01*
X76357524Y-110872654D01*
X76373430Y-110887070D01*
X76387846Y-110902976D01*
X76400634Y-110920219D01*
X76411670Y-110938632D01*
X76420849Y-110958038D01*
X76428081Y-110978250D01*
X76433297Y-110999074D01*
X76436447Y-111020309D01*
X76437500Y-111041750D01*
X76437500Y-111554250D01*
X76436447Y-111575691D01*
X76433297Y-111596926D01*
X76428081Y-111617750D01*
X76420849Y-111637962D01*
X76411670Y-111657368D01*
X76400634Y-111675781D01*
X76387846Y-111693024D01*
X76373430Y-111708930D01*
X76357524Y-111723346D01*
X76340281Y-111736134D01*
X76321868Y-111747170D01*
X76302462Y-111756349D01*
X76282250Y-111763581D01*
X76261426Y-111768797D01*
X76240191Y-111771947D01*
X76218750Y-111773000D01*
X75781250Y-111773000D01*
X75759809Y-111771947D01*
X75738574Y-111768797D01*
X75717750Y-111763581D01*
X75697538Y-111756349D01*
X75678132Y-111747170D01*
X75659719Y-111736134D01*
X75642476Y-111723346D01*
X75626570Y-111708930D01*
X75612154Y-111693024D01*
X75599366Y-111675781D01*
X75588330Y-111657368D01*
X75579151Y-111637962D01*
X75571919Y-111617750D01*
X75566703Y-111596926D01*
X75563553Y-111575691D01*
X75562500Y-111554250D01*
X75562500Y-111041750D01*
X75563553Y-111020309D01*
X75566703Y-110999074D01*
X75571919Y-110978250D01*
X75579151Y-110958038D01*
X75588330Y-110938632D01*
X75599366Y-110920219D01*
X75612154Y-110902976D01*
X75626570Y-110887070D01*
X75642476Y-110872654D01*
X75659719Y-110859866D01*
X75678132Y-110848830D01*
X75697538Y-110839651D01*
X75717750Y-110832419D01*
X75738574Y-110827203D01*
X75759809Y-110824053D01*
X75781250Y-110823000D01*
X76218750Y-110823000D01*
X76240191Y-110824053D01*
X76240191Y-110824053D01*
G37*
D20*
X76000000Y-111298000D03*
D19*
G36*
X74665191Y-110824053D02*
G01*
X74686426Y-110827203D01*
X74707250Y-110832419D01*
X74727462Y-110839651D01*
X74746868Y-110848830D01*
X74765281Y-110859866D01*
X74782524Y-110872654D01*
X74798430Y-110887070D01*
X74812846Y-110902976D01*
X74825634Y-110920219D01*
X74836670Y-110938632D01*
X74845849Y-110958038D01*
X74853081Y-110978250D01*
X74858297Y-110999074D01*
X74861447Y-111020309D01*
X74862500Y-111041750D01*
X74862500Y-111554250D01*
X74861447Y-111575691D01*
X74858297Y-111596926D01*
X74853081Y-111617750D01*
X74845849Y-111637962D01*
X74836670Y-111657368D01*
X74825634Y-111675781D01*
X74812846Y-111693024D01*
X74798430Y-111708930D01*
X74782524Y-111723346D01*
X74765281Y-111736134D01*
X74746868Y-111747170D01*
X74727462Y-111756349D01*
X74707250Y-111763581D01*
X74686426Y-111768797D01*
X74665191Y-111771947D01*
X74643750Y-111773000D01*
X74206250Y-111773000D01*
X74184809Y-111771947D01*
X74163574Y-111768797D01*
X74142750Y-111763581D01*
X74122538Y-111756349D01*
X74103132Y-111747170D01*
X74084719Y-111736134D01*
X74067476Y-111723346D01*
X74051570Y-111708930D01*
X74037154Y-111693024D01*
X74024366Y-111675781D01*
X74013330Y-111657368D01*
X74004151Y-111637962D01*
X73996919Y-111617750D01*
X73991703Y-111596926D01*
X73988553Y-111575691D01*
X73987500Y-111554250D01*
X73987500Y-111041750D01*
X73988553Y-111020309D01*
X73991703Y-110999074D01*
X73996919Y-110978250D01*
X74004151Y-110958038D01*
X74013330Y-110938632D01*
X74024366Y-110920219D01*
X74037154Y-110902976D01*
X74051570Y-110887070D01*
X74067476Y-110872654D01*
X74084719Y-110859866D01*
X74103132Y-110848830D01*
X74122538Y-110839651D01*
X74142750Y-110832419D01*
X74163574Y-110827203D01*
X74184809Y-110824053D01*
X74206250Y-110823000D01*
X74643750Y-110823000D01*
X74665191Y-110824053D01*
X74665191Y-110824053D01*
G37*
D20*
X74425000Y-111298000D03*
D19*
G36*
X111277691Y-110351053D02*
G01*
X111298926Y-110354203D01*
X111319750Y-110359419D01*
X111339962Y-110366651D01*
X111359368Y-110375830D01*
X111377781Y-110386866D01*
X111395024Y-110399654D01*
X111410930Y-110414070D01*
X111425346Y-110429976D01*
X111438134Y-110447219D01*
X111449170Y-110465632D01*
X111458349Y-110485038D01*
X111465581Y-110505250D01*
X111470797Y-110526074D01*
X111473947Y-110547309D01*
X111475000Y-110568750D01*
X111475000Y-111006250D01*
X111473947Y-111027691D01*
X111470797Y-111048926D01*
X111465581Y-111069750D01*
X111458349Y-111089962D01*
X111449170Y-111109368D01*
X111438134Y-111127781D01*
X111425346Y-111145024D01*
X111410930Y-111160930D01*
X111395024Y-111175346D01*
X111377781Y-111188134D01*
X111359368Y-111199170D01*
X111339962Y-111208349D01*
X111319750Y-111215581D01*
X111298926Y-111220797D01*
X111277691Y-111223947D01*
X111256250Y-111225000D01*
X110743750Y-111225000D01*
X110722309Y-111223947D01*
X110701074Y-111220797D01*
X110680250Y-111215581D01*
X110660038Y-111208349D01*
X110640632Y-111199170D01*
X110622219Y-111188134D01*
X110604976Y-111175346D01*
X110589070Y-111160930D01*
X110574654Y-111145024D01*
X110561866Y-111127781D01*
X110550830Y-111109368D01*
X110541651Y-111089962D01*
X110534419Y-111069750D01*
X110529203Y-111048926D01*
X110526053Y-111027691D01*
X110525000Y-111006250D01*
X110525000Y-110568750D01*
X110526053Y-110547309D01*
X110529203Y-110526074D01*
X110534419Y-110505250D01*
X110541651Y-110485038D01*
X110550830Y-110465632D01*
X110561866Y-110447219D01*
X110574654Y-110429976D01*
X110589070Y-110414070D01*
X110604976Y-110399654D01*
X110622219Y-110386866D01*
X110640632Y-110375830D01*
X110660038Y-110366651D01*
X110680250Y-110359419D01*
X110701074Y-110354203D01*
X110722309Y-110351053D01*
X110743750Y-110350000D01*
X111256250Y-110350000D01*
X111277691Y-110351053D01*
X111277691Y-110351053D01*
G37*
D20*
X111000000Y-110787500D03*
D19*
G36*
X111277691Y-108776053D02*
G01*
X111298926Y-108779203D01*
X111319750Y-108784419D01*
X111339962Y-108791651D01*
X111359368Y-108800830D01*
X111377781Y-108811866D01*
X111395024Y-108824654D01*
X111410930Y-108839070D01*
X111425346Y-108854976D01*
X111438134Y-108872219D01*
X111449170Y-108890632D01*
X111458349Y-108910038D01*
X111465581Y-108930250D01*
X111470797Y-108951074D01*
X111473947Y-108972309D01*
X111475000Y-108993750D01*
X111475000Y-109431250D01*
X111473947Y-109452691D01*
X111470797Y-109473926D01*
X111465581Y-109494750D01*
X111458349Y-109514962D01*
X111449170Y-109534368D01*
X111438134Y-109552781D01*
X111425346Y-109570024D01*
X111410930Y-109585930D01*
X111395024Y-109600346D01*
X111377781Y-109613134D01*
X111359368Y-109624170D01*
X111339962Y-109633349D01*
X111319750Y-109640581D01*
X111298926Y-109645797D01*
X111277691Y-109648947D01*
X111256250Y-109650000D01*
X110743750Y-109650000D01*
X110722309Y-109648947D01*
X110701074Y-109645797D01*
X110680250Y-109640581D01*
X110660038Y-109633349D01*
X110640632Y-109624170D01*
X110622219Y-109613134D01*
X110604976Y-109600346D01*
X110589070Y-109585930D01*
X110574654Y-109570024D01*
X110561866Y-109552781D01*
X110550830Y-109534368D01*
X110541651Y-109514962D01*
X110534419Y-109494750D01*
X110529203Y-109473926D01*
X110526053Y-109452691D01*
X110525000Y-109431250D01*
X110525000Y-108993750D01*
X110526053Y-108972309D01*
X110529203Y-108951074D01*
X110534419Y-108930250D01*
X110541651Y-108910038D01*
X110550830Y-108890632D01*
X110561866Y-108872219D01*
X110574654Y-108854976D01*
X110589070Y-108839070D01*
X110604976Y-108824654D01*
X110622219Y-108811866D01*
X110640632Y-108800830D01*
X110660038Y-108791651D01*
X110680250Y-108784419D01*
X110701074Y-108779203D01*
X110722309Y-108776053D01*
X110743750Y-108775000D01*
X111256250Y-108775000D01*
X111277691Y-108776053D01*
X111277691Y-108776053D01*
G37*
D20*
X111000000Y-109212500D03*
D19*
G36*
X74377691Y-102539053D02*
G01*
X74398926Y-102542203D01*
X74419750Y-102547419D01*
X74439962Y-102554651D01*
X74459368Y-102563830D01*
X74477781Y-102574866D01*
X74495024Y-102587654D01*
X74510930Y-102602070D01*
X74525346Y-102617976D01*
X74538134Y-102635219D01*
X74549170Y-102653632D01*
X74558349Y-102673038D01*
X74565581Y-102693250D01*
X74570797Y-102714074D01*
X74573947Y-102735309D01*
X74575000Y-102756750D01*
X74575000Y-103194250D01*
X74573947Y-103215691D01*
X74570797Y-103236926D01*
X74565581Y-103257750D01*
X74558349Y-103277962D01*
X74549170Y-103297368D01*
X74538134Y-103315781D01*
X74525346Y-103333024D01*
X74510930Y-103348930D01*
X74495024Y-103363346D01*
X74477781Y-103376134D01*
X74459368Y-103387170D01*
X74439962Y-103396349D01*
X74419750Y-103403581D01*
X74398926Y-103408797D01*
X74377691Y-103411947D01*
X74356250Y-103413000D01*
X73843750Y-103413000D01*
X73822309Y-103411947D01*
X73801074Y-103408797D01*
X73780250Y-103403581D01*
X73760038Y-103396349D01*
X73740632Y-103387170D01*
X73722219Y-103376134D01*
X73704976Y-103363346D01*
X73689070Y-103348930D01*
X73674654Y-103333024D01*
X73661866Y-103315781D01*
X73650830Y-103297368D01*
X73641651Y-103277962D01*
X73634419Y-103257750D01*
X73629203Y-103236926D01*
X73626053Y-103215691D01*
X73625000Y-103194250D01*
X73625000Y-102756750D01*
X73626053Y-102735309D01*
X73629203Y-102714074D01*
X73634419Y-102693250D01*
X73641651Y-102673038D01*
X73650830Y-102653632D01*
X73661866Y-102635219D01*
X73674654Y-102617976D01*
X73689070Y-102602070D01*
X73704976Y-102587654D01*
X73722219Y-102574866D01*
X73740632Y-102563830D01*
X73760038Y-102554651D01*
X73780250Y-102547419D01*
X73801074Y-102542203D01*
X73822309Y-102539053D01*
X73843750Y-102538000D01*
X74356250Y-102538000D01*
X74377691Y-102539053D01*
X74377691Y-102539053D01*
G37*
D20*
X74100000Y-102975500D03*
D19*
G36*
X74377691Y-100964053D02*
G01*
X74398926Y-100967203D01*
X74419750Y-100972419D01*
X74439962Y-100979651D01*
X74459368Y-100988830D01*
X74477781Y-100999866D01*
X74495024Y-101012654D01*
X74510930Y-101027070D01*
X74525346Y-101042976D01*
X74538134Y-101060219D01*
X74549170Y-101078632D01*
X74558349Y-101098038D01*
X74565581Y-101118250D01*
X74570797Y-101139074D01*
X74573947Y-101160309D01*
X74575000Y-101181750D01*
X74575000Y-101619250D01*
X74573947Y-101640691D01*
X74570797Y-101661926D01*
X74565581Y-101682750D01*
X74558349Y-101702962D01*
X74549170Y-101722368D01*
X74538134Y-101740781D01*
X74525346Y-101758024D01*
X74510930Y-101773930D01*
X74495024Y-101788346D01*
X74477781Y-101801134D01*
X74459368Y-101812170D01*
X74439962Y-101821349D01*
X74419750Y-101828581D01*
X74398926Y-101833797D01*
X74377691Y-101836947D01*
X74356250Y-101838000D01*
X73843750Y-101838000D01*
X73822309Y-101836947D01*
X73801074Y-101833797D01*
X73780250Y-101828581D01*
X73760038Y-101821349D01*
X73740632Y-101812170D01*
X73722219Y-101801134D01*
X73704976Y-101788346D01*
X73689070Y-101773930D01*
X73674654Y-101758024D01*
X73661866Y-101740781D01*
X73650830Y-101722368D01*
X73641651Y-101702962D01*
X73634419Y-101682750D01*
X73629203Y-101661926D01*
X73626053Y-101640691D01*
X73625000Y-101619250D01*
X73625000Y-101181750D01*
X73626053Y-101160309D01*
X73629203Y-101139074D01*
X73634419Y-101118250D01*
X73641651Y-101098038D01*
X73650830Y-101078632D01*
X73661866Y-101060219D01*
X73674654Y-101042976D01*
X73689070Y-101027070D01*
X73704976Y-101012654D01*
X73722219Y-100999866D01*
X73740632Y-100988830D01*
X73760038Y-100979651D01*
X73780250Y-100972419D01*
X73801074Y-100967203D01*
X73822309Y-100964053D01*
X73843750Y-100963000D01*
X74356250Y-100963000D01*
X74377691Y-100964053D01*
X74377691Y-100964053D01*
G37*
D20*
X74100000Y-101400500D03*
D19*
G36*
X113277691Y-108776053D02*
G01*
X113298926Y-108779203D01*
X113319750Y-108784419D01*
X113339962Y-108791651D01*
X113359368Y-108800830D01*
X113377781Y-108811866D01*
X113395024Y-108824654D01*
X113410930Y-108839070D01*
X113425346Y-108854976D01*
X113438134Y-108872219D01*
X113449170Y-108890632D01*
X113458349Y-108910038D01*
X113465581Y-108930250D01*
X113470797Y-108951074D01*
X113473947Y-108972309D01*
X113475000Y-108993750D01*
X113475000Y-109431250D01*
X113473947Y-109452691D01*
X113470797Y-109473926D01*
X113465581Y-109494750D01*
X113458349Y-109514962D01*
X113449170Y-109534368D01*
X113438134Y-109552781D01*
X113425346Y-109570024D01*
X113410930Y-109585930D01*
X113395024Y-109600346D01*
X113377781Y-109613134D01*
X113359368Y-109624170D01*
X113339962Y-109633349D01*
X113319750Y-109640581D01*
X113298926Y-109645797D01*
X113277691Y-109648947D01*
X113256250Y-109650000D01*
X112743750Y-109650000D01*
X112722309Y-109648947D01*
X112701074Y-109645797D01*
X112680250Y-109640581D01*
X112660038Y-109633349D01*
X112640632Y-109624170D01*
X112622219Y-109613134D01*
X112604976Y-109600346D01*
X112589070Y-109585930D01*
X112574654Y-109570024D01*
X112561866Y-109552781D01*
X112550830Y-109534368D01*
X112541651Y-109514962D01*
X112534419Y-109494750D01*
X112529203Y-109473926D01*
X112526053Y-109452691D01*
X112525000Y-109431250D01*
X112525000Y-108993750D01*
X112526053Y-108972309D01*
X112529203Y-108951074D01*
X112534419Y-108930250D01*
X112541651Y-108910038D01*
X112550830Y-108890632D01*
X112561866Y-108872219D01*
X112574654Y-108854976D01*
X112589070Y-108839070D01*
X112604976Y-108824654D01*
X112622219Y-108811866D01*
X112640632Y-108800830D01*
X112660038Y-108791651D01*
X112680250Y-108784419D01*
X112701074Y-108779203D01*
X112722309Y-108776053D01*
X112743750Y-108775000D01*
X113256250Y-108775000D01*
X113277691Y-108776053D01*
X113277691Y-108776053D01*
G37*
D20*
X113000000Y-109212500D03*
D19*
G36*
X113277691Y-110351053D02*
G01*
X113298926Y-110354203D01*
X113319750Y-110359419D01*
X113339962Y-110366651D01*
X113359368Y-110375830D01*
X113377781Y-110386866D01*
X113395024Y-110399654D01*
X113410930Y-110414070D01*
X113425346Y-110429976D01*
X113438134Y-110447219D01*
X113449170Y-110465632D01*
X113458349Y-110485038D01*
X113465581Y-110505250D01*
X113470797Y-110526074D01*
X113473947Y-110547309D01*
X113475000Y-110568750D01*
X113475000Y-111006250D01*
X113473947Y-111027691D01*
X113470797Y-111048926D01*
X113465581Y-111069750D01*
X113458349Y-111089962D01*
X113449170Y-111109368D01*
X113438134Y-111127781D01*
X113425346Y-111145024D01*
X113410930Y-111160930D01*
X113395024Y-111175346D01*
X113377781Y-111188134D01*
X113359368Y-111199170D01*
X113339962Y-111208349D01*
X113319750Y-111215581D01*
X113298926Y-111220797D01*
X113277691Y-111223947D01*
X113256250Y-111225000D01*
X112743750Y-111225000D01*
X112722309Y-111223947D01*
X112701074Y-111220797D01*
X112680250Y-111215581D01*
X112660038Y-111208349D01*
X112640632Y-111199170D01*
X112622219Y-111188134D01*
X112604976Y-111175346D01*
X112589070Y-111160930D01*
X112574654Y-111145024D01*
X112561866Y-111127781D01*
X112550830Y-111109368D01*
X112541651Y-111089962D01*
X112534419Y-111069750D01*
X112529203Y-111048926D01*
X112526053Y-111027691D01*
X112525000Y-111006250D01*
X112525000Y-110568750D01*
X112526053Y-110547309D01*
X112529203Y-110526074D01*
X112534419Y-110505250D01*
X112541651Y-110485038D01*
X112550830Y-110465632D01*
X112561866Y-110447219D01*
X112574654Y-110429976D01*
X112589070Y-110414070D01*
X112604976Y-110399654D01*
X112622219Y-110386866D01*
X112640632Y-110375830D01*
X112660038Y-110366651D01*
X112680250Y-110359419D01*
X112701074Y-110354203D01*
X112722309Y-110351053D01*
X112743750Y-110350000D01*
X113256250Y-110350000D01*
X113277691Y-110351053D01*
X113277691Y-110351053D01*
G37*
D20*
X113000000Y-110787500D03*
D19*
G36*
X90277691Y-139776053D02*
G01*
X90298926Y-139779203D01*
X90319750Y-139784419D01*
X90339962Y-139791651D01*
X90359368Y-139800830D01*
X90377781Y-139811866D01*
X90395024Y-139824654D01*
X90410930Y-139839070D01*
X90425346Y-139854976D01*
X90438134Y-139872219D01*
X90449170Y-139890632D01*
X90458349Y-139910038D01*
X90465581Y-139930250D01*
X90470797Y-139951074D01*
X90473947Y-139972309D01*
X90475000Y-139993750D01*
X90475000Y-140431250D01*
X90473947Y-140452691D01*
X90470797Y-140473926D01*
X90465581Y-140494750D01*
X90458349Y-140514962D01*
X90449170Y-140534368D01*
X90438134Y-140552781D01*
X90425346Y-140570024D01*
X90410930Y-140585930D01*
X90395024Y-140600346D01*
X90377781Y-140613134D01*
X90359368Y-140624170D01*
X90339962Y-140633349D01*
X90319750Y-140640581D01*
X90298926Y-140645797D01*
X90277691Y-140648947D01*
X90256250Y-140650000D01*
X89743750Y-140650000D01*
X89722309Y-140648947D01*
X89701074Y-140645797D01*
X89680250Y-140640581D01*
X89660038Y-140633349D01*
X89640632Y-140624170D01*
X89622219Y-140613134D01*
X89604976Y-140600346D01*
X89589070Y-140585930D01*
X89574654Y-140570024D01*
X89561866Y-140552781D01*
X89550830Y-140534368D01*
X89541651Y-140514962D01*
X89534419Y-140494750D01*
X89529203Y-140473926D01*
X89526053Y-140452691D01*
X89525000Y-140431250D01*
X89525000Y-139993750D01*
X89526053Y-139972309D01*
X89529203Y-139951074D01*
X89534419Y-139930250D01*
X89541651Y-139910038D01*
X89550830Y-139890632D01*
X89561866Y-139872219D01*
X89574654Y-139854976D01*
X89589070Y-139839070D01*
X89604976Y-139824654D01*
X89622219Y-139811866D01*
X89640632Y-139800830D01*
X89660038Y-139791651D01*
X89680250Y-139784419D01*
X89701074Y-139779203D01*
X89722309Y-139776053D01*
X89743750Y-139775000D01*
X90256250Y-139775000D01*
X90277691Y-139776053D01*
X90277691Y-139776053D01*
G37*
D20*
X90000000Y-140212500D03*
D19*
G36*
X90277691Y-141351053D02*
G01*
X90298926Y-141354203D01*
X90319750Y-141359419D01*
X90339962Y-141366651D01*
X90359368Y-141375830D01*
X90377781Y-141386866D01*
X90395024Y-141399654D01*
X90410930Y-141414070D01*
X90425346Y-141429976D01*
X90438134Y-141447219D01*
X90449170Y-141465632D01*
X90458349Y-141485038D01*
X90465581Y-141505250D01*
X90470797Y-141526074D01*
X90473947Y-141547309D01*
X90475000Y-141568750D01*
X90475000Y-142006250D01*
X90473947Y-142027691D01*
X90470797Y-142048926D01*
X90465581Y-142069750D01*
X90458349Y-142089962D01*
X90449170Y-142109368D01*
X90438134Y-142127781D01*
X90425346Y-142145024D01*
X90410930Y-142160930D01*
X90395024Y-142175346D01*
X90377781Y-142188134D01*
X90359368Y-142199170D01*
X90339962Y-142208349D01*
X90319750Y-142215581D01*
X90298926Y-142220797D01*
X90277691Y-142223947D01*
X90256250Y-142225000D01*
X89743750Y-142225000D01*
X89722309Y-142223947D01*
X89701074Y-142220797D01*
X89680250Y-142215581D01*
X89660038Y-142208349D01*
X89640632Y-142199170D01*
X89622219Y-142188134D01*
X89604976Y-142175346D01*
X89589070Y-142160930D01*
X89574654Y-142145024D01*
X89561866Y-142127781D01*
X89550830Y-142109368D01*
X89541651Y-142089962D01*
X89534419Y-142069750D01*
X89529203Y-142048926D01*
X89526053Y-142027691D01*
X89525000Y-142006250D01*
X89525000Y-141568750D01*
X89526053Y-141547309D01*
X89529203Y-141526074D01*
X89534419Y-141505250D01*
X89541651Y-141485038D01*
X89550830Y-141465632D01*
X89561866Y-141447219D01*
X89574654Y-141429976D01*
X89589070Y-141414070D01*
X89604976Y-141399654D01*
X89622219Y-141386866D01*
X89640632Y-141375830D01*
X89660038Y-141366651D01*
X89680250Y-141359419D01*
X89701074Y-141354203D01*
X89722309Y-141351053D01*
X89743750Y-141350000D01*
X90256250Y-141350000D01*
X90277691Y-141351053D01*
X90277691Y-141351053D01*
G37*
D20*
X90000000Y-141787500D03*
D19*
G36*
X108277691Y-136776053D02*
G01*
X108298926Y-136779203D01*
X108319750Y-136784419D01*
X108339962Y-136791651D01*
X108359368Y-136800830D01*
X108377781Y-136811866D01*
X108395024Y-136824654D01*
X108410930Y-136839070D01*
X108425346Y-136854976D01*
X108438134Y-136872219D01*
X108449170Y-136890632D01*
X108458349Y-136910038D01*
X108465581Y-136930250D01*
X108470797Y-136951074D01*
X108473947Y-136972309D01*
X108475000Y-136993750D01*
X108475000Y-137431250D01*
X108473947Y-137452691D01*
X108470797Y-137473926D01*
X108465581Y-137494750D01*
X108458349Y-137514962D01*
X108449170Y-137534368D01*
X108438134Y-137552781D01*
X108425346Y-137570024D01*
X108410930Y-137585930D01*
X108395024Y-137600346D01*
X108377781Y-137613134D01*
X108359368Y-137624170D01*
X108339962Y-137633349D01*
X108319750Y-137640581D01*
X108298926Y-137645797D01*
X108277691Y-137648947D01*
X108256250Y-137650000D01*
X107743750Y-137650000D01*
X107722309Y-137648947D01*
X107701074Y-137645797D01*
X107680250Y-137640581D01*
X107660038Y-137633349D01*
X107640632Y-137624170D01*
X107622219Y-137613134D01*
X107604976Y-137600346D01*
X107589070Y-137585930D01*
X107574654Y-137570024D01*
X107561866Y-137552781D01*
X107550830Y-137534368D01*
X107541651Y-137514962D01*
X107534419Y-137494750D01*
X107529203Y-137473926D01*
X107526053Y-137452691D01*
X107525000Y-137431250D01*
X107525000Y-136993750D01*
X107526053Y-136972309D01*
X107529203Y-136951074D01*
X107534419Y-136930250D01*
X107541651Y-136910038D01*
X107550830Y-136890632D01*
X107561866Y-136872219D01*
X107574654Y-136854976D01*
X107589070Y-136839070D01*
X107604976Y-136824654D01*
X107622219Y-136811866D01*
X107640632Y-136800830D01*
X107660038Y-136791651D01*
X107680250Y-136784419D01*
X107701074Y-136779203D01*
X107722309Y-136776053D01*
X107743750Y-136775000D01*
X108256250Y-136775000D01*
X108277691Y-136776053D01*
X108277691Y-136776053D01*
G37*
D20*
X108000000Y-137212500D03*
D19*
G36*
X108277691Y-138351053D02*
G01*
X108298926Y-138354203D01*
X108319750Y-138359419D01*
X108339962Y-138366651D01*
X108359368Y-138375830D01*
X108377781Y-138386866D01*
X108395024Y-138399654D01*
X108410930Y-138414070D01*
X108425346Y-138429976D01*
X108438134Y-138447219D01*
X108449170Y-138465632D01*
X108458349Y-138485038D01*
X108465581Y-138505250D01*
X108470797Y-138526074D01*
X108473947Y-138547309D01*
X108475000Y-138568750D01*
X108475000Y-139006250D01*
X108473947Y-139027691D01*
X108470797Y-139048926D01*
X108465581Y-139069750D01*
X108458349Y-139089962D01*
X108449170Y-139109368D01*
X108438134Y-139127781D01*
X108425346Y-139145024D01*
X108410930Y-139160930D01*
X108395024Y-139175346D01*
X108377781Y-139188134D01*
X108359368Y-139199170D01*
X108339962Y-139208349D01*
X108319750Y-139215581D01*
X108298926Y-139220797D01*
X108277691Y-139223947D01*
X108256250Y-139225000D01*
X107743750Y-139225000D01*
X107722309Y-139223947D01*
X107701074Y-139220797D01*
X107680250Y-139215581D01*
X107660038Y-139208349D01*
X107640632Y-139199170D01*
X107622219Y-139188134D01*
X107604976Y-139175346D01*
X107589070Y-139160930D01*
X107574654Y-139145024D01*
X107561866Y-139127781D01*
X107550830Y-139109368D01*
X107541651Y-139089962D01*
X107534419Y-139069750D01*
X107529203Y-139048926D01*
X107526053Y-139027691D01*
X107525000Y-139006250D01*
X107525000Y-138568750D01*
X107526053Y-138547309D01*
X107529203Y-138526074D01*
X107534419Y-138505250D01*
X107541651Y-138485038D01*
X107550830Y-138465632D01*
X107561866Y-138447219D01*
X107574654Y-138429976D01*
X107589070Y-138414070D01*
X107604976Y-138399654D01*
X107622219Y-138386866D01*
X107640632Y-138375830D01*
X107660038Y-138366651D01*
X107680250Y-138359419D01*
X107701074Y-138354203D01*
X107722309Y-138351053D01*
X107743750Y-138350000D01*
X108256250Y-138350000D01*
X108277691Y-138351053D01*
X108277691Y-138351053D01*
G37*
D20*
X108000000Y-138787500D03*
D19*
G36*
X83490191Y-64530053D02*
G01*
X83511426Y-64533203D01*
X83532250Y-64538419D01*
X83552462Y-64545651D01*
X83571868Y-64554830D01*
X83590281Y-64565866D01*
X83607524Y-64578654D01*
X83623430Y-64593070D01*
X83637846Y-64608976D01*
X83650634Y-64626219D01*
X83661670Y-64644632D01*
X83670849Y-64664038D01*
X83678081Y-64684250D01*
X83683297Y-64705074D01*
X83686447Y-64726309D01*
X83687500Y-64747750D01*
X83687500Y-65260250D01*
X83686447Y-65281691D01*
X83683297Y-65302926D01*
X83678081Y-65323750D01*
X83670849Y-65343962D01*
X83661670Y-65363368D01*
X83650634Y-65381781D01*
X83637846Y-65399024D01*
X83623430Y-65414930D01*
X83607524Y-65429346D01*
X83590281Y-65442134D01*
X83571868Y-65453170D01*
X83552462Y-65462349D01*
X83532250Y-65469581D01*
X83511426Y-65474797D01*
X83490191Y-65477947D01*
X83468750Y-65479000D01*
X83031250Y-65479000D01*
X83009809Y-65477947D01*
X82988574Y-65474797D01*
X82967750Y-65469581D01*
X82947538Y-65462349D01*
X82928132Y-65453170D01*
X82909719Y-65442134D01*
X82892476Y-65429346D01*
X82876570Y-65414930D01*
X82862154Y-65399024D01*
X82849366Y-65381781D01*
X82838330Y-65363368D01*
X82829151Y-65343962D01*
X82821919Y-65323750D01*
X82816703Y-65302926D01*
X82813553Y-65281691D01*
X82812500Y-65260250D01*
X82812500Y-64747750D01*
X82813553Y-64726309D01*
X82816703Y-64705074D01*
X82821919Y-64684250D01*
X82829151Y-64664038D01*
X82838330Y-64644632D01*
X82849366Y-64626219D01*
X82862154Y-64608976D01*
X82876570Y-64593070D01*
X82892476Y-64578654D01*
X82909719Y-64565866D01*
X82928132Y-64554830D01*
X82947538Y-64545651D01*
X82967750Y-64538419D01*
X82988574Y-64533203D01*
X83009809Y-64530053D01*
X83031250Y-64529000D01*
X83468750Y-64529000D01*
X83490191Y-64530053D01*
X83490191Y-64530053D01*
G37*
D20*
X83250000Y-65004000D03*
D19*
G36*
X81915191Y-64530053D02*
G01*
X81936426Y-64533203D01*
X81957250Y-64538419D01*
X81977462Y-64545651D01*
X81996868Y-64554830D01*
X82015281Y-64565866D01*
X82032524Y-64578654D01*
X82048430Y-64593070D01*
X82062846Y-64608976D01*
X82075634Y-64626219D01*
X82086670Y-64644632D01*
X82095849Y-64664038D01*
X82103081Y-64684250D01*
X82108297Y-64705074D01*
X82111447Y-64726309D01*
X82112500Y-64747750D01*
X82112500Y-65260250D01*
X82111447Y-65281691D01*
X82108297Y-65302926D01*
X82103081Y-65323750D01*
X82095849Y-65343962D01*
X82086670Y-65363368D01*
X82075634Y-65381781D01*
X82062846Y-65399024D01*
X82048430Y-65414930D01*
X82032524Y-65429346D01*
X82015281Y-65442134D01*
X81996868Y-65453170D01*
X81977462Y-65462349D01*
X81957250Y-65469581D01*
X81936426Y-65474797D01*
X81915191Y-65477947D01*
X81893750Y-65479000D01*
X81456250Y-65479000D01*
X81434809Y-65477947D01*
X81413574Y-65474797D01*
X81392750Y-65469581D01*
X81372538Y-65462349D01*
X81353132Y-65453170D01*
X81334719Y-65442134D01*
X81317476Y-65429346D01*
X81301570Y-65414930D01*
X81287154Y-65399024D01*
X81274366Y-65381781D01*
X81263330Y-65363368D01*
X81254151Y-65343962D01*
X81246919Y-65323750D01*
X81241703Y-65302926D01*
X81238553Y-65281691D01*
X81237500Y-65260250D01*
X81237500Y-64747750D01*
X81238553Y-64726309D01*
X81241703Y-64705074D01*
X81246919Y-64684250D01*
X81254151Y-64664038D01*
X81263330Y-64644632D01*
X81274366Y-64626219D01*
X81287154Y-64608976D01*
X81301570Y-64593070D01*
X81317476Y-64578654D01*
X81334719Y-64565866D01*
X81353132Y-64554830D01*
X81372538Y-64545651D01*
X81392750Y-64538419D01*
X81413574Y-64533203D01*
X81434809Y-64530053D01*
X81456250Y-64529000D01*
X81893750Y-64529000D01*
X81915191Y-64530053D01*
X81915191Y-64530053D01*
G37*
D20*
X81675000Y-65004000D03*
D19*
G36*
X87200691Y-64530053D02*
G01*
X87221926Y-64533203D01*
X87242750Y-64538419D01*
X87262962Y-64545651D01*
X87282368Y-64554830D01*
X87300781Y-64565866D01*
X87318024Y-64578654D01*
X87333930Y-64593070D01*
X87348346Y-64608976D01*
X87361134Y-64626219D01*
X87372170Y-64644632D01*
X87381349Y-64664038D01*
X87388581Y-64684250D01*
X87393797Y-64705074D01*
X87396947Y-64726309D01*
X87398000Y-64747750D01*
X87398000Y-65260250D01*
X87396947Y-65281691D01*
X87393797Y-65302926D01*
X87388581Y-65323750D01*
X87381349Y-65343962D01*
X87372170Y-65363368D01*
X87361134Y-65381781D01*
X87348346Y-65399024D01*
X87333930Y-65414930D01*
X87318024Y-65429346D01*
X87300781Y-65442134D01*
X87282368Y-65453170D01*
X87262962Y-65462349D01*
X87242750Y-65469581D01*
X87221926Y-65474797D01*
X87200691Y-65477947D01*
X87179250Y-65479000D01*
X86741750Y-65479000D01*
X86720309Y-65477947D01*
X86699074Y-65474797D01*
X86678250Y-65469581D01*
X86658038Y-65462349D01*
X86638632Y-65453170D01*
X86620219Y-65442134D01*
X86602976Y-65429346D01*
X86587070Y-65414930D01*
X86572654Y-65399024D01*
X86559866Y-65381781D01*
X86548830Y-65363368D01*
X86539651Y-65343962D01*
X86532419Y-65323750D01*
X86527203Y-65302926D01*
X86524053Y-65281691D01*
X86523000Y-65260250D01*
X86523000Y-64747750D01*
X86524053Y-64726309D01*
X86527203Y-64705074D01*
X86532419Y-64684250D01*
X86539651Y-64664038D01*
X86548830Y-64644632D01*
X86559866Y-64626219D01*
X86572654Y-64608976D01*
X86587070Y-64593070D01*
X86602976Y-64578654D01*
X86620219Y-64565866D01*
X86638632Y-64554830D01*
X86658038Y-64545651D01*
X86678250Y-64538419D01*
X86699074Y-64533203D01*
X86720309Y-64530053D01*
X86741750Y-64529000D01*
X87179250Y-64529000D01*
X87200691Y-64530053D01*
X87200691Y-64530053D01*
G37*
D20*
X86960500Y-65004000D03*
D19*
G36*
X88775691Y-64530053D02*
G01*
X88796926Y-64533203D01*
X88817750Y-64538419D01*
X88837962Y-64545651D01*
X88857368Y-64554830D01*
X88875781Y-64565866D01*
X88893024Y-64578654D01*
X88908930Y-64593070D01*
X88923346Y-64608976D01*
X88936134Y-64626219D01*
X88947170Y-64644632D01*
X88956349Y-64664038D01*
X88963581Y-64684250D01*
X88968797Y-64705074D01*
X88971947Y-64726309D01*
X88973000Y-64747750D01*
X88973000Y-65260250D01*
X88971947Y-65281691D01*
X88968797Y-65302926D01*
X88963581Y-65323750D01*
X88956349Y-65343962D01*
X88947170Y-65363368D01*
X88936134Y-65381781D01*
X88923346Y-65399024D01*
X88908930Y-65414930D01*
X88893024Y-65429346D01*
X88875781Y-65442134D01*
X88857368Y-65453170D01*
X88837962Y-65462349D01*
X88817750Y-65469581D01*
X88796926Y-65474797D01*
X88775691Y-65477947D01*
X88754250Y-65479000D01*
X88316750Y-65479000D01*
X88295309Y-65477947D01*
X88274074Y-65474797D01*
X88253250Y-65469581D01*
X88233038Y-65462349D01*
X88213632Y-65453170D01*
X88195219Y-65442134D01*
X88177976Y-65429346D01*
X88162070Y-65414930D01*
X88147654Y-65399024D01*
X88134866Y-65381781D01*
X88123830Y-65363368D01*
X88114651Y-65343962D01*
X88107419Y-65323750D01*
X88102203Y-65302926D01*
X88099053Y-65281691D01*
X88098000Y-65260250D01*
X88098000Y-64747750D01*
X88099053Y-64726309D01*
X88102203Y-64705074D01*
X88107419Y-64684250D01*
X88114651Y-64664038D01*
X88123830Y-64644632D01*
X88134866Y-64626219D01*
X88147654Y-64608976D01*
X88162070Y-64593070D01*
X88177976Y-64578654D01*
X88195219Y-64565866D01*
X88213632Y-64554830D01*
X88233038Y-64545651D01*
X88253250Y-64538419D01*
X88274074Y-64533203D01*
X88295309Y-64530053D01*
X88316750Y-64529000D01*
X88754250Y-64529000D01*
X88775691Y-64530053D01*
X88775691Y-64530053D01*
G37*
D20*
X88535500Y-65004000D03*
D19*
G36*
X109940691Y-92626053D02*
G01*
X109961926Y-92629203D01*
X109982750Y-92634419D01*
X110002962Y-92641651D01*
X110022368Y-92650830D01*
X110040781Y-92661866D01*
X110058024Y-92674654D01*
X110073930Y-92689070D01*
X110088346Y-92704976D01*
X110101134Y-92722219D01*
X110112170Y-92740632D01*
X110121349Y-92760038D01*
X110128581Y-92780250D01*
X110133797Y-92801074D01*
X110136947Y-92822309D01*
X110138000Y-92843750D01*
X110138000Y-93356250D01*
X110136947Y-93377691D01*
X110133797Y-93398926D01*
X110128581Y-93419750D01*
X110121349Y-93439962D01*
X110112170Y-93459368D01*
X110101134Y-93477781D01*
X110088346Y-93495024D01*
X110073930Y-93510930D01*
X110058024Y-93525346D01*
X110040781Y-93538134D01*
X110022368Y-93549170D01*
X110002962Y-93558349D01*
X109982750Y-93565581D01*
X109961926Y-93570797D01*
X109940691Y-93573947D01*
X109919250Y-93575000D01*
X109481750Y-93575000D01*
X109460309Y-93573947D01*
X109439074Y-93570797D01*
X109418250Y-93565581D01*
X109398038Y-93558349D01*
X109378632Y-93549170D01*
X109360219Y-93538134D01*
X109342976Y-93525346D01*
X109327070Y-93510930D01*
X109312654Y-93495024D01*
X109299866Y-93477781D01*
X109288830Y-93459368D01*
X109279651Y-93439962D01*
X109272419Y-93419750D01*
X109267203Y-93398926D01*
X109264053Y-93377691D01*
X109263000Y-93356250D01*
X109263000Y-92843750D01*
X109264053Y-92822309D01*
X109267203Y-92801074D01*
X109272419Y-92780250D01*
X109279651Y-92760038D01*
X109288830Y-92740632D01*
X109299866Y-92722219D01*
X109312654Y-92704976D01*
X109327070Y-92689070D01*
X109342976Y-92674654D01*
X109360219Y-92661866D01*
X109378632Y-92650830D01*
X109398038Y-92641651D01*
X109418250Y-92634419D01*
X109439074Y-92629203D01*
X109460309Y-92626053D01*
X109481750Y-92625000D01*
X109919250Y-92625000D01*
X109940691Y-92626053D01*
X109940691Y-92626053D01*
G37*
D20*
X109700500Y-93100000D03*
D19*
G36*
X111515691Y-92626053D02*
G01*
X111536926Y-92629203D01*
X111557750Y-92634419D01*
X111577962Y-92641651D01*
X111597368Y-92650830D01*
X111615781Y-92661866D01*
X111633024Y-92674654D01*
X111648930Y-92689070D01*
X111663346Y-92704976D01*
X111676134Y-92722219D01*
X111687170Y-92740632D01*
X111696349Y-92760038D01*
X111703581Y-92780250D01*
X111708797Y-92801074D01*
X111711947Y-92822309D01*
X111713000Y-92843750D01*
X111713000Y-93356250D01*
X111711947Y-93377691D01*
X111708797Y-93398926D01*
X111703581Y-93419750D01*
X111696349Y-93439962D01*
X111687170Y-93459368D01*
X111676134Y-93477781D01*
X111663346Y-93495024D01*
X111648930Y-93510930D01*
X111633024Y-93525346D01*
X111615781Y-93538134D01*
X111597368Y-93549170D01*
X111577962Y-93558349D01*
X111557750Y-93565581D01*
X111536926Y-93570797D01*
X111515691Y-93573947D01*
X111494250Y-93575000D01*
X111056750Y-93575000D01*
X111035309Y-93573947D01*
X111014074Y-93570797D01*
X110993250Y-93565581D01*
X110973038Y-93558349D01*
X110953632Y-93549170D01*
X110935219Y-93538134D01*
X110917976Y-93525346D01*
X110902070Y-93510930D01*
X110887654Y-93495024D01*
X110874866Y-93477781D01*
X110863830Y-93459368D01*
X110854651Y-93439962D01*
X110847419Y-93419750D01*
X110842203Y-93398926D01*
X110839053Y-93377691D01*
X110838000Y-93356250D01*
X110838000Y-92843750D01*
X110839053Y-92822309D01*
X110842203Y-92801074D01*
X110847419Y-92780250D01*
X110854651Y-92760038D01*
X110863830Y-92740632D01*
X110874866Y-92722219D01*
X110887654Y-92704976D01*
X110902070Y-92689070D01*
X110917976Y-92674654D01*
X110935219Y-92661866D01*
X110953632Y-92650830D01*
X110973038Y-92641651D01*
X110993250Y-92634419D01*
X111014074Y-92629203D01*
X111035309Y-92626053D01*
X111056750Y-92625000D01*
X111494250Y-92625000D01*
X111515691Y-92626053D01*
X111515691Y-92626053D01*
G37*
D20*
X111275500Y-93100000D03*
D19*
G36*
X121977691Y-94823553D02*
G01*
X121998926Y-94826703D01*
X122019750Y-94831919D01*
X122039962Y-94839151D01*
X122059368Y-94848330D01*
X122077781Y-94859366D01*
X122095024Y-94872154D01*
X122110930Y-94886570D01*
X122125346Y-94902476D01*
X122138134Y-94919719D01*
X122149170Y-94938132D01*
X122158349Y-94957538D01*
X122165581Y-94977750D01*
X122170797Y-94998574D01*
X122173947Y-95019809D01*
X122175000Y-95041250D01*
X122175000Y-95478750D01*
X122173947Y-95500191D01*
X122170797Y-95521426D01*
X122165581Y-95542250D01*
X122158349Y-95562462D01*
X122149170Y-95581868D01*
X122138134Y-95600281D01*
X122125346Y-95617524D01*
X122110930Y-95633430D01*
X122095024Y-95647846D01*
X122077781Y-95660634D01*
X122059368Y-95671670D01*
X122039962Y-95680849D01*
X122019750Y-95688081D01*
X121998926Y-95693297D01*
X121977691Y-95696447D01*
X121956250Y-95697500D01*
X121443750Y-95697500D01*
X121422309Y-95696447D01*
X121401074Y-95693297D01*
X121380250Y-95688081D01*
X121360038Y-95680849D01*
X121340632Y-95671670D01*
X121322219Y-95660634D01*
X121304976Y-95647846D01*
X121289070Y-95633430D01*
X121274654Y-95617524D01*
X121261866Y-95600281D01*
X121250830Y-95581868D01*
X121241651Y-95562462D01*
X121234419Y-95542250D01*
X121229203Y-95521426D01*
X121226053Y-95500191D01*
X121225000Y-95478750D01*
X121225000Y-95041250D01*
X121226053Y-95019809D01*
X121229203Y-94998574D01*
X121234419Y-94977750D01*
X121241651Y-94957538D01*
X121250830Y-94938132D01*
X121261866Y-94919719D01*
X121274654Y-94902476D01*
X121289070Y-94886570D01*
X121304976Y-94872154D01*
X121322219Y-94859366D01*
X121340632Y-94848330D01*
X121360038Y-94839151D01*
X121380250Y-94831919D01*
X121401074Y-94826703D01*
X121422309Y-94823553D01*
X121443750Y-94822500D01*
X121956250Y-94822500D01*
X121977691Y-94823553D01*
X121977691Y-94823553D01*
G37*
D20*
X121700000Y-95260000D03*
D19*
G36*
X121977691Y-93248553D02*
G01*
X121998926Y-93251703D01*
X122019750Y-93256919D01*
X122039962Y-93264151D01*
X122059368Y-93273330D01*
X122077781Y-93284366D01*
X122095024Y-93297154D01*
X122110930Y-93311570D01*
X122125346Y-93327476D01*
X122138134Y-93344719D01*
X122149170Y-93363132D01*
X122158349Y-93382538D01*
X122165581Y-93402750D01*
X122170797Y-93423574D01*
X122173947Y-93444809D01*
X122175000Y-93466250D01*
X122175000Y-93903750D01*
X122173947Y-93925191D01*
X122170797Y-93946426D01*
X122165581Y-93967250D01*
X122158349Y-93987462D01*
X122149170Y-94006868D01*
X122138134Y-94025281D01*
X122125346Y-94042524D01*
X122110930Y-94058430D01*
X122095024Y-94072846D01*
X122077781Y-94085634D01*
X122059368Y-94096670D01*
X122039962Y-94105849D01*
X122019750Y-94113081D01*
X121998926Y-94118297D01*
X121977691Y-94121447D01*
X121956250Y-94122500D01*
X121443750Y-94122500D01*
X121422309Y-94121447D01*
X121401074Y-94118297D01*
X121380250Y-94113081D01*
X121360038Y-94105849D01*
X121340632Y-94096670D01*
X121322219Y-94085634D01*
X121304976Y-94072846D01*
X121289070Y-94058430D01*
X121274654Y-94042524D01*
X121261866Y-94025281D01*
X121250830Y-94006868D01*
X121241651Y-93987462D01*
X121234419Y-93967250D01*
X121229203Y-93946426D01*
X121226053Y-93925191D01*
X121225000Y-93903750D01*
X121225000Y-93466250D01*
X121226053Y-93444809D01*
X121229203Y-93423574D01*
X121234419Y-93402750D01*
X121241651Y-93382538D01*
X121250830Y-93363132D01*
X121261866Y-93344719D01*
X121274654Y-93327476D01*
X121289070Y-93311570D01*
X121304976Y-93297154D01*
X121322219Y-93284366D01*
X121340632Y-93273330D01*
X121360038Y-93264151D01*
X121380250Y-93256919D01*
X121401074Y-93251703D01*
X121422309Y-93248553D01*
X121443750Y-93247500D01*
X121956250Y-93247500D01*
X121977691Y-93248553D01*
X121977691Y-93248553D01*
G37*
D20*
X121700000Y-93685000D03*
D19*
G36*
X124364691Y-94786053D02*
G01*
X124385926Y-94789203D01*
X124406750Y-94794419D01*
X124426962Y-94801651D01*
X124446368Y-94810830D01*
X124464781Y-94821866D01*
X124482024Y-94834654D01*
X124497930Y-94849070D01*
X124512346Y-94864976D01*
X124525134Y-94882219D01*
X124536170Y-94900632D01*
X124545349Y-94920038D01*
X124552581Y-94940250D01*
X124557797Y-94961074D01*
X124560947Y-94982309D01*
X124562000Y-95003750D01*
X124562000Y-95516250D01*
X124560947Y-95537691D01*
X124557797Y-95558926D01*
X124552581Y-95579750D01*
X124545349Y-95599962D01*
X124536170Y-95619368D01*
X124525134Y-95637781D01*
X124512346Y-95655024D01*
X124497930Y-95670930D01*
X124482024Y-95685346D01*
X124464781Y-95698134D01*
X124446368Y-95709170D01*
X124426962Y-95718349D01*
X124406750Y-95725581D01*
X124385926Y-95730797D01*
X124364691Y-95733947D01*
X124343250Y-95735000D01*
X123905750Y-95735000D01*
X123884309Y-95733947D01*
X123863074Y-95730797D01*
X123842250Y-95725581D01*
X123822038Y-95718349D01*
X123802632Y-95709170D01*
X123784219Y-95698134D01*
X123766976Y-95685346D01*
X123751070Y-95670930D01*
X123736654Y-95655024D01*
X123723866Y-95637781D01*
X123712830Y-95619368D01*
X123703651Y-95599962D01*
X123696419Y-95579750D01*
X123691203Y-95558926D01*
X123688053Y-95537691D01*
X123687000Y-95516250D01*
X123687000Y-95003750D01*
X123688053Y-94982309D01*
X123691203Y-94961074D01*
X123696419Y-94940250D01*
X123703651Y-94920038D01*
X123712830Y-94900632D01*
X123723866Y-94882219D01*
X123736654Y-94864976D01*
X123751070Y-94849070D01*
X123766976Y-94834654D01*
X123784219Y-94821866D01*
X123802632Y-94810830D01*
X123822038Y-94801651D01*
X123842250Y-94794419D01*
X123863074Y-94789203D01*
X123884309Y-94786053D01*
X123905750Y-94785000D01*
X124343250Y-94785000D01*
X124364691Y-94786053D01*
X124364691Y-94786053D01*
G37*
D20*
X124124500Y-95260000D03*
D19*
G36*
X125939691Y-94786053D02*
G01*
X125960926Y-94789203D01*
X125981750Y-94794419D01*
X126001962Y-94801651D01*
X126021368Y-94810830D01*
X126039781Y-94821866D01*
X126057024Y-94834654D01*
X126072930Y-94849070D01*
X126087346Y-94864976D01*
X126100134Y-94882219D01*
X126111170Y-94900632D01*
X126120349Y-94920038D01*
X126127581Y-94940250D01*
X126132797Y-94961074D01*
X126135947Y-94982309D01*
X126137000Y-95003750D01*
X126137000Y-95516250D01*
X126135947Y-95537691D01*
X126132797Y-95558926D01*
X126127581Y-95579750D01*
X126120349Y-95599962D01*
X126111170Y-95619368D01*
X126100134Y-95637781D01*
X126087346Y-95655024D01*
X126072930Y-95670930D01*
X126057024Y-95685346D01*
X126039781Y-95698134D01*
X126021368Y-95709170D01*
X126001962Y-95718349D01*
X125981750Y-95725581D01*
X125960926Y-95730797D01*
X125939691Y-95733947D01*
X125918250Y-95735000D01*
X125480750Y-95735000D01*
X125459309Y-95733947D01*
X125438074Y-95730797D01*
X125417250Y-95725581D01*
X125397038Y-95718349D01*
X125377632Y-95709170D01*
X125359219Y-95698134D01*
X125341976Y-95685346D01*
X125326070Y-95670930D01*
X125311654Y-95655024D01*
X125298866Y-95637781D01*
X125287830Y-95619368D01*
X125278651Y-95599962D01*
X125271419Y-95579750D01*
X125266203Y-95558926D01*
X125263053Y-95537691D01*
X125262000Y-95516250D01*
X125262000Y-95003750D01*
X125263053Y-94982309D01*
X125266203Y-94961074D01*
X125271419Y-94940250D01*
X125278651Y-94920038D01*
X125287830Y-94900632D01*
X125298866Y-94882219D01*
X125311654Y-94864976D01*
X125326070Y-94849070D01*
X125341976Y-94834654D01*
X125359219Y-94821866D01*
X125377632Y-94810830D01*
X125397038Y-94801651D01*
X125417250Y-94794419D01*
X125438074Y-94789203D01*
X125459309Y-94786053D01*
X125480750Y-94785000D01*
X125918250Y-94785000D01*
X125939691Y-94786053D01*
X125939691Y-94786053D01*
G37*
D20*
X125699500Y-95260000D03*
D24*
X110404060Y-138000040D03*
X110404060Y-138950000D03*
X110404060Y-139899960D03*
X112999940Y-139899960D03*
X112999940Y-138000040D03*
D25*
X77863260Y-106743780D03*
X77863260Y-107244160D03*
X77863260Y-107742000D03*
X77863260Y-108239840D03*
X77863260Y-108740220D03*
D26*
X78714160Y-109090740D03*
X79212000Y-109090740D03*
X79709840Y-109090740D03*
D25*
X80560740Y-108740220D03*
X80560740Y-108239840D03*
X80560740Y-107742000D03*
X80560740Y-107244160D03*
X80560740Y-106743780D03*
D26*
X79709840Y-106393260D03*
X79212000Y-106393260D03*
X78714160Y-106393260D03*
D24*
X125197940Y-99209960D03*
X125197940Y-98260000D03*
X125197940Y-97310040D03*
X122602060Y-97310040D03*
X122602060Y-98260000D03*
X122602060Y-99209960D03*
D27*
X96200160Y-143200000D03*
D28*
X98801120Y-143200000D03*
X101198880Y-143200000D03*
D27*
X103799840Y-143200000D03*
D29*
X103098800Y-140652380D03*
X96901200Y-140652380D03*
D30*
X100000000Y-140525380D03*
X99352300Y-140525380D03*
X101297940Y-140525380D03*
X100647700Y-140525380D03*
X98702060Y-140525380D03*
D31*
X102400120Y-90300000D03*
X104797880Y-90300000D03*
D19*
G36*
X75071691Y-95193053D02*
G01*
X75092926Y-95196203D01*
X75113750Y-95201419D01*
X75133962Y-95208651D01*
X75153368Y-95217830D01*
X75171781Y-95228866D01*
X75189024Y-95241654D01*
X75204930Y-95256070D01*
X75219346Y-95271976D01*
X75232134Y-95289219D01*
X75243170Y-95307632D01*
X75252349Y-95327038D01*
X75259581Y-95347250D01*
X75264797Y-95368074D01*
X75267947Y-95389309D01*
X75269000Y-95410750D01*
X75269000Y-95848250D01*
X75267947Y-95869691D01*
X75264797Y-95890926D01*
X75259581Y-95911750D01*
X75252349Y-95931962D01*
X75243170Y-95951368D01*
X75232134Y-95969781D01*
X75219346Y-95987024D01*
X75204930Y-96002930D01*
X75189024Y-96017346D01*
X75171781Y-96030134D01*
X75153368Y-96041170D01*
X75133962Y-96050349D01*
X75113750Y-96057581D01*
X75092926Y-96062797D01*
X75071691Y-96065947D01*
X75050250Y-96067000D01*
X74537750Y-96067000D01*
X74516309Y-96065947D01*
X74495074Y-96062797D01*
X74474250Y-96057581D01*
X74454038Y-96050349D01*
X74434632Y-96041170D01*
X74416219Y-96030134D01*
X74398976Y-96017346D01*
X74383070Y-96002930D01*
X74368654Y-95987024D01*
X74355866Y-95969781D01*
X74344830Y-95951368D01*
X74335651Y-95931962D01*
X74328419Y-95911750D01*
X74323203Y-95890926D01*
X74320053Y-95869691D01*
X74319000Y-95848250D01*
X74319000Y-95410750D01*
X74320053Y-95389309D01*
X74323203Y-95368074D01*
X74328419Y-95347250D01*
X74335651Y-95327038D01*
X74344830Y-95307632D01*
X74355866Y-95289219D01*
X74368654Y-95271976D01*
X74383070Y-95256070D01*
X74398976Y-95241654D01*
X74416219Y-95228866D01*
X74434632Y-95217830D01*
X74454038Y-95208651D01*
X74474250Y-95201419D01*
X74495074Y-95196203D01*
X74516309Y-95193053D01*
X74537750Y-95192000D01*
X75050250Y-95192000D01*
X75071691Y-95193053D01*
X75071691Y-95193053D01*
G37*
D20*
X74794000Y-95629500D03*
D19*
G36*
X75071691Y-93618053D02*
G01*
X75092926Y-93621203D01*
X75113750Y-93626419D01*
X75133962Y-93633651D01*
X75153368Y-93642830D01*
X75171781Y-93653866D01*
X75189024Y-93666654D01*
X75204930Y-93681070D01*
X75219346Y-93696976D01*
X75232134Y-93714219D01*
X75243170Y-93732632D01*
X75252349Y-93752038D01*
X75259581Y-93772250D01*
X75264797Y-93793074D01*
X75267947Y-93814309D01*
X75269000Y-93835750D01*
X75269000Y-94273250D01*
X75267947Y-94294691D01*
X75264797Y-94315926D01*
X75259581Y-94336750D01*
X75252349Y-94356962D01*
X75243170Y-94376368D01*
X75232134Y-94394781D01*
X75219346Y-94412024D01*
X75204930Y-94427930D01*
X75189024Y-94442346D01*
X75171781Y-94455134D01*
X75153368Y-94466170D01*
X75133962Y-94475349D01*
X75113750Y-94482581D01*
X75092926Y-94487797D01*
X75071691Y-94490947D01*
X75050250Y-94492000D01*
X74537750Y-94492000D01*
X74516309Y-94490947D01*
X74495074Y-94487797D01*
X74474250Y-94482581D01*
X74454038Y-94475349D01*
X74434632Y-94466170D01*
X74416219Y-94455134D01*
X74398976Y-94442346D01*
X74383070Y-94427930D01*
X74368654Y-94412024D01*
X74355866Y-94394781D01*
X74344830Y-94376368D01*
X74335651Y-94356962D01*
X74328419Y-94336750D01*
X74323203Y-94315926D01*
X74320053Y-94294691D01*
X74319000Y-94273250D01*
X74319000Y-93835750D01*
X74320053Y-93814309D01*
X74323203Y-93793074D01*
X74328419Y-93772250D01*
X74335651Y-93752038D01*
X74344830Y-93732632D01*
X74355866Y-93714219D01*
X74368654Y-93696976D01*
X74383070Y-93681070D01*
X74398976Y-93666654D01*
X74416219Y-93653866D01*
X74434632Y-93642830D01*
X74454038Y-93633651D01*
X74474250Y-93626419D01*
X74495074Y-93621203D01*
X74516309Y-93618053D01*
X74537750Y-93617000D01*
X75050250Y-93617000D01*
X75071691Y-93618053D01*
X75071691Y-93618053D01*
G37*
D20*
X74794000Y-94054500D03*
D32*
X120899920Y-111840080D03*
X126498080Y-111840080D03*
D33*
X120699260Y-106041260D03*
D19*
G36*
X120345438Y-107100930D02*
G01*
X119639590Y-106395082D01*
X121053082Y-104981590D01*
X121758930Y-105687438D01*
X120345438Y-107100930D01*
X120345438Y-107100930D01*
G37*
D32*
X126498080Y-106241920D03*
D19*
G36*
X123990191Y-124326053D02*
G01*
X124011426Y-124329203D01*
X124032250Y-124334419D01*
X124052462Y-124341651D01*
X124071868Y-124350830D01*
X124090281Y-124361866D01*
X124107524Y-124374654D01*
X124123430Y-124389070D01*
X124137846Y-124404976D01*
X124150634Y-124422219D01*
X124161670Y-124440632D01*
X124170849Y-124460038D01*
X124178081Y-124480250D01*
X124183297Y-124501074D01*
X124186447Y-124522309D01*
X124187500Y-124543750D01*
X124187500Y-125056250D01*
X124186447Y-125077691D01*
X124183297Y-125098926D01*
X124178081Y-125119750D01*
X124170849Y-125139962D01*
X124161670Y-125159368D01*
X124150634Y-125177781D01*
X124137846Y-125195024D01*
X124123430Y-125210930D01*
X124107524Y-125225346D01*
X124090281Y-125238134D01*
X124071868Y-125249170D01*
X124052462Y-125258349D01*
X124032250Y-125265581D01*
X124011426Y-125270797D01*
X123990191Y-125273947D01*
X123968750Y-125275000D01*
X123531250Y-125275000D01*
X123509809Y-125273947D01*
X123488574Y-125270797D01*
X123467750Y-125265581D01*
X123447538Y-125258349D01*
X123428132Y-125249170D01*
X123409719Y-125238134D01*
X123392476Y-125225346D01*
X123376570Y-125210930D01*
X123362154Y-125195024D01*
X123349366Y-125177781D01*
X123338330Y-125159368D01*
X123329151Y-125139962D01*
X123321919Y-125119750D01*
X123316703Y-125098926D01*
X123313553Y-125077691D01*
X123312500Y-125056250D01*
X123312500Y-124543750D01*
X123313553Y-124522309D01*
X123316703Y-124501074D01*
X123321919Y-124480250D01*
X123329151Y-124460038D01*
X123338330Y-124440632D01*
X123349366Y-124422219D01*
X123362154Y-124404976D01*
X123376570Y-124389070D01*
X123392476Y-124374654D01*
X123409719Y-124361866D01*
X123428132Y-124350830D01*
X123447538Y-124341651D01*
X123467750Y-124334419D01*
X123488574Y-124329203D01*
X123509809Y-124326053D01*
X123531250Y-124325000D01*
X123968750Y-124325000D01*
X123990191Y-124326053D01*
X123990191Y-124326053D01*
G37*
D20*
X123750000Y-124800000D03*
D19*
G36*
X125565191Y-124326053D02*
G01*
X125586426Y-124329203D01*
X125607250Y-124334419D01*
X125627462Y-124341651D01*
X125646868Y-124350830D01*
X125665281Y-124361866D01*
X125682524Y-124374654D01*
X125698430Y-124389070D01*
X125712846Y-124404976D01*
X125725634Y-124422219D01*
X125736670Y-124440632D01*
X125745849Y-124460038D01*
X125753081Y-124480250D01*
X125758297Y-124501074D01*
X125761447Y-124522309D01*
X125762500Y-124543750D01*
X125762500Y-125056250D01*
X125761447Y-125077691D01*
X125758297Y-125098926D01*
X125753081Y-125119750D01*
X125745849Y-125139962D01*
X125736670Y-125159368D01*
X125725634Y-125177781D01*
X125712846Y-125195024D01*
X125698430Y-125210930D01*
X125682524Y-125225346D01*
X125665281Y-125238134D01*
X125646868Y-125249170D01*
X125627462Y-125258349D01*
X125607250Y-125265581D01*
X125586426Y-125270797D01*
X125565191Y-125273947D01*
X125543750Y-125275000D01*
X125106250Y-125275000D01*
X125084809Y-125273947D01*
X125063574Y-125270797D01*
X125042750Y-125265581D01*
X125022538Y-125258349D01*
X125003132Y-125249170D01*
X124984719Y-125238134D01*
X124967476Y-125225346D01*
X124951570Y-125210930D01*
X124937154Y-125195024D01*
X124924366Y-125177781D01*
X124913330Y-125159368D01*
X124904151Y-125139962D01*
X124896919Y-125119750D01*
X124891703Y-125098926D01*
X124888553Y-125077691D01*
X124887500Y-125056250D01*
X124887500Y-124543750D01*
X124888553Y-124522309D01*
X124891703Y-124501074D01*
X124896919Y-124480250D01*
X124904151Y-124460038D01*
X124913330Y-124440632D01*
X124924366Y-124422219D01*
X124937154Y-124404976D01*
X124951570Y-124389070D01*
X124967476Y-124374654D01*
X124984719Y-124361866D01*
X125003132Y-124350830D01*
X125022538Y-124341651D01*
X125042750Y-124334419D01*
X125063574Y-124329203D01*
X125084809Y-124326053D01*
X125106250Y-124325000D01*
X125543750Y-124325000D01*
X125565191Y-124326053D01*
X125565191Y-124326053D01*
G37*
D20*
X125325000Y-124800000D03*
D19*
G36*
X125565191Y-126301053D02*
G01*
X125586426Y-126304203D01*
X125607250Y-126309419D01*
X125627462Y-126316651D01*
X125646868Y-126325830D01*
X125665281Y-126336866D01*
X125682524Y-126349654D01*
X125698430Y-126364070D01*
X125712846Y-126379976D01*
X125725634Y-126397219D01*
X125736670Y-126415632D01*
X125745849Y-126435038D01*
X125753081Y-126455250D01*
X125758297Y-126476074D01*
X125761447Y-126497309D01*
X125762500Y-126518750D01*
X125762500Y-127031250D01*
X125761447Y-127052691D01*
X125758297Y-127073926D01*
X125753081Y-127094750D01*
X125745849Y-127114962D01*
X125736670Y-127134368D01*
X125725634Y-127152781D01*
X125712846Y-127170024D01*
X125698430Y-127185930D01*
X125682524Y-127200346D01*
X125665281Y-127213134D01*
X125646868Y-127224170D01*
X125627462Y-127233349D01*
X125607250Y-127240581D01*
X125586426Y-127245797D01*
X125565191Y-127248947D01*
X125543750Y-127250000D01*
X125106250Y-127250000D01*
X125084809Y-127248947D01*
X125063574Y-127245797D01*
X125042750Y-127240581D01*
X125022538Y-127233349D01*
X125003132Y-127224170D01*
X124984719Y-127213134D01*
X124967476Y-127200346D01*
X124951570Y-127185930D01*
X124937154Y-127170024D01*
X124924366Y-127152781D01*
X124913330Y-127134368D01*
X124904151Y-127114962D01*
X124896919Y-127094750D01*
X124891703Y-127073926D01*
X124888553Y-127052691D01*
X124887500Y-127031250D01*
X124887500Y-126518750D01*
X124888553Y-126497309D01*
X124891703Y-126476074D01*
X124896919Y-126455250D01*
X124904151Y-126435038D01*
X124913330Y-126415632D01*
X124924366Y-126397219D01*
X124937154Y-126379976D01*
X124951570Y-126364070D01*
X124967476Y-126349654D01*
X124984719Y-126336866D01*
X125003132Y-126325830D01*
X125022538Y-126316651D01*
X125042750Y-126309419D01*
X125063574Y-126304203D01*
X125084809Y-126301053D01*
X125106250Y-126300000D01*
X125543750Y-126300000D01*
X125565191Y-126301053D01*
X125565191Y-126301053D01*
G37*
D20*
X125325000Y-126775000D03*
D19*
G36*
X123990191Y-126301053D02*
G01*
X124011426Y-126304203D01*
X124032250Y-126309419D01*
X124052462Y-126316651D01*
X124071868Y-126325830D01*
X124090281Y-126336866D01*
X124107524Y-126349654D01*
X124123430Y-126364070D01*
X124137846Y-126379976D01*
X124150634Y-126397219D01*
X124161670Y-126415632D01*
X124170849Y-126435038D01*
X124178081Y-126455250D01*
X124183297Y-126476074D01*
X124186447Y-126497309D01*
X124187500Y-126518750D01*
X124187500Y-127031250D01*
X124186447Y-127052691D01*
X124183297Y-127073926D01*
X124178081Y-127094750D01*
X124170849Y-127114962D01*
X124161670Y-127134368D01*
X124150634Y-127152781D01*
X124137846Y-127170024D01*
X124123430Y-127185930D01*
X124107524Y-127200346D01*
X124090281Y-127213134D01*
X124071868Y-127224170D01*
X124052462Y-127233349D01*
X124032250Y-127240581D01*
X124011426Y-127245797D01*
X123990191Y-127248947D01*
X123968750Y-127250000D01*
X123531250Y-127250000D01*
X123509809Y-127248947D01*
X123488574Y-127245797D01*
X123467750Y-127240581D01*
X123447538Y-127233349D01*
X123428132Y-127224170D01*
X123409719Y-127213134D01*
X123392476Y-127200346D01*
X123376570Y-127185930D01*
X123362154Y-127170024D01*
X123349366Y-127152781D01*
X123338330Y-127134368D01*
X123329151Y-127114962D01*
X123321919Y-127094750D01*
X123316703Y-127073926D01*
X123313553Y-127052691D01*
X123312500Y-127031250D01*
X123312500Y-126518750D01*
X123313553Y-126497309D01*
X123316703Y-126476074D01*
X123321919Y-126455250D01*
X123329151Y-126435038D01*
X123338330Y-126415632D01*
X123349366Y-126397219D01*
X123362154Y-126379976D01*
X123376570Y-126364070D01*
X123392476Y-126349654D01*
X123409719Y-126336866D01*
X123428132Y-126325830D01*
X123447538Y-126316651D01*
X123467750Y-126309419D01*
X123488574Y-126304203D01*
X123509809Y-126301053D01*
X123531250Y-126300000D01*
X123968750Y-126300000D01*
X123990191Y-126301053D01*
X123990191Y-126301053D01*
G37*
D20*
X123750000Y-126775000D03*
D34*
X96901200Y-124016980D03*
X103098800Y-124016980D03*
X96901200Y-120019020D03*
X103098800Y-120019020D03*
X91744800Y-120019020D03*
X85547200Y-120019020D03*
X91744800Y-124016980D03*
X85547200Y-124016980D03*
X114350800Y-120019020D03*
X108153200Y-120019020D03*
X114350800Y-124016980D03*
X108153200Y-124016980D03*
D19*
G36*
X120477691Y-100776053D02*
G01*
X120498926Y-100779203D01*
X120519750Y-100784419D01*
X120539962Y-100791651D01*
X120559368Y-100800830D01*
X120577781Y-100811866D01*
X120595024Y-100824654D01*
X120610930Y-100839070D01*
X120625346Y-100854976D01*
X120638134Y-100872219D01*
X120649170Y-100890632D01*
X120658349Y-100910038D01*
X120665581Y-100930250D01*
X120670797Y-100951074D01*
X120673947Y-100972309D01*
X120675000Y-100993750D01*
X120675000Y-101506250D01*
X120673947Y-101527691D01*
X120670797Y-101548926D01*
X120665581Y-101569750D01*
X120658349Y-101589962D01*
X120649170Y-101609368D01*
X120638134Y-101627781D01*
X120625346Y-101645024D01*
X120610930Y-101660930D01*
X120595024Y-101675346D01*
X120577781Y-101688134D01*
X120559368Y-101699170D01*
X120539962Y-101708349D01*
X120519750Y-101715581D01*
X120498926Y-101720797D01*
X120477691Y-101723947D01*
X120456250Y-101725000D01*
X120018750Y-101725000D01*
X119997309Y-101723947D01*
X119976074Y-101720797D01*
X119955250Y-101715581D01*
X119935038Y-101708349D01*
X119915632Y-101699170D01*
X119897219Y-101688134D01*
X119879976Y-101675346D01*
X119864070Y-101660930D01*
X119849654Y-101645024D01*
X119836866Y-101627781D01*
X119825830Y-101609368D01*
X119816651Y-101589962D01*
X119809419Y-101569750D01*
X119804203Y-101548926D01*
X119801053Y-101527691D01*
X119800000Y-101506250D01*
X119800000Y-100993750D01*
X119801053Y-100972309D01*
X119804203Y-100951074D01*
X119809419Y-100930250D01*
X119816651Y-100910038D01*
X119825830Y-100890632D01*
X119836866Y-100872219D01*
X119849654Y-100854976D01*
X119864070Y-100839070D01*
X119879976Y-100824654D01*
X119897219Y-100811866D01*
X119915632Y-100800830D01*
X119935038Y-100791651D01*
X119955250Y-100784419D01*
X119976074Y-100779203D01*
X119997309Y-100776053D01*
X120018750Y-100775000D01*
X120456250Y-100775000D01*
X120477691Y-100776053D01*
X120477691Y-100776053D01*
G37*
D20*
X120237500Y-101250000D03*
D19*
G36*
X118902691Y-100776053D02*
G01*
X118923926Y-100779203D01*
X118944750Y-100784419D01*
X118964962Y-100791651D01*
X118984368Y-100800830D01*
X119002781Y-100811866D01*
X119020024Y-100824654D01*
X119035930Y-100839070D01*
X119050346Y-100854976D01*
X119063134Y-100872219D01*
X119074170Y-100890632D01*
X119083349Y-100910038D01*
X119090581Y-100930250D01*
X119095797Y-100951074D01*
X119098947Y-100972309D01*
X119100000Y-100993750D01*
X119100000Y-101506250D01*
X119098947Y-101527691D01*
X119095797Y-101548926D01*
X119090581Y-101569750D01*
X119083349Y-101589962D01*
X119074170Y-101609368D01*
X119063134Y-101627781D01*
X119050346Y-101645024D01*
X119035930Y-101660930D01*
X119020024Y-101675346D01*
X119002781Y-101688134D01*
X118984368Y-101699170D01*
X118964962Y-101708349D01*
X118944750Y-101715581D01*
X118923926Y-101720797D01*
X118902691Y-101723947D01*
X118881250Y-101725000D01*
X118443750Y-101725000D01*
X118422309Y-101723947D01*
X118401074Y-101720797D01*
X118380250Y-101715581D01*
X118360038Y-101708349D01*
X118340632Y-101699170D01*
X118322219Y-101688134D01*
X118304976Y-101675346D01*
X118289070Y-101660930D01*
X118274654Y-101645024D01*
X118261866Y-101627781D01*
X118250830Y-101609368D01*
X118241651Y-101589962D01*
X118234419Y-101569750D01*
X118229203Y-101548926D01*
X118226053Y-101527691D01*
X118225000Y-101506250D01*
X118225000Y-100993750D01*
X118226053Y-100972309D01*
X118229203Y-100951074D01*
X118234419Y-100930250D01*
X118241651Y-100910038D01*
X118250830Y-100890632D01*
X118261866Y-100872219D01*
X118274654Y-100854976D01*
X118289070Y-100839070D01*
X118304976Y-100824654D01*
X118322219Y-100811866D01*
X118340632Y-100800830D01*
X118360038Y-100791651D01*
X118380250Y-100784419D01*
X118401074Y-100779203D01*
X118422309Y-100776053D01*
X118443750Y-100775000D01*
X118881250Y-100775000D01*
X118902691Y-100776053D01*
X118902691Y-100776053D01*
G37*
D20*
X118662500Y-101250000D03*
D19*
G36*
X120477691Y-98076053D02*
G01*
X120498926Y-98079203D01*
X120519750Y-98084419D01*
X120539962Y-98091651D01*
X120559368Y-98100830D01*
X120577781Y-98111866D01*
X120595024Y-98124654D01*
X120610930Y-98139070D01*
X120625346Y-98154976D01*
X120638134Y-98172219D01*
X120649170Y-98190632D01*
X120658349Y-98210038D01*
X120665581Y-98230250D01*
X120670797Y-98251074D01*
X120673947Y-98272309D01*
X120675000Y-98293750D01*
X120675000Y-98806250D01*
X120673947Y-98827691D01*
X120670797Y-98848926D01*
X120665581Y-98869750D01*
X120658349Y-98889962D01*
X120649170Y-98909368D01*
X120638134Y-98927781D01*
X120625346Y-98945024D01*
X120610930Y-98960930D01*
X120595024Y-98975346D01*
X120577781Y-98988134D01*
X120559368Y-98999170D01*
X120539962Y-99008349D01*
X120519750Y-99015581D01*
X120498926Y-99020797D01*
X120477691Y-99023947D01*
X120456250Y-99025000D01*
X120018750Y-99025000D01*
X119997309Y-99023947D01*
X119976074Y-99020797D01*
X119955250Y-99015581D01*
X119935038Y-99008349D01*
X119915632Y-98999170D01*
X119897219Y-98988134D01*
X119879976Y-98975346D01*
X119864070Y-98960930D01*
X119849654Y-98945024D01*
X119836866Y-98927781D01*
X119825830Y-98909368D01*
X119816651Y-98889962D01*
X119809419Y-98869750D01*
X119804203Y-98848926D01*
X119801053Y-98827691D01*
X119800000Y-98806250D01*
X119800000Y-98293750D01*
X119801053Y-98272309D01*
X119804203Y-98251074D01*
X119809419Y-98230250D01*
X119816651Y-98210038D01*
X119825830Y-98190632D01*
X119836866Y-98172219D01*
X119849654Y-98154976D01*
X119864070Y-98139070D01*
X119879976Y-98124654D01*
X119897219Y-98111866D01*
X119915632Y-98100830D01*
X119935038Y-98091651D01*
X119955250Y-98084419D01*
X119976074Y-98079203D01*
X119997309Y-98076053D01*
X120018750Y-98075000D01*
X120456250Y-98075000D01*
X120477691Y-98076053D01*
X120477691Y-98076053D01*
G37*
D20*
X120237500Y-98550000D03*
D19*
G36*
X118902691Y-98076053D02*
G01*
X118923926Y-98079203D01*
X118944750Y-98084419D01*
X118964962Y-98091651D01*
X118984368Y-98100830D01*
X119002781Y-98111866D01*
X119020024Y-98124654D01*
X119035930Y-98139070D01*
X119050346Y-98154976D01*
X119063134Y-98172219D01*
X119074170Y-98190632D01*
X119083349Y-98210038D01*
X119090581Y-98230250D01*
X119095797Y-98251074D01*
X119098947Y-98272309D01*
X119100000Y-98293750D01*
X119100000Y-98806250D01*
X119098947Y-98827691D01*
X119095797Y-98848926D01*
X119090581Y-98869750D01*
X119083349Y-98889962D01*
X119074170Y-98909368D01*
X119063134Y-98927781D01*
X119050346Y-98945024D01*
X119035930Y-98960930D01*
X119020024Y-98975346D01*
X119002781Y-98988134D01*
X118984368Y-98999170D01*
X118964962Y-99008349D01*
X118944750Y-99015581D01*
X118923926Y-99020797D01*
X118902691Y-99023947D01*
X118881250Y-99025000D01*
X118443750Y-99025000D01*
X118422309Y-99023947D01*
X118401074Y-99020797D01*
X118380250Y-99015581D01*
X118360038Y-99008349D01*
X118340632Y-98999170D01*
X118322219Y-98988134D01*
X118304976Y-98975346D01*
X118289070Y-98960930D01*
X118274654Y-98945024D01*
X118261866Y-98927781D01*
X118250830Y-98909368D01*
X118241651Y-98889962D01*
X118234419Y-98869750D01*
X118229203Y-98848926D01*
X118226053Y-98827691D01*
X118225000Y-98806250D01*
X118225000Y-98293750D01*
X118226053Y-98272309D01*
X118229203Y-98251074D01*
X118234419Y-98230250D01*
X118241651Y-98210038D01*
X118250830Y-98190632D01*
X118261866Y-98172219D01*
X118274654Y-98154976D01*
X118289070Y-98139070D01*
X118304976Y-98124654D01*
X118322219Y-98111866D01*
X118340632Y-98100830D01*
X118360038Y-98091651D01*
X118380250Y-98084419D01*
X118401074Y-98079203D01*
X118422309Y-98076053D01*
X118443750Y-98075000D01*
X118881250Y-98075000D01*
X118902691Y-98076053D01*
X118902691Y-98076053D01*
G37*
D20*
X118662500Y-98550000D03*
D35*
X103750000Y-94330000D03*
X103250000Y-94330000D03*
X102750000Y-94330000D03*
X102250000Y-94330000D03*
X101750000Y-94330000D03*
X101250000Y-94330000D03*
X100750000Y-94330000D03*
X100250000Y-94330000D03*
X99750000Y-94330000D03*
X99250000Y-94330000D03*
X98750000Y-94330000D03*
X98250000Y-94330000D03*
X97750000Y-94330000D03*
X97250000Y-94330000D03*
X96750000Y-94330000D03*
X96250000Y-94330000D03*
D36*
X94330000Y-96250000D03*
X94330000Y-96750000D03*
X94330000Y-97250000D03*
X94330000Y-97750000D03*
X94330000Y-98250000D03*
X94330000Y-98750000D03*
X94330000Y-99250000D03*
X94330000Y-99750000D03*
X94330000Y-100250000D03*
X94330000Y-100750000D03*
X94330000Y-101250000D03*
X94330000Y-101750000D03*
X94330000Y-102250000D03*
X94330000Y-102750000D03*
X94330000Y-103250000D03*
X94330000Y-103750000D03*
D35*
X96250000Y-105670000D03*
X96750000Y-105670000D03*
X97250000Y-105670000D03*
X97750000Y-105670000D03*
X98250000Y-105670000D03*
X98750000Y-105670000D03*
X99250000Y-105670000D03*
X99750000Y-105670000D03*
X100250000Y-105670000D03*
X100750000Y-105670000D03*
X101250000Y-105670000D03*
X101750000Y-105670000D03*
X102250000Y-105670000D03*
X102750000Y-105670000D03*
X103250000Y-105670000D03*
X103750000Y-105670000D03*
D36*
X105670000Y-103750000D03*
X105670000Y-103250000D03*
X105670000Y-102750000D03*
X105670000Y-102250000D03*
X105670000Y-101750000D03*
X105670000Y-101250000D03*
X105670000Y-100750000D03*
X105670000Y-100250000D03*
X105670000Y-99750000D03*
X105670000Y-99250000D03*
X105670000Y-98750000D03*
X105670000Y-98250000D03*
X105670000Y-97750000D03*
X105670000Y-97250000D03*
X105670000Y-96750000D03*
X105670000Y-96250000D03*
D37*
X76953000Y-102474700D03*
X78223000Y-102474700D03*
X79493000Y-102474700D03*
X80763000Y-102474700D03*
X80763000Y-95845300D03*
X79493000Y-95845300D03*
X78223000Y-95845300D03*
X76953000Y-95845300D03*
D14*
X131025000Y-101026000D03*
X129275000Y-99126000D03*
D13*
X131025000Y-98676000D03*
D12*
X129275000Y-101376000D03*
M02*
