M48
; DRILL file {KiCad (5.1.4-0-10_14)} date Monday, November 18, 2019 at 04:06:05 PM
; FORMAT={-:-/ absolute / inch / decimal}
; #@! TF.CreationDate,2019-11-18T16:06:05-06:00
; #@! TF.GenerationSoftware,Kicad,Pcbnew,(5.1.4-0-10_14)
FMAT,2
INCH
T1C0.0100
T2C0.0300
T3C0.0394
T4C0.0400
T5C0.0402
T6C0.1259
%
G90
G05
T1
X2.4567Y-3.877
X2.6171Y-3.6417
X2.6476Y-4.2657
X2.7224Y-4.749
X2.877Y-3.564
X2.8996Y-4.563
X2.9488Y-3.374
X2.9488Y-4.1506
X2.9842Y-4.0073
X3.0305Y-4.5482
X3.0335Y-4.2874
X3.0453Y-4.3524
X3.0471Y-2.6045
X3.1216Y-4.7042
X3.1535Y-4.5728
X3.2028Y-5.3484
X3.2061Y-4.7666
X3.2126Y-2.8937
X3.2244Y-4.1998
X3.2451Y-3.564
X3.3819Y-5.4272
X3.4183Y-4.936
X3.4724Y-3.8228
X3.4961Y-2.8071
X3.5492Y-4.5541
X3.5965Y-3.8031
X3.6063Y-5.252
X3.6142Y-2.687
X3.626Y-2.3583
X3.6629Y-4.0541
X3.6781Y-4.8061
X3.7224Y-2.6378
X3.749Y-3.2392
X3.759Y-4.0534
X3.7598Y-5.5394
X3.7746Y-4.0236
X3.7865Y-3.8538
X3.8169Y-4.811
X3.8268Y-4.4557
X3.842Y-4.2497
X3.8513Y-4.0919
X3.8533Y-4.0623
X3.8533Y-5.0787
X3.8612Y-3.9267
X3.8681Y-4.8826
X3.8698Y-4.2836
X3.874Y-3.627
X3.8858Y-4.938
X3.8876Y-4.5782
X3.8957Y-5.189
X3.9139Y-3.7905
X3.9223Y-3.9637
X3.9419Y-4.4961
X3.9606Y-2.9685
X3.9636Y-3.624
X3.9823Y-5.372
X4.0072Y-3.663
X4.049Y-3.7927
X4.0588Y-3.9002
X4.0699Y-4.2244
X4.0905Y-3.7752
X4.0912Y-4.6445
X4.0925Y-3.9508
X4.0935Y-5.1939
X4.1142Y-4.8826
X4.1339Y-5.0748
X4.1358Y-4.4498
X4.1654Y-2.7815
X4.1969Y-3.5148
X4.1989Y-2.9848
X4.2094Y-4.6645
X4.2116Y-4.1752
X4.2146Y-3.8901
X4.2178Y-3.8608
X4.2244Y-5.6024
X4.2283Y-3.311
X4.2559Y-5.5157
X4.2776Y-3.1752
X4.2974Y-3.5591
X4.3199Y-3.7205
X4.3228Y-2.8189
X4.3504Y-3.4557
X4.3563Y-3.1457
X4.3701Y-2.7362
X4.3967Y-3.7224
X4.4016Y-5.3957
X4.4076Y-3.5633
X4.4213Y-5.0571
X4.4862Y-3.4998
X4.499Y-3.8278
X4.5108Y-3.69
X4.5719Y-3.5583
X4.5807Y-3.4213
X4.6043Y-3.777
X4.6437Y-3.6939
X4.6555Y-4.0472
X4.7362Y-3.4272
X4.7598Y-2.7657
X4.7771Y-3.8706
X4.7874Y-4.7165
X4.8071Y-4.8189
X4.8169Y-3.0492
X4.8375Y-3.5596
X4.8491Y-3.5868
X4.8504Y-3.9665
X4.8622Y-3.3406
X4.878Y-2.9301
X4.9193Y-3.4252
X4.9232Y-3.9331
X4.9311Y-4.3543
X4.9351Y-3.5879
X5.0128Y-3.9793
X5.0295Y-4.5315
X5.1004Y-3.8366
X5.1083Y-4.0787
X5.1319Y-3.8406
X5.1319Y-4.1063
X5.1319Y-4.8612
X5.1683Y-4.2963
X5.1791Y-4.1033
X5.2287Y-3.499
X5.2884Y-4.1319
T2
X3.7825Y-3.1732
X3.8825Y-3.1732
X3.9825Y-3.1732
X4.0825Y-3.1732
T3
X5.3918Y-4.8799
X2.5543Y-4.9847
X5.1538Y-2.7031
X5.5566Y-3.3095
X2.3981Y-4.7391
X2.2831Y-4.4553
X4.9847Y-5.3197
X2.2321Y-3.6207
X2.6585Y-2.763
X2.2163Y-4.1558
X5.2093Y-5.1121
X2.7629Y-5.2132
X2.5119Y-2.9481
X2.847Y-2.5885
X5.6231Y-3.5348
X2.2923Y-3.3837
X5.4499Y-3.0901
X5.5345Y-4.6133
X5.6255Y-4.3336
X5.3197Y-2.8854
X5.6635Y-3.7806
X2.3836Y-3.1611
T4
X4.3512Y-2.4705
X4.3512Y-2.5705
X4.4512Y-2.4705
X4.4512Y-2.5705
X4.5512Y-2.4705
X4.5512Y-2.5705
T5
X5.0008Y-3.5709
X5.0008Y-4.0709
T6
X2.6457Y-5.0157
X5.3638Y-3.0466
X2.4827Y-4.7856
X2.3583Y-4.5157
X2.2798Y-4.2284
X2.8192Y-2.6809
X5.2284Y-2.8543
X5.5158Y-4.5187
X5.5906Y-4.2436
X5.6025Y-3.7059
X5.0591Y-2.685
X5.4764Y-3.2559
X5.0157Y-5.2284
X2.6454Y-2.8585
X5.224Y-5.0168
X2.2717Y-3.7087
X2.8583Y-5.2279
X5.5512Y-3.4705
X2.5106Y-3.0445
X2.3193Y-3.4764
X2.3974Y-3.2565
X5.3898Y-4.7835
T0
M30
