G04 #@! TF.GenerationSoftware,KiCad,Pcbnew,(5.1.4-0-10_14)*
G04 #@! TF.CreationDate,2019-09-22T18:05:18-05:00*
G04 #@! TF.ProjectId,CircuitPythonBadge v1_2,43697263-7569-4745-9079-74686f6e4261,rev?*
G04 #@! TF.SameCoordinates,Original*
G04 #@! TF.FileFunction,Legend,Top*
G04 #@! TF.FilePolarity,Positive*
%FSLAX46Y46*%
G04 Gerber Fmt 4.6, Leading zero omitted, Abs format (unit mm)*
G04 Created by KiCad (PCBNEW (5.1.4-0-10_14)) date 2019-09-22 18:05:18*
%MOMM*%
%LPD*%
G04 APERTURE LIST*
%ADD10C,0.150000*%
%ADD11C,0.010000*%
%ADD12C,0.066040*%
%ADD13C,0.500000*%
%ADD14C,0.203200*%
%ADD15C,0.120000*%
%ADD16C,0.127000*%
%ADD17C,0.152400*%
%ADD18C,0.406400*%
%ADD19C,0.038100*%
%ADD20C,0.200000*%
%ADD21C,0.025400*%
G04 APERTURE END LIST*
D10*
X123009523Y-130004761D02*
X123152380Y-130052380D01*
X123390476Y-130052380D01*
X123485714Y-130004761D01*
X123533333Y-129957142D01*
X123580952Y-129861904D01*
X123580952Y-129766666D01*
X123533333Y-129671428D01*
X123485714Y-129623809D01*
X123390476Y-129576190D01*
X123200000Y-129528571D01*
X123104761Y-129480952D01*
X123057142Y-129433333D01*
X123009523Y-129338095D01*
X123009523Y-129242857D01*
X123057142Y-129147619D01*
X123104761Y-129100000D01*
X123200000Y-129052380D01*
X123438095Y-129052380D01*
X123580952Y-129100000D01*
X124580952Y-129957142D02*
X124533333Y-130004761D01*
X124390476Y-130052380D01*
X124295238Y-130052380D01*
X124152380Y-130004761D01*
X124057142Y-129909523D01*
X124009523Y-129814285D01*
X123961904Y-129623809D01*
X123961904Y-129480952D01*
X124009523Y-129290476D01*
X124057142Y-129195238D01*
X124152380Y-129100000D01*
X124295238Y-129052380D01*
X124390476Y-129052380D01*
X124533333Y-129100000D01*
X124580952Y-129147619D01*
X125485714Y-130052380D02*
X125009523Y-130052380D01*
X125009523Y-129052380D01*
X127985714Y-125104761D02*
X128128571Y-125152380D01*
X128366666Y-125152380D01*
X128461904Y-125104761D01*
X128509523Y-125057142D01*
X128557142Y-124961904D01*
X128557142Y-124866666D01*
X128509523Y-124771428D01*
X128461904Y-124723809D01*
X128366666Y-124676190D01*
X128176190Y-124628571D01*
X128080952Y-124580952D01*
X128033333Y-124533333D01*
X127985714Y-124438095D01*
X127985714Y-124342857D01*
X128033333Y-124247619D01*
X128080952Y-124200000D01*
X128176190Y-124152380D01*
X128414285Y-124152380D01*
X128557142Y-124200000D01*
X128985714Y-125152380D02*
X128985714Y-124152380D01*
X129223809Y-124152380D01*
X129366666Y-124200000D01*
X129461904Y-124295238D01*
X129509523Y-124390476D01*
X129557142Y-124580952D01*
X129557142Y-124723809D01*
X129509523Y-124914285D01*
X129461904Y-125009523D01*
X129366666Y-125104761D01*
X129223809Y-125152380D01*
X128985714Y-125152380D01*
X129938095Y-124866666D02*
X130414285Y-124866666D01*
X129842857Y-125152380D02*
X130176190Y-124152380D01*
X130509523Y-125152380D01*
X85483333Y-61854761D02*
X85626190Y-61902380D01*
X85864285Y-61902380D01*
X85959523Y-61854761D01*
X86007142Y-61807142D01*
X86054761Y-61711904D01*
X86054761Y-61616666D01*
X86007142Y-61521428D01*
X85959523Y-61473809D01*
X85864285Y-61426190D01*
X85673809Y-61378571D01*
X85578571Y-61330952D01*
X85530952Y-61283333D01*
X85483333Y-61188095D01*
X85483333Y-61092857D01*
X85530952Y-60997619D01*
X85578571Y-60950000D01*
X85673809Y-60902380D01*
X85911904Y-60902380D01*
X86054761Y-60950000D01*
X86340476Y-61235714D02*
X86721428Y-61235714D01*
X86483333Y-60902380D02*
X86483333Y-61759523D01*
X86530952Y-61854761D01*
X86626190Y-61902380D01*
X86721428Y-61902380D01*
X87483333Y-61902380D02*
X87483333Y-61378571D01*
X87435714Y-61283333D01*
X87340476Y-61235714D01*
X87150000Y-61235714D01*
X87054761Y-61283333D01*
X87483333Y-61854761D02*
X87388095Y-61902380D01*
X87150000Y-61902380D01*
X87054761Y-61854761D01*
X87007142Y-61759523D01*
X87007142Y-61664285D01*
X87054761Y-61569047D01*
X87150000Y-61521428D01*
X87388095Y-61521428D01*
X87483333Y-61473809D01*
X87816666Y-61235714D02*
X88197619Y-61235714D01*
X87959523Y-60902380D02*
X87959523Y-61759523D01*
X88007142Y-61854761D01*
X88102380Y-61902380D01*
X88197619Y-61902380D01*
X88959523Y-61235714D02*
X88959523Y-61902380D01*
X88530952Y-61235714D02*
X88530952Y-61759523D01*
X88578571Y-61854761D01*
X88673809Y-61902380D01*
X88816666Y-61902380D01*
X88911904Y-61854761D01*
X88959523Y-61807142D01*
X89388095Y-61854761D02*
X89483333Y-61902380D01*
X89673809Y-61902380D01*
X89769047Y-61854761D01*
X89816666Y-61759523D01*
X89816666Y-61711904D01*
X89769047Y-61616666D01*
X89673809Y-61569047D01*
X89530952Y-61569047D01*
X89435714Y-61521428D01*
X89388095Y-61426190D01*
X89388095Y-61378571D01*
X89435714Y-61283333D01*
X89530952Y-61235714D01*
X89673809Y-61235714D01*
X89769047Y-61283333D01*
X80573809Y-61902380D02*
X80573809Y-60902380D01*
X80954761Y-60902380D01*
X81050000Y-60950000D01*
X81097619Y-60997619D01*
X81145238Y-61092857D01*
X81145238Y-61235714D01*
X81097619Y-61330952D01*
X81050000Y-61378571D01*
X80954761Y-61426190D01*
X80573809Y-61426190D01*
X81716666Y-61902380D02*
X81621428Y-61854761D01*
X81573809Y-61807142D01*
X81526190Y-61711904D01*
X81526190Y-61426190D01*
X81573809Y-61330952D01*
X81621428Y-61283333D01*
X81716666Y-61235714D01*
X81859523Y-61235714D01*
X81954761Y-61283333D01*
X82002380Y-61330952D01*
X82050000Y-61426190D01*
X82050000Y-61711904D01*
X82002380Y-61807142D01*
X81954761Y-61854761D01*
X81859523Y-61902380D01*
X81716666Y-61902380D01*
X82383333Y-61235714D02*
X82573809Y-61902380D01*
X82764285Y-61426190D01*
X82954761Y-61902380D01*
X83145238Y-61235714D01*
X83907142Y-61854761D02*
X83811904Y-61902380D01*
X83621428Y-61902380D01*
X83526190Y-61854761D01*
X83478571Y-61759523D01*
X83478571Y-61378571D01*
X83526190Y-61283333D01*
X83621428Y-61235714D01*
X83811904Y-61235714D01*
X83907142Y-61283333D01*
X83954761Y-61378571D01*
X83954761Y-61473809D01*
X83478571Y-61569047D01*
X84383333Y-61902380D02*
X84383333Y-61235714D01*
X84383333Y-61426190D02*
X84430952Y-61330952D01*
X84478571Y-61283333D01*
X84573809Y-61235714D01*
X84669047Y-61235714D01*
X109980952Y-118452380D02*
X109647619Y-117976190D01*
X109409523Y-118452380D02*
X109409523Y-117452380D01*
X109790476Y-117452380D01*
X109885714Y-117500000D01*
X109933333Y-117547619D01*
X109980952Y-117642857D01*
X109980952Y-117785714D01*
X109933333Y-117880952D01*
X109885714Y-117928571D01*
X109790476Y-117976190D01*
X109409523Y-117976190D01*
X110409523Y-118452380D02*
X110409523Y-117785714D01*
X110409523Y-117452380D02*
X110361904Y-117500000D01*
X110409523Y-117547619D01*
X110457142Y-117500000D01*
X110409523Y-117452380D01*
X110409523Y-117547619D01*
X111314285Y-117785714D02*
X111314285Y-118595238D01*
X111266666Y-118690476D01*
X111219047Y-118738095D01*
X111123809Y-118785714D01*
X110980952Y-118785714D01*
X110885714Y-118738095D01*
X111314285Y-118404761D02*
X111219047Y-118452380D01*
X111028571Y-118452380D01*
X110933333Y-118404761D01*
X110885714Y-118357142D01*
X110838095Y-118261904D01*
X110838095Y-117976190D01*
X110885714Y-117880952D01*
X110933333Y-117833333D01*
X111028571Y-117785714D01*
X111219047Y-117785714D01*
X111314285Y-117833333D01*
X111790476Y-118452380D02*
X111790476Y-117452380D01*
X112219047Y-118452380D02*
X112219047Y-117928571D01*
X112171428Y-117833333D01*
X112076190Y-117785714D01*
X111933333Y-117785714D01*
X111838095Y-117833333D01*
X111790476Y-117880952D01*
X112552380Y-117785714D02*
X112933333Y-117785714D01*
X112695238Y-117452380D02*
X112695238Y-118309523D01*
X112742857Y-118404761D01*
X112838095Y-118452380D01*
X112933333Y-118452380D01*
X97933333Y-118452380D02*
X97933333Y-117452380D01*
X98266666Y-118166666D01*
X98600000Y-117452380D01*
X98600000Y-118452380D01*
X99076190Y-118452380D02*
X99076190Y-117785714D01*
X99076190Y-117452380D02*
X99028571Y-117500000D01*
X99076190Y-117547619D01*
X99123809Y-117500000D01*
X99076190Y-117452380D01*
X99076190Y-117547619D01*
X99980952Y-118452380D02*
X99980952Y-117452380D01*
X99980952Y-118404761D02*
X99885714Y-118452380D01*
X99695238Y-118452380D01*
X99600000Y-118404761D01*
X99552380Y-118357142D01*
X99504761Y-118261904D01*
X99504761Y-117976190D01*
X99552380Y-117880952D01*
X99600000Y-117833333D01*
X99695238Y-117785714D01*
X99885714Y-117785714D01*
X99980952Y-117833333D01*
X100885714Y-118452380D02*
X100885714Y-117452380D01*
X100885714Y-118404761D02*
X100790476Y-118452380D01*
X100600000Y-118452380D01*
X100504761Y-118404761D01*
X100457142Y-118357142D01*
X100409523Y-118261904D01*
X100409523Y-117976190D01*
X100457142Y-117880952D01*
X100504761Y-117833333D01*
X100600000Y-117785714D01*
X100790476Y-117785714D01*
X100885714Y-117833333D01*
X101504761Y-118452380D02*
X101409523Y-118404761D01*
X101361904Y-118309523D01*
X101361904Y-117452380D01*
X102266666Y-118404761D02*
X102171428Y-118452380D01*
X101980952Y-118452380D01*
X101885714Y-118404761D01*
X101838095Y-118309523D01*
X101838095Y-117928571D01*
X101885714Y-117833333D01*
X101980952Y-117785714D01*
X102171428Y-117785714D01*
X102266666Y-117833333D01*
X102314285Y-117928571D01*
X102314285Y-118023809D01*
X101838095Y-118119047D01*
X87909523Y-118452380D02*
X87433333Y-118452380D01*
X87433333Y-117452380D01*
X88623809Y-118404761D02*
X88528571Y-118452380D01*
X88338095Y-118452380D01*
X88242857Y-118404761D01*
X88195238Y-118309523D01*
X88195238Y-117928571D01*
X88242857Y-117833333D01*
X88338095Y-117785714D01*
X88528571Y-117785714D01*
X88623809Y-117833333D01*
X88671428Y-117928571D01*
X88671428Y-118023809D01*
X88195238Y-118119047D01*
X88957142Y-117785714D02*
X89338095Y-117785714D01*
X89100000Y-118452380D02*
X89100000Y-117595238D01*
X89147619Y-117500000D01*
X89242857Y-117452380D01*
X89338095Y-117452380D01*
X89528571Y-117785714D02*
X89909523Y-117785714D01*
X89671428Y-117452380D02*
X89671428Y-118309523D01*
X89719047Y-118404761D01*
X89814285Y-118452380D01*
X89909523Y-118452380D01*
X112011904Y-69654761D02*
X112154761Y-69702380D01*
X112392857Y-69702380D01*
X112488095Y-69654761D01*
X112535714Y-69607142D01*
X112583333Y-69511904D01*
X112583333Y-69416666D01*
X112535714Y-69321428D01*
X112488095Y-69273809D01*
X112392857Y-69226190D01*
X112202380Y-69178571D01*
X112107142Y-69130952D01*
X112059523Y-69083333D01*
X112011904Y-68988095D01*
X112011904Y-68892857D01*
X112059523Y-68797619D01*
X112107142Y-68750000D01*
X112202380Y-68702380D01*
X112440476Y-68702380D01*
X112583333Y-68750000D01*
X112964285Y-69416666D02*
X113440476Y-69416666D01*
X112869047Y-69702380D02*
X113202380Y-68702380D01*
X113535714Y-69702380D01*
X114059523Y-68702380D02*
X114250000Y-68702380D01*
X114345238Y-68750000D01*
X114440476Y-68845238D01*
X114488095Y-69035714D01*
X114488095Y-69369047D01*
X114440476Y-69559523D01*
X114345238Y-69654761D01*
X114250000Y-69702380D01*
X114059523Y-69702380D01*
X113964285Y-69654761D01*
X113869047Y-69559523D01*
X113821428Y-69369047D01*
X113821428Y-69035714D01*
X113869047Y-68845238D01*
X113964285Y-68750000D01*
X114059523Y-68702380D01*
X71604761Y-129166666D02*
X72080952Y-129166666D01*
X71509523Y-129452380D02*
X71842857Y-128452380D01*
X72176190Y-129452380D01*
X73033333Y-129452380D02*
X72461904Y-129452380D01*
X72747619Y-129452380D02*
X72747619Y-128452380D01*
X72652380Y-128595238D01*
X72557142Y-128690476D01*
X72461904Y-128738095D01*
X74176190Y-128404761D02*
X73319047Y-129690476D01*
X74366666Y-128452380D02*
X74700000Y-129452380D01*
X75033333Y-128452380D01*
X75557142Y-128452380D02*
X75747619Y-128452380D01*
X75842857Y-128500000D01*
X75938095Y-128595238D01*
X75985714Y-128785714D01*
X75985714Y-129119047D01*
X75938095Y-129309523D01*
X75842857Y-129404761D01*
X75747619Y-129452380D01*
X75557142Y-129452380D01*
X75461904Y-129404761D01*
X75366666Y-129309523D01*
X75319047Y-129119047D01*
X75319047Y-128785714D01*
X75366666Y-128595238D01*
X75461904Y-128500000D01*
X75557142Y-128452380D01*
X76414285Y-128452380D02*
X76414285Y-129261904D01*
X76461904Y-129357142D01*
X76509523Y-129404761D01*
X76604761Y-129452380D01*
X76795238Y-129452380D01*
X76890476Y-129404761D01*
X76938095Y-129357142D01*
X76985714Y-129261904D01*
X76985714Y-128452380D01*
X77319047Y-128452380D02*
X77890476Y-128452380D01*
X77604761Y-129452380D02*
X77604761Y-128452380D01*
X69885714Y-124866666D02*
X70361904Y-124866666D01*
X69790476Y-125152380D02*
X70123809Y-124152380D01*
X70457142Y-125152380D01*
X70742857Y-124247619D02*
X70790476Y-124200000D01*
X70885714Y-124152380D01*
X71123809Y-124152380D01*
X71219047Y-124200000D01*
X71266666Y-124247619D01*
X71314285Y-124342857D01*
X71314285Y-124438095D01*
X71266666Y-124580952D01*
X70695238Y-125152380D01*
X71314285Y-125152380D01*
X66185714Y-119366666D02*
X66661904Y-119366666D01*
X66090476Y-119652380D02*
X66423809Y-118652380D01*
X66757142Y-119652380D01*
X66995238Y-118652380D02*
X67614285Y-118652380D01*
X67280952Y-119033333D01*
X67423809Y-119033333D01*
X67519047Y-119080952D01*
X67566666Y-119128571D01*
X67614285Y-119223809D01*
X67614285Y-119461904D01*
X67566666Y-119557142D01*
X67519047Y-119604761D01*
X67423809Y-119652380D01*
X67138095Y-119652380D01*
X67042857Y-119604761D01*
X66995238Y-119557142D01*
X63185714Y-113166666D02*
X63661904Y-113166666D01*
X63090476Y-113452380D02*
X63423809Y-112452380D01*
X63757142Y-113452380D01*
X64519047Y-112785714D02*
X64519047Y-113452380D01*
X64280952Y-112404761D02*
X64042857Y-113119047D01*
X64661904Y-113119047D01*
X61185714Y-106866666D02*
X61661904Y-106866666D01*
X61090476Y-107152380D02*
X61423809Y-106152380D01*
X61757142Y-107152380D01*
X62566666Y-106152380D02*
X62090476Y-106152380D01*
X62042857Y-106628571D01*
X62090476Y-106580952D01*
X62185714Y-106533333D01*
X62423809Y-106533333D01*
X62519047Y-106580952D01*
X62566666Y-106628571D01*
X62614285Y-106723809D01*
X62614285Y-106961904D01*
X62566666Y-107057142D01*
X62519047Y-107104761D01*
X62423809Y-107152380D01*
X62185714Y-107152380D01*
X62090476Y-107104761D01*
X62042857Y-107057142D01*
X69561904Y-76152380D02*
X69561904Y-75152380D01*
X69800000Y-75152380D01*
X69942857Y-75200000D01*
X70038095Y-75295238D01*
X70085714Y-75390476D01*
X70133333Y-75580952D01*
X70133333Y-75723809D01*
X70085714Y-75914285D01*
X70038095Y-76009523D01*
X69942857Y-76104761D01*
X69800000Y-76152380D01*
X69561904Y-76152380D01*
X70990476Y-75485714D02*
X70990476Y-76152380D01*
X70752380Y-75104761D02*
X70514285Y-75819047D01*
X71133333Y-75819047D01*
X61061904Y-95052380D02*
X61061904Y-94052380D01*
X61300000Y-94052380D01*
X61442857Y-94100000D01*
X61538095Y-94195238D01*
X61585714Y-94290476D01*
X61633333Y-94480952D01*
X61633333Y-94623809D01*
X61585714Y-94814285D01*
X61538095Y-94909523D01*
X61442857Y-95004761D01*
X61300000Y-95052380D01*
X61061904Y-95052380D01*
X62252380Y-94052380D02*
X62347619Y-94052380D01*
X62442857Y-94100000D01*
X62490476Y-94147619D01*
X62538095Y-94242857D01*
X62585714Y-94433333D01*
X62585714Y-94671428D01*
X62538095Y-94861904D01*
X62490476Y-94957142D01*
X62442857Y-95004761D01*
X62347619Y-95052380D01*
X62252380Y-95052380D01*
X62157142Y-95004761D01*
X62109523Y-94957142D01*
X62061904Y-94861904D01*
X62014285Y-94671428D01*
X62014285Y-94433333D01*
X62061904Y-94242857D01*
X62109523Y-94147619D01*
X62157142Y-94100000D01*
X62252380Y-94052380D01*
X63728571Y-94004761D02*
X62871428Y-95290476D01*
X64633333Y-95052380D02*
X64300000Y-94576190D01*
X64061904Y-95052380D02*
X64061904Y-94052380D01*
X64442857Y-94052380D01*
X64538095Y-94100000D01*
X64585714Y-94147619D01*
X64633333Y-94242857D01*
X64633333Y-94385714D01*
X64585714Y-94480952D01*
X64538095Y-94528571D01*
X64442857Y-94576190D01*
X64061904Y-94576190D01*
X64966666Y-94052380D02*
X65633333Y-95052380D01*
X65633333Y-94052380D02*
X64966666Y-95052380D01*
X61980952Y-89752380D02*
X61980952Y-88752380D01*
X62219047Y-88752380D01*
X62361904Y-88800000D01*
X62457142Y-88895238D01*
X62504761Y-88990476D01*
X62552380Y-89180952D01*
X62552380Y-89323809D01*
X62504761Y-89514285D01*
X62457142Y-89609523D01*
X62361904Y-89704761D01*
X62219047Y-89752380D01*
X61980952Y-89752380D01*
X63504761Y-89752380D02*
X62933333Y-89752380D01*
X63219047Y-89752380D02*
X63219047Y-88752380D01*
X63123809Y-88895238D01*
X63028571Y-88990476D01*
X62933333Y-89038095D01*
X64647619Y-88704761D02*
X63790476Y-89990476D01*
X64838095Y-88752380D02*
X65409523Y-88752380D01*
X65123809Y-89752380D02*
X65123809Y-88752380D01*
X65647619Y-88752380D02*
X66314285Y-89752380D01*
X66314285Y-88752380D02*
X65647619Y-89752380D01*
X64061904Y-84652380D02*
X64061904Y-83652380D01*
X64300000Y-83652380D01*
X64442857Y-83700000D01*
X64538095Y-83795238D01*
X64585714Y-83890476D01*
X64633333Y-84080952D01*
X64633333Y-84223809D01*
X64585714Y-84414285D01*
X64538095Y-84509523D01*
X64442857Y-84604761D01*
X64300000Y-84652380D01*
X64061904Y-84652380D01*
X65014285Y-83747619D02*
X65061904Y-83700000D01*
X65157142Y-83652380D01*
X65395238Y-83652380D01*
X65490476Y-83700000D01*
X65538095Y-83747619D01*
X65585714Y-83842857D01*
X65585714Y-83938095D01*
X65538095Y-84080952D01*
X64966666Y-84652380D01*
X65585714Y-84652380D01*
X66561904Y-80052380D02*
X66561904Y-79052380D01*
X66800000Y-79052380D01*
X66942857Y-79100000D01*
X67038095Y-79195238D01*
X67085714Y-79290476D01*
X67133333Y-79480952D01*
X67133333Y-79623809D01*
X67085714Y-79814285D01*
X67038095Y-79909523D01*
X66942857Y-80004761D01*
X66800000Y-80052380D01*
X66561904Y-80052380D01*
X67466666Y-79052380D02*
X68085714Y-79052380D01*
X67752380Y-79433333D01*
X67895238Y-79433333D01*
X67990476Y-79480952D01*
X68038095Y-79528571D01*
X68085714Y-79623809D01*
X68085714Y-79861904D01*
X68038095Y-79957142D01*
X67990476Y-80004761D01*
X67895238Y-80052380D01*
X67609523Y-80052380D01*
X67514285Y-80004761D01*
X67466666Y-79957142D01*
X73561904Y-72052380D02*
X73561904Y-71052380D01*
X73800000Y-71052380D01*
X73942857Y-71100000D01*
X74038095Y-71195238D01*
X74085714Y-71290476D01*
X74133333Y-71480952D01*
X74133333Y-71623809D01*
X74085714Y-71814285D01*
X74038095Y-71909523D01*
X73942857Y-72004761D01*
X73800000Y-72052380D01*
X73561904Y-72052380D01*
X75038095Y-71052380D02*
X74561904Y-71052380D01*
X74514285Y-71528571D01*
X74561904Y-71480952D01*
X74657142Y-71433333D01*
X74895238Y-71433333D01*
X74990476Y-71480952D01*
X75038095Y-71528571D01*
X75085714Y-71623809D01*
X75085714Y-71861904D01*
X75038095Y-71957142D01*
X74990476Y-72004761D01*
X74895238Y-72052380D01*
X74657142Y-72052380D01*
X74561904Y-72004761D01*
X74514285Y-71957142D01*
X131514285Y-119804761D02*
X131657142Y-119852380D01*
X131895238Y-119852380D01*
X131990476Y-119804761D01*
X132038095Y-119757142D01*
X132085714Y-119661904D01*
X132085714Y-119566666D01*
X132038095Y-119471428D01*
X131990476Y-119423809D01*
X131895238Y-119376190D01*
X131704761Y-119328571D01*
X131609523Y-119280952D01*
X131561904Y-119233333D01*
X131514285Y-119138095D01*
X131514285Y-119042857D01*
X131561904Y-118947619D01*
X131609523Y-118900000D01*
X131704761Y-118852380D01*
X131942857Y-118852380D01*
X132085714Y-118900000D01*
X133085714Y-119757142D02*
X133038095Y-119804761D01*
X132895238Y-119852380D01*
X132800000Y-119852380D01*
X132657142Y-119804761D01*
X132561904Y-119709523D01*
X132514285Y-119614285D01*
X132466666Y-119423809D01*
X132466666Y-119280952D01*
X132514285Y-119090476D01*
X132561904Y-118995238D01*
X132657142Y-118900000D01*
X132800000Y-118852380D01*
X132895238Y-118852380D01*
X133038095Y-118900000D01*
X133085714Y-118947619D01*
X133514285Y-119852380D02*
X133514285Y-118852380D01*
X134085714Y-119852380D02*
X133657142Y-119280952D01*
X134085714Y-118852380D02*
X133514285Y-119423809D01*
X133828571Y-113752380D02*
X133828571Y-112752380D01*
X134161904Y-113466666D01*
X134495238Y-112752380D01*
X134495238Y-113752380D01*
X135161904Y-112752380D02*
X135352380Y-112752380D01*
X135447619Y-112800000D01*
X135542857Y-112895238D01*
X135590476Y-113085714D01*
X135590476Y-113419047D01*
X135542857Y-113609523D01*
X135447619Y-113704761D01*
X135352380Y-113752380D01*
X135161904Y-113752380D01*
X135066666Y-113704761D01*
X134971428Y-113609523D01*
X134923809Y-113419047D01*
X134923809Y-113085714D01*
X134971428Y-112895238D01*
X135066666Y-112800000D01*
X135161904Y-112752380D01*
X135971428Y-113704761D02*
X136114285Y-113752380D01*
X136352380Y-113752380D01*
X136447619Y-113704761D01*
X136495238Y-113657142D01*
X136542857Y-113561904D01*
X136542857Y-113466666D01*
X136495238Y-113371428D01*
X136447619Y-113323809D01*
X136352380Y-113276190D01*
X136161904Y-113228571D01*
X136066666Y-113180952D01*
X136019047Y-113133333D01*
X135971428Y-113038095D01*
X135971428Y-112942857D01*
X136019047Y-112847619D01*
X136066666Y-112800000D01*
X136161904Y-112752380D01*
X136400000Y-112752380D01*
X136542857Y-112800000D01*
X136971428Y-113752380D02*
X136971428Y-112752380D01*
X135528571Y-107752380D02*
X135528571Y-106752380D01*
X135861904Y-107466666D01*
X136195238Y-106752380D01*
X136195238Y-107752380D01*
X136671428Y-107752380D02*
X136671428Y-106752380D01*
X137100000Y-107704761D02*
X137242857Y-107752380D01*
X137480952Y-107752380D01*
X137576190Y-107704761D01*
X137623809Y-107657142D01*
X137671428Y-107561904D01*
X137671428Y-107466666D01*
X137623809Y-107371428D01*
X137576190Y-107323809D01*
X137480952Y-107276190D01*
X137290476Y-107228571D01*
X137195238Y-107180952D01*
X137147619Y-107133333D01*
X137100000Y-107038095D01*
X137100000Y-106942857D01*
X137147619Y-106847619D01*
X137195238Y-106800000D01*
X137290476Y-106752380D01*
X137528571Y-106752380D01*
X137671428Y-106800000D01*
X138290476Y-106752380D02*
X138480952Y-106752380D01*
X138576190Y-106800000D01*
X138671428Y-106895238D01*
X138719047Y-107085714D01*
X138719047Y-107419047D01*
X138671428Y-107609523D01*
X138576190Y-107704761D01*
X138480952Y-107752380D01*
X138290476Y-107752380D01*
X138195238Y-107704761D01*
X138100000Y-107609523D01*
X138052380Y-107419047D01*
X138052380Y-107085714D01*
X138100000Y-106895238D01*
X138195238Y-106800000D01*
X138290476Y-106752380D01*
X136738095Y-93900000D02*
X136642857Y-93852380D01*
X136500000Y-93852380D01*
X136357142Y-93900000D01*
X136261904Y-93995238D01*
X136214285Y-94090476D01*
X136166666Y-94280952D01*
X136166666Y-94423809D01*
X136214285Y-94614285D01*
X136261904Y-94709523D01*
X136357142Y-94804761D01*
X136500000Y-94852380D01*
X136595238Y-94852380D01*
X136738095Y-94804761D01*
X136785714Y-94757142D01*
X136785714Y-94423809D01*
X136595238Y-94423809D01*
X137214285Y-94852380D02*
X137214285Y-93852380D01*
X137785714Y-94852380D01*
X137785714Y-93852380D01*
X138261904Y-94852380D02*
X138261904Y-93852380D01*
X138500000Y-93852380D01*
X138642857Y-93900000D01*
X138738095Y-93995238D01*
X138785714Y-94090476D01*
X138833333Y-94280952D01*
X138833333Y-94423809D01*
X138785714Y-94614285D01*
X138738095Y-94709523D01*
X138642857Y-94804761D01*
X138500000Y-94852380D01*
X138261904Y-94852380D01*
X135438095Y-88300000D02*
X135342857Y-88252380D01*
X135200000Y-88252380D01*
X135057142Y-88300000D01*
X134961904Y-88395238D01*
X134914285Y-88490476D01*
X134866666Y-88680952D01*
X134866666Y-88823809D01*
X134914285Y-89014285D01*
X134961904Y-89109523D01*
X135057142Y-89204761D01*
X135200000Y-89252380D01*
X135295238Y-89252380D01*
X135438095Y-89204761D01*
X135485714Y-89157142D01*
X135485714Y-88823809D01*
X135295238Y-88823809D01*
X135914285Y-89252380D02*
X135914285Y-88252380D01*
X136485714Y-89252380D01*
X136485714Y-88252380D01*
X136961904Y-89252380D02*
X136961904Y-88252380D01*
X137200000Y-88252380D01*
X137342857Y-88300000D01*
X137438095Y-88395238D01*
X137485714Y-88490476D01*
X137533333Y-88680952D01*
X137533333Y-88823809D01*
X137485714Y-89014285D01*
X137438095Y-89109523D01*
X137342857Y-89204761D01*
X137200000Y-89252380D01*
X136961904Y-89252380D01*
X133838095Y-83600000D02*
X133742857Y-83552380D01*
X133600000Y-83552380D01*
X133457142Y-83600000D01*
X133361904Y-83695238D01*
X133314285Y-83790476D01*
X133266666Y-83980952D01*
X133266666Y-84123809D01*
X133314285Y-84314285D01*
X133361904Y-84409523D01*
X133457142Y-84504761D01*
X133600000Y-84552380D01*
X133695238Y-84552380D01*
X133838095Y-84504761D01*
X133885714Y-84457142D01*
X133885714Y-84123809D01*
X133695238Y-84123809D01*
X134314285Y-84552380D02*
X134314285Y-83552380D01*
X134885714Y-84552380D01*
X134885714Y-83552380D01*
X135361904Y-84552380D02*
X135361904Y-83552380D01*
X135600000Y-83552380D01*
X135742857Y-83600000D01*
X135838095Y-83695238D01*
X135885714Y-83790476D01*
X135933333Y-83980952D01*
X135933333Y-84123809D01*
X135885714Y-84314285D01*
X135838095Y-84409523D01*
X135742857Y-84504761D01*
X135600000Y-84552380D01*
X135361904Y-84552380D01*
X130961904Y-78752380D02*
X131580952Y-78752380D01*
X131247619Y-79133333D01*
X131390476Y-79133333D01*
X131485714Y-79180952D01*
X131533333Y-79228571D01*
X131580952Y-79323809D01*
X131580952Y-79561904D01*
X131533333Y-79657142D01*
X131485714Y-79704761D01*
X131390476Y-79752380D01*
X131104761Y-79752380D01*
X131009523Y-79704761D01*
X130961904Y-79657142D01*
X131866666Y-78752380D02*
X132200000Y-79752380D01*
X132533333Y-78752380D01*
X132771428Y-78752380D02*
X133390476Y-78752380D01*
X133057142Y-79133333D01*
X133200000Y-79133333D01*
X133295238Y-79180952D01*
X133342857Y-79228571D01*
X133390476Y-79323809D01*
X133390476Y-79561904D01*
X133342857Y-79657142D01*
X133295238Y-79704761D01*
X133200000Y-79752380D01*
X132914285Y-79752380D01*
X132819047Y-79704761D01*
X132771428Y-79657142D01*
X127761904Y-74452380D02*
X128380952Y-74452380D01*
X128047619Y-74833333D01*
X128190476Y-74833333D01*
X128285714Y-74880952D01*
X128333333Y-74928571D01*
X128380952Y-75023809D01*
X128380952Y-75261904D01*
X128333333Y-75357142D01*
X128285714Y-75404761D01*
X128190476Y-75452380D01*
X127904761Y-75452380D01*
X127809523Y-75404761D01*
X127761904Y-75357142D01*
X128666666Y-74452380D02*
X129000000Y-75452380D01*
X129333333Y-74452380D01*
X129571428Y-74452380D02*
X130190476Y-74452380D01*
X129857142Y-74833333D01*
X130000000Y-74833333D01*
X130095238Y-74880952D01*
X130142857Y-74928571D01*
X130190476Y-75023809D01*
X130190476Y-75261904D01*
X130142857Y-75357142D01*
X130095238Y-75404761D01*
X130000000Y-75452380D01*
X129714285Y-75452380D01*
X129619047Y-75404761D01*
X129571428Y-75357142D01*
X123561904Y-70252380D02*
X124180952Y-70252380D01*
X123847619Y-70633333D01*
X123990476Y-70633333D01*
X124085714Y-70680952D01*
X124133333Y-70728571D01*
X124180952Y-70823809D01*
X124180952Y-71061904D01*
X124133333Y-71157142D01*
X124085714Y-71204761D01*
X123990476Y-71252380D01*
X123704761Y-71252380D01*
X123609523Y-71204761D01*
X123561904Y-71157142D01*
X124466666Y-70252380D02*
X124800000Y-71252380D01*
X125133333Y-70252380D01*
X125371428Y-70252380D02*
X125990476Y-70252380D01*
X125657142Y-70633333D01*
X125800000Y-70633333D01*
X125895238Y-70680952D01*
X125942857Y-70728571D01*
X125990476Y-70823809D01*
X125990476Y-71061904D01*
X125942857Y-71157142D01*
X125895238Y-71204761D01*
X125800000Y-71252380D01*
X125514285Y-71252380D01*
X125419047Y-71204761D01*
X125371428Y-71157142D01*
D11*
G36*
X99161168Y-71977937D02*
G01*
X99189109Y-72027836D01*
X99190667Y-72061888D01*
X99163574Y-72166163D01*
X99097659Y-72238600D01*
X99015964Y-72268418D01*
X98941530Y-72244833D01*
X98907434Y-72194412D01*
X98907022Y-72093290D01*
X98974012Y-72012414D01*
X99078520Y-71975105D01*
X99161168Y-71977937D01*
X99161168Y-71977937D01*
G37*
X99161168Y-71977937D02*
X99189109Y-72027836D01*
X99190667Y-72061888D01*
X99163574Y-72166163D01*
X99097659Y-72238600D01*
X99015964Y-72268418D01*
X98941530Y-72244833D01*
X98907434Y-72194412D01*
X98907022Y-72093290D01*
X98974012Y-72012414D01*
X99078520Y-71975105D01*
X99161168Y-71977937D01*
G36*
X95671560Y-71996306D02*
G01*
X95660159Y-72070946D01*
X95657840Y-72080244D01*
X95603068Y-72202939D01*
X95509910Y-72257354D01*
X95452068Y-72263018D01*
X95399686Y-72245991D01*
X95385259Y-72179184D01*
X95388568Y-72126083D01*
X95408254Y-72030560D01*
X95461128Y-71988513D01*
X95544780Y-71974834D01*
X95639923Y-71970630D01*
X95671560Y-71996306D01*
X95671560Y-71996306D01*
G37*
X95671560Y-71996306D02*
X95660159Y-72070946D01*
X95657840Y-72080244D01*
X95603068Y-72202939D01*
X95509910Y-72257354D01*
X95452068Y-72263018D01*
X95399686Y-72245991D01*
X95385259Y-72179184D01*
X95388568Y-72126083D01*
X95408254Y-72030560D01*
X95461128Y-71988513D01*
X95544780Y-71974834D01*
X95639923Y-71970630D01*
X95671560Y-71996306D01*
G36*
X98954342Y-72835770D02*
G01*
X98971474Y-72880236D01*
X98969260Y-72963765D01*
X98947340Y-73096923D01*
X98905352Y-73290274D01*
X98842938Y-73554382D01*
X98837745Y-73576000D01*
X98782404Y-73803159D01*
X98740598Y-73960927D01*
X98706692Y-74062380D01*
X98675051Y-74120593D01*
X98640040Y-74148644D01*
X98596023Y-74159607D01*
X98585690Y-74160895D01*
X98501970Y-74158729D01*
X98473860Y-74111793D01*
X98472603Y-74076228D01*
X98482798Y-74000125D01*
X98509612Y-73860168D01*
X98549257Y-73674672D01*
X98597945Y-73461956D01*
X98611087Y-73406667D01*
X98666209Y-73179538D01*
X98707830Y-73021801D01*
X98741594Y-72920378D01*
X98773145Y-72862185D01*
X98808130Y-72834144D01*
X98852192Y-72823172D01*
X98863484Y-72821771D01*
X98918225Y-72819803D01*
X98954342Y-72835770D01*
X98954342Y-72835770D01*
G37*
X98954342Y-72835770D02*
X98971474Y-72880236D01*
X98969260Y-72963765D01*
X98947340Y-73096923D01*
X98905352Y-73290274D01*
X98842938Y-73554382D01*
X98837745Y-73576000D01*
X98782404Y-73803159D01*
X98740598Y-73960927D01*
X98706692Y-74062380D01*
X98675051Y-74120593D01*
X98640040Y-74148644D01*
X98596023Y-74159607D01*
X98585690Y-74160895D01*
X98501970Y-74158729D01*
X98473860Y-74111793D01*
X98472603Y-74076228D01*
X98482798Y-74000125D01*
X98509612Y-73860168D01*
X98549257Y-73674672D01*
X98597945Y-73461956D01*
X98611087Y-73406667D01*
X98666209Y-73179538D01*
X98707830Y-73021801D01*
X98741594Y-72920378D01*
X98773145Y-72862185D01*
X98808130Y-72834144D01*
X98852192Y-72823172D01*
X98863484Y-72821771D01*
X98918225Y-72819803D01*
X98954342Y-72835770D01*
G36*
X96379080Y-72410566D02*
G01*
X96383691Y-72482806D01*
X96372600Y-72535316D01*
X96309484Y-72641714D01*
X96211790Y-72715551D01*
X96113480Y-72774333D01*
X96051528Y-72826602D01*
X96048741Y-72830490D01*
X96028417Y-72887137D01*
X95993811Y-73009834D01*
X95949307Y-73182049D01*
X95899288Y-73387248D01*
X95884742Y-73449000D01*
X95822929Y-73709093D01*
X95774205Y-73897824D01*
X95733597Y-74026547D01*
X95696134Y-74106619D01*
X95656845Y-74149395D01*
X95610759Y-74166231D01*
X95569677Y-74168667D01*
X95490740Y-74162417D01*
X95465334Y-74150700D01*
X95474424Y-74105861D01*
X95499780Y-73991252D01*
X95538531Y-73819575D01*
X95587806Y-73603536D01*
X95644734Y-73355839D01*
X95655834Y-73307741D01*
X95713908Y-73055053D01*
X95764843Y-72831154D01*
X95805760Y-72648886D01*
X95833781Y-72521094D01*
X95846027Y-72460618D01*
X95846334Y-72457874D01*
X95883181Y-72440397D01*
X95971939Y-72433001D01*
X95973334Y-72433000D01*
X96073285Y-72451330D01*
X96100334Y-72497767D01*
X96113452Y-72531016D01*
X96163075Y-72513130D01*
X96226813Y-72469024D01*
X96328277Y-72406649D01*
X96379080Y-72410566D01*
X96379080Y-72410566D01*
G37*
X96379080Y-72410566D02*
X96383691Y-72482806D01*
X96372600Y-72535316D01*
X96309484Y-72641714D01*
X96211790Y-72715551D01*
X96113480Y-72774333D01*
X96051528Y-72826602D01*
X96048741Y-72830490D01*
X96028417Y-72887137D01*
X95993811Y-73009834D01*
X95949307Y-73182049D01*
X95899288Y-73387248D01*
X95884742Y-73449000D01*
X95822929Y-73709093D01*
X95774205Y-73897824D01*
X95733597Y-74026547D01*
X95696134Y-74106619D01*
X95656845Y-74149395D01*
X95610759Y-74166231D01*
X95569677Y-74168667D01*
X95490740Y-74162417D01*
X95465334Y-74150700D01*
X95474424Y-74105861D01*
X95499780Y-73991252D01*
X95538531Y-73819575D01*
X95587806Y-73603536D01*
X95644734Y-73355839D01*
X95655834Y-73307741D01*
X95713908Y-73055053D01*
X95764843Y-72831154D01*
X95805760Y-72648886D01*
X95833781Y-72521094D01*
X95846027Y-72460618D01*
X95846334Y-72457874D01*
X95883181Y-72440397D01*
X95971939Y-72433001D01*
X95973334Y-72433000D01*
X96073285Y-72451330D01*
X96100334Y-72497767D01*
X96113452Y-72531016D01*
X96163075Y-72513130D01*
X96226813Y-72469024D01*
X96328277Y-72406649D01*
X96379080Y-72410566D01*
G36*
X95516149Y-72446948D02*
G01*
X95550000Y-72478687D01*
X95540989Y-72530891D01*
X95516341Y-72649683D01*
X95479638Y-72819196D01*
X95434459Y-73023562D01*
X95384384Y-73246911D01*
X95332994Y-73473377D01*
X95283868Y-73687090D01*
X95240588Y-73872182D01*
X95206733Y-74012786D01*
X95185883Y-74093032D01*
X95185424Y-74094583D01*
X95125479Y-74155099D01*
X95036295Y-74168667D01*
X94948239Y-74158552D01*
X94925530Y-74119910D01*
X94930500Y-74094583D01*
X94946170Y-74031399D01*
X94977104Y-73899838D01*
X95020014Y-73714132D01*
X95071612Y-73488515D01*
X95128611Y-73237219D01*
X95130976Y-73226750D01*
X95310246Y-72433000D01*
X95430123Y-72433000D01*
X95516149Y-72446948D01*
X95516149Y-72446948D01*
G37*
X95516149Y-72446948D02*
X95550000Y-72478687D01*
X95540989Y-72530891D01*
X95516341Y-72649683D01*
X95479638Y-72819196D01*
X95434459Y-73023562D01*
X95384384Y-73246911D01*
X95332994Y-73473377D01*
X95283868Y-73687090D01*
X95240588Y-73872182D01*
X95206733Y-74012786D01*
X95185883Y-74093032D01*
X95185424Y-74094583D01*
X95125479Y-74155099D01*
X95036295Y-74168667D01*
X94948239Y-74158552D01*
X94925530Y-74119910D01*
X94930500Y-74094583D01*
X94946170Y-74031399D01*
X94977104Y-73899838D01*
X95020014Y-73714132D01*
X95071612Y-73488515D01*
X95128611Y-73237219D01*
X95130976Y-73226750D01*
X95310246Y-72433000D01*
X95430123Y-72433000D01*
X95516149Y-72446948D01*
G36*
X98434828Y-72433000D02*
G01*
X98528896Y-72447183D01*
X98545431Y-72485917D01*
X98530568Y-72541986D01*
X98500474Y-72667186D01*
X98458297Y-72848001D01*
X98407186Y-73070913D01*
X98350289Y-73322407D01*
X98342242Y-73358229D01*
X98158348Y-74177626D01*
X97994624Y-74155666D01*
X97854249Y-74149479D01*
X97728212Y-74163466D01*
X97716643Y-74166474D01*
X97599686Y-74180218D01*
X97516640Y-74167524D01*
X97444615Y-74136074D01*
X97396184Y-74095571D01*
X97370741Y-74033535D01*
X97367680Y-73937487D01*
X97386395Y-73794949D01*
X97426280Y-73593440D01*
X97477483Y-73361534D01*
X97543945Y-73066067D01*
X97595116Y-72842812D01*
X97634684Y-72681469D01*
X97666335Y-72571737D01*
X97693755Y-72503317D01*
X97720632Y-72465907D01*
X97750653Y-72449208D01*
X97787503Y-72442920D01*
X97807047Y-72440771D01*
X97898333Y-72448485D01*
X97920667Y-72485912D01*
X97911709Y-72545447D01*
X97886957Y-72672140D01*
X97849597Y-72850636D01*
X97802813Y-73065581D01*
X97769659Y-73214017D01*
X97709550Y-73488277D01*
X97671268Y-73689520D01*
X97655598Y-73826740D01*
X97663319Y-73908927D01*
X97695213Y-73945074D01*
X97752063Y-73944174D01*
X97830751Y-73916841D01*
X97882818Y-73891103D01*
X97923270Y-73854010D01*
X97958170Y-73791315D01*
X97993585Y-73688770D01*
X98035578Y-73532126D01*
X98090133Y-73307479D01*
X98159115Y-73017647D01*
X98211611Y-72799763D01*
X98251642Y-72643629D01*
X98283227Y-72539047D01*
X98310387Y-72475820D01*
X98337140Y-72443750D01*
X98367507Y-72432638D01*
X98405508Y-72432286D01*
X98434828Y-72433000D01*
X98434828Y-72433000D01*
G37*
X98434828Y-72433000D02*
X98528896Y-72447183D01*
X98545431Y-72485917D01*
X98530568Y-72541986D01*
X98500474Y-72667186D01*
X98458297Y-72848001D01*
X98407186Y-73070913D01*
X98350289Y-73322407D01*
X98342242Y-73358229D01*
X98158348Y-74177626D01*
X97994624Y-74155666D01*
X97854249Y-74149479D01*
X97728212Y-74163466D01*
X97716643Y-74166474D01*
X97599686Y-74180218D01*
X97516640Y-74167524D01*
X97444615Y-74136074D01*
X97396184Y-74095571D01*
X97370741Y-74033535D01*
X97367680Y-73937487D01*
X97386395Y-73794949D01*
X97426280Y-73593440D01*
X97477483Y-73361534D01*
X97543945Y-73066067D01*
X97595116Y-72842812D01*
X97634684Y-72681469D01*
X97666335Y-72571737D01*
X97693755Y-72503317D01*
X97720632Y-72465907D01*
X97750653Y-72449208D01*
X97787503Y-72442920D01*
X97807047Y-72440771D01*
X97898333Y-72448485D01*
X97920667Y-72485912D01*
X97911709Y-72545447D01*
X97886957Y-72672140D01*
X97849597Y-72850636D01*
X97802813Y-73065581D01*
X97769659Y-73214017D01*
X97709550Y-73488277D01*
X97671268Y-73689520D01*
X97655598Y-73826740D01*
X97663319Y-73908927D01*
X97695213Y-73945074D01*
X97752063Y-73944174D01*
X97830751Y-73916841D01*
X97882818Y-73891103D01*
X97923270Y-73854010D01*
X97958170Y-73791315D01*
X97993585Y-73688770D01*
X98035578Y-73532126D01*
X98090133Y-73307479D01*
X98159115Y-73017647D01*
X98211611Y-72799763D01*
X98251642Y-72643629D01*
X98283227Y-72539047D01*
X98310387Y-72475820D01*
X98337140Y-72443750D01*
X98367507Y-72432638D01*
X98405508Y-72432286D01*
X98434828Y-72433000D01*
G36*
X97240628Y-72459541D02*
G01*
X97322150Y-72572229D01*
X97340978Y-72741330D01*
X97324599Y-72853750D01*
X97293167Y-72980086D01*
X97258653Y-73043808D01*
X97204798Y-73065938D01*
X97158888Y-73068000D01*
X97086862Y-73062705D01*
X97052751Y-73031934D01*
X97044017Y-72953357D01*
X97045980Y-72866917D01*
X97045288Y-72743207D01*
X97026199Y-72680565D01*
X96979746Y-72655918D01*
X96962860Y-72652997D01*
X96890567Y-72655641D01*
X96830613Y-72693465D01*
X96777551Y-72776943D01*
X96725931Y-72916552D01*
X96670306Y-73122768D01*
X96630765Y-73291546D01*
X96576687Y-73544099D01*
X96546538Y-73725895D01*
X96540508Y-73847445D01*
X96558788Y-73919264D01*
X96601566Y-73951862D01*
X96642777Y-73957000D01*
X96749706Y-73917049D01*
X96837121Y-73805649D01*
X96894640Y-73637378D01*
X96925578Y-73527518D01*
X96973422Y-73476074D01*
X97061106Y-73457197D01*
X97193073Y-73444227D01*
X97153491Y-73620393D01*
X97069798Y-73875046D01*
X96949377Y-74053943D01*
X96790758Y-74158304D01*
X96592471Y-74189350D01*
X96481334Y-74178328D01*
X96383887Y-74149963D01*
X96317080Y-74096500D01*
X96280162Y-74008449D01*
X96272381Y-73876318D01*
X96292988Y-73690616D01*
X96341230Y-73441851D01*
X96402254Y-73178485D01*
X96471044Y-72912927D01*
X96534994Y-72718834D01*
X96602034Y-72583973D01*
X96680096Y-72496111D01*
X96777111Y-72443016D01*
X96898632Y-72412853D01*
X97098694Y-72405628D01*
X97240628Y-72459541D01*
X97240628Y-72459541D01*
G37*
X97240628Y-72459541D02*
X97322150Y-72572229D01*
X97340978Y-72741330D01*
X97324599Y-72853750D01*
X97293167Y-72980086D01*
X97258653Y-73043808D01*
X97204798Y-73065938D01*
X97158888Y-73068000D01*
X97086862Y-73062705D01*
X97052751Y-73031934D01*
X97044017Y-72953357D01*
X97045980Y-72866917D01*
X97045288Y-72743207D01*
X97026199Y-72680565D01*
X96979746Y-72655918D01*
X96962860Y-72652997D01*
X96890567Y-72655641D01*
X96830613Y-72693465D01*
X96777551Y-72776943D01*
X96725931Y-72916552D01*
X96670306Y-73122768D01*
X96630765Y-73291546D01*
X96576687Y-73544099D01*
X96546538Y-73725895D01*
X96540508Y-73847445D01*
X96558788Y-73919264D01*
X96601566Y-73951862D01*
X96642777Y-73957000D01*
X96749706Y-73917049D01*
X96837121Y-73805649D01*
X96894640Y-73637378D01*
X96925578Y-73527518D01*
X96973422Y-73476074D01*
X97061106Y-73457197D01*
X97193073Y-73444227D01*
X97153491Y-73620393D01*
X97069798Y-73875046D01*
X96949377Y-74053943D01*
X96790758Y-74158304D01*
X96592471Y-74189350D01*
X96481334Y-74178328D01*
X96383887Y-74149963D01*
X96317080Y-74096500D01*
X96280162Y-74008449D01*
X96272381Y-73876318D01*
X96292988Y-73690616D01*
X96341230Y-73441851D01*
X96402254Y-73178485D01*
X96471044Y-72912927D01*
X96534994Y-72718834D01*
X96602034Y-72583973D01*
X96680096Y-72496111D01*
X96777111Y-72443016D01*
X96898632Y-72412853D01*
X97098694Y-72405628D01*
X97240628Y-72459541D01*
G36*
X94778325Y-72415236D02*
G01*
X94863247Y-72456567D01*
X94932711Y-72535768D01*
X94956854Y-72658583D01*
X94957334Y-72686644D01*
X94938358Y-72888992D01*
X94881416Y-73015701D01*
X94786482Y-73066821D01*
X94765761Y-73068000D01*
X94700429Y-73061982D01*
X94670463Y-73029139D01*
X94665238Y-72947282D01*
X94669463Y-72866917D01*
X94673613Y-72745101D01*
X94658393Y-72683814D01*
X94612624Y-72659315D01*
X94568597Y-72652713D01*
X94504463Y-72652473D01*
X94453366Y-72676310D01*
X94409293Y-72735876D01*
X94366227Y-72842823D01*
X94318154Y-73008804D01*
X94259058Y-73245470D01*
X94255959Y-73258316D01*
X94197853Y-73520924D01*
X94168536Y-73712664D01*
X94167937Y-73842265D01*
X94195984Y-73918457D01*
X94250284Y-73949550D01*
X94346592Y-73938284D01*
X94422538Y-73858537D01*
X94484176Y-73703146D01*
X94496388Y-73658207D01*
X94532931Y-73533987D01*
X94571271Y-73471850D01*
X94629252Y-73450746D01*
X94673715Y-73449000D01*
X94753092Y-73454377D01*
X94781868Y-73486767D01*
X94774475Y-73570557D01*
X94767664Y-73607750D01*
X94703525Y-73843039D01*
X94613501Y-74013853D01*
X94526953Y-74096716D01*
X94372324Y-74160748D01*
X94197140Y-74187460D01*
X94089500Y-74178869D01*
X93953382Y-74120965D01*
X93882362Y-74017353D01*
X93870867Y-73858726D01*
X93875065Y-73820747D01*
X93901814Y-73663706D01*
X93944073Y-73465189D01*
X93996211Y-73247053D01*
X94052591Y-73031157D01*
X94107581Y-72839362D01*
X94155545Y-72693524D01*
X94181789Y-72630748D01*
X94286085Y-72510834D01*
X94439220Y-72430100D01*
X94612774Y-72395813D01*
X94778325Y-72415236D01*
X94778325Y-72415236D01*
G37*
X94778325Y-72415236D02*
X94863247Y-72456567D01*
X94932711Y-72535768D01*
X94956854Y-72658583D01*
X94957334Y-72686644D01*
X94938358Y-72888992D01*
X94881416Y-73015701D01*
X94786482Y-73066821D01*
X94765761Y-73068000D01*
X94700429Y-73061982D01*
X94670463Y-73029139D01*
X94665238Y-72947282D01*
X94669463Y-72866917D01*
X94673613Y-72745101D01*
X94658393Y-72683814D01*
X94612624Y-72659315D01*
X94568597Y-72652713D01*
X94504463Y-72652473D01*
X94453366Y-72676310D01*
X94409293Y-72735876D01*
X94366227Y-72842823D01*
X94318154Y-73008804D01*
X94259058Y-73245470D01*
X94255959Y-73258316D01*
X94197853Y-73520924D01*
X94168536Y-73712664D01*
X94167937Y-73842265D01*
X94195984Y-73918457D01*
X94250284Y-73949550D01*
X94346592Y-73938284D01*
X94422538Y-73858537D01*
X94484176Y-73703146D01*
X94496388Y-73658207D01*
X94532931Y-73533987D01*
X94571271Y-73471850D01*
X94629252Y-73450746D01*
X94673715Y-73449000D01*
X94753092Y-73454377D01*
X94781868Y-73486767D01*
X94774475Y-73570557D01*
X94767664Y-73607750D01*
X94703525Y-73843039D01*
X94613501Y-74013853D01*
X94526953Y-74096716D01*
X94372324Y-74160748D01*
X94197140Y-74187460D01*
X94089500Y-74178869D01*
X93953382Y-74120965D01*
X93882362Y-74017353D01*
X93870867Y-73858726D01*
X93875065Y-73820747D01*
X93901814Y-73663706D01*
X93944073Y-73465189D01*
X93996211Y-73247053D01*
X94052591Y-73031157D01*
X94107581Y-72839362D01*
X94155545Y-72693524D01*
X94181789Y-72630748D01*
X94286085Y-72510834D01*
X94439220Y-72430100D01*
X94612774Y-72395813D01*
X94778325Y-72415236D01*
G36*
X95514319Y-74405068D02*
G01*
X95685670Y-74455389D01*
X95750628Y-74492569D01*
X95878931Y-74611677D01*
X95966395Y-74755789D01*
X96020226Y-74943025D01*
X96047630Y-75191506D01*
X96050409Y-75246338D01*
X96043590Y-75647076D01*
X95991340Y-76040432D01*
X95898426Y-76413943D01*
X95769617Y-76755143D01*
X95609680Y-77051568D01*
X95423383Y-77290755D01*
X95215492Y-77460238D01*
X95200163Y-77469221D01*
X94924477Y-77587507D01*
X94646809Y-77624318D01*
X94353414Y-77581084D01*
X94293807Y-77563641D01*
X94032447Y-77481551D01*
X94010210Y-77571359D01*
X93992326Y-77649928D01*
X93962173Y-77788774D01*
X93924630Y-77965264D01*
X93899607Y-78084500D01*
X93850541Y-78320981D01*
X93810782Y-78487549D01*
X93768959Y-78596395D01*
X93713701Y-78659710D01*
X93633639Y-78689684D01*
X93517401Y-78698508D01*
X93353618Y-78698373D01*
X93327079Y-78698333D01*
X93128420Y-78695420D01*
X93000175Y-78685320D01*
X92928246Y-78665992D01*
X92898890Y-78636348D01*
X92901142Y-78580667D01*
X92918948Y-78452858D01*
X92950414Y-78263644D01*
X92993649Y-78023744D01*
X93046760Y-77743881D01*
X93107852Y-77434777D01*
X93132450Y-77313431D01*
X93194849Y-77009002D01*
X94171657Y-77009002D01*
X94180353Y-77038899D01*
X94276991Y-77118964D01*
X94419048Y-77149115D01*
X94582914Y-77128466D01*
X94739067Y-77059877D01*
X94837123Y-76958002D01*
X94935043Y-76778527D01*
X95029854Y-76528470D01*
X95118582Y-76214851D01*
X95145645Y-76100267D01*
X95225365Y-75706344D01*
X95268756Y-75386004D01*
X95274888Y-75135919D01*
X95242831Y-74952763D01*
X95171654Y-74833205D01*
X95060427Y-74773920D01*
X94908219Y-74771577D01*
X94782253Y-74800387D01*
X94647322Y-74863731D01*
X94579869Y-74943522D01*
X94561343Y-75010444D01*
X94528524Y-75147247D01*
X94484352Y-75340915D01*
X94431769Y-75578436D01*
X94373714Y-75846795D01*
X94340543Y-76002695D01*
X94270944Y-76338750D01*
X94220402Y-76599996D01*
X94187771Y-76793845D01*
X94171904Y-76927710D01*
X94171657Y-77009002D01*
X93194849Y-77009002D01*
X93253478Y-76722974D01*
X93359496Y-76211469D01*
X93451461Y-75774719D01*
X93530324Y-75408526D01*
X93597040Y-75108694D01*
X93652562Y-74871026D01*
X93697846Y-74691325D01*
X93733843Y-74565394D01*
X93761508Y-74489037D01*
X93781318Y-74458345D01*
X93854684Y-74439599D01*
X93986693Y-74428280D01*
X94151663Y-74424212D01*
X94323912Y-74427223D01*
X94477757Y-74437137D01*
X94587518Y-74453781D01*
X94616816Y-74464009D01*
X94711431Y-74480359D01*
X94857280Y-74449285D01*
X94891554Y-74438061D01*
X95088801Y-74394598D01*
X95305876Y-74384203D01*
X95514319Y-74405068D01*
X95514319Y-74405068D01*
G37*
X95514319Y-74405068D02*
X95685670Y-74455389D01*
X95750628Y-74492569D01*
X95878931Y-74611677D01*
X95966395Y-74755789D01*
X96020226Y-74943025D01*
X96047630Y-75191506D01*
X96050409Y-75246338D01*
X96043590Y-75647076D01*
X95991340Y-76040432D01*
X95898426Y-76413943D01*
X95769617Y-76755143D01*
X95609680Y-77051568D01*
X95423383Y-77290755D01*
X95215492Y-77460238D01*
X95200163Y-77469221D01*
X94924477Y-77587507D01*
X94646809Y-77624318D01*
X94353414Y-77581084D01*
X94293807Y-77563641D01*
X94032447Y-77481551D01*
X94010210Y-77571359D01*
X93992326Y-77649928D01*
X93962173Y-77788774D01*
X93924630Y-77965264D01*
X93899607Y-78084500D01*
X93850541Y-78320981D01*
X93810782Y-78487549D01*
X93768959Y-78596395D01*
X93713701Y-78659710D01*
X93633639Y-78689684D01*
X93517401Y-78698508D01*
X93353618Y-78698373D01*
X93327079Y-78698333D01*
X93128420Y-78695420D01*
X93000175Y-78685320D01*
X92928246Y-78665992D01*
X92898890Y-78636348D01*
X92901142Y-78580667D01*
X92918948Y-78452858D01*
X92950414Y-78263644D01*
X92993649Y-78023744D01*
X93046760Y-77743881D01*
X93107852Y-77434777D01*
X93132450Y-77313431D01*
X93194849Y-77009002D01*
X94171657Y-77009002D01*
X94180353Y-77038899D01*
X94276991Y-77118964D01*
X94419048Y-77149115D01*
X94582914Y-77128466D01*
X94739067Y-77059877D01*
X94837123Y-76958002D01*
X94935043Y-76778527D01*
X95029854Y-76528470D01*
X95118582Y-76214851D01*
X95145645Y-76100267D01*
X95225365Y-75706344D01*
X95268756Y-75386004D01*
X95274888Y-75135919D01*
X95242831Y-74952763D01*
X95171654Y-74833205D01*
X95060427Y-74773920D01*
X94908219Y-74771577D01*
X94782253Y-74800387D01*
X94647322Y-74863731D01*
X94579869Y-74943522D01*
X94561343Y-75010444D01*
X94528524Y-75147247D01*
X94484352Y-75340915D01*
X94431769Y-75578436D01*
X94373714Y-75846795D01*
X94340543Y-76002695D01*
X94270944Y-76338750D01*
X94220402Y-76599996D01*
X94187771Y-76793845D01*
X94171904Y-76927710D01*
X94171657Y-77009002D01*
X93194849Y-77009002D01*
X93253478Y-76722974D01*
X93359496Y-76211469D01*
X93451461Y-75774719D01*
X93530324Y-75408526D01*
X93597040Y-75108694D01*
X93652562Y-74871026D01*
X93697846Y-74691325D01*
X93733843Y-74565394D01*
X93761508Y-74489037D01*
X93781318Y-74458345D01*
X93854684Y-74439599D01*
X93986693Y-74428280D01*
X94151663Y-74424212D01*
X94323912Y-74427223D01*
X94477757Y-74437137D01*
X94587518Y-74453781D01*
X94616816Y-74464009D01*
X94711431Y-74480359D01*
X94857280Y-74449285D01*
X94891554Y-74438061D01*
X95088801Y-74394598D01*
X95305876Y-74384203D01*
X95514319Y-74405068D01*
G36*
X102170016Y-71346020D02*
G01*
X102393598Y-71510142D01*
X102458525Y-71577191D01*
X102545458Y-71685880D01*
X102607045Y-71799386D01*
X102646947Y-71934353D01*
X102668822Y-72107430D01*
X102676332Y-72335264D01*
X102674601Y-72560000D01*
X102663952Y-72819745D01*
X102639762Y-73094437D01*
X102600151Y-73395524D01*
X102543239Y-73734452D01*
X102467146Y-74122668D01*
X102369990Y-74571619D01*
X102278781Y-74969597D01*
X102217567Y-75235560D01*
X102164378Y-75473961D01*
X102121837Y-75672426D01*
X102092569Y-75818582D01*
X102079196Y-75900056D01*
X102078979Y-75912103D01*
X102101723Y-75889657D01*
X102156491Y-75804093D01*
X102236186Y-75667381D01*
X102333713Y-75491489D01*
X102387030Y-75392435D01*
X102560408Y-75078212D01*
X102710913Y-74834282D01*
X102847327Y-74652407D01*
X102978433Y-74524353D01*
X103113012Y-74441885D01*
X103259847Y-74396768D01*
X103427718Y-74380765D01*
X103466333Y-74380333D01*
X103715048Y-74407729D01*
X103917403Y-74495855D01*
X104091412Y-74650667D01*
X104165507Y-74742787D01*
X104206685Y-74826224D01*
X104224457Y-74931829D01*
X104228332Y-75090453D01*
X104228334Y-75094868D01*
X104219581Y-75242972D01*
X104195575Y-75449324D01*
X104159693Y-75689579D01*
X104115314Y-75939393D01*
X104101334Y-76010166D01*
X104041143Y-76318268D01*
X104001059Y-76554526D01*
X103980689Y-76729246D01*
X103979642Y-76852731D01*
X103997527Y-76935286D01*
X104033952Y-76987217D01*
X104063458Y-77007385D01*
X104172378Y-77033188D01*
X104305619Y-77025005D01*
X104423117Y-76988358D01*
X104472818Y-76950963D01*
X104490812Y-76890281D01*
X104509087Y-76763616D01*
X104525483Y-76589616D01*
X104537647Y-76391167D01*
X104549004Y-76221833D01*
X105403254Y-76221833D01*
X105535461Y-76097496D01*
X105612952Y-76031557D01*
X105653429Y-76018080D01*
X105656895Y-76062727D01*
X105623352Y-76171154D01*
X105552803Y-76349023D01*
X105535599Y-76390224D01*
X105457868Y-76601767D01*
X105429976Y-76757312D01*
X105452748Y-76869899D01*
X105527008Y-76952564D01*
X105572955Y-76981068D01*
X105728077Y-77038397D01*
X105872026Y-77024196D01*
X105989971Y-76966645D01*
X106120162Y-76842303D01*
X106239147Y-76635695D01*
X106346012Y-76348594D01*
X106391334Y-76188122D01*
X106436065Y-76013672D01*
X106460606Y-75905355D01*
X106466286Y-75847419D01*
X106454435Y-75824111D01*
X106426380Y-75819678D01*
X106422417Y-75819667D01*
X106328824Y-75781762D01*
X106254614Y-75685760D01*
X106218876Y-75558231D01*
X106218000Y-75535156D01*
X106247372Y-75349444D01*
X106342990Y-75178309D01*
X106399610Y-75111002D01*
X106456512Y-75004391D01*
X106443437Y-74905399D01*
X106374928Y-74826606D01*
X106265528Y-74780594D01*
X106129779Y-74779944D01*
X106045747Y-74804876D01*
X105918904Y-74895494D01*
X105790887Y-75054364D01*
X105669727Y-75265573D01*
X105563456Y-75513206D01*
X105480105Y-75781353D01*
X105432278Y-76020371D01*
X105403254Y-76221833D01*
X104549004Y-76221833D01*
X104552484Y-76169963D01*
X104574706Y-75959371D01*
X104601114Y-75785389D01*
X104624402Y-75685899D01*
X104783832Y-75300162D01*
X104994561Y-74970520D01*
X105251084Y-74703799D01*
X105547898Y-74506825D01*
X105592653Y-74485064D01*
X105841700Y-74403353D01*
X106100053Y-74378051D01*
X106348928Y-74406307D01*
X106569544Y-74485271D01*
X106743118Y-74612092D01*
X106788802Y-74666600D01*
X106843208Y-74769293D01*
X106899944Y-74919535D01*
X106939633Y-75057568D01*
X106978851Y-75205887D01*
X107014129Y-75290533D01*
X107057891Y-75330905D01*
X107122561Y-75346402D01*
X107124798Y-75346667D01*
X107269651Y-75338430D01*
X107400893Y-75289224D01*
X107490095Y-75212191D01*
X107509741Y-75168724D01*
X107529268Y-75083021D01*
X107560622Y-74944632D01*
X107597027Y-74783469D01*
X107597137Y-74782978D01*
X107636681Y-74632500D01*
X107677740Y-74515787D01*
X107711808Y-74456774D01*
X107713518Y-74455543D01*
X107775097Y-74441975D01*
X107900313Y-74431185D01*
X108068148Y-74424621D01*
X108180628Y-74423315D01*
X108598089Y-74422667D01*
X108569459Y-74575278D01*
X108559302Y-74669595D01*
X108569863Y-74713002D01*
X108575855Y-74712862D01*
X108629510Y-74687331D01*
X108735096Y-74635475D01*
X108858041Y-74574361D01*
X109123123Y-74476369D01*
X109377001Y-74447376D01*
X109608046Y-74484992D01*
X109804627Y-74586829D01*
X109955115Y-74750498D01*
X109986983Y-74806246D01*
X110039457Y-74947613D01*
X110064574Y-75120226D01*
X110061941Y-75335096D01*
X110031164Y-75603233D01*
X109971850Y-75935648D01*
X109941412Y-76082678D01*
X109895541Y-76313399D01*
X109858714Y-76528895D01*
X109833986Y-76708839D01*
X109824415Y-76832906D01*
X109824995Y-76856741D01*
X109839625Y-76966742D01*
X109875154Y-77018212D01*
X109951809Y-77037281D01*
X109965863Y-77038744D01*
X110063155Y-77037812D01*
X110156027Y-77010027D01*
X110251886Y-76947884D01*
X110358137Y-76843877D01*
X110482186Y-76690499D01*
X110631437Y-76480246D01*
X110813297Y-76205610D01*
X110861619Y-76130835D01*
X110881717Y-76116150D01*
X110878240Y-76165378D01*
X110855891Y-76262627D01*
X110819370Y-76392007D01*
X110773380Y-76537624D01*
X110722623Y-76683587D01*
X110671800Y-76814003D01*
X110636327Y-76892336D01*
X110501995Y-77109460D01*
X110329000Y-77314322D01*
X110141166Y-77481197D01*
X110019103Y-77558827D01*
X109891837Y-77607331D01*
X109730408Y-77632982D01*
X109526072Y-77640000D01*
X109357130Y-77638416D01*
X109248591Y-77628537D01*
X109176194Y-77602670D01*
X109115678Y-77553123D01*
X109060500Y-77492389D01*
X108981598Y-77391845D01*
X108923767Y-77287005D01*
X108886960Y-77167412D01*
X108871131Y-77022609D01*
X108876232Y-76842138D01*
X108902217Y-76615541D01*
X108949039Y-76332361D01*
X109016649Y-75982141D01*
X109052908Y-75804423D01*
X109103257Y-75541654D01*
X109130086Y-75346615D01*
X109133421Y-75205707D01*
X109113286Y-75105333D01*
X109069705Y-75031896D01*
X109054334Y-75015333D01*
X108930954Y-74946508D01*
X108777728Y-74935784D01*
X108626342Y-74983107D01*
X108576065Y-75016159D01*
X108543446Y-75044806D01*
X108514130Y-75081088D01*
X108485940Y-75133099D01*
X108456701Y-75208937D01*
X108424233Y-75316698D01*
X108386361Y-75464478D01*
X108340907Y-75660373D01*
X108285694Y-75912480D01*
X108218545Y-76228895D01*
X108137283Y-76617713D01*
X108109553Y-76751000D01*
X107929112Y-77618833D01*
X107510486Y-77631041D01*
X107326973Y-77634419D01*
X107173427Y-77633587D01*
X107070804Y-77628852D01*
X107042237Y-77624206D01*
X107031540Y-77588346D01*
X107037953Y-77492165D01*
X107062254Y-77330897D01*
X107105222Y-77099776D01*
X107167636Y-76794037D01*
X107212295Y-76584169D01*
X107271654Y-76304247D01*
X107322927Y-76054576D01*
X107364000Y-75846122D01*
X107392757Y-75689853D01*
X107407085Y-75596736D01*
X107406874Y-75575004D01*
X107356081Y-75596247D01*
X107253868Y-75637533D01*
X107180181Y-75666937D01*
X107045419Y-75732632D01*
X106974819Y-75802972D01*
X106954370Y-75857437D01*
X106835044Y-76320020D01*
X106695674Y-76705451D01*
X106533029Y-77019554D01*
X106343880Y-77268159D01*
X106124995Y-77457091D01*
X106036809Y-77512474D01*
X105920636Y-77574441D01*
X105818602Y-77612232D01*
X105702775Y-77631736D01*
X105545225Y-77638845D01*
X105434077Y-77639603D01*
X105244105Y-77637246D01*
X105114092Y-77626394D01*
X105019406Y-77602081D01*
X104935414Y-77559345D01*
X104890556Y-77530078D01*
X104728791Y-77420156D01*
X104468362Y-77537029D01*
X104312585Y-77599625D01*
X104169455Y-77635841D01*
X104003540Y-77652459D01*
X103846163Y-77656122D01*
X103590842Y-77644881D01*
X103400126Y-77602289D01*
X103257266Y-77520436D01*
X103145509Y-77391413D01*
X103092727Y-77300365D01*
X103043829Y-77183031D01*
X103017342Y-77052771D01*
X103014057Y-76896566D01*
X103034768Y-76701400D01*
X103080267Y-76454254D01*
X103151347Y-76142109D01*
X103167239Y-76076710D01*
X103214548Y-75878092D01*
X103251745Y-75711491D01*
X103275460Y-75592817D01*
X103282324Y-75537983D01*
X103281708Y-75536263D01*
X103258609Y-75567302D01*
X103202835Y-75662248D01*
X103120655Y-75809829D01*
X103018339Y-75998774D01*
X102902158Y-76217811D01*
X102894854Y-76231719D01*
X102695286Y-76607139D01*
X102525702Y-76912829D01*
X102380134Y-77155716D01*
X102252613Y-77342724D01*
X102137171Y-77480779D01*
X102027841Y-77576806D01*
X101918652Y-77637729D01*
X101803638Y-77670475D01*
X101676830Y-77681968D01*
X101644681Y-77682333D01*
X101412571Y-77646369D01*
X101225265Y-77538573D01*
X101083003Y-77359094D01*
X101067872Y-77330585D01*
X100964007Y-77125619D01*
X100786420Y-77270898D01*
X100499272Y-77468467D01*
X100216957Y-77589569D01*
X99945171Y-77632789D01*
X99689606Y-77596715D01*
X99603629Y-77564470D01*
X99473768Y-77492121D01*
X99369618Y-77408365D01*
X99340663Y-77373567D01*
X99271852Y-77268548D01*
X98945509Y-77405442D01*
X98619167Y-77542336D01*
X98506008Y-77989137D01*
X98410770Y-78324287D01*
X98310208Y-78587644D01*
X98196879Y-78792057D01*
X98063341Y-78950373D01*
X97902149Y-79075439D01*
X97862738Y-79099473D01*
X97660681Y-79184858D01*
X97433249Y-79229192D01*
X97211826Y-79229287D01*
X97031969Y-79183869D01*
X96808705Y-79045271D01*
X96655533Y-78865306D01*
X96576481Y-78649652D01*
X96566000Y-78526917D01*
X96582644Y-78416672D01*
X96922850Y-78416672D01*
X96967586Y-78555216D01*
X96968281Y-78556282D01*
X97034788Y-78631553D01*
X97117220Y-78647427D01*
X97173179Y-78639212D01*
X97292696Y-78593120D01*
X97379862Y-78525485D01*
X97459273Y-78383373D01*
X97526902Y-78166016D01*
X97567100Y-77965052D01*
X97593791Y-77803271D01*
X97431424Y-77871112D01*
X97214768Y-77986066D01*
X97053248Y-78122025D01*
X96953673Y-78268917D01*
X96922850Y-78416672D01*
X96582644Y-78416672D01*
X96601579Y-78291257D01*
X96710008Y-78087411D01*
X96893829Y-77912578D01*
X97155583Y-77763961D01*
X97318508Y-77697867D01*
X97506567Y-77619500D01*
X97625007Y-77540965D01*
X97687722Y-77448186D01*
X97708609Y-77327088D01*
X97709000Y-77302336D01*
X97698372Y-77269871D01*
X97658018Y-77273128D01*
X97575230Y-77317000D01*
X97437304Y-77406377D01*
X97435345Y-77407691D01*
X97178552Y-77545811D01*
X96927304Y-77618536D01*
X96691947Y-77628639D01*
X96482831Y-77578895D01*
X96310303Y-77472080D01*
X96184712Y-77310968D01*
X96116407Y-77098335D01*
X96110774Y-77052508D01*
X96112732Y-76946824D01*
X96130202Y-76779053D01*
X96160688Y-76561861D01*
X96201695Y-76307916D01*
X96250727Y-76029885D01*
X96305289Y-75740433D01*
X96362885Y-75452227D01*
X96421019Y-75177936D01*
X96477196Y-74930224D01*
X96528921Y-74721760D01*
X96573697Y-74565209D01*
X96609028Y-74473239D01*
X96622467Y-74455369D01*
X96689166Y-74438898D01*
X96812319Y-74428561D01*
X96969005Y-74424129D01*
X97136302Y-74425374D01*
X97291289Y-74432068D01*
X97411043Y-74443983D01*
X97472644Y-74460890D01*
X97475463Y-74463861D01*
X97473846Y-74514455D01*
X97456703Y-74637047D01*
X97425949Y-74820785D01*
X97383500Y-75054815D01*
X97331273Y-75328285D01*
X97271182Y-75630342D01*
X97258919Y-75690628D01*
X97188788Y-76034992D01*
X97134443Y-76306058D01*
X97094668Y-76513470D01*
X97068248Y-76666872D01*
X97053967Y-76775907D01*
X97050610Y-76850220D01*
X97056960Y-76899455D01*
X97071801Y-76933255D01*
X97093918Y-76961265D01*
X97098141Y-76965953D01*
X97209320Y-77029310D01*
X97361453Y-77032359D01*
X97537870Y-76976826D01*
X97661530Y-76907590D01*
X97819673Y-76802937D01*
X98066452Y-75644552D01*
X98132232Y-75342336D01*
X98194768Y-75067305D01*
X98251370Y-74830344D01*
X98299349Y-74642335D01*
X98336016Y-74514163D01*
X98358682Y-74456711D01*
X98360365Y-74455065D01*
X98428197Y-74438625D01*
X98555139Y-74428572D01*
X98715891Y-74424735D01*
X98885150Y-74426939D01*
X99037615Y-74435012D01*
X99147985Y-74448782D01*
X99185161Y-74460701D01*
X99199343Y-74484249D01*
X99203682Y-74536622D01*
X99196920Y-74625919D01*
X99177798Y-74760241D01*
X99145059Y-74947687D01*
X99097444Y-75196359D01*
X99033696Y-75514356D01*
X98983065Y-75761803D01*
X98917493Y-76080421D01*
X98856926Y-76374435D01*
X98803605Y-76632991D01*
X98759771Y-76845236D01*
X98727664Y-77000316D01*
X98709524Y-77087375D01*
X98706784Y-77100250D01*
X98710697Y-77160950D01*
X98763790Y-77163465D01*
X98869440Y-77106804D01*
X98999006Y-77014471D01*
X99123991Y-76910700D01*
X99195964Y-76819862D01*
X99235437Y-76712910D01*
X99245536Y-76665435D01*
X99270585Y-76538172D01*
X99308951Y-76349085D01*
X99358057Y-76110406D01*
X99415327Y-75834372D01*
X99478184Y-75533214D01*
X99544052Y-75219167D01*
X99610355Y-74904466D01*
X99674515Y-74601343D01*
X99733956Y-74322033D01*
X99786102Y-74078770D01*
X99828376Y-73883787D01*
X99858202Y-73749319D01*
X99871663Y-73692417D01*
X99913597Y-73533667D01*
X100378438Y-73533667D01*
X100581371Y-73534256D01*
X100713681Y-73538036D01*
X100789411Y-73548028D01*
X100822605Y-73567253D01*
X100827306Y-73598729D01*
X100821337Y-73628917D01*
X100758374Y-73901973D01*
X100713588Y-74103424D01*
X100687115Y-74244387D01*
X100679089Y-74335977D01*
X100689646Y-74389313D01*
X100718920Y-74415509D01*
X100767047Y-74425684D01*
X100831084Y-74430694D01*
X100941162Y-74450367D01*
X100991659Y-74495159D01*
X101003352Y-74539015D01*
X100977681Y-74625050D01*
X100883966Y-74687553D01*
X100737557Y-74717603D01*
X100693597Y-74719000D01*
X100657710Y-74718406D01*
X100629294Y-74723232D01*
X100605097Y-74743391D01*
X100581866Y-74788794D01*
X100556350Y-74869354D01*
X100525296Y-74994982D01*
X100485451Y-75175591D01*
X100433564Y-75421092D01*
X100381068Y-75671500D01*
X100307985Y-76022719D01*
X100252130Y-76300784D01*
X100212377Y-76515193D01*
X100187601Y-76675444D01*
X100176675Y-76791038D01*
X100178473Y-76871473D01*
X100191870Y-76926246D01*
X100215740Y-76964858D01*
X100226396Y-76976348D01*
X100340680Y-77036335D01*
X100486082Y-77039251D01*
X100641813Y-76994913D01*
X100787083Y-76913139D01*
X100901103Y-76803746D01*
X100963083Y-76676550D01*
X100968667Y-76625833D01*
X100978107Y-76551505D01*
X101004681Y-76407374D01*
X101045764Y-76205969D01*
X101098735Y-75959818D01*
X101160970Y-75681448D01*
X101219799Y-75426277D01*
X101343680Y-74888950D01*
X101446736Y-74426161D01*
X101528690Y-74039266D01*
X101589269Y-73729623D01*
X101628199Y-73498589D01*
X101645203Y-73347519D01*
X101646000Y-73320827D01*
X101621345Y-73214011D01*
X101541330Y-73132580D01*
X101396880Y-73071188D01*
X101178920Y-73024491D01*
X101130186Y-73017090D01*
X100914054Y-72977572D01*
X100781549Y-72933003D01*
X100731726Y-72882275D01*
X100763639Y-72824281D01*
X100876340Y-72757913D01*
X100899666Y-72747382D01*
X100941037Y-72726014D01*
X100946351Y-72710928D01*
X100906448Y-72701330D01*
X100812169Y-72696425D01*
X100654355Y-72695417D01*
X100423844Y-72697514D01*
X100337909Y-72698646D01*
X99643651Y-72708167D01*
X99473644Y-73438417D01*
X99303637Y-74168666D01*
X99183652Y-74168667D01*
X99095887Y-74152395D01*
X99065042Y-74115750D01*
X99074789Y-74058508D01*
X99100884Y-73933813D01*
X99140050Y-73756572D01*
X99189012Y-73541692D01*
X99227817Y-73374917D01*
X99389217Y-72687000D01*
X99131192Y-72682780D01*
X99008553Y-72676355D01*
X98884448Y-72663036D01*
X98776611Y-72646067D01*
X98702774Y-72628690D01*
X98680672Y-72614151D01*
X98714417Y-72606553D01*
X98757519Y-72567418D01*
X98767334Y-72517667D01*
X98769758Y-72494202D01*
X98782811Y-72475488D01*
X98815159Y-72460951D01*
X98875473Y-72450015D01*
X98972419Y-72442104D01*
X99114667Y-72436644D01*
X99310884Y-72433059D01*
X99569740Y-72430773D01*
X99899901Y-72429212D01*
X100111417Y-72428466D01*
X100499626Y-72426373D01*
X100806669Y-72422904D01*
X101036039Y-72417924D01*
X101191227Y-72411297D01*
X101275724Y-72402887D01*
X101293024Y-72392558D01*
X101265000Y-72383682D01*
X100937106Y-72308275D01*
X100687209Y-72236063D01*
X100508863Y-72164128D01*
X100395618Y-72089556D01*
X100341028Y-72009431D01*
X100333667Y-71962532D01*
X100344310Y-71909161D01*
X100391819Y-71894426D01*
X100487272Y-71907646D01*
X100588188Y-71920240D01*
X100624313Y-71903695D01*
X100621474Y-71878256D01*
X100563810Y-71836893D01*
X100446703Y-71833434D01*
X100343879Y-71831698D01*
X100315446Y-71819167D01*
X101361654Y-71819167D01*
X101362436Y-71925866D01*
X101370602Y-71975087D01*
X101379459Y-71967333D01*
X101425963Y-71884258D01*
X101467585Y-71829750D01*
X101549874Y-71766097D01*
X101615834Y-71766937D01*
X101645749Y-71831101D01*
X101646000Y-71840333D01*
X101655519Y-71909476D01*
X101697637Y-71917674D01*
X101771110Y-71883678D01*
X101836483Y-71867516D01*
X101869516Y-71923444D01*
X101870197Y-71926011D01*
X101921490Y-71989204D01*
X102004996Y-72010361D01*
X102079185Y-71981691D01*
X102090500Y-71967333D01*
X102090084Y-71928196D01*
X102076968Y-71925000D01*
X102035297Y-71889968D01*
X101987565Y-71804792D01*
X101983997Y-71796382D01*
X101912183Y-71677625D01*
X101807411Y-71612930D01*
X101650709Y-71593083D01*
X101570475Y-71595564D01*
X101367439Y-71607500D01*
X101361654Y-71819167D01*
X100315446Y-71819167D01*
X100292975Y-71809264D01*
X100291334Y-71802733D01*
X100332842Y-71740965D01*
X100454271Y-71685227D01*
X100650974Y-71637417D01*
X100727556Y-71624338D01*
X100917840Y-71592380D01*
X101039018Y-71565001D01*
X101106041Y-71536601D01*
X101133854Y-71501581D01*
X101138000Y-71470592D01*
X101149813Y-71424680D01*
X101162658Y-71427546D01*
X101211161Y-71424546D01*
X101310965Y-71391200D01*
X101406074Y-71350349D01*
X101673467Y-71265523D01*
X101929043Y-71264280D01*
X102170016Y-71346020D01*
X102170016Y-71346020D01*
G37*
X102170016Y-71346020D02*
X102393598Y-71510142D01*
X102458525Y-71577191D01*
X102545458Y-71685880D01*
X102607045Y-71799386D01*
X102646947Y-71934353D01*
X102668822Y-72107430D01*
X102676332Y-72335264D01*
X102674601Y-72560000D01*
X102663952Y-72819745D01*
X102639762Y-73094437D01*
X102600151Y-73395524D01*
X102543239Y-73734452D01*
X102467146Y-74122668D01*
X102369990Y-74571619D01*
X102278781Y-74969597D01*
X102217567Y-75235560D01*
X102164378Y-75473961D01*
X102121837Y-75672426D01*
X102092569Y-75818582D01*
X102079196Y-75900056D01*
X102078979Y-75912103D01*
X102101723Y-75889657D01*
X102156491Y-75804093D01*
X102236186Y-75667381D01*
X102333713Y-75491489D01*
X102387030Y-75392435D01*
X102560408Y-75078212D01*
X102710913Y-74834282D01*
X102847327Y-74652407D01*
X102978433Y-74524353D01*
X103113012Y-74441885D01*
X103259847Y-74396768D01*
X103427718Y-74380765D01*
X103466333Y-74380333D01*
X103715048Y-74407729D01*
X103917403Y-74495855D01*
X104091412Y-74650667D01*
X104165507Y-74742787D01*
X104206685Y-74826224D01*
X104224457Y-74931829D01*
X104228332Y-75090453D01*
X104228334Y-75094868D01*
X104219581Y-75242972D01*
X104195575Y-75449324D01*
X104159693Y-75689579D01*
X104115314Y-75939393D01*
X104101334Y-76010166D01*
X104041143Y-76318268D01*
X104001059Y-76554526D01*
X103980689Y-76729246D01*
X103979642Y-76852731D01*
X103997527Y-76935286D01*
X104033952Y-76987217D01*
X104063458Y-77007385D01*
X104172378Y-77033188D01*
X104305619Y-77025005D01*
X104423117Y-76988358D01*
X104472818Y-76950963D01*
X104490812Y-76890281D01*
X104509087Y-76763616D01*
X104525483Y-76589616D01*
X104537647Y-76391167D01*
X104549004Y-76221833D01*
X105403254Y-76221833D01*
X105535461Y-76097496D01*
X105612952Y-76031557D01*
X105653429Y-76018080D01*
X105656895Y-76062727D01*
X105623352Y-76171154D01*
X105552803Y-76349023D01*
X105535599Y-76390224D01*
X105457868Y-76601767D01*
X105429976Y-76757312D01*
X105452748Y-76869899D01*
X105527008Y-76952564D01*
X105572955Y-76981068D01*
X105728077Y-77038397D01*
X105872026Y-77024196D01*
X105989971Y-76966645D01*
X106120162Y-76842303D01*
X106239147Y-76635695D01*
X106346012Y-76348594D01*
X106391334Y-76188122D01*
X106436065Y-76013672D01*
X106460606Y-75905355D01*
X106466286Y-75847419D01*
X106454435Y-75824111D01*
X106426380Y-75819678D01*
X106422417Y-75819667D01*
X106328824Y-75781762D01*
X106254614Y-75685760D01*
X106218876Y-75558231D01*
X106218000Y-75535156D01*
X106247372Y-75349444D01*
X106342990Y-75178309D01*
X106399610Y-75111002D01*
X106456512Y-75004391D01*
X106443437Y-74905399D01*
X106374928Y-74826606D01*
X106265528Y-74780594D01*
X106129779Y-74779944D01*
X106045747Y-74804876D01*
X105918904Y-74895494D01*
X105790887Y-75054364D01*
X105669727Y-75265573D01*
X105563456Y-75513206D01*
X105480105Y-75781353D01*
X105432278Y-76020371D01*
X105403254Y-76221833D01*
X104549004Y-76221833D01*
X104552484Y-76169963D01*
X104574706Y-75959371D01*
X104601114Y-75785389D01*
X104624402Y-75685899D01*
X104783832Y-75300162D01*
X104994561Y-74970520D01*
X105251084Y-74703799D01*
X105547898Y-74506825D01*
X105592653Y-74485064D01*
X105841700Y-74403353D01*
X106100053Y-74378051D01*
X106348928Y-74406307D01*
X106569544Y-74485271D01*
X106743118Y-74612092D01*
X106788802Y-74666600D01*
X106843208Y-74769293D01*
X106899944Y-74919535D01*
X106939633Y-75057568D01*
X106978851Y-75205887D01*
X107014129Y-75290533D01*
X107057891Y-75330905D01*
X107122561Y-75346402D01*
X107124798Y-75346667D01*
X107269651Y-75338430D01*
X107400893Y-75289224D01*
X107490095Y-75212191D01*
X107509741Y-75168724D01*
X107529268Y-75083021D01*
X107560622Y-74944632D01*
X107597027Y-74783469D01*
X107597137Y-74782978D01*
X107636681Y-74632500D01*
X107677740Y-74515787D01*
X107711808Y-74456774D01*
X107713518Y-74455543D01*
X107775097Y-74441975D01*
X107900313Y-74431185D01*
X108068148Y-74424621D01*
X108180628Y-74423315D01*
X108598089Y-74422667D01*
X108569459Y-74575278D01*
X108559302Y-74669595D01*
X108569863Y-74713002D01*
X108575855Y-74712862D01*
X108629510Y-74687331D01*
X108735096Y-74635475D01*
X108858041Y-74574361D01*
X109123123Y-74476369D01*
X109377001Y-74447376D01*
X109608046Y-74484992D01*
X109804627Y-74586829D01*
X109955115Y-74750498D01*
X109986983Y-74806246D01*
X110039457Y-74947613D01*
X110064574Y-75120226D01*
X110061941Y-75335096D01*
X110031164Y-75603233D01*
X109971850Y-75935648D01*
X109941412Y-76082678D01*
X109895541Y-76313399D01*
X109858714Y-76528895D01*
X109833986Y-76708839D01*
X109824415Y-76832906D01*
X109824995Y-76856741D01*
X109839625Y-76966742D01*
X109875154Y-77018212D01*
X109951809Y-77037281D01*
X109965863Y-77038744D01*
X110063155Y-77037812D01*
X110156027Y-77010027D01*
X110251886Y-76947884D01*
X110358137Y-76843877D01*
X110482186Y-76690499D01*
X110631437Y-76480246D01*
X110813297Y-76205610D01*
X110861619Y-76130835D01*
X110881717Y-76116150D01*
X110878240Y-76165378D01*
X110855891Y-76262627D01*
X110819370Y-76392007D01*
X110773380Y-76537624D01*
X110722623Y-76683587D01*
X110671800Y-76814003D01*
X110636327Y-76892336D01*
X110501995Y-77109460D01*
X110329000Y-77314322D01*
X110141166Y-77481197D01*
X110019103Y-77558827D01*
X109891837Y-77607331D01*
X109730408Y-77632982D01*
X109526072Y-77640000D01*
X109357130Y-77638416D01*
X109248591Y-77628537D01*
X109176194Y-77602670D01*
X109115678Y-77553123D01*
X109060500Y-77492389D01*
X108981598Y-77391845D01*
X108923767Y-77287005D01*
X108886960Y-77167412D01*
X108871131Y-77022609D01*
X108876232Y-76842138D01*
X108902217Y-76615541D01*
X108949039Y-76332361D01*
X109016649Y-75982141D01*
X109052908Y-75804423D01*
X109103257Y-75541654D01*
X109130086Y-75346615D01*
X109133421Y-75205707D01*
X109113286Y-75105333D01*
X109069705Y-75031896D01*
X109054334Y-75015333D01*
X108930954Y-74946508D01*
X108777728Y-74935784D01*
X108626342Y-74983107D01*
X108576065Y-75016159D01*
X108543446Y-75044806D01*
X108514130Y-75081088D01*
X108485940Y-75133099D01*
X108456701Y-75208937D01*
X108424233Y-75316698D01*
X108386361Y-75464478D01*
X108340907Y-75660373D01*
X108285694Y-75912480D01*
X108218545Y-76228895D01*
X108137283Y-76617713D01*
X108109553Y-76751000D01*
X107929112Y-77618833D01*
X107510486Y-77631041D01*
X107326973Y-77634419D01*
X107173427Y-77633587D01*
X107070804Y-77628852D01*
X107042237Y-77624206D01*
X107031540Y-77588346D01*
X107037953Y-77492165D01*
X107062254Y-77330897D01*
X107105222Y-77099776D01*
X107167636Y-76794037D01*
X107212295Y-76584169D01*
X107271654Y-76304247D01*
X107322927Y-76054576D01*
X107364000Y-75846122D01*
X107392757Y-75689853D01*
X107407085Y-75596736D01*
X107406874Y-75575004D01*
X107356081Y-75596247D01*
X107253868Y-75637533D01*
X107180181Y-75666937D01*
X107045419Y-75732632D01*
X106974819Y-75802972D01*
X106954370Y-75857437D01*
X106835044Y-76320020D01*
X106695674Y-76705451D01*
X106533029Y-77019554D01*
X106343880Y-77268159D01*
X106124995Y-77457091D01*
X106036809Y-77512474D01*
X105920636Y-77574441D01*
X105818602Y-77612232D01*
X105702775Y-77631736D01*
X105545225Y-77638845D01*
X105434077Y-77639603D01*
X105244105Y-77637246D01*
X105114092Y-77626394D01*
X105019406Y-77602081D01*
X104935414Y-77559345D01*
X104890556Y-77530078D01*
X104728791Y-77420156D01*
X104468362Y-77537029D01*
X104312585Y-77599625D01*
X104169455Y-77635841D01*
X104003540Y-77652459D01*
X103846163Y-77656122D01*
X103590842Y-77644881D01*
X103400126Y-77602289D01*
X103257266Y-77520436D01*
X103145509Y-77391413D01*
X103092727Y-77300365D01*
X103043829Y-77183031D01*
X103017342Y-77052771D01*
X103014057Y-76896566D01*
X103034768Y-76701400D01*
X103080267Y-76454254D01*
X103151347Y-76142109D01*
X103167239Y-76076710D01*
X103214548Y-75878092D01*
X103251745Y-75711491D01*
X103275460Y-75592817D01*
X103282324Y-75537983D01*
X103281708Y-75536263D01*
X103258609Y-75567302D01*
X103202835Y-75662248D01*
X103120655Y-75809829D01*
X103018339Y-75998774D01*
X102902158Y-76217811D01*
X102894854Y-76231719D01*
X102695286Y-76607139D01*
X102525702Y-76912829D01*
X102380134Y-77155716D01*
X102252613Y-77342724D01*
X102137171Y-77480779D01*
X102027841Y-77576806D01*
X101918652Y-77637729D01*
X101803638Y-77670475D01*
X101676830Y-77681968D01*
X101644681Y-77682333D01*
X101412571Y-77646369D01*
X101225265Y-77538573D01*
X101083003Y-77359094D01*
X101067872Y-77330585D01*
X100964007Y-77125619D01*
X100786420Y-77270898D01*
X100499272Y-77468467D01*
X100216957Y-77589569D01*
X99945171Y-77632789D01*
X99689606Y-77596715D01*
X99603629Y-77564470D01*
X99473768Y-77492121D01*
X99369618Y-77408365D01*
X99340663Y-77373567D01*
X99271852Y-77268548D01*
X98945509Y-77405442D01*
X98619167Y-77542336D01*
X98506008Y-77989137D01*
X98410770Y-78324287D01*
X98310208Y-78587644D01*
X98196879Y-78792057D01*
X98063341Y-78950373D01*
X97902149Y-79075439D01*
X97862738Y-79099473D01*
X97660681Y-79184858D01*
X97433249Y-79229192D01*
X97211826Y-79229287D01*
X97031969Y-79183869D01*
X96808705Y-79045271D01*
X96655533Y-78865306D01*
X96576481Y-78649652D01*
X96566000Y-78526917D01*
X96582644Y-78416672D01*
X96922850Y-78416672D01*
X96967586Y-78555216D01*
X96968281Y-78556282D01*
X97034788Y-78631553D01*
X97117220Y-78647427D01*
X97173179Y-78639212D01*
X97292696Y-78593120D01*
X97379862Y-78525485D01*
X97459273Y-78383373D01*
X97526902Y-78166016D01*
X97567100Y-77965052D01*
X97593791Y-77803271D01*
X97431424Y-77871112D01*
X97214768Y-77986066D01*
X97053248Y-78122025D01*
X96953673Y-78268917D01*
X96922850Y-78416672D01*
X96582644Y-78416672D01*
X96601579Y-78291257D01*
X96710008Y-78087411D01*
X96893829Y-77912578D01*
X97155583Y-77763961D01*
X97318508Y-77697867D01*
X97506567Y-77619500D01*
X97625007Y-77540965D01*
X97687722Y-77448186D01*
X97708609Y-77327088D01*
X97709000Y-77302336D01*
X97698372Y-77269871D01*
X97658018Y-77273128D01*
X97575230Y-77317000D01*
X97437304Y-77406377D01*
X97435345Y-77407691D01*
X97178552Y-77545811D01*
X96927304Y-77618536D01*
X96691947Y-77628639D01*
X96482831Y-77578895D01*
X96310303Y-77472080D01*
X96184712Y-77310968D01*
X96116407Y-77098335D01*
X96110774Y-77052508D01*
X96112732Y-76946824D01*
X96130202Y-76779053D01*
X96160688Y-76561861D01*
X96201695Y-76307916D01*
X96250727Y-76029885D01*
X96305289Y-75740433D01*
X96362885Y-75452227D01*
X96421019Y-75177936D01*
X96477196Y-74930224D01*
X96528921Y-74721760D01*
X96573697Y-74565209D01*
X96609028Y-74473239D01*
X96622467Y-74455369D01*
X96689166Y-74438898D01*
X96812319Y-74428561D01*
X96969005Y-74424129D01*
X97136302Y-74425374D01*
X97291289Y-74432068D01*
X97411043Y-74443983D01*
X97472644Y-74460890D01*
X97475463Y-74463861D01*
X97473846Y-74514455D01*
X97456703Y-74637047D01*
X97425949Y-74820785D01*
X97383500Y-75054815D01*
X97331273Y-75328285D01*
X97271182Y-75630342D01*
X97258919Y-75690628D01*
X97188788Y-76034992D01*
X97134443Y-76306058D01*
X97094668Y-76513470D01*
X97068248Y-76666872D01*
X97053967Y-76775907D01*
X97050610Y-76850220D01*
X97056960Y-76899455D01*
X97071801Y-76933255D01*
X97093918Y-76961265D01*
X97098141Y-76965953D01*
X97209320Y-77029310D01*
X97361453Y-77032359D01*
X97537870Y-76976826D01*
X97661530Y-76907590D01*
X97819673Y-76802937D01*
X98066452Y-75644552D01*
X98132232Y-75342336D01*
X98194768Y-75067305D01*
X98251370Y-74830344D01*
X98299349Y-74642335D01*
X98336016Y-74514163D01*
X98358682Y-74456711D01*
X98360365Y-74455065D01*
X98428197Y-74438625D01*
X98555139Y-74428572D01*
X98715891Y-74424735D01*
X98885150Y-74426939D01*
X99037615Y-74435012D01*
X99147985Y-74448782D01*
X99185161Y-74460701D01*
X99199343Y-74484249D01*
X99203682Y-74536622D01*
X99196920Y-74625919D01*
X99177798Y-74760241D01*
X99145059Y-74947687D01*
X99097444Y-75196359D01*
X99033696Y-75514356D01*
X98983065Y-75761803D01*
X98917493Y-76080421D01*
X98856926Y-76374435D01*
X98803605Y-76632991D01*
X98759771Y-76845236D01*
X98727664Y-77000316D01*
X98709524Y-77087375D01*
X98706784Y-77100250D01*
X98710697Y-77160950D01*
X98763790Y-77163465D01*
X98869440Y-77106804D01*
X98999006Y-77014471D01*
X99123991Y-76910700D01*
X99195964Y-76819862D01*
X99235437Y-76712910D01*
X99245536Y-76665435D01*
X99270585Y-76538172D01*
X99308951Y-76349085D01*
X99358057Y-76110406D01*
X99415327Y-75834372D01*
X99478184Y-75533214D01*
X99544052Y-75219167D01*
X99610355Y-74904466D01*
X99674515Y-74601343D01*
X99733956Y-74322033D01*
X99786102Y-74078770D01*
X99828376Y-73883787D01*
X99858202Y-73749319D01*
X99871663Y-73692417D01*
X99913597Y-73533667D01*
X100378438Y-73533667D01*
X100581371Y-73534256D01*
X100713681Y-73538036D01*
X100789411Y-73548028D01*
X100822605Y-73567253D01*
X100827306Y-73598729D01*
X100821337Y-73628917D01*
X100758374Y-73901973D01*
X100713588Y-74103424D01*
X100687115Y-74244387D01*
X100679089Y-74335977D01*
X100689646Y-74389313D01*
X100718920Y-74415509D01*
X100767047Y-74425684D01*
X100831084Y-74430694D01*
X100941162Y-74450367D01*
X100991659Y-74495159D01*
X101003352Y-74539015D01*
X100977681Y-74625050D01*
X100883966Y-74687553D01*
X100737557Y-74717603D01*
X100693597Y-74719000D01*
X100657710Y-74718406D01*
X100629294Y-74723232D01*
X100605097Y-74743391D01*
X100581866Y-74788794D01*
X100556350Y-74869354D01*
X100525296Y-74994982D01*
X100485451Y-75175591D01*
X100433564Y-75421092D01*
X100381068Y-75671500D01*
X100307985Y-76022719D01*
X100252130Y-76300784D01*
X100212377Y-76515193D01*
X100187601Y-76675444D01*
X100176675Y-76791038D01*
X100178473Y-76871473D01*
X100191870Y-76926246D01*
X100215740Y-76964858D01*
X100226396Y-76976348D01*
X100340680Y-77036335D01*
X100486082Y-77039251D01*
X100641813Y-76994913D01*
X100787083Y-76913139D01*
X100901103Y-76803746D01*
X100963083Y-76676550D01*
X100968667Y-76625833D01*
X100978107Y-76551505D01*
X101004681Y-76407374D01*
X101045764Y-76205969D01*
X101098735Y-75959818D01*
X101160970Y-75681448D01*
X101219799Y-75426277D01*
X101343680Y-74888950D01*
X101446736Y-74426161D01*
X101528690Y-74039266D01*
X101589269Y-73729623D01*
X101628199Y-73498589D01*
X101645203Y-73347519D01*
X101646000Y-73320827D01*
X101621345Y-73214011D01*
X101541330Y-73132580D01*
X101396880Y-73071188D01*
X101178920Y-73024491D01*
X101130186Y-73017090D01*
X100914054Y-72977572D01*
X100781549Y-72933003D01*
X100731726Y-72882275D01*
X100763639Y-72824281D01*
X100876340Y-72757913D01*
X100899666Y-72747382D01*
X100941037Y-72726014D01*
X100946351Y-72710928D01*
X100906448Y-72701330D01*
X100812169Y-72696425D01*
X100654355Y-72695417D01*
X100423844Y-72697514D01*
X100337909Y-72698646D01*
X99643651Y-72708167D01*
X99473644Y-73438417D01*
X99303637Y-74168666D01*
X99183652Y-74168667D01*
X99095887Y-74152395D01*
X99065042Y-74115750D01*
X99074789Y-74058508D01*
X99100884Y-73933813D01*
X99140050Y-73756572D01*
X99189012Y-73541692D01*
X99227817Y-73374917D01*
X99389217Y-72687000D01*
X99131192Y-72682780D01*
X99008553Y-72676355D01*
X98884448Y-72663036D01*
X98776611Y-72646067D01*
X98702774Y-72628690D01*
X98680672Y-72614151D01*
X98714417Y-72606553D01*
X98757519Y-72567418D01*
X98767334Y-72517667D01*
X98769758Y-72494202D01*
X98782811Y-72475488D01*
X98815159Y-72460951D01*
X98875473Y-72450015D01*
X98972419Y-72442104D01*
X99114667Y-72436644D01*
X99310884Y-72433059D01*
X99569740Y-72430773D01*
X99899901Y-72429212D01*
X100111417Y-72428466D01*
X100499626Y-72426373D01*
X100806669Y-72422904D01*
X101036039Y-72417924D01*
X101191227Y-72411297D01*
X101275724Y-72402887D01*
X101293024Y-72392558D01*
X101265000Y-72383682D01*
X100937106Y-72308275D01*
X100687209Y-72236063D01*
X100508863Y-72164128D01*
X100395618Y-72089556D01*
X100341028Y-72009431D01*
X100333667Y-71962532D01*
X100344310Y-71909161D01*
X100391819Y-71894426D01*
X100487272Y-71907646D01*
X100588188Y-71920240D01*
X100624313Y-71903695D01*
X100621474Y-71878256D01*
X100563810Y-71836893D01*
X100446703Y-71833434D01*
X100343879Y-71831698D01*
X100315446Y-71819167D01*
X101361654Y-71819167D01*
X101362436Y-71925866D01*
X101370602Y-71975087D01*
X101379459Y-71967333D01*
X101425963Y-71884258D01*
X101467585Y-71829750D01*
X101549874Y-71766097D01*
X101615834Y-71766937D01*
X101645749Y-71831101D01*
X101646000Y-71840333D01*
X101655519Y-71909476D01*
X101697637Y-71917674D01*
X101771110Y-71883678D01*
X101836483Y-71867516D01*
X101869516Y-71923444D01*
X101870197Y-71926011D01*
X101921490Y-71989204D01*
X102004996Y-72010361D01*
X102079185Y-71981691D01*
X102090500Y-71967333D01*
X102090084Y-71928196D01*
X102076968Y-71925000D01*
X102035297Y-71889968D01*
X101987565Y-71804792D01*
X101983997Y-71796382D01*
X101912183Y-71677625D01*
X101807411Y-71612930D01*
X101650709Y-71593083D01*
X101570475Y-71595564D01*
X101367439Y-71607500D01*
X101361654Y-71819167D01*
X100315446Y-71819167D01*
X100292975Y-71809264D01*
X100291334Y-71802733D01*
X100332842Y-71740965D01*
X100454271Y-71685227D01*
X100650974Y-71637417D01*
X100727556Y-71624338D01*
X100917840Y-71592380D01*
X101039018Y-71565001D01*
X101106041Y-71536601D01*
X101133854Y-71501581D01*
X101138000Y-71470592D01*
X101149813Y-71424680D01*
X101162658Y-71427546D01*
X101211161Y-71424546D01*
X101310965Y-71391200D01*
X101406074Y-71350349D01*
X101673467Y-71265523D01*
X101929043Y-71264280D01*
X102170016Y-71346020D01*
D12*
X93698500Y-140299720D02*
X93698500Y-139700280D01*
X93698500Y-139700280D02*
X92301500Y-139700280D01*
X92301500Y-140299720D02*
X92301500Y-139700280D01*
X93698500Y-140299720D02*
X92301500Y-140299720D01*
D13*
X110841000Y-60444000D02*
X110841000Y-59936000D01*
X115159000Y-60317000D02*
X110841000Y-60317000D01*
X115159000Y-59936000D02*
X115159000Y-60444000D01*
X110841000Y-59936000D02*
X115159000Y-59936000D01*
X106269000Y-67683000D02*
X106269000Y-60571000D01*
X119604000Y-67683000D02*
X106269000Y-67683000D01*
X119604000Y-60571000D02*
X119604000Y-67683000D01*
X106396000Y-60571000D02*
X119604000Y-60571000D01*
D14*
X77305493Y-131534444D02*
X78903153Y-128767216D01*
X86694507Y-133265556D02*
X85096847Y-136032784D01*
X80029402Y-129417456D02*
X78903153Y-128767216D01*
X78431742Y-132184684D02*
X77305493Y-131534444D01*
X83970598Y-135382544D02*
X85096847Y-136032784D01*
X85568258Y-132615316D02*
X86694507Y-133265556D01*
D15*
X101549221Y-87590000D02*
X101874779Y-87590000D01*
X101549221Y-88610000D02*
X101874779Y-88610000D01*
X105862779Y-87590000D02*
X105537221Y-87590000D01*
X105862779Y-88610000D02*
X105537221Y-88610000D01*
X109510000Y-109837221D02*
X109510000Y-110162779D01*
X108490000Y-109837221D02*
X108490000Y-110162779D01*
X112260000Y-104037221D02*
X112260000Y-104362779D01*
X111240000Y-104037221D02*
X111240000Y-104362779D01*
X109290000Y-104037221D02*
X109290000Y-104362779D01*
X110310000Y-104037221D02*
X110310000Y-104362779D01*
X110990000Y-97962779D02*
X110990000Y-97637221D01*
X112010000Y-97962779D02*
X112010000Y-97637221D01*
X99162779Y-89990000D02*
X98837221Y-89990000D01*
X99162779Y-91010000D02*
X98837221Y-91010000D01*
X103490000Y-110162779D02*
X103490000Y-109837221D01*
X104510000Y-110162779D02*
X104510000Y-109837221D01*
X89690000Y-97475279D02*
X89690000Y-97149721D01*
X90710000Y-97475279D02*
X90710000Y-97149721D01*
X109290000Y-97637221D02*
X109290000Y-97962779D01*
X110310000Y-97637221D02*
X110310000Y-97962779D01*
X95490000Y-109837221D02*
X95490000Y-110162779D01*
X96510000Y-109837221D02*
X96510000Y-110162779D01*
X110837221Y-135490000D02*
X111162779Y-135490000D01*
X110837221Y-136510000D02*
X111162779Y-136510000D01*
X114490000Y-138162779D02*
X114490000Y-137837221D01*
X115510000Y-138162779D02*
X115510000Y-137837221D01*
X118510000Y-138162779D02*
X118510000Y-137837221D01*
X117490000Y-138162779D02*
X117490000Y-137837221D01*
X119690000Y-97597221D02*
X119690000Y-97922779D01*
X120710000Y-97597221D02*
X120710000Y-97922779D01*
D12*
X96502160Y-135502160D02*
X96502160Y-135700280D01*
X96502160Y-135700280D02*
X97497840Y-135700280D01*
X97497840Y-135502160D02*
X97497840Y-135700280D01*
X96502160Y-135502160D02*
X97497840Y-135502160D01*
D14*
X97698500Y-135128780D02*
X97698500Y-136871220D01*
X96301500Y-136871220D02*
X96301500Y-135128780D01*
X97000000Y-135700280D02*
X97398780Y-136299720D01*
X97398780Y-136299720D02*
X96601220Y-136299720D01*
X96601220Y-136299720D02*
X97000000Y-135700280D01*
G36*
X97000000Y-135900940D02*
G01*
X97198120Y-136198120D01*
X96801880Y-136198120D01*
X97000000Y-135900940D01*
X97000000Y-135900940D01*
G37*
X97000000Y-135900940D02*
X97198120Y-136198120D01*
X96801880Y-136198120D01*
X97000000Y-135900940D01*
X112841500Y-102270000D02*
X109158500Y-102270000D01*
X109158500Y-102270000D02*
X109158500Y-99730000D01*
X109158500Y-99730000D02*
X112841500Y-99730000D01*
X112841500Y-99730000D02*
X112841500Y-102270000D01*
D15*
X89233000Y-62315000D02*
X86948000Y-62315000D01*
X89233000Y-63785000D02*
X89233000Y-62315000D01*
X86948000Y-63785000D02*
X89233000Y-63785000D01*
X81692500Y-63745000D02*
X83977500Y-63745000D01*
X83977500Y-63745000D02*
X83977500Y-62275000D01*
X83977500Y-62275000D02*
X81692500Y-62275000D01*
D16*
X106274323Y-69085043D02*
X106352554Y-68793083D01*
X106352554Y-68793083D02*
X110022917Y-69776554D01*
X110022917Y-69776554D02*
X109944687Y-70068514D01*
X105447313Y-72171486D02*
X105369083Y-72463446D01*
X105369083Y-72463446D02*
X109039446Y-73446917D01*
X109039446Y-73446917D02*
X109117677Y-73154957D01*
G36*
X106348962Y-68786861D02*
G01*
X106250352Y-69154879D01*
X106618369Y-69253489D01*
X107084997Y-68984081D01*
X106348962Y-68786861D01*
X106348962Y-68786861D01*
G37*
X106348962Y-68786861D02*
X106250352Y-69154879D01*
X106618369Y-69253489D01*
X107084997Y-68984081D01*
X106348962Y-68786861D01*
G36*
X93549038Y-131365139D02*
G01*
X93647648Y-130997121D01*
X93279631Y-130898511D01*
X92813003Y-131167919D01*
X93549038Y-131365139D01*
X93549038Y-131365139D01*
G37*
X93549038Y-131365139D02*
X93647648Y-130997121D01*
X93279631Y-130898511D01*
X92813003Y-131167919D01*
X93549038Y-131365139D01*
X90858554Y-126705083D02*
X90780323Y-126997043D01*
X94528917Y-127688554D02*
X90858554Y-126705083D01*
X94450687Y-127980514D02*
X94528917Y-127688554D01*
X89875083Y-130375446D02*
X89953313Y-130083486D01*
X93545446Y-131358917D02*
X89875083Y-130375446D01*
X93623677Y-131066957D02*
X93545446Y-131358917D01*
G36*
X123932804Y-79104175D02*
G01*
X123640941Y-79349077D01*
X123885843Y-79640940D01*
X124422608Y-79687901D01*
X123932804Y-79104175D01*
X123932804Y-79104175D01*
G37*
X123932804Y-79104175D02*
X123640941Y-79349077D01*
X123885843Y-79640940D01*
X124422608Y-79687901D01*
X123932804Y-79104175D01*
X123463822Y-84464668D02*
X123695366Y-84270379D01*
X121021332Y-81553822D02*
X123463822Y-84464668D01*
X121252876Y-81359533D02*
X121021332Y-81553822D01*
X126374668Y-82022178D02*
X126143124Y-82216467D01*
X123932178Y-79111332D02*
X126374668Y-82022178D01*
X123700634Y-79305621D02*
X123932178Y-79111332D01*
X76197366Y-120592379D02*
X75965822Y-120786668D01*
X75965822Y-120786668D02*
X73523332Y-117875822D01*
X73523332Y-117875822D02*
X73754876Y-117681533D01*
X78645124Y-118538467D02*
X78876668Y-118344178D01*
X78876668Y-118344178D02*
X76434178Y-115433332D01*
X76434178Y-115433332D02*
X76202634Y-115627621D01*
G36*
X75965196Y-120793825D02*
G01*
X76257059Y-120548923D01*
X76012157Y-120257060D01*
X75475392Y-120210099D01*
X75965196Y-120793825D01*
X75965196Y-120793825D01*
G37*
X75965196Y-120793825D02*
X76257059Y-120548923D01*
X76012157Y-120257060D01*
X75475392Y-120210099D01*
X75965196Y-120793825D01*
X131645660Y-98100080D02*
X131947920Y-98100080D01*
X131947920Y-98100080D02*
X131947920Y-101899920D01*
X131947920Y-101899920D02*
X131645660Y-101899920D01*
X128450340Y-98100080D02*
X128148080Y-98100080D01*
X128148080Y-98100080D02*
X128148080Y-101899920D01*
X128148080Y-101899920D02*
X128450340Y-101899920D01*
G36*
X131953000Y-98095000D02*
G01*
X131572000Y-98095000D01*
X131572000Y-98476000D01*
X131953000Y-98857000D01*
X131953000Y-98095000D01*
X131953000Y-98095000D01*
G37*
X131953000Y-98095000D02*
X131572000Y-98095000D01*
X131572000Y-98476000D01*
X131953000Y-98857000D01*
X131953000Y-98095000D01*
G36*
X67945000Y-101981000D02*
G01*
X68326000Y-101981000D01*
X68326000Y-101600000D01*
X67945000Y-101219000D01*
X67945000Y-101981000D01*
X67945000Y-101981000D01*
G37*
X67945000Y-101981000D02*
X68326000Y-101981000D01*
X68326000Y-101600000D01*
X67945000Y-101219000D01*
X67945000Y-101981000D01*
X71749920Y-98176080D02*
X71447660Y-98176080D01*
X71749920Y-101975920D02*
X71749920Y-98176080D01*
X71447660Y-101975920D02*
X71749920Y-101975920D01*
X67950080Y-98176080D02*
X68252340Y-98176080D01*
X67950080Y-101975920D02*
X67950080Y-98176080D01*
X68252340Y-101975920D02*
X67950080Y-101975920D01*
G36*
X126635825Y-118129196D02*
G01*
X126343962Y-117884294D01*
X126099060Y-118176157D01*
X126146021Y-118712922D01*
X126635825Y-118129196D01*
X126635825Y-118129196D01*
G37*
X126635825Y-118129196D02*
X126343962Y-117884294D01*
X126099060Y-118176157D01*
X126146021Y-118712922D01*
X126635825Y-118129196D01*
X121275332Y-118598178D02*
X121506876Y-118792467D01*
X123717822Y-115687332D02*
X121275332Y-118598178D01*
X123949366Y-115881621D02*
X123717822Y-115687332D01*
X124186178Y-121040668D02*
X123954634Y-120846379D01*
X126628668Y-118129822D02*
X124186178Y-121040668D01*
X126397124Y-117935533D02*
X126628668Y-118129822D01*
X73801524Y-82427943D02*
X73553927Y-82254574D01*
X73553927Y-82254574D02*
X75733426Y-79141927D01*
X75733426Y-79141927D02*
X75981023Y-79315297D01*
X76418977Y-84260703D02*
X76666574Y-84434073D01*
X76666574Y-84434073D02*
X78846073Y-81321426D01*
X78846073Y-81321426D02*
X78598476Y-81148057D01*
G36*
X73546852Y-82255822D02*
G01*
X73858949Y-82474354D01*
X74077482Y-82162257D01*
X73983917Y-81631628D01*
X73546852Y-82255822D01*
X73546852Y-82255822D01*
G37*
X73546852Y-82255822D02*
X73858949Y-82474354D01*
X74077482Y-82162257D01*
X73983917Y-81631628D01*
X73546852Y-82255822D01*
X109944687Y-130083486D02*
X110022917Y-130375446D01*
X110022917Y-130375446D02*
X106352554Y-131358917D01*
X106352554Y-131358917D02*
X106274323Y-131066957D01*
X109117677Y-126997043D02*
X109039446Y-126705083D01*
X109039446Y-126705083D02*
X105369083Y-127688554D01*
X105369083Y-127688554D02*
X105447313Y-127980514D01*
G36*
X110029139Y-130379038D02*
G01*
X109930529Y-130011021D01*
X109562511Y-130109631D01*
X109293104Y-130576259D01*
X110029139Y-130379038D01*
X110029139Y-130379038D01*
G37*
X110029139Y-130379038D02*
X109930529Y-130011021D01*
X109562511Y-130109631D01*
X109293104Y-130576259D01*
X110029139Y-130379038D01*
G36*
X89868861Y-69518962D02*
G01*
X89967471Y-69886979D01*
X90335489Y-69788369D01*
X90604896Y-69321741D01*
X89868861Y-69518962D01*
X89868861Y-69518962D01*
G37*
X89868861Y-69518962D02*
X89967471Y-69886979D01*
X90335489Y-69788369D01*
X90604896Y-69321741D01*
X89868861Y-69518962D01*
X94528917Y-72209446D02*
X94450687Y-71917486D01*
X90858554Y-73192917D02*
X94528917Y-72209446D01*
X90780323Y-72900957D02*
X90858554Y-73192917D01*
X93545446Y-68539083D02*
X93623677Y-68831043D01*
X89875083Y-69522554D02*
X93545446Y-68539083D01*
X89953313Y-69814514D02*
X89875083Y-69522554D01*
D14*
X88072260Y-139049760D02*
X88072260Y-140360400D01*
X88072260Y-140360400D02*
X87061340Y-140360400D01*
X84927740Y-140360400D02*
X84927740Y-139049760D01*
X85938660Y-140360400D02*
X84927740Y-140360400D01*
X86129160Y-139039600D02*
X86886080Y-139039600D01*
X91170840Y-135160400D02*
X90413920Y-135160400D01*
X91361340Y-133839600D02*
X92372260Y-133839600D01*
X92372260Y-133839600D02*
X92372260Y-135150240D01*
X89227740Y-133839600D02*
X90238660Y-133839600D01*
X89227740Y-135150240D02*
X89227740Y-133839600D01*
D15*
X74985221Y-107740000D02*
X75310779Y-107740000D01*
X74985221Y-108760000D02*
X75310779Y-108760000D01*
X75049721Y-111808000D02*
X75375279Y-111808000D01*
X75049721Y-110788000D02*
X75375279Y-110788000D01*
X110490000Y-110162779D02*
X110490000Y-109837221D01*
X111510000Y-110162779D02*
X111510000Y-109837221D01*
X73590000Y-102025221D02*
X73590000Y-102350779D01*
X74610000Y-102025221D02*
X74610000Y-102350779D01*
X113510000Y-109837221D02*
X113510000Y-110162779D01*
X112490000Y-109837221D02*
X112490000Y-110162779D01*
X90510000Y-140837221D02*
X90510000Y-141162779D01*
X89490000Y-140837221D02*
X89490000Y-141162779D01*
X108510000Y-138162779D02*
X108510000Y-137837221D01*
X107490000Y-138162779D02*
X107490000Y-137837221D01*
X82625279Y-65514000D02*
X82299721Y-65514000D01*
X82625279Y-64494000D02*
X82299721Y-64494000D01*
X87910779Y-64494000D02*
X87585221Y-64494000D01*
X87910779Y-65514000D02*
X87585221Y-65514000D01*
X110650779Y-92590000D02*
X110325221Y-92590000D01*
X110650779Y-93610000D02*
X110325221Y-93610000D01*
X121190000Y-94635279D02*
X121190000Y-94309721D01*
X122210000Y-94635279D02*
X122210000Y-94309721D01*
X125074779Y-94750000D02*
X124749221Y-94750000D01*
X125074779Y-95770000D02*
X124749221Y-95770000D01*
D14*
X76460240Y-101059920D02*
X76460240Y-97260080D01*
X81255760Y-97260080D02*
X81255760Y-101059920D01*
X77181600Y-100049000D02*
G75*
G03X77181600Y-100049000I-254000J0D01*
G01*
D17*
X112509720Y-140369860D02*
X110894280Y-140369860D01*
X110894280Y-137530140D02*
X112509720Y-137530140D01*
X112509720Y-138429300D02*
X112509720Y-139470700D01*
X110894280Y-138523280D02*
X110894280Y-138429300D01*
X110894280Y-139470700D02*
X110894280Y-139376720D01*
X110894280Y-137624120D02*
X110894280Y-137530140D01*
X110894280Y-140369860D02*
X110894280Y-140275880D01*
X112509720Y-140275880D02*
X112509720Y-140369860D01*
X112509720Y-137530140D02*
X112509720Y-137624120D01*
D14*
X78312840Y-106042740D02*
X77512740Y-106042740D01*
X77512740Y-106042740D02*
X77512740Y-106393260D01*
X78312840Y-109441260D02*
X77512740Y-109441260D01*
X77512740Y-109441260D02*
X77512740Y-109090740D01*
X80911260Y-109090740D02*
X80911260Y-109441260D01*
X80911260Y-109441260D02*
X80111160Y-109441260D01*
X80111160Y-106042740D02*
X80911260Y-106042740D01*
X80911260Y-106042740D02*
X80911260Y-106393260D01*
D18*
X77063160Y-106192600D02*
G75*
G03X77063160Y-106192600I-99060J0D01*
G01*
D14*
X123102440Y-99707800D02*
X124697560Y-99707800D01*
X124697560Y-96812200D02*
X123102440Y-96812200D01*
X124347040Y-99209960D02*
G75*
G03X124347040Y-99209960I-99060J0D01*
G01*
D16*
X96250960Y-144647800D02*
X103749040Y-144647800D01*
X96250960Y-144647800D02*
X96250960Y-144317600D01*
X103749040Y-144647800D02*
X103749040Y-144317600D01*
X103749040Y-142082400D02*
X103749040Y-141620120D01*
X96250960Y-142082400D02*
X96250960Y-141620120D01*
X98120400Y-140350120D02*
X98331220Y-140350120D01*
X101668780Y-140350120D02*
X101879600Y-140350120D01*
D19*
X98402340Y-145049120D02*
X98402340Y-144797660D01*
X98402340Y-144797660D02*
X98501400Y-144899260D01*
X98402340Y-144797660D02*
X98300740Y-144899260D01*
X98001020Y-145049120D02*
X98001020Y-144797660D01*
X98001020Y-144797660D02*
X98100080Y-144899260D01*
X98001020Y-144797660D02*
X97901960Y-144899260D01*
X97602240Y-145049120D02*
X97602240Y-144797660D01*
X97602240Y-144797660D02*
X97701300Y-144899260D01*
X97602240Y-144797660D02*
X97500640Y-144899260D01*
X97200920Y-145049120D02*
X97200920Y-144797660D01*
X97200920Y-144797660D02*
X97302520Y-144899260D01*
X97200920Y-144797660D02*
X97101860Y-144899260D01*
X96802140Y-145049120D02*
X96802140Y-144797660D01*
X96802140Y-144797660D02*
X96901200Y-144899260D01*
X96802140Y-144797660D02*
X96700540Y-144899260D01*
X103197860Y-145049120D02*
X103197860Y-144797660D01*
X103197860Y-144797660D02*
X103299460Y-144899260D01*
X103197860Y-144797660D02*
X103098800Y-144899260D01*
X102799080Y-145049120D02*
X102799080Y-144797660D01*
X102799080Y-144797660D02*
X102898140Y-144899260D01*
X102799080Y-144797660D02*
X102697480Y-144899260D01*
X102397760Y-145049120D02*
X102397760Y-144797660D01*
X102397760Y-144797660D02*
X102499360Y-144899260D01*
X102397760Y-144797660D02*
X102298700Y-144899260D01*
X101998980Y-145049120D02*
X101998980Y-144797660D01*
X101998980Y-144797660D02*
X102098040Y-144899260D01*
X101998980Y-144797660D02*
X101899920Y-144899260D01*
X101597660Y-145049120D02*
X101597660Y-144797660D01*
X101597660Y-144797660D02*
X101699260Y-144899260D01*
X101597660Y-144797660D02*
X101498600Y-144899260D01*
D16*
X102283280Y-89601500D02*
X104914720Y-89601500D01*
X105196660Y-89883440D02*
X105196660Y-90774980D01*
X104973140Y-90998500D02*
X102316300Y-90998500D01*
X102001340Y-90683540D02*
X102001340Y-89883440D01*
X104698820Y-90698780D02*
X102600780Y-90698780D01*
X102301060Y-90399060D02*
X102301060Y-90200940D01*
X102600780Y-89901220D02*
X104597220Y-89901220D01*
X104896940Y-90101880D02*
X104896940Y-90399060D01*
X102283280Y-89601500D02*
G75*
G03X102001340Y-89883440I0J-281940D01*
G01*
X105196660Y-89883440D02*
G75*
G03X104914720Y-89601500I-281940J0D01*
G01*
X104973140Y-90998500D02*
G75*
G03X105196660Y-90774980I0J223520D01*
G01*
X102001340Y-90683540D02*
G75*
G03X102316300Y-90998500I314960J0D01*
G01*
X102301060Y-90399583D02*
G75*
G03X102600780Y-90698780I299720J523D01*
G01*
X102600780Y-89901220D02*
G75*
G03X102301060Y-90200940I0J-299720D01*
G01*
X104896940Y-90099340D02*
G75*
G03X104597220Y-89901220I-248920J-50800D01*
G01*
X104698820Y-90698780D02*
G75*
G03X104896940Y-90399060I-50800J248920D01*
G01*
D15*
X74284000Y-95004779D02*
X74284000Y-94679221D01*
X75304000Y-95004779D02*
X75304000Y-94679221D01*
D16*
X122700780Y-109640440D02*
X122700780Y-110440540D01*
X123099560Y-110039220D02*
X122299460Y-110039220D01*
X125347460Y-105291960D02*
X121700020Y-105291960D01*
X119949960Y-107042020D02*
X119949960Y-110638660D01*
X122101340Y-112790040D02*
X125296660Y-112790040D01*
X127448040Y-107443340D02*
X127448040Y-110638660D01*
X124697220Y-109640440D02*
X124697220Y-110440540D01*
X123406900Y-110039220D02*
G75*
G03X123406900Y-110039220I-706120J0D01*
G01*
X125403340Y-110039220D02*
G75*
G03X125403340Y-110039220I-706120J0D01*
G01*
X104250000Y-95000000D02*
X105000000Y-95000000D01*
X105000000Y-95000000D02*
X105000000Y-95750000D01*
X105000000Y-104250000D02*
X105000000Y-105000000D01*
X105000000Y-105000000D02*
X104250000Y-105000000D01*
X95750000Y-95000000D02*
X95000000Y-95000000D01*
X95000000Y-95000000D02*
X95000000Y-95750000D01*
X95000000Y-104250000D02*
X95000000Y-105000000D01*
X95000000Y-105000000D02*
X95750000Y-105000000D01*
D20*
X103900000Y-93000000D02*
G75*
G03X103900000Y-93000000I-100000J0D01*
G01*
D15*
X124374721Y-124290000D02*
X124700279Y-124290000D01*
X124374721Y-125310000D02*
X124700279Y-125310000D01*
X124374721Y-127285000D02*
X124700279Y-127285000D01*
X124374721Y-126265000D02*
X124700279Y-126265000D01*
D10*
X82067000Y-79100000D02*
X117665000Y-79100000D01*
X117665000Y-79100000D02*
X117665000Y-112628000D01*
X117665000Y-112628000D02*
X82067000Y-112628000D01*
X82067000Y-112628000D02*
X82067000Y-79100000D01*
D14*
X100998220Y-122018000D02*
G75*
G03X100998220Y-122018000I-998220J0D01*
G01*
X101501140Y-122018000D02*
G75*
G03X101501140Y-122018000I-1501140J0D01*
G01*
X96700540Y-123216880D02*
X96700540Y-120819120D01*
X103299460Y-120819120D02*
X103299460Y-123216880D01*
X96700540Y-119018260D02*
X103299460Y-119018260D01*
X103299460Y-125017740D02*
X96700540Y-125017740D01*
X91945460Y-125017740D02*
X85346540Y-125017740D01*
X85346540Y-119018260D02*
X91945460Y-119018260D01*
X91945460Y-120819120D02*
X91945460Y-123216880D01*
X85346540Y-123216880D02*
X85346540Y-120819120D01*
X90147140Y-122018000D02*
G75*
G03X90147140Y-122018000I-1501140J0D01*
G01*
X89644220Y-122018000D02*
G75*
G03X89644220Y-122018000I-998220J0D01*
G01*
X114551460Y-125017740D02*
X107952540Y-125017740D01*
X107952540Y-119018260D02*
X114551460Y-119018260D01*
X114551460Y-120819120D02*
X114551460Y-123216880D01*
X107952540Y-123216880D02*
X107952540Y-120819120D01*
X112753140Y-122018000D02*
G75*
G03X112753140Y-122018000I-1501140J0D01*
G01*
X112250220Y-122018000D02*
G75*
G03X112250220Y-122018000I-998220J0D01*
G01*
D10*
X92769666Y-143379431D02*
X92436333Y-143379431D01*
X92436333Y-143903240D02*
X92436333Y-142903240D01*
X92912523Y-142903240D01*
X93817285Y-143903240D02*
X93245857Y-143903240D01*
X93531571Y-143903240D02*
X93531571Y-142903240D01*
X93436333Y-143046098D01*
X93341095Y-143141336D01*
X93245857Y-143188955D01*
D17*
X86569047Y-136043036D02*
X86660623Y-135961831D01*
X86757385Y-135794234D01*
X86762571Y-135707843D01*
X86748404Y-135654972D01*
X86700718Y-135582748D01*
X86633679Y-135544043D01*
X86547288Y-135538857D01*
X86494416Y-135553024D01*
X86422192Y-135600710D01*
X86311263Y-135715435D01*
X86239039Y-135763122D01*
X86186168Y-135777288D01*
X86099777Y-135772103D01*
X86032738Y-135733398D01*
X85985052Y-135661174D01*
X85970885Y-135608302D01*
X85976070Y-135521911D01*
X86072832Y-135354315D01*
X86164409Y-135273109D01*
X86266356Y-135019122D02*
X87067023Y-135257925D01*
X86641643Y-134833562D01*
X87221842Y-134989771D01*
X86614699Y-134415774D01*
X86963042Y-133812427D02*
X86769518Y-134147620D01*
X87085359Y-134374663D01*
X87071192Y-134321791D01*
X87076377Y-134235400D01*
X87173139Y-134067804D01*
X87245363Y-134020118D01*
X87298235Y-134005951D01*
X87384626Y-134011136D01*
X87552222Y-134107898D01*
X87599909Y-134180122D01*
X87614076Y-134232994D01*
X87608890Y-134319385D01*
X87512128Y-134486981D01*
X87439904Y-134534668D01*
X87387032Y-134548834D01*
D10*
X101533333Y-86957142D02*
X101485714Y-87004761D01*
X101342857Y-87052380D01*
X101247619Y-87052380D01*
X101104761Y-87004761D01*
X101009523Y-86909523D01*
X100961904Y-86814285D01*
X100914285Y-86623809D01*
X100914285Y-86480952D01*
X100961904Y-86290476D01*
X101009523Y-86195238D01*
X101104761Y-86100000D01*
X101247619Y-86052380D01*
X101342857Y-86052380D01*
X101485714Y-86100000D01*
X101533333Y-86147619D01*
X102485714Y-87052380D02*
X101914285Y-87052380D01*
X102200000Y-87052380D02*
X102200000Y-86052380D01*
X102104761Y-86195238D01*
X102009523Y-86290476D01*
X101914285Y-86338095D01*
X105633333Y-86957142D02*
X105585714Y-87004761D01*
X105442857Y-87052380D01*
X105347619Y-87052380D01*
X105204761Y-87004761D01*
X105109523Y-86909523D01*
X105061904Y-86814285D01*
X105014285Y-86623809D01*
X105014285Y-86480952D01*
X105061904Y-86290476D01*
X105109523Y-86195238D01*
X105204761Y-86100000D01*
X105347619Y-86052380D01*
X105442857Y-86052380D01*
X105585714Y-86100000D01*
X105633333Y-86147619D01*
X106014285Y-86147619D02*
X106061904Y-86100000D01*
X106157142Y-86052380D01*
X106395238Y-86052380D01*
X106490476Y-86100000D01*
X106538095Y-86147619D01*
X106585714Y-86242857D01*
X106585714Y-86338095D01*
X106538095Y-86480952D01*
X105966666Y-87052380D01*
X106585714Y-87052380D01*
X108733333Y-108257142D02*
X108685714Y-108304761D01*
X108542857Y-108352380D01*
X108447619Y-108352380D01*
X108304761Y-108304761D01*
X108209523Y-108209523D01*
X108161904Y-108114285D01*
X108114285Y-107923809D01*
X108114285Y-107780952D01*
X108161904Y-107590476D01*
X108209523Y-107495238D01*
X108304761Y-107400000D01*
X108447619Y-107352380D01*
X108542857Y-107352380D01*
X108685714Y-107400000D01*
X108733333Y-107447619D01*
X109066666Y-107352380D02*
X109685714Y-107352380D01*
X109352380Y-107733333D01*
X109495238Y-107733333D01*
X109590476Y-107780952D01*
X109638095Y-107828571D01*
X109685714Y-107923809D01*
X109685714Y-108161904D01*
X109638095Y-108257142D01*
X109590476Y-108304761D01*
X109495238Y-108352380D01*
X109209523Y-108352380D01*
X109114285Y-108304761D01*
X109066666Y-108257142D01*
X111583333Y-106857142D02*
X111535714Y-106904761D01*
X111392857Y-106952380D01*
X111297619Y-106952380D01*
X111154761Y-106904761D01*
X111059523Y-106809523D01*
X111011904Y-106714285D01*
X110964285Y-106523809D01*
X110964285Y-106380952D01*
X111011904Y-106190476D01*
X111059523Y-106095238D01*
X111154761Y-106000000D01*
X111297619Y-105952380D01*
X111392857Y-105952380D01*
X111535714Y-106000000D01*
X111583333Y-106047619D01*
X112440476Y-106285714D02*
X112440476Y-106952380D01*
X112202380Y-105904761D02*
X111964285Y-106619047D01*
X112583333Y-106619047D01*
X109583333Y-106857142D02*
X109535714Y-106904761D01*
X109392857Y-106952380D01*
X109297619Y-106952380D01*
X109154761Y-106904761D01*
X109059523Y-106809523D01*
X109011904Y-106714285D01*
X108964285Y-106523809D01*
X108964285Y-106380952D01*
X109011904Y-106190476D01*
X109059523Y-106095238D01*
X109154761Y-106000000D01*
X109297619Y-105952380D01*
X109392857Y-105952380D01*
X109535714Y-106000000D01*
X109583333Y-106047619D01*
X110488095Y-105952380D02*
X110011904Y-105952380D01*
X109964285Y-106428571D01*
X110011904Y-106380952D01*
X110107142Y-106333333D01*
X110345238Y-106333333D01*
X110440476Y-106380952D01*
X110488095Y-106428571D01*
X110535714Y-106523809D01*
X110535714Y-106761904D01*
X110488095Y-106857142D01*
X110440476Y-106904761D01*
X110345238Y-106952380D01*
X110107142Y-106952380D01*
X110011904Y-106904761D01*
X109964285Y-106857142D01*
X111833333Y-95857142D02*
X111785714Y-95904761D01*
X111642857Y-95952380D01*
X111547619Y-95952380D01*
X111404761Y-95904761D01*
X111309523Y-95809523D01*
X111261904Y-95714285D01*
X111214285Y-95523809D01*
X111214285Y-95380952D01*
X111261904Y-95190476D01*
X111309523Y-95095238D01*
X111404761Y-95000000D01*
X111547619Y-94952380D01*
X111642857Y-94952380D01*
X111785714Y-95000000D01*
X111833333Y-95047619D01*
X112690476Y-94952380D02*
X112500000Y-94952380D01*
X112404761Y-95000000D01*
X112357142Y-95047619D01*
X112261904Y-95190476D01*
X112214285Y-95380952D01*
X112214285Y-95761904D01*
X112261904Y-95857142D01*
X112309523Y-95904761D01*
X112404761Y-95952380D01*
X112595238Y-95952380D01*
X112690476Y-95904761D01*
X112738095Y-95857142D01*
X112785714Y-95761904D01*
X112785714Y-95523809D01*
X112738095Y-95428571D01*
X112690476Y-95380952D01*
X112595238Y-95333333D01*
X112404761Y-95333333D01*
X112309523Y-95380952D01*
X112261904Y-95428571D01*
X112214285Y-95523809D01*
X98733333Y-89456642D02*
X98685714Y-89504261D01*
X98542857Y-89551880D01*
X98447619Y-89551880D01*
X98304761Y-89504261D01*
X98209523Y-89409023D01*
X98161904Y-89313785D01*
X98114285Y-89123309D01*
X98114285Y-88980452D01*
X98161904Y-88789976D01*
X98209523Y-88694738D01*
X98304761Y-88599500D01*
X98447619Y-88551880D01*
X98542857Y-88551880D01*
X98685714Y-88599500D01*
X98733333Y-88647119D01*
X99209523Y-89551880D02*
X99400000Y-89551880D01*
X99495238Y-89504261D01*
X99542857Y-89456642D01*
X99638095Y-89313785D01*
X99685714Y-89123309D01*
X99685714Y-88742357D01*
X99638095Y-88647119D01*
X99590476Y-88599500D01*
X99495238Y-88551880D01*
X99304761Y-88551880D01*
X99209523Y-88599500D01*
X99161904Y-88647119D01*
X99114285Y-88742357D01*
X99114285Y-88980452D01*
X99161904Y-89075690D01*
X99209523Y-89123309D01*
X99304761Y-89170928D01*
X99495238Y-89170928D01*
X99590476Y-89123309D01*
X99638095Y-89075690D01*
X99685714Y-88980452D01*
X103757142Y-108157142D02*
X103709523Y-108204761D01*
X103566666Y-108252380D01*
X103471428Y-108252380D01*
X103328571Y-108204761D01*
X103233333Y-108109523D01*
X103185714Y-108014285D01*
X103138095Y-107823809D01*
X103138095Y-107680952D01*
X103185714Y-107490476D01*
X103233333Y-107395238D01*
X103328571Y-107300000D01*
X103471428Y-107252380D01*
X103566666Y-107252380D01*
X103709523Y-107300000D01*
X103757142Y-107347619D01*
X104709523Y-108252380D02*
X104138095Y-108252380D01*
X104423809Y-108252380D02*
X104423809Y-107252380D01*
X104328571Y-107395238D01*
X104233333Y-107490476D01*
X104138095Y-107538095D01*
X105328571Y-107252380D02*
X105423809Y-107252380D01*
X105519047Y-107300000D01*
X105566666Y-107347619D01*
X105614285Y-107442857D01*
X105661904Y-107633333D01*
X105661904Y-107871428D01*
X105614285Y-108061904D01*
X105566666Y-108157142D01*
X105519047Y-108204761D01*
X105423809Y-108252380D01*
X105328571Y-108252380D01*
X105233333Y-108204761D01*
X105185714Y-108157142D01*
X105138095Y-108061904D01*
X105090476Y-107871428D01*
X105090476Y-107633333D01*
X105138095Y-107442857D01*
X105185714Y-107347619D01*
X105233333Y-107300000D01*
X105328571Y-107252380D01*
X89657142Y-95257142D02*
X89609523Y-95304761D01*
X89466666Y-95352380D01*
X89371428Y-95352380D01*
X89228571Y-95304761D01*
X89133333Y-95209523D01*
X89085714Y-95114285D01*
X89038095Y-94923809D01*
X89038095Y-94780952D01*
X89085714Y-94590476D01*
X89133333Y-94495238D01*
X89228571Y-94400000D01*
X89371428Y-94352380D01*
X89466666Y-94352380D01*
X89609523Y-94400000D01*
X89657142Y-94447619D01*
X90609523Y-95352380D02*
X90038095Y-95352380D01*
X90323809Y-95352380D02*
X90323809Y-94352380D01*
X90228571Y-94495238D01*
X90133333Y-94590476D01*
X90038095Y-94638095D01*
X91561904Y-95352380D02*
X90990476Y-95352380D01*
X91276190Y-95352380D02*
X91276190Y-94352380D01*
X91180952Y-94495238D01*
X91085714Y-94590476D01*
X90990476Y-94638095D01*
X108607142Y-95857142D02*
X108559523Y-95904761D01*
X108416666Y-95952380D01*
X108321428Y-95952380D01*
X108178571Y-95904761D01*
X108083333Y-95809523D01*
X108035714Y-95714285D01*
X107988095Y-95523809D01*
X107988095Y-95380952D01*
X108035714Y-95190476D01*
X108083333Y-95095238D01*
X108178571Y-95000000D01*
X108321428Y-94952380D01*
X108416666Y-94952380D01*
X108559523Y-95000000D01*
X108607142Y-95047619D01*
X109559523Y-95952380D02*
X108988095Y-95952380D01*
X109273809Y-95952380D02*
X109273809Y-94952380D01*
X109178571Y-95095238D01*
X109083333Y-95190476D01*
X108988095Y-95238095D01*
X109940476Y-95047619D02*
X109988095Y-95000000D01*
X110083333Y-94952380D01*
X110321428Y-94952380D01*
X110416666Y-95000000D01*
X110464285Y-95047619D01*
X110511904Y-95142857D01*
X110511904Y-95238095D01*
X110464285Y-95380952D01*
X109892857Y-95952380D01*
X110511904Y-95952380D01*
X95057142Y-108057142D02*
X95009523Y-108104761D01*
X94866666Y-108152380D01*
X94771428Y-108152380D01*
X94628571Y-108104761D01*
X94533333Y-108009523D01*
X94485714Y-107914285D01*
X94438095Y-107723809D01*
X94438095Y-107580952D01*
X94485714Y-107390476D01*
X94533333Y-107295238D01*
X94628571Y-107200000D01*
X94771428Y-107152380D01*
X94866666Y-107152380D01*
X95009523Y-107200000D01*
X95057142Y-107247619D01*
X96009523Y-108152380D02*
X95438095Y-108152380D01*
X95723809Y-108152380D02*
X95723809Y-107152380D01*
X95628571Y-107295238D01*
X95533333Y-107390476D01*
X95438095Y-107438095D01*
X96342857Y-107152380D02*
X96961904Y-107152380D01*
X96628571Y-107533333D01*
X96771428Y-107533333D01*
X96866666Y-107580952D01*
X96914285Y-107628571D01*
X96961904Y-107723809D01*
X96961904Y-107961904D01*
X96914285Y-108057142D01*
X96866666Y-108104761D01*
X96771428Y-108152380D01*
X96485714Y-108152380D01*
X96390476Y-108104761D01*
X96342857Y-108057142D01*
X110357142Y-134927142D02*
X110309523Y-134974761D01*
X110166666Y-135022380D01*
X110071428Y-135022380D01*
X109928571Y-134974761D01*
X109833333Y-134879523D01*
X109785714Y-134784285D01*
X109738095Y-134593809D01*
X109738095Y-134450952D01*
X109785714Y-134260476D01*
X109833333Y-134165238D01*
X109928571Y-134070000D01*
X110071428Y-134022380D01*
X110166666Y-134022380D01*
X110309523Y-134070000D01*
X110357142Y-134117619D01*
X111309523Y-135022380D02*
X110738095Y-135022380D01*
X111023809Y-135022380D02*
X111023809Y-134022380D01*
X110928571Y-134165238D01*
X110833333Y-134260476D01*
X110738095Y-134308095D01*
X112166666Y-134355714D02*
X112166666Y-135022380D01*
X111928571Y-133974761D02*
X111690476Y-134689047D01*
X112309523Y-134689047D01*
X114107142Y-136107142D02*
X114059523Y-136154761D01*
X113916666Y-136202380D01*
X113821428Y-136202380D01*
X113678571Y-136154761D01*
X113583333Y-136059523D01*
X113535714Y-135964285D01*
X113488095Y-135773809D01*
X113488095Y-135630952D01*
X113535714Y-135440476D01*
X113583333Y-135345238D01*
X113678571Y-135250000D01*
X113821428Y-135202380D01*
X113916666Y-135202380D01*
X114059523Y-135250000D01*
X114107142Y-135297619D01*
X115059523Y-136202380D02*
X114488095Y-136202380D01*
X114773809Y-136202380D02*
X114773809Y-135202380D01*
X114678571Y-135345238D01*
X114583333Y-135440476D01*
X114488095Y-135488095D01*
X115964285Y-135202380D02*
X115488095Y-135202380D01*
X115440476Y-135678571D01*
X115488095Y-135630952D01*
X115583333Y-135583333D01*
X115821428Y-135583333D01*
X115916666Y-135630952D01*
X115964285Y-135678571D01*
X116011904Y-135773809D01*
X116011904Y-136011904D01*
X115964285Y-136107142D01*
X115916666Y-136154761D01*
X115821428Y-136202380D01*
X115583333Y-136202380D01*
X115488095Y-136154761D01*
X115440476Y-136107142D01*
X117632142Y-136132142D02*
X117584523Y-136179761D01*
X117441666Y-136227380D01*
X117346428Y-136227380D01*
X117203571Y-136179761D01*
X117108333Y-136084523D01*
X117060714Y-135989285D01*
X117013095Y-135798809D01*
X117013095Y-135655952D01*
X117060714Y-135465476D01*
X117108333Y-135370238D01*
X117203571Y-135275000D01*
X117346428Y-135227380D01*
X117441666Y-135227380D01*
X117584523Y-135275000D01*
X117632142Y-135322619D01*
X118584523Y-136227380D02*
X118013095Y-136227380D01*
X118298809Y-136227380D02*
X118298809Y-135227380D01*
X118203571Y-135370238D01*
X118108333Y-135465476D01*
X118013095Y-135513095D01*
X119441666Y-135227380D02*
X119251190Y-135227380D01*
X119155952Y-135275000D01*
X119108333Y-135322619D01*
X119013095Y-135465476D01*
X118965476Y-135655952D01*
X118965476Y-136036904D01*
X119013095Y-136132142D01*
X119060714Y-136179761D01*
X119155952Y-136227380D01*
X119346428Y-136227380D01*
X119441666Y-136179761D01*
X119489285Y-136132142D01*
X119536904Y-136036904D01*
X119536904Y-135798809D01*
X119489285Y-135703571D01*
X119441666Y-135655952D01*
X119346428Y-135608333D01*
X119155952Y-135608333D01*
X119060714Y-135655952D01*
X119013095Y-135703571D01*
X118965476Y-135798809D01*
X119557142Y-100617142D02*
X119509523Y-100664761D01*
X119366666Y-100712380D01*
X119271428Y-100712380D01*
X119128571Y-100664761D01*
X119033333Y-100569523D01*
X118985714Y-100474285D01*
X118938095Y-100283809D01*
X118938095Y-100140952D01*
X118985714Y-99950476D01*
X119033333Y-99855238D01*
X119128571Y-99760000D01*
X119271428Y-99712380D01*
X119366666Y-99712380D01*
X119509523Y-99760000D01*
X119557142Y-99807619D01*
X120509523Y-100712380D02*
X119938095Y-100712380D01*
X120223809Y-100712380D02*
X120223809Y-99712380D01*
X120128571Y-99855238D01*
X120033333Y-99950476D01*
X119938095Y-99998095D01*
X120842857Y-99712380D02*
X121509523Y-99712380D01*
X121080952Y-100712380D01*
D17*
X96400076Y-132767695D02*
X96400076Y-131954895D01*
X96593600Y-131954895D01*
X96709714Y-131993600D01*
X96787123Y-132071009D01*
X96825828Y-132148419D01*
X96864533Y-132303238D01*
X96864533Y-132419352D01*
X96825828Y-132574171D01*
X96787123Y-132651580D01*
X96709714Y-132728990D01*
X96593600Y-132767695D01*
X96400076Y-132767695D01*
X97638628Y-132767695D02*
X97174171Y-132767695D01*
X97406400Y-132767695D02*
X97406400Y-131954895D01*
X97328990Y-132071009D01*
X97251580Y-132148419D01*
X97174171Y-132187123D01*
X113864533Y-101367695D02*
X113477485Y-101367695D01*
X113477485Y-100554895D01*
X114561219Y-101367695D02*
X114096761Y-101367695D01*
X114328990Y-101367695D02*
X114328990Y-100554895D01*
X114251580Y-100671009D01*
X114174171Y-100748419D01*
X114096761Y-100787123D01*
X84922590Y-141745104D02*
X84845180Y-141706400D01*
X84767771Y-141628990D01*
X84651657Y-141512876D01*
X84574247Y-141474171D01*
X84496838Y-141474171D01*
X84535542Y-141667695D02*
X84458133Y-141628990D01*
X84380723Y-141551580D01*
X84342019Y-141396761D01*
X84342019Y-141125828D01*
X84380723Y-140971009D01*
X84458133Y-140893600D01*
X84535542Y-140854895D01*
X84690361Y-140854895D01*
X84767771Y-140893600D01*
X84845180Y-140971009D01*
X84883885Y-141125828D01*
X84883885Y-141396761D01*
X84845180Y-141551580D01*
X84767771Y-141628990D01*
X84690361Y-141667695D01*
X84535542Y-141667695D01*
X85657980Y-141667695D02*
X85193523Y-141667695D01*
X85425752Y-141667695D02*
X85425752Y-140854895D01*
X85348342Y-140971009D01*
X85270933Y-141048419D01*
X85193523Y-141087123D01*
X92422590Y-133345104D02*
X92345180Y-133306400D01*
X92267771Y-133228990D01*
X92151657Y-133112876D01*
X92074247Y-133074171D01*
X91996838Y-133074171D01*
X92035542Y-133267695D02*
X91958133Y-133228990D01*
X91880723Y-133151580D01*
X91842019Y-132996761D01*
X91842019Y-132725828D01*
X91880723Y-132571009D01*
X91958133Y-132493600D01*
X92035542Y-132454895D01*
X92190361Y-132454895D01*
X92267771Y-132493600D01*
X92345180Y-132571009D01*
X92383885Y-132725828D01*
X92383885Y-132996761D01*
X92345180Y-133151580D01*
X92267771Y-133228990D01*
X92190361Y-133267695D01*
X92035542Y-133267695D01*
X92693523Y-132532304D02*
X92732228Y-132493600D01*
X92809638Y-132454895D01*
X93003161Y-132454895D01*
X93080571Y-132493600D01*
X93119276Y-132532304D01*
X93157980Y-132609714D01*
X93157980Y-132687123D01*
X93119276Y-132803238D01*
X92654819Y-133267695D01*
X93157980Y-133267695D01*
D10*
X74981333Y-107272380D02*
X74648000Y-106796190D01*
X74409904Y-107272380D02*
X74409904Y-106272380D01*
X74790857Y-106272380D01*
X74886095Y-106320000D01*
X74933714Y-106367619D01*
X74981333Y-106462857D01*
X74981333Y-106605714D01*
X74933714Y-106700952D01*
X74886095Y-106748571D01*
X74790857Y-106796190D01*
X74409904Y-106796190D01*
X75933714Y-107272380D02*
X75362285Y-107272380D01*
X75648000Y-107272380D02*
X75648000Y-106272380D01*
X75552761Y-106415238D01*
X75457523Y-106510476D01*
X75362285Y-106558095D01*
X75045833Y-110320380D02*
X74712500Y-109844190D01*
X74474404Y-110320380D02*
X74474404Y-109320380D01*
X74855357Y-109320380D01*
X74950595Y-109368000D01*
X74998214Y-109415619D01*
X75045833Y-109510857D01*
X75045833Y-109653714D01*
X74998214Y-109748952D01*
X74950595Y-109796571D01*
X74855357Y-109844190D01*
X74474404Y-109844190D01*
X75426785Y-109415619D02*
X75474404Y-109368000D01*
X75569642Y-109320380D01*
X75807738Y-109320380D01*
X75902976Y-109368000D01*
X75950595Y-109415619D01*
X75998214Y-109510857D01*
X75998214Y-109606095D01*
X75950595Y-109748952D01*
X75379166Y-110320380D01*
X75998214Y-110320380D01*
X110833333Y-108352380D02*
X110500000Y-107876190D01*
X110261904Y-108352380D02*
X110261904Y-107352380D01*
X110642857Y-107352380D01*
X110738095Y-107400000D01*
X110785714Y-107447619D01*
X110833333Y-107542857D01*
X110833333Y-107685714D01*
X110785714Y-107780952D01*
X110738095Y-107828571D01*
X110642857Y-107876190D01*
X110261904Y-107876190D01*
X111166666Y-107352380D02*
X111785714Y-107352380D01*
X111452380Y-107733333D01*
X111595238Y-107733333D01*
X111690476Y-107780952D01*
X111738095Y-107828571D01*
X111785714Y-107923809D01*
X111785714Y-108161904D01*
X111738095Y-108257142D01*
X111690476Y-108304761D01*
X111595238Y-108352380D01*
X111309523Y-108352380D01*
X111214285Y-108304761D01*
X111166666Y-108257142D01*
X73933333Y-100352880D02*
X73600000Y-99876690D01*
X73361904Y-100352880D02*
X73361904Y-99352880D01*
X73742857Y-99352880D01*
X73838095Y-99400500D01*
X73885714Y-99448119D01*
X73933333Y-99543357D01*
X73933333Y-99686214D01*
X73885714Y-99781452D01*
X73838095Y-99829071D01*
X73742857Y-99876690D01*
X73361904Y-99876690D01*
X74790476Y-99686214D02*
X74790476Y-100352880D01*
X74552380Y-99305261D02*
X74314285Y-100019547D01*
X74933333Y-100019547D01*
X112833333Y-108252380D02*
X112500000Y-107776190D01*
X112261904Y-108252380D02*
X112261904Y-107252380D01*
X112642857Y-107252380D01*
X112738095Y-107300000D01*
X112785714Y-107347619D01*
X112833333Y-107442857D01*
X112833333Y-107585714D01*
X112785714Y-107680952D01*
X112738095Y-107728571D01*
X112642857Y-107776190D01*
X112261904Y-107776190D01*
X113738095Y-107252380D02*
X113261904Y-107252380D01*
X113214285Y-107728571D01*
X113261904Y-107680952D01*
X113357142Y-107633333D01*
X113595238Y-107633333D01*
X113690476Y-107680952D01*
X113738095Y-107728571D01*
X113785714Y-107823809D01*
X113785714Y-108061904D01*
X113738095Y-108157142D01*
X113690476Y-108204761D01*
X113595238Y-108252380D01*
X113357142Y-108252380D01*
X113261904Y-108204761D01*
X113214285Y-108157142D01*
X89830333Y-139107880D02*
X89497000Y-138631690D01*
X89258904Y-139107880D02*
X89258904Y-138107880D01*
X89639857Y-138107880D01*
X89735095Y-138155500D01*
X89782714Y-138203119D01*
X89830333Y-138298357D01*
X89830333Y-138441214D01*
X89782714Y-138536452D01*
X89735095Y-138584071D01*
X89639857Y-138631690D01*
X89258904Y-138631690D01*
X90687476Y-138107880D02*
X90497000Y-138107880D01*
X90401761Y-138155500D01*
X90354142Y-138203119D01*
X90258904Y-138345976D01*
X90211285Y-138536452D01*
X90211285Y-138917404D01*
X90258904Y-139012642D01*
X90306523Y-139060261D01*
X90401761Y-139107880D01*
X90592238Y-139107880D01*
X90687476Y-139060261D01*
X90735095Y-139012642D01*
X90782714Y-138917404D01*
X90782714Y-138679309D01*
X90735095Y-138584071D01*
X90687476Y-138536452D01*
X90592238Y-138488833D01*
X90401761Y-138488833D01*
X90306523Y-138536452D01*
X90258904Y-138584071D01*
X90211285Y-138679309D01*
X107858333Y-140764880D02*
X107525000Y-140288690D01*
X107286904Y-140764880D02*
X107286904Y-139764880D01*
X107667857Y-139764880D01*
X107763095Y-139812500D01*
X107810714Y-139860119D01*
X107858333Y-139955357D01*
X107858333Y-140098214D01*
X107810714Y-140193452D01*
X107763095Y-140241071D01*
X107667857Y-140288690D01*
X107286904Y-140288690D01*
X108191666Y-139764880D02*
X108858333Y-139764880D01*
X108429761Y-140764880D01*
X81819642Y-66886380D02*
X81486309Y-66410190D01*
X81248214Y-66886380D02*
X81248214Y-65886380D01*
X81629166Y-65886380D01*
X81724404Y-65934000D01*
X81772023Y-65981619D01*
X81819642Y-66076857D01*
X81819642Y-66219714D01*
X81772023Y-66314952D01*
X81724404Y-66362571D01*
X81629166Y-66410190D01*
X81248214Y-66410190D01*
X82772023Y-66886380D02*
X82200595Y-66886380D01*
X82486309Y-66886380D02*
X82486309Y-65886380D01*
X82391071Y-66029238D01*
X82295833Y-66124476D01*
X82200595Y-66172095D01*
X83391071Y-65886380D02*
X83486309Y-65886380D01*
X83581547Y-65934000D01*
X83629166Y-65981619D01*
X83676785Y-66076857D01*
X83724404Y-66267333D01*
X83724404Y-66505428D01*
X83676785Y-66695904D01*
X83629166Y-66791142D01*
X83581547Y-66838761D01*
X83486309Y-66886380D01*
X83391071Y-66886380D01*
X83295833Y-66838761D01*
X83248214Y-66791142D01*
X83200595Y-66695904D01*
X83152976Y-66505428D01*
X83152976Y-66267333D01*
X83200595Y-66076857D01*
X83248214Y-65981619D01*
X83295833Y-65934000D01*
X83391071Y-65886380D01*
X87105142Y-66886380D02*
X86771809Y-66410190D01*
X86533714Y-66886380D02*
X86533714Y-65886380D01*
X86914666Y-65886380D01*
X87009904Y-65934000D01*
X87057523Y-65981619D01*
X87105142Y-66076857D01*
X87105142Y-66219714D01*
X87057523Y-66314952D01*
X87009904Y-66362571D01*
X86914666Y-66410190D01*
X86533714Y-66410190D01*
X88057523Y-66886380D02*
X87486095Y-66886380D01*
X87771809Y-66886380D02*
X87771809Y-65886380D01*
X87676571Y-66029238D01*
X87581333Y-66124476D01*
X87486095Y-66172095D01*
X89009904Y-66886380D02*
X88438476Y-66886380D01*
X88724190Y-66886380D02*
X88724190Y-65886380D01*
X88628952Y-66029238D01*
X88533714Y-66124476D01*
X88438476Y-66172095D01*
X109857642Y-91952380D02*
X109524309Y-91476190D01*
X109286214Y-91952380D02*
X109286214Y-90952380D01*
X109667166Y-90952380D01*
X109762404Y-91000000D01*
X109810023Y-91047619D01*
X109857642Y-91142857D01*
X109857642Y-91285714D01*
X109810023Y-91380952D01*
X109762404Y-91428571D01*
X109667166Y-91476190D01*
X109286214Y-91476190D01*
X110810023Y-91952380D02*
X110238595Y-91952380D01*
X110524309Y-91952380D02*
X110524309Y-90952380D01*
X110429071Y-91095238D01*
X110333833Y-91190476D01*
X110238595Y-91238095D01*
X111190976Y-91047619D02*
X111238595Y-91000000D01*
X111333833Y-90952380D01*
X111571928Y-90952380D01*
X111667166Y-91000000D01*
X111714785Y-91047619D01*
X111762404Y-91142857D01*
X111762404Y-91238095D01*
X111714785Y-91380952D01*
X111143357Y-91952380D01*
X111762404Y-91952380D01*
X121137142Y-92532380D02*
X120803809Y-92056190D01*
X120565714Y-92532380D02*
X120565714Y-91532380D01*
X120946666Y-91532380D01*
X121041904Y-91580000D01*
X121089523Y-91627619D01*
X121137142Y-91722857D01*
X121137142Y-91865714D01*
X121089523Y-91960952D01*
X121041904Y-92008571D01*
X120946666Y-92056190D01*
X120565714Y-92056190D01*
X122089523Y-92532380D02*
X121518095Y-92532380D01*
X121803809Y-92532380D02*
X121803809Y-91532380D01*
X121708571Y-91675238D01*
X121613333Y-91770476D01*
X121518095Y-91818095D01*
X122422857Y-91532380D02*
X123041904Y-91532380D01*
X122708571Y-91913333D01*
X122851428Y-91913333D01*
X122946666Y-91960952D01*
X122994285Y-92008571D01*
X123041904Y-92103809D01*
X123041904Y-92341904D01*
X122994285Y-92437142D01*
X122946666Y-92484761D01*
X122851428Y-92532380D01*
X122565714Y-92532380D01*
X122470476Y-92484761D01*
X122422857Y-92437142D01*
X124355142Y-94094380D02*
X124021809Y-93618190D01*
X123783714Y-94094380D02*
X123783714Y-93094380D01*
X124164666Y-93094380D01*
X124259904Y-93142000D01*
X124307523Y-93189619D01*
X124355142Y-93284857D01*
X124355142Y-93427714D01*
X124307523Y-93522952D01*
X124259904Y-93570571D01*
X124164666Y-93618190D01*
X123783714Y-93618190D01*
X125307523Y-94094380D02*
X124736095Y-94094380D01*
X125021809Y-94094380D02*
X125021809Y-93094380D01*
X124926571Y-93237238D01*
X124831333Y-93332476D01*
X124736095Y-93380095D01*
X126164666Y-93427714D02*
X126164666Y-94094380D01*
X125926571Y-93046761D02*
X125688476Y-93761047D01*
X126307523Y-93761047D01*
X78138095Y-93152380D02*
X78138095Y-93961904D01*
X78185714Y-94057142D01*
X78233333Y-94104761D01*
X78328571Y-94152380D01*
X78519047Y-94152380D01*
X78614285Y-94104761D01*
X78661904Y-94057142D01*
X78709523Y-93961904D01*
X78709523Y-93152380D01*
X79138095Y-93247619D02*
X79185714Y-93200000D01*
X79280952Y-93152380D01*
X79519047Y-93152380D01*
X79614285Y-93200000D01*
X79661904Y-93247619D01*
X79709523Y-93342857D01*
X79709523Y-93438095D01*
X79661904Y-93580952D01*
X79090476Y-94152380D01*
X79709523Y-94152380D01*
X110938035Y-140752420D02*
X110938035Y-141561944D01*
X110985654Y-141657182D01*
X111033273Y-141704801D01*
X111128511Y-141752420D01*
X111318987Y-141752420D01*
X111414225Y-141704801D01*
X111461844Y-141657182D01*
X111509463Y-141561944D01*
X111509463Y-140752420D01*
X111890416Y-140752420D02*
X112509463Y-140752420D01*
X112176130Y-141133373D01*
X112318987Y-141133373D01*
X112414225Y-141180992D01*
X112461844Y-141228611D01*
X112509463Y-141323849D01*
X112509463Y-141561944D01*
X112461844Y-141657182D01*
X112414225Y-141704801D01*
X112318987Y-141752420D01*
X112033273Y-141752420D01*
X111938035Y-141704801D01*
X111890416Y-141657182D01*
X78338095Y-104652380D02*
X78338095Y-105461904D01*
X78385714Y-105557142D01*
X78433333Y-105604761D01*
X78528571Y-105652380D01*
X78719047Y-105652380D01*
X78814285Y-105604761D01*
X78861904Y-105557142D01*
X78909523Y-105461904D01*
X78909523Y-104652380D01*
X79814285Y-104985714D02*
X79814285Y-105652380D01*
X79576190Y-104604761D02*
X79338095Y-105319047D01*
X79957142Y-105319047D01*
X123208095Y-100192380D02*
X123208095Y-101001904D01*
X123255714Y-101097142D01*
X123303333Y-101144761D01*
X123398571Y-101192380D01*
X123589047Y-101192380D01*
X123684285Y-101144761D01*
X123731904Y-101097142D01*
X123779523Y-101001904D01*
X123779523Y-100192380D01*
X124731904Y-100192380D02*
X124255714Y-100192380D01*
X124208095Y-100668571D01*
X124255714Y-100620952D01*
X124350952Y-100573333D01*
X124589047Y-100573333D01*
X124684285Y-100620952D01*
X124731904Y-100668571D01*
X124779523Y-100763809D01*
X124779523Y-101001904D01*
X124731904Y-101097142D01*
X124684285Y-101144761D01*
X124589047Y-101192380D01*
X124350952Y-101192380D01*
X124255714Y-101144761D01*
X124208095Y-101097142D01*
X105414476Y-142497380D02*
X106081142Y-143497380D01*
X106081142Y-142497380D02*
X105414476Y-143497380D01*
X106414476Y-142592619D02*
X106462095Y-142545000D01*
X106557333Y-142497380D01*
X106795428Y-142497380D01*
X106890666Y-142545000D01*
X106938285Y-142592619D01*
X106985904Y-142687857D01*
X106985904Y-142783095D01*
X106938285Y-142925952D01*
X106366857Y-143497380D01*
X106985904Y-143497380D01*
D21*
X100241904Y-144652517D02*
X100326571Y-144652517D01*
X100362857Y-144785564D02*
X100241904Y-144785564D01*
X100241904Y-144531564D01*
X100362857Y-144531564D01*
X100580571Y-144785564D02*
X100580571Y-144531564D01*
X100580571Y-144773469D02*
X100556380Y-144785564D01*
X100508000Y-144785564D01*
X100483809Y-144773469D01*
X100471714Y-144761374D01*
X100459619Y-144737183D01*
X100459619Y-144664612D01*
X100471714Y-144640421D01*
X100483809Y-144628326D01*
X100508000Y-144616231D01*
X100556380Y-144616231D01*
X100580571Y-144628326D01*
X100810380Y-144616231D02*
X100810380Y-144821850D01*
X100798285Y-144846040D01*
X100786190Y-144858136D01*
X100762000Y-144870231D01*
X100725714Y-144870231D01*
X100701523Y-144858136D01*
X100810380Y-144773469D02*
X100786190Y-144785564D01*
X100737809Y-144785564D01*
X100713619Y-144773469D01*
X100701523Y-144761374D01*
X100689428Y-144737183D01*
X100689428Y-144664612D01*
X100701523Y-144640421D01*
X100713619Y-144628326D01*
X100737809Y-144616231D01*
X100786190Y-144616231D01*
X100810380Y-144628326D01*
X101028095Y-144773469D02*
X101003904Y-144785564D01*
X100955523Y-144785564D01*
X100931333Y-144773469D01*
X100919238Y-144749279D01*
X100919238Y-144652517D01*
X100931333Y-144628326D01*
X100955523Y-144616231D01*
X101003904Y-144616231D01*
X101028095Y-144628326D01*
X101040190Y-144652517D01*
X101040190Y-144676707D01*
X100919238Y-144700898D01*
X101378857Y-144785564D02*
X101354666Y-144773469D01*
X101342571Y-144761374D01*
X101330476Y-144737183D01*
X101330476Y-144664612D01*
X101342571Y-144640421D01*
X101354666Y-144628326D01*
X101378857Y-144616231D01*
X101415142Y-144616231D01*
X101439333Y-144628326D01*
X101451428Y-144640421D01*
X101463523Y-144664612D01*
X101463523Y-144737183D01*
X101451428Y-144761374D01*
X101439333Y-144773469D01*
X101415142Y-144785564D01*
X101378857Y-144785564D01*
X101536095Y-144616231D02*
X101632857Y-144616231D01*
X101572380Y-144785564D02*
X101572380Y-144567850D01*
X101584476Y-144543660D01*
X101608666Y-144531564D01*
X101632857Y-144531564D01*
X101911047Y-144785564D02*
X101911047Y-144531564D01*
X102007809Y-144531564D01*
X102032000Y-144543660D01*
X102044095Y-144555755D01*
X102056190Y-144579945D01*
X102056190Y-144616231D01*
X102044095Y-144640421D01*
X102032000Y-144652517D01*
X102007809Y-144664612D01*
X101911047Y-144664612D01*
X102310190Y-144761374D02*
X102298095Y-144773469D01*
X102261809Y-144785564D01*
X102237619Y-144785564D01*
X102201333Y-144773469D01*
X102177142Y-144749279D01*
X102165047Y-144725088D01*
X102152952Y-144676707D01*
X102152952Y-144640421D01*
X102165047Y-144592040D01*
X102177142Y-144567850D01*
X102201333Y-144543660D01*
X102237619Y-144531564D01*
X102261809Y-144531564D01*
X102298095Y-144543660D01*
X102310190Y-144555755D01*
X102503714Y-144652517D02*
X102540000Y-144664612D01*
X102552095Y-144676707D01*
X102564190Y-144700898D01*
X102564190Y-144737183D01*
X102552095Y-144761374D01*
X102540000Y-144773469D01*
X102515809Y-144785564D01*
X102419047Y-144785564D01*
X102419047Y-144531564D01*
X102503714Y-144531564D01*
X102527904Y-144543660D01*
X102540000Y-144555755D01*
X102552095Y-144579945D01*
X102552095Y-144604136D01*
X102540000Y-144628326D01*
X102527904Y-144640421D01*
X102503714Y-144652517D01*
X102419047Y-144652517D01*
D10*
X106023929Y-90226190D02*
X106023929Y-90702380D01*
X105690596Y-89702380D02*
X106023929Y-90226190D01*
X106357262Y-89702380D01*
X107214405Y-90702380D02*
X106642977Y-90702380D01*
X106928691Y-90702380D02*
X106928691Y-89702380D01*
X106833453Y-89845238D01*
X106738215Y-89940476D01*
X106642977Y-89988095D01*
X74157142Y-92957142D02*
X74109523Y-93004761D01*
X73966666Y-93052380D01*
X73871428Y-93052380D01*
X73728571Y-93004761D01*
X73633333Y-92909523D01*
X73585714Y-92814285D01*
X73538095Y-92623809D01*
X73538095Y-92480952D01*
X73585714Y-92290476D01*
X73633333Y-92195238D01*
X73728571Y-92100000D01*
X73871428Y-92052380D01*
X73966666Y-92052380D01*
X74109523Y-92100000D01*
X74157142Y-92147619D01*
X75109523Y-93052380D02*
X74538095Y-93052380D01*
X74823809Y-93052380D02*
X74823809Y-92052380D01*
X74728571Y-92195238D01*
X74633333Y-92290476D01*
X74538095Y-92338095D01*
X75680952Y-92480952D02*
X75585714Y-92433333D01*
X75538095Y-92385714D01*
X75490476Y-92290476D01*
X75490476Y-92242857D01*
X75538095Y-92147619D01*
X75585714Y-92100000D01*
X75680952Y-92052380D01*
X75871428Y-92052380D01*
X75966666Y-92100000D01*
X76014285Y-92147619D01*
X76061904Y-92242857D01*
X76061904Y-92290476D01*
X76014285Y-92385714D01*
X75966666Y-92433333D01*
X75871428Y-92480952D01*
X75680952Y-92480952D01*
X75585714Y-92528571D01*
X75538095Y-92576190D01*
X75490476Y-92671428D01*
X75490476Y-92861904D01*
X75538095Y-92957142D01*
X75585714Y-93004761D01*
X75680952Y-93052380D01*
X75871428Y-93052380D01*
X75966666Y-93004761D01*
X76014285Y-92957142D01*
X76061904Y-92861904D01*
X76061904Y-92671428D01*
X76014285Y-92576190D01*
X75966666Y-92528571D01*
X75871428Y-92480952D01*
X122315095Y-108118761D02*
X122457952Y-108166380D01*
X122696047Y-108166380D01*
X122791285Y-108118761D01*
X122838904Y-108071142D01*
X122886523Y-107975904D01*
X122886523Y-107880666D01*
X122838904Y-107785428D01*
X122791285Y-107737809D01*
X122696047Y-107690190D01*
X122505571Y-107642571D01*
X122410333Y-107594952D01*
X122362714Y-107547333D01*
X122315095Y-107452095D01*
X122315095Y-107356857D01*
X122362714Y-107261619D01*
X122410333Y-107214000D01*
X122505571Y-107166380D01*
X122743666Y-107166380D01*
X122886523Y-107214000D01*
X123315095Y-108166380D02*
X123315095Y-107166380D01*
X123696047Y-107166380D01*
X123791285Y-107214000D01*
X123838904Y-107261619D01*
X123886523Y-107356857D01*
X123886523Y-107499714D01*
X123838904Y-107594952D01*
X123791285Y-107642571D01*
X123696047Y-107690190D01*
X123315095Y-107690190D01*
X124838904Y-108166380D02*
X124267476Y-108166380D01*
X124553190Y-108166380D02*
X124553190Y-107166380D01*
X124457952Y-107309238D01*
X124362714Y-107404476D01*
X124267476Y-107452095D01*
X99338095Y-106952380D02*
X99338095Y-107761904D01*
X99385714Y-107857142D01*
X99433333Y-107904761D01*
X99528571Y-107952380D01*
X99719047Y-107952380D01*
X99814285Y-107904761D01*
X99861904Y-107857142D01*
X99909523Y-107761904D01*
X99909523Y-106952380D01*
X100909523Y-107952380D02*
X100338095Y-107952380D01*
X100623809Y-107952380D02*
X100623809Y-106952380D01*
X100528571Y-107095238D01*
X100433333Y-107190476D01*
X100338095Y-107238095D01*
X121808333Y-125352380D02*
X121475000Y-124876190D01*
X121236904Y-125352380D02*
X121236904Y-124352380D01*
X121617857Y-124352380D01*
X121713095Y-124400000D01*
X121760714Y-124447619D01*
X121808333Y-124542857D01*
X121808333Y-124685714D01*
X121760714Y-124780952D01*
X121713095Y-124828571D01*
X121617857Y-124876190D01*
X121236904Y-124876190D01*
X122379761Y-124780952D02*
X122284523Y-124733333D01*
X122236904Y-124685714D01*
X122189285Y-124590476D01*
X122189285Y-124542857D01*
X122236904Y-124447619D01*
X122284523Y-124400000D01*
X122379761Y-124352380D01*
X122570238Y-124352380D01*
X122665476Y-124400000D01*
X122713095Y-124447619D01*
X122760714Y-124542857D01*
X122760714Y-124590476D01*
X122713095Y-124685714D01*
X122665476Y-124733333D01*
X122570238Y-124780952D01*
X122379761Y-124780952D01*
X122284523Y-124828571D01*
X122236904Y-124876190D01*
X122189285Y-124971428D01*
X122189285Y-125161904D01*
X122236904Y-125257142D01*
X122284523Y-125304761D01*
X122379761Y-125352380D01*
X122570238Y-125352380D01*
X122665476Y-125304761D01*
X122713095Y-125257142D01*
X122760714Y-125161904D01*
X122760714Y-124971428D01*
X122713095Y-124876190D01*
X122665476Y-124828571D01*
X122570238Y-124780952D01*
X121833333Y-127302380D02*
X121500000Y-126826190D01*
X121261904Y-127302380D02*
X121261904Y-126302380D01*
X121642857Y-126302380D01*
X121738095Y-126350000D01*
X121785714Y-126397619D01*
X121833333Y-126492857D01*
X121833333Y-126635714D01*
X121785714Y-126730952D01*
X121738095Y-126778571D01*
X121642857Y-126826190D01*
X121261904Y-126826190D01*
X122309523Y-127302380D02*
X122500000Y-127302380D01*
X122595238Y-127254761D01*
X122642857Y-127207142D01*
X122738095Y-127064285D01*
X122785714Y-126873809D01*
X122785714Y-126492857D01*
X122738095Y-126397619D01*
X122690476Y-126350000D01*
X122595238Y-126302380D01*
X122404761Y-126302380D01*
X122309523Y-126350000D01*
X122261904Y-126397619D01*
X122214285Y-126492857D01*
X122214285Y-126730952D01*
X122261904Y-126826190D01*
X122309523Y-126873809D01*
X122404761Y-126921428D01*
X122595238Y-126921428D01*
X122690476Y-126873809D01*
X122738095Y-126826190D01*
X122785714Y-126730952D01*
X99123095Y-110810380D02*
X99123095Y-111619904D01*
X99170714Y-111715142D01*
X99218333Y-111762761D01*
X99313571Y-111810380D01*
X99504047Y-111810380D01*
X99599285Y-111762761D01*
X99646904Y-111715142D01*
X99694523Y-111619904D01*
X99694523Y-110810380D01*
X100599285Y-110810380D02*
X100408809Y-110810380D01*
X100313571Y-110858000D01*
X100265952Y-110905619D01*
X100170714Y-111048476D01*
X100123095Y-111238952D01*
X100123095Y-111619904D01*
X100170714Y-111715142D01*
X100218333Y-111762761D01*
X100313571Y-111810380D01*
X100504047Y-111810380D01*
X100599285Y-111762761D01*
X100646904Y-111715142D01*
X100694523Y-111619904D01*
X100694523Y-111381809D01*
X100646904Y-111286571D01*
X100599285Y-111238952D01*
X100504047Y-111191333D01*
X100313571Y-111191333D01*
X100218333Y-111238952D01*
X100170714Y-111286571D01*
X100123095Y-111381809D01*
M02*
